<?xml version="1.0" encoding="UTF-8"?><svg id="Layer_2" xmlns="http://www.w3.org/2000/svg" viewBox="0 0 199.62 273.3"><defs><style>.cls-1{stroke-width:.75px;}.cls-1,.cls-2,.cls-3,.cls-4{stroke-miterlimit:10;}.cls-1,.cls-3,.cls-4{fill:none;}.cls-1,.cls-4{stroke:#8f7439;}.cls-5{letter-spacing:-.02em;}.cls-2{fill:#ffeab6;stroke:#010101;stroke-width:3px;}.cls-6{fill:#4c2b19;}.cls-3{stroke:#231f20;stroke-width:4px;}.cls-7{letter-spacing:0em;}.cls-8{fill:#73ccd3;}.cls-9{fill:#e85427;}.cls-10{letter-spacing:-.01em;}.cls-11,.cls-12,.cls-13,.cls-14,.cls-15{fill:#231f20;}.cls-16{font-size:4px;}.cls-16,.cls-17,.cls-18{fill:#f4eddd;}.cls-16,.cls-17,.cls-14{font-family:CreatoDisplay-Bold, 'Creato Display';font-weight:700;}.cls-19{letter-spacing:0em;}.cls-20{fill:#3687c8;}.cls-21{letter-spacing:-.02em;}.cls-4{stroke-width:.5px;}.cls-22{letter-spacing:0em;}.cls-23{letter-spacing:-.06em;}.cls-24{fill:#b89955;}.cls-25{fill:#8f7439;}.cls-26{letter-spacing:-.02em;}.cls-27{letter-spacing:-.03em;}.cls-28{letter-spacing:-.02em;}.cls-29{letter-spacing:0em;}.cls-30{letter-spacing:-.01em;}.cls-31{letter-spacing:-.03em;}.cls-32{letter-spacing:-.03em;}.cls-33{fill:#cf4645;}.cls-34{letter-spacing:-.02em;}.cls-35{letter-spacing:0em;}.cls-36{letter-spacing:0em;}.cls-12{font-family:CreatoDisplay-Italic, 'Creato Display';font-style:italic;}.cls-12,.cls-13{font-size:8px;}.cls-37{fill:#704938;}.cls-38{fill:#c2a863;}.cls-39{letter-spacing:-.03em;}.cls-13{font-family:CreatoDisplay-Regular, 'Creato Display';}.cls-40{letter-spacing:-.02em;}.cls-41{letter-spacing:-.02em;}.cls-17{font-size:7.79px;}.cls-42{letter-spacing:0em;}.cls-43{letter-spacing:0em;}.cls-44{letter-spacing:.02em;}.cls-45{fill:#010101;}.cls-46{fill:#f6c64a;}.cls-47{letter-spacing:-.03em;}.cls-48{letter-spacing:-.04em;}.cls-49{letter-spacing:-.01em;}.cls-50{letter-spacing:-.03em;}.cls-14,.cls-15{font-size:10px;}.cls-15{font-family:CreatoDisplay-Medium, 'Creato Display';font-weight:500;}.cls-51{letter-spacing:-.02em;}.cls-52{letter-spacing:-.02em;}</style></defs><g id="Layer_1-2"><path class="cls-20" d="M12.74,2h174.13c5.93,0,10.74,4.81,10.74,10.74v247.82c0,5.93-4.81,10.74-10.74,10.74H12.74c-5.93,0-10.74-4.81-10.74-10.74V12.74C2,6.81,6.81,2,12.74,2Z"/><path class="cls-11" d="M186.87,4c4.82,0,8.74,3.92,8.74,8.74v247.82c0,4.82-3.92,8.74-8.74,8.74H12.74c-4.82,0-8.74-3.92-8.74-8.74V12.74c0-4.82,3.92-8.74,8.74-8.74h174.13M186.87,0H12.74C5.7,0,0,5.7,0,12.74v247.82c0,7.04,5.7,12.74,12.74,12.74h174.13c7.04,0,12.74-5.7,12.74-12.74V12.74c0-7.04-5.7-12.74-12.74-12.74h0Z"/><rect class="cls-18" x="13.89" y="12.26" width="172.46" height="233.81" rx="10.74" ry="10.74"/><path class="cls-11" d="M175.61,14.26c4.82,0,8.74,3.92,8.74,8.74v212.33c0,4.82-3.92,8.74-8.74,8.74H24.63c-4.82,0-8.74-3.92-8.74-8.74V23c0-4.82,3.92-8.74,8.74-8.74h150.98M175.61,10.26H24.63c-7.04,0-12.74,5.7-12.74,12.74v212.33c0,7.04,5.7,12.74,12.74,12.74h150.98c7.04,0,12.74-5.7,12.74-12.74V23c0-7.04-5.7-12.74-12.74-12.74h0Z"/><line class="cls-3" x1="14.27" y1="35.9" x2="185.23" y2="35.9"/><line class="cls-3" x1="14.27" y1="150.64" x2="185.23" y2="150.64"/><line class="cls-3" x1="14.27" y1="168.44" x2="185.23" y2="168.44"/><text class="cls-14" transform="translate(20.41 29.45)"><tspan x="0" y="0">N</tspan><tspan class="cls-31" x="7.19" y="0">e</tspan><tspan x="12.56" y="0">w</tspan><tspan class="cls-28" x="20.96" y="0">t</tspan><tspan x="24.31" y="0">on</tspan><tspan class="cls-23" x="35.62" y="0">’</tspan><tspan class="cls-35" x="37.25" y="0">s Flaming </tspan><tspan class="cls-29" x="82.82" y="0">L</tspan><tspan class="cls-35" x="88.36" y="0">aser S</tspan><tspan class="cls-31" x="117.51" y="0">w</tspan><tspan x="125.61" y="0">o</tspan><tspan class="cls-41" x="131.4" y="0">r</tspan><tspan x="135.03" y="0">d</tspan></text><text class="cls-15" transform="translate(20.68 162.93)"><tspan class="cls-5" x="0" y="0">L</tspan><tspan x="5.2" y="0">egendary Arti</tspan><tspan class="cls-26" x="66.49" y="0">f</tspan><tspan class="cls-19" x="69.68" y="0">act- Equipme</tspan><tspan class="cls-10" x="128.43" y="0">n</tspan><tspan class="cls-19" x="133.73" y="0">t</tspan></text><text class="cls-16" transform="translate(21.18 254.97)"><tspan x="0" y="0">6</tspan><tspan class="cls-44" x="0" y="4.8">T</tspan><tspan x="2.48" y="4.8">TM - EN</tspan></text><path class="cls-18" d="M45,253.63c.31.07.47.28.47.6v.45c0,.12.02.22.04.29h-.52c-.04-.08-.06-.16-.06-.29v-.43c0-.35-.21-.44-.49-.44h-.65v1.15h-.54v-2.85h1.32c.61,0,.94.32.94.81,0,.36-.18.6-.51.7ZM44.51,252.53h-.72v.88h.72c.32,0,.46-.17.46-.44s-.14-.44-.46-.44Z"/><path class="cls-18" d="M49.13,258.85h.53c.04.38.22.55.66.55s.62-.18.62-.45c0-.2-.11-.32-.54-.39l-.36-.05c-.6-.08-.83-.29-.83-.76,0-.51.36-.88,1.1-.88s1.1.36,1.1.92h-.52c-.04-.34-.22-.51-.6-.51s-.55.18-.55.44c0,.2.09.3.47.35l.36.05c.58.08.9.3.9.8,0,.53-.38.89-1.18.89s-1.17-.35-1.17-.96Z"/><path class="cls-18" d="M51.81,260.18h.21c.24,0,.38-.12.38-.31,0-.06-.01-.13-.04-.2l-.74-1.97h.54l.54,1.66.54-1.66h.54l-.74,1.97c-.25.67-.52.88-1.02.88h-.2v-.37Z"/><path class="cls-18" d="M53.79,258.74c0-.64.36-1.07,1.02-1.07s1.03.44,1.03,1.05c0,.04,0,.08,0,.13h-1.53c.02.42.22.61.53.61.26,0,.42-.13.48-.34h.48c-.09.42-.4.69-.96.69-.67,0-1.05-.42-1.05-1.07ZM54.31,258.51h1.02c-.04-.33-.23-.49-.51-.49s-.46.16-.51.49Z"/><path class="cls-18" d="M56.06,258.74c0-.68.35-1.07.91-1.07.31,0,.52.13.64.35v-1.1h.52v2.85h-.49v-.35c-.11.24-.32.39-.66.39-.56,0-.91-.4-.91-1.07ZM57.6,258.74c0-.47-.21-.68-.52-.68s-.51.21-.51.68.21.68.51.68.52-.21.52-.68Z"/><path class="cls-18" d="M60.23,259.77v-2.4h-.86v-.44h2.28v.44h-.87v2.4h-.54Z"/><path class="cls-18" d="M61.51,259.18c0-.32.19-.57.71-.61l.42-.04c.21-.02.27-.08.27-.18,0-.2-.12-.32-.38-.32-.24,0-.37.1-.39.32h-.51c0-.42.26-.69.9-.69s.9.27.9.69v.88c0,.28.02.46.06.53h-.47c-.06-.08-.09-.16-.09-.32-.12.24-.32.36-.68.36-.48,0-.74-.24-.74-.62ZM62.91,258.91v-.14s-.13.07-.27.08l-.24.02c-.26.02-.36.13-.36.28,0,.18.12.31.38.31.32,0,.5-.24.5-.54Z"/><path class="cls-18" d="M63.76,257.13c0-.15.11-.27.3-.27s.3.12.3.27-.1.27-.3.27-.3-.12-.3-.27ZM63.8,259.77v-2.06h.52v2.06h-.52Z"/><path class="cls-18" d="M67.04,259.77v-1.28c0-.28-.09-.4-.29-.4-.22,0-.39.18-.39.52v1.17h-.5v-1.28c0-.28-.09-.4-.29-.4-.22,0-.39.18-.39.52v1.17h-.5v-2.06h.49v.34c.1-.22.28-.38.56-.38.3,0,.49.13.57.39.1-.24.31-.39.59-.39.42,0,.63.24.63.74v1.36h-.5Z"/><path class="cls-18" d="M67.84,258.74c0-.65.38-1.07,1.05-1.07s1.05.42,1.05,1.07-.38,1.07-1.05,1.07-1.05-.42-1.05-1.07ZM69.42,258.74c0-.46-.19-.68-.54-.68s-.53.22-.53.68.19.68.53.68.54-.22.54-.68Z"/><path class="cls-18" d="M70.15,258.74c0-.65.38-1.07,1.05-1.07s1.05.42,1.05,1.07-.38,1.07-1.05,1.07-1.05-.42-1.05-1.07ZM71.74,258.74c0-.46-.19-.68-.54-.68s-.53.22-.53.68.19.68.53.68.54-.22.54-.68Z"/><path class="cls-18" d="M72.55,259.77v-2.06h.49v.46c.11-.36.29-.49.58-.49.06,0,.14.02.19.03v.45h-.21c-.32,0-.53.23-.53.65v.96h-.52Z"/><path class="cls-18" d="M77.73,259.77v-2.35l-.82,2.35h-.46l-.83-2.35v2.35h-.52v-2.85h.85l.72,2.03.72-2.03h.86v2.85h-.52Z"/><path class="cls-18" d="M78.58,259.18c0-.32.19-.57.71-.61l.42-.04c.21-.02.27-.08.27-.18,0-.2-.12-.32-.38-.32-.24,0-.37.1-.39.32h-.51c0-.42.26-.69.9-.69s.9.27.9.69v.88c0,.28.02.46.06.53h-.47c-.06-.08-.09-.16-.09-.32-.12.24-.32.36-.68.36-.48,0-.74-.24-.74-.62ZM79.98,258.91v-.14s-.13.07-.27.08l-.24.02c-.26.02-.36.13-.36.28,0,.18.12.31.38.31.32,0,.5-.24.5-.54Z"/><path class="cls-18" d="M82.18,259.77v-1.26c0-.28-.1-.42-.35-.42-.27,0-.45.2-.45.53v1.15h-.52v-2.06h.49v.34c.11-.22.3-.38.63-.38.47,0,.71.24.71.74v1.36h-.52Z"/><path class="cls-18" d="M83,259.12h.5c.02.22.12.35.44.35s.42-.13.42-.28c0-.14-.11-.21-.29-.24l-.36-.05c-.48-.07-.66-.23-.66-.58s.25-.65.88-.65.88.28.88.66h-.5c-.02-.17-.08-.32-.39-.32-.26,0-.36.11-.36.27,0,.14.08.2.23.22l.35.05c.46.06.72.22.72.61,0,.37-.27.65-.94.65s-.93-.28-.93-.69Z"/><path class="cls-18" d="M85.09,258.74c0-.65.38-1.07,1.05-1.07s1.05.42,1.05,1.07-.38,1.07-1.05,1.07-1.05-.42-1.05-1.07ZM86.67,258.74c0-.46-.19-.68-.54-.68s-.53.22-.53.68.19.68.53.68.54-.22.54-.68Z"/><path class="cls-18" d="M87.41,258.74c0-.65.38-1.07,1.05-1.07s1.05.42,1.05,1.07-.38,1.07-1.05,1.07-1.05-.42-1.05-1.07ZM88.99,258.74c0-.46-.19-.68-.54-.68s-.53.22-.53.68.19.68.53.68.54-.22.54-.68Z"/><path class="cls-18" d="M89.8,259.77v-2.06h.49v.46c.11-.36.29-.49.58-.49.06,0,.14.02.19.03v.45h-.21c-.32,0-.53.23-.53.65v.96h-.52Z"/><text class="cls-16" transform="translate(153.09 258.09) scale(.58)"><tspan x="0" y="0" xml:space="preserve">TM  </tspan></text><text class="cls-16" transform="translate(157.75 259.42)"><tspan class="cls-43" x="0" y="0">&amp; © Ti</tspan><tspan class="cls-22" x="11.33" y="0">m</tspan><tspan x="14.51" y="0">taim</tspan></text><text class="cls-12" transform="translate(20.68 225.63)"><tspan x="0" y="0">E</tspan><tspan class="cls-52" x="4.65" y="0">v</tspan><tspan x="8.73" y="0">ery genuine </tspan><tspan class="cls-50" x="51.69" y="0">t</tspan><tspan class="cls-36" x="54.1" y="0">e</tspan><tspan class="cls-30" x="58.5" y="0">s</tspan><tspan x="62.36" y="0">t </tspan><tspan class="cls-21" x="67.01" y="0">o</tspan><tspan class="cls-36" x="71.31" y="0">f a theory is an </tspan><tspan class="cls-42" x="124.82" y="0">a</tspan><tspan class="cls-7" x="128.97" y="0">t</tspan><tspan class="cls-47" x="131.62" y="0">t</tspan><tspan class="cls-36" x="134.03" y="0">em</tspan><tspan class="cls-49" x="144.65" y="0">p</tspan><tspan class="cls-7" x="149.14" y="0">t </tspan><tspan class="cls-47" x="0" y="9.6">t</tspan><tspan x="2.42" y="9.6">o </tspan><tspan class="cls-40" x="8.9" y="9.6">f</tspan><tspan class="cls-36" x="11.34" y="9.6">alsify it, or </tspan><tspan class="cls-50" x="48.33" y="9.6">t</tspan><tspan class="cls-7" x="50.74" y="9.6">o </tspan><tspan class="cls-39" x="57.23" y="9.6">r</tspan><tspan class="cls-34" x="59.83" y="9.6">e</tspan><tspan x="64.04" y="9.6">fu</tspan><tspan class="cls-50" x="70.86" y="9.6">t</tspan><tspan class="cls-36" x="73.28" y="9.6">e it</tspan></text><text class="cls-13" transform="translate(20.68 184.78)"><tspan x="0" y="0">When</tspan><tspan class="cls-27" x="20.73" y="0">ev</tspan><tspan x="28.86" y="0">er a spell is cou</tspan><tspan class="cls-49" x="82.56" y="0">n</tspan><tspan class="cls-47" x="86.7" y="0">t</tspan><tspan class="cls-36" x="89.12" y="0">e</tspan><tspan class="cls-32" x="93.51" y="0">r</tspan><tspan class="cls-36" x="96.11" y="0">ed, </tspan><tspan class="cls-48" x="108.58" y="0">e</tspan><tspan x="112.66" y="0">xile it in</tspan><tspan class="cls-49" x="138.03" y="0">s</tspan><tspan class="cls-47" x="141.9" y="0">t</tspan><tspan x="144.31" y="0">ead.</tspan><tspan x="0" y="9.6">Equipped c</tspan><tspan class="cls-39" x="39.22" y="9.6">r</tspan><tspan x="41.82" y="9.6">e</tspan><tspan class="cls-49" x="46.22" y="9.6">a</tspan><tspan class="cls-36" x="50.36" y="9.6">tu</tspan><tspan class="cls-39" x="57.23" y="9.6">r</tspan><tspan x="59.83" y="9.6">e has inde</tspan><tspan class="cls-49" x="95.31" y="9.6">s</tspan><tspan class="cls-36" x="99.18" y="9.6">tructabl</tspan><tspan class="cls-51" x="125.98" y="9.6">e</tspan><tspan x="130.22" y="9.6">.</tspan><tspan x="0" y="28.8" xml:space="preserve">Equip            </tspan></text><path class="cls-45" d="M178.46,155.7c-2.17-2.18-5.69-2.2-7.88-.03-2.18,2.17-2.2,5.69-.03,7.88,2.17,2.18,5.69,2.2,7.88.03,2.18-2.17,2.2-5.69.03-7.88ZM173.83,157.08c.86-.85,1.73-1.36,1.96-1.13.23.23-.28,1.1-1.14,1.95-.86.85-1.73,1.36-1.96,1.13s.28-1.1,1.14-1.95ZM174.68,164.06c-1.19,0-2.51-.33-3.41-1.23-.87-.88-1.21-2.17-1.21-3.41,0-1.24.49-2.39,1.37-3.26l.84.84c-.81.8-1.25,1.86-1.26,3,0,.79.39,1.83.83,2.26.39.33,1.14.87,2.28.88,0,0,0,0,0,0,1.13,0,2.2-.43,3-1.23l.82.82c-.9.9-2.08,1.34-3.27,1.34ZM177.04,160.3c-.85.84-1.71,1.34-1.94,1.12-.22-.23.28-1.09,1.13-1.93.85-.84,1.71-1.34,1.94-1.12.22.23-.28,1.09-1.13,1.93Z"/><path class="cls-18" d="M45.76,256.62c-1.55,0-1.81,1.29-1.81,1.29v-1.12h-.99v.2l.07,2.8h.89l.07-1.15s.33,1.22,1.68,1.15c1.35-.07,2.28-1.46,2.28-1.46,0,0-.63-1.71-2.18-1.71ZM46.06,257.87c-1.27-.02-1.43-.34-1.43-.34,0,0,1.43-1.72,3.15.77,0,0-.45-.42-1.72-.43Z"/><path class="cls-45" d="M173.85,29.13c-2.58,0-4.67-2.1-4.67-4.67s2.1-4.67,4.67-4.67,4.67,2.1,4.67,4.67-2.1,4.67-4.67,4.67Z"/><path class="cls-11" d="M173.85,21.78c1.47,0,2.67,1.2,2.67,2.67s-1.2,2.67-2.67,2.67-2.67-1.2-2.67-2.67,1.2-2.67,2.67-2.67M173.85,17.78c-3.69,0-6.67,2.99-6.67,6.67s2.99,6.67,6.67,6.67,6.67-2.99,6.67-6.67-2.99-6.67-6.67-6.67h0Z"/><path class="cls-20" d="M174.8,20.04c-.16-.4-.54-.69-1-.69s-.85.3-1.01.71c-2.08.48-3.64,2.33-3.64,4.56,0,2.58,2.1,4.68,4.68,4.68s4.69-2.1,4.69-4.68c0-2.25-1.6-4.14-3.72-4.58ZM173.83,28.42c-2.09,0-3.8-1.7-3.8-3.8,0-1.76,1.21-3.23,2.84-3.66.19.32.52.55.92.55s.75-.24.94-.57c1.66.41,2.9,1.9,2.9,3.68,0,2.09-1.7,3.8-3.8,3.8Z"/><circle class="cls-20" cx="173.85" cy="24.46" r="1.99"/><path class="cls-45" d="M46.06,213.62c-1.35,0-2.45-1.1-2.45-2.45s1.1-2.45,2.45-2.45,2.45,1.1,2.45,2.45-1.1,2.45-2.45,2.45Z"/><path class="cls-11" d="M46.06,210.72c.25,0,.45.2.45.45s-.2.45-.45.45-.45-.2-.45-.45.2-.45.45-.45M46.06,206.72c-2.46,0-4.45,1.99-4.45,4.45s1.99,4.45,4.45,4.45,4.45-1.99,4.45-4.45-1.99-4.45-4.45-4.45h0Z"/><text class="cls-17" transform="translate(43.36 213.71) scale(1.2 1)"><tspan x="0" y="0">2</tspan></text><path class="cls-45" d="M55.9,213.6c-1.35,0-2.45-1.1-2.45-2.45s1.1-2.45,2.45-2.45,2.45,1.1,2.45,2.45-1.1,2.45-2.45,2.45Z"/><path class="cls-11" d="M55.9,210.71c.25,0,.45.2.45.45s-.2.45-.45.45-.45-.2-.45-.45.2-.45.45-.45M55.9,206.71c-2.46,0-4.45,1.99-4.45,4.45s1.99,4.45,4.45,4.45,4.45-1.99,4.45-4.45-1.99-4.45-4.45-4.45h0Z"/><path class="cls-20" d="M56.53,208.21c-.11-.27-.36-.46-.67-.46s-.57.2-.67.47c-1.39.32-2.43,1.56-2.43,3.04,0,1.72,1.4,3.12,3.12,3.12s3.12-1.4,3.12-3.12c0-1.5-1.07-2.76-2.48-3.05ZM55.88,213.8c-1.4,0-2.53-1.14-2.53-2.53,0-1.17.81-2.16,1.89-2.44.12.22.35.37.62.37s.5-.16.62-.38c1.11.27,1.93,1.26,1.93,2.45,0,1.4-1.14,2.53-2.53,2.53Z"/><circle class="cls-20" cx="55.9" cy="211.15" r="1.33"/><rect class="cls-2" x="14.09" y="35.42" width="171.78" height="114.74"/><path class="cls-25" d="M77.82,125.94l-7.02-16.4-.44.14c-.1-2.8-.23-5.81-.33-5.84-.18-.06-13.27-6.51-13.27-6.51l-4.81,2.15c4.99-1.46,8.6.92,13.64,7.71l-31.26,10.79,2.6,8.28,29.26-11.41-.09.07s3.23-1.34,5.27,1.34l5.12,9.48,1.34.2Z"/><path class="cls-37" d="M64.73,130.64c-.64-4.54-.66-7.98-.24-10.63l2.01-1.39-.47-3.2-4.9-2.71-19.99,11.09v4.9l1.53,2.36s1.82,3.16,3.95,3.37c0,0,3.55,10.64,2.64,13.41l2.19-.58.21,1.36h23.95s-10.88-18-10.88-18Z"/><path class="cls-6" d="M64.97,122.56c1.81-2.32,1.61-4.9,1.61-4.9l-.68-4.13-3.84-1.48c-.07-1.37-.38-3.16-1.16-5.39-2.13-6.13-7.45-2.85-7.45-2.85,0,0,.07.08.14.29l-.14-.29c-.8.48-.73,2.38-.9,3.7,0,0,1.92,4.54,3.79,7.28l-9.49,2.94-4.27,4.79c-.2-1.15-2.08-11.8-3.79-5.63-1.81,6.51,3.87,14.18,3.87,14.18-2.06-3.68-1.1-7.41-1.1-7.41,0,0,5.93.06,9.74-2.45,2.57-1.7,3.25.07,3.43,1.4-1.62,1.43-2.4,2.79-2.4,2.79,0,0,3.09,4,6.71,3.55,3.61-.45,5.82,2.02,5.82,2.02-1.16-5.22.11-8.4.11-8.4ZM55.03,122.34c1.09-3.79,5.22-4.42,5.22-4.42,0,0,4.9-4.38,5.61-2.06.71,2.32-1.93,3.55-1.93,3.55-4.09-.16-7.01,1.38-8.9,2.94Z"/><path class="cls-9" d="M169.95,59.49s-12.05-2.33-25.21,3.1c-13.16,5.43-77.04,35.61-77.04,35.61l-2.06,1.39,5.93,4.83.16-.92,3.18,2.93,95.04-46.93Z"/><path class="cls-46" d="M143.97,52.95s.03-.26,0-.59c-.06.21-.08.41,0,.59Z"/><path class="cls-46" d="M132.52,39.68s1.25,1.58,3.16,3.08c-.76-.99-1.78-2.03-3.16-3.08Z"/><path class="cls-46" d="M169.96,59.6s-.09-.07-.23-.17c.11.1.19.16.23.17Z"/><path class="cls-46" d="M179.78,38.9c.16,5.6-8.62,10.65-8.62,10.65,2.37-1.16,2.07-5.25,2.07-5.25-.97,4.63-5.84,5.12-5.84,5.12,0,0-2.37-6.03-.37-6.64,2.01-.61,6.88-11.96,5.01-8.8-1.87,3.17-5.54,3.64-5.54,3.64-5.28,2.68-4.63,7.3-5.84,12.66-1.22,5.36-7.14,3.33-7.14,3.33,0,0-.65,0-4.3,4.3-2.79,3.29-8.33,4.02-10.79,4.17-.32-.39-1.51-2.11-.66-4.66.97-2.92,2.56-2.19,2.56-2.19,0,0-2.07-2.07.97-3.77,2.18-1.22,2.61.05,2.68.87.34-1.12,2.31-2.58,2.31-2.58,1.1-3.41,2.68-3.04,2.68-3.04-1.46-.85,1.1-4.38,1.1-4.38,4.99-5.24,1.1-9.25,1.1-9.25l.12,2.07c-4.47,13.58-11.53,10.77-15.59,7.58,3.27,4.26,1.59,7.63,1.59,7.63,0,0-3.77,2.07-4.14,6.7-.37,4.63-2.44,3.17-2.44,3.17,0,0-3.04,7.31-4.63,5.84-3.53-2.31-1.95-4.26-2.31-2.31-.37,1.95-8.64,9.13-8.64,9.13-.61-4.14,1.7-7.18,1.7-7.18,0,0-2.68.12-2.92,4.87-.17,3.29-3.37,4.88-5.32,5.55-.69-.76-1.29-1.17-1.29-1.17,5.19-3.73,3.08-5.19,3.08-5.19,12.99-7.47,4.55-15.91,4.55-15.91,4.87,7.79-6.66,11.2-6.66,11.2-.49,6.66-4.87,7.63-4.87,7.63,0,0-3.41,7.47-7.95,7.79-2.6.19-.74-4.25,1.33-8.08-10.23,16.54-14.04,16.04-15.27,14.87-.15-5.26,8.37-12.07,8.37-12.07-15.26,3.25-15.1,10.71-16.31,12.82s-6.98.57-6.33,3.9c.65,3.33-4.06,4.46-4.06,4.46l8.73,8.6s47.52-10.8,22.08-11.77c-2.47-.09-4.49-.34-6.14-.71,1.7-1.99,5.3-5.91,11.17-10.9,8.6-7.3-.32,10.39-.32,10.39l3.41-1.62,2.76-10.23s3.25-2.76,3.73-.16c.49,2.6-4.06,8.77-4.06,8.77l2.76-1.14c3.97-4.24,3.62-7.61,2.48-9.81,8.58-5.75,7.59,1.57,7.59,1.57,1.79-10.71,14.04-12.09,14.04-12.09-10.39,2.92-9.74,14.69-9.74,14.69l3.17-.89c-.89-5.03,7.22-9.82,7.22-9.82,1.62,4.63-6.41,8.2-6.41,8.2l8.97-4.02c-1.34-3.65,2.68-4.87,2.68-4.87,0,0,2.56-2.8,2.8-5.11.07-.69-.05-1.25-.24-1.71,2.38-1.6,8.52-1.39,8.52-1.39-3.35,1.64-5.36,10.47-5.36,10.47l2.62-.97c.79-6.15,8.64-10.96,8.64-10.96,0,0-2.19,5.24,3.1,4.26,5.3-.97,4.32-3.04,4.32-3.04,0,0-4.02,1.7-.85-2.8,2.81-3.99,7.8-.71,8.9.09-.66-.62-2.04-2.96,4.61-6.81,7.71-4.46,5.44-13.72,5.44-13.72ZM87.43,92.44c-3.29-.8-4.98-2.11-5.62-3.66,6.62,1.04,10.3-5.7,10.8-6.69l-5.18,10.35Z"/><path class="cls-33" d="M97.27,72.74l-1.04-.6c1.54-2.86,4.26-4.81,4.26-4.81-1.1,1.91-2.15,3.68-3.22,5.41Z"/><path class="cls-33" d="M135.31,43.23c-1.94-1.52-3.21-3.11-3.26-3.18l-2.99-3.79,3.83,2.94c1.32,1.01,2.42,2.09,3.27,3.19l-.85.84Z"/><path class="cls-33" d="M172.92,61.15l-3.14-.97c-.05-.02-.2-.06-.46-.31l.77-.92.24.18,2.59,2.02Z"/><path class="cls-33" d="M71.7,105.67l-9.73-9.59,1.05-.26s4.14-1.04,3.61-3.76c-.14-.72-.04-1.33.3-1.82.65-.95,2.02-1.19,3.34-1.42,1.17-.21,2.39-.42,2.77-1.07.16-.28.32-.74.49-1.27,1.06-3.16,3.05-9.05,16.22-11.85l2.49-.53-1.99,1.59c-.08.06-7.99,6.44-8.15,11.31.26.16.57.22.95.17,1.58-.2,5.39-2.43,13.21-15.07l1.04.6c-3.03,5.6-2.55,6.86-2.43,7.05.03.04.1.18.52.14,4.13-.3,7.42-7.37,7.45-7.44l.12-.27.29-.07c.16-.04,3.96-1,4.4-7.09l.03-.42.4-.12c.06-.02,5.77-1.75,7.13-5.36.57-1.5.29-3.17-.82-4.95l-2.8-4.48,3.74,3.74c.14.14,3.39,3.45,2.8,7.88-.18,1.32-.67,2.59-1.48,3.81.08-.01.12-.01.14-.01l1.28-.06-.77,1.02s-1.73,2.34-1.68,5.58c3.27-2.91,7.34-6.9,7.55-8,.4-2.14,5.47-4.05,5.47-4.05-.89.73-3.2,2.97-3.12,4.63.03.53.31.97.88,1.34l.16.09c.83-.18,2.5-3.08,3.58-5.66l.29-.69.61.43s.3.19.56.06c.17-.08.75-.53.93-2.79.34-4.35,3.45-6.56,4.26-7.07.26-.66,1.05-3.4-1.59-6.85l-2.91-3.79,3.76,2.95c1.91,1.5,4.79,3.12,7.61,2.26,2.85-.86,5.21-4.04,7-9.45l-.21-3.57,1.13,1.16s4.24,4.5-1.09,10.09c-.63.88-1.52,2.53-1.37,3.24.03.12.07.17.14.2l3.42,2-3.86-.89h0c-.08,0-1.12.02-1.97,2.64l-.06.18-.16.12c-.7.52-1.89,1.6-2.1,2.27l-.91,2.98-.26-3.11c-.02-.19-.08-.65-.32-.78-.25-.13-.8,0-1.46.38-.81.46-1.26.95-1.34,1.48-.1.71.49,1.33.5,1.34l2.27,2.33-2.95-1.36h0s-.24-.08-.55.06c-.32.15-.79.58-1.19,1.78-.63,1.9.01,3.27.38,3.85,2.4-.19,7.49-.94,10.04-3.94,3.83-4.51,4.53-4.51,4.76-4.51l.19.03s2.65.88,4.53-.18c.92-.51,1.53-1.43,1.83-2.71.26-1.16.44-2.28.61-3.37.62-4.01,1.16-7.46,5.55-9.7.14-.05,6.97-4.26,6.97-4.26.02.82-3.89,9.89-5.99,10.53-.07.02-.16.07-.24.23-.44.91.18,3.38.78,5.06,1.37-.63,6.94-5.72,7-5.61-.04.34-.27,2.2-.95,3.96,2.43-1.91,5.49-4.95,5.4-8.09l-.16-5.66,1.35,5.5c.02.1,2.29,9.74-5.72,14.38-4.04,2.34-4.8,3.97-4.88,4.73-.07.62.25.99.39,1.12l-.77.93c-.73-.53-3.31-2.24-5.61-1.86-1,.17-1.8.7-2.45,1.63-1.22,1.73-1.11,2.19-1.1,2.21.11.02.74-.1,1.23-.31l.53-.22.25.52c.03.07.32.73-.09,1.53-.56,1.1-2.13,1.89-4.66,2.36-1.75.32-2.99.05-3.69-.82-.6-.75-.65-1.76-.53-2.61-2.21,1.64-6.49,5.32-7.05,9.61l-.05.36-4,1.49.25-1.09c.07-.32,1.57-6.77,4.23-9.73-1.78.05-4.52.27-6.08,1.05.13.48.17.98.11,1.5-.26,2.48-2.85,5.34-2.95,5.46l-.11.12-.16.05s-1.65.52-2.28,1.79c-.33.66-.33,1.43-.01,2.29l.19.53-9.45,4.24s-.02,0-.03.01l-.38-.84c-.15.6-.2,1.2-.09,1.81l.1.54-4.41,1.25-.04-.75c0-.1-.35-7.74,4.83-12.41-3.31,1.57-7.04,4.5-7.94,9.88l-1.19-.18c.08-.6.08-2.28-.85-2.86-.95-.59-2.85-.03-5.37,1.59,1,2.29,1.17,5.76-2.81,10l-.21.14-4.73,1.95-.18.68-4.47,2.13c3.26.43,3.87,1.16,3.94,1.92.32,3.45-20.9,8.65-30.03,10.73l-.32.07ZM64.3,96.68l7.78,7.67c13.74-3.14,28.57-7.59,28.78-9.37-.04-.07-.59-.89-6.91-1.13-2.38-.09-4.47-.33-6.19-.71h0s-1.03-.23-1.03-.23l.02-.02c-2.91-.8-4.76-2.1-5.49-3.88l-.41-.99.87.14c-.26-.12-.47-.28-.62-.43l-.18-.17v-.25c-.12-3.94,4.16-8.53,6.73-10.93-10.38,2.81-12.04,7.75-12.96,10.49-.2.59-.37,1.09-.59,1.48-.66,1.14-2.16,1.41-3.6,1.66-1.08.19-2.19.38-2.56.92-.15.22-.18.51-.1.9.5,2.57-1.71,4.15-3.52,4.85ZM88.97,92.15c1.46.26,3.14.42,5.03.49,1.43.06,2.6.14,3.57.25l.57-1.13c2.71-5.37,4.54-10.65,3.91-11.28,0,0,.02,0-.04,0-.16,0-.83.11-2.62,1.63-5.17,4.39-8.57,7.96-10.42,10.05ZM82.94,89.49c.81.96,2.21,1.72,4.17,2.25l2.37-4.74c-1.65,1.4-3.84,2.59-6.54,2.49ZM102.02,79.27c.3,0,.55.09.77.26,1.6,1.26-1,7.41-2.82,11.21l1.6-.76,2.74-10.14.14-.12c.36-.31,2.23-1.81,3.6-1.32.41.14.94.52,1.12,1.51.37,1.96-1.63,5.45-3,7.55l.76-.31c2.97-3.21,3.74-6.24,2.29-9.02l-.25-.48.45-.3c3.29-2.21,5.62-2.83,7.12-1.89.44.27.75.65.96,1.07,3.28-8.51,14-9.27,14-9.27-8.31,2.34-9.18,11.37-9.26,13.96l1.9-.54c-.35-5.16,7.24-9.7,7.58-9.9l.63-.37.24.69c.71,2.02-.15,3.82-1.46,5.27l2.72-1.22c-.25-.98-.17-1.89.24-2.71.73-1.47,2.3-2.15,2.83-2.34.46-.53,2.36-2.81,2.55-4.66.05-.5-.01-.97-.2-1.42l-.19-.46.41-.28c2.51-1.68,8.62-1.5,8.88-1.49l2.41.08-2.16,1.06c-2.21,1.08-3.98,6.12-4.76,8.97l1.21-.45c1.06-6.18,8.55-10.83,8.87-11.03l1.58-.97-.71,1.71c-.24.58-.73,2.26-.09,3.05.49.61,1.65.55,2.53.39,2.58-.47,3.45-1.18,3.74-1.6-.6.12-1.32.13-1.72-.37-.55-.67-.21-1.79,1.07-3.62.84-1.19,1.92-1.9,3.24-2.12,1.79-.3,3.66.41,4.97,1.12,0-.08,0-.16.02-.25.2-1.75,2.04-3.65,5.48-5.63,4.43-2.57,5.4-6.76,5.46-9.71-1.9,3.7-8.81,7.43-8.6,7.29.5-.37,1.21-1.87,1.53-2.6-2.06,2.01-4.71,2.87-4.88,2.92l-.53.17-.21-.52c-.19-.48-1.83-4.76-.95-6.58.21-.43.54-.72.97-.85.78-.24,2.64-3.61,3.9-6.29-1.88,1.61-3.96,2.25-4.08,2.29-3.74,1.91-4.21,4.94-4.81,8.77-.17,1.11-.35,2.26-.62,3.45-.37,1.63-1.19,2.81-2.42,3.5-2,1.12-4.47.56-5.26.34-.32.22-1.35,1.05-3.9,4.05-2.97,3.5-8.83,4.23-11.21,4.39l-.31.02-.2-.24c-.42-.52-1.69-2.42-.76-5.23.44-1.32,1.07-2.17,1.88-2.51.06-.03.12-.05.17-.07-.16-.38-.26-.84-.19-1.34.13-.93.78-1.73,1.95-2.38,1.1-.61,1.95-.74,2.61-.39.19.1.36.24.5.42.58-.7,1.33-1.31,1.66-1.57.66-1.96,1.52-2.77,2.2-3.09,0-.02-.01-.04-.02-.06-.32-1.49,1.29-3.81,1.62-4.26,2.55-2.68,2.65-4.96,2.23-6.49-1.93,5.78-4.55,9.2-7.78,10.18-1.98.6-4.17.26-6.45-.97,1.48,3.36.31,5.81.24,5.93l-.08.17-.16.09c-.14.08-3.5,1.99-3.83,6.22-.17,2.11-.7,3.35-1.62,3.78-.38.18-.76.18-1.09.11-.78,1.78-2.58,5.48-4.2,5.83-.42.09-.84-.02-1.16-.32-.8-.52-1.3-1.31-1.34-2.23,0-.1,0-.2,0-.31-.6,2.15-7.43,8.16-8.81,9.36l-.83.72-.16-1.09c-.08-.56-.11-1.1-.11-1.62-.59,3.14-3.73,4.68-5.64,5.34l-.38.13-.27-.3c-.62-.69-1.18-1.07-1.18-1.07l-.72-.48.7-.51c2.9-2.09,3.25-3.3,3.26-3.72,0-.34-.16-.48-.18-.5l-.68-.55.74-.45c4.17-2.4,6.48-5.11,6.88-8.08.15-1.1.01-2.13-.26-3.05-.05.49-.16.96-.34,1.43-1.37,3.61-6.1,5.47-7.52,5.96-.57,5.75-3.96,7.33-5.01,7.68-.66,1.36-3.93,7.58-8.34,7.89-.91.06-1.39-.34-1.62-.69-.24-.37-.43-.95-.2-2.12-4.15,5.97-7.49,9.32-9.97,9.98,5.12-.35,8.03-5.75,8.38-6.45h0s0,0,0,0l1.08.54-3.78,7.56c2.01-2.16,5.06-5.19,9.25-8.75,1.52-1.29,2.62-1.91,3.41-1.91ZM105.38,80.52l-2.59,9.6,1.25-1.7c1.22-1.66,4.31-6.38,3.95-8.3-.06-.34-.18-.54-.34-.59-.5-.17-1.59.45-2.27.99ZM131.64,72.26c-1.52,1.02-5.05,3.64-6.03,6.57,1.15-.56,6.33-3.27,6.03-6.57ZM108.27,75c.14.13.31.28.48.45,1.79-.68,4.41-2.13,4.55-4.88.05-.89.17-1.64.36-2.26-.72.57-1.52,1.13-2.41,1.67.09.2.15.45.15.75.01,1.23-1.04,2.67-3.12,4.28ZM114.79,68.71c-.02.07-.04.13-.05.2.02-.07.04-.14.05-.2Z"/><path class="cls-8" d="M169.96,59.6s-5.76,10.84-18.26,17.65-76.13,37.5-76.13,37.5l-1.46-4.55-.41-6.23,96.26-44.38Z"/><path class="cls-38" d="M71.1,102.94l98.86-43.34-68.91,33.36s-13.39,11.44-14.85,11.2-5.11.51-7.12,1.12-4.14,5.05-4.14,5.05l-3.84-7.39Z"/><path class="cls-37" d="M54.5,105.68l12.25,1.09-.62,8.15s-12.96-3.91-11.63-9.23Z"/><path class="cls-37" d="M38.63,114.08c.1-.16,2.71-.84,2.71-.84,0,0,5.61,1.87,4.96,8.12,0,0-2.39,2.06-4.19,2.13,0,0-4.9-7.16-3.48-9.41Z"/><path class="cls-37" d="M43.2,114.21s-1.42-4,1.61-4.77c3.03-.77,6.58,8.32,6.58,8.32,0,0,1.03,2.71-1.23,3.68-2.26.97-3.93-.71-3.93-.71l-3.03-6.51Z"/><path class="cls-37" d="M47.07,110.92s-.52-4.26,2-5.29,5.35,3.8,5.35,3.8c0,0,3.55,6.58,1.87,8.45,0,0-2.06,1.03-5.42-.64s-3.8-6.32-3.8-6.32Z"/><path class="cls-38" d="M37.09,131.7s-12.78-25.08,8.4-35.67c21.18-10.59,29.59,13.76,29.59,13.76l.97,5.72,3.65,1.95-.85,8.52h-1.22s-8.16-20.58-13.88-24.47c-5.72-3.9-14.61,0-14.61,0,0,0-12.42,5.36-10.35,20.94,0,0,1.58,9.25,4.02,11.2l-5.72-1.95Z"/><circle class="cls-24" cx="28.96" cy="125.52" r="6.42"/><path class="cls-6" d="M52.33,125.4s-4.96,7.73-10.97,1.56c0,0,.51,3.92,2.46,5.74s2.79,1.75,2.79,1.75l2.37,9.46s.57,3.9-.41,4.26l2.87-.89.19,1.35,6.76.02-7.34-17.53s1.82-3.65,1.28-5.72Z"/><path class="cls-1" d="M28.51,124.94s-.04-.04-.1-.11c-.31-.33-1.28-1.25-2.07-.61-.95.77-1.81,2.39-.05,3.93s3.8.99,4.47.36,2.76-4.56.18-4.97-2.44,1.4-2.44,1.4Z"/><path class="cls-4" d="M27.93,124.12s-1.27-1.66.15-2.5,1.87,0,1.87,0c0,0-2.32.96-2.02,2.5Z"/></g></svg>