<?xml version="1.0" encoding="UTF-8"?><svg id="Layer_2" xmlns="http://www.w3.org/2000/svg" viewBox="0 0 199.52 273.17"><defs><style>.cls-1{fill:none;stroke:#231f20;stroke-width:4px;}.cls-1,.cls-2,.cls-3,.cls-4{stroke-miterlimit:10;}.cls-5{letter-spacing:0em;}.cls-6{letter-spacing:-.03em;}.cls-7{fill:#7f8080;}.cls-8{letter-spacing:-.01em;}.cls-9,.cls-10,.cls-11,.cls-12,.cls-13{fill:#231f20;}.cls-14{font-size:4px;}.cls-14,.cls-12,.cls-15{font-family:CreatoDisplay-Bold, 'Creato Display';font-weight:700;}.cls-14,.cls-15,.cls-16{fill:#f4eddd;}.cls-17{fill:#fff;}.cls-18{letter-spacing:0em;}.cls-19{letter-spacing:0em;}.cls-2{fill:#693131;}.cls-2,.cls-3,.cls-4{stroke:#f4eddd;}.cls-20{letter-spacing:-.01em;}.cls-21{fill:#f2ae70;}.cls-22{letter-spacing:-.02em;}.cls-23{fill:#9695c9;}.cls-24{letter-spacing:-.03em;}.cls-25{fill:#434380;}.cls-26{letter-spacing:0em;}.cls-27{letter-spacing:0em;}.cls-10{font-family:CreatoDisplay-Italic, 'Creato Display';font-style:italic;}.cls-10,.cls-11{font-size:8px;}.cls-28{letter-spacing:-.03em;}.cls-11{font-family:CreatoDisplay-Regular, 'Creato Display';}.cls-29{letter-spacing:-.02em;}.cls-12{font-size:11px;}.cls-30{fill:#76bee9;}.cls-3{fill:#d24651;}.cls-15{font-size:11.69px;}.cls-31{letter-spacing:-.03em;}.cls-32{letter-spacing:0em;}.cls-33{letter-spacing:0em;}.cls-34{letter-spacing:.02em;}.cls-35{fill:#010101;}.cls-4{fill:#7b3751;}.cls-36{letter-spacing:-.03em;}.cls-37{letter-spacing:-.01em;}.cls-38{letter-spacing:-.02em;}.cls-39{letter-spacing:-.04em;}.cls-40{letter-spacing:-.03em;}.cls-13{font-family:CreatoDisplay-Medium, 'Creato Display';font-size:10px;font-weight:500;}.cls-41{letter-spacing:-.02em;}.cls-42{fill:#ea5d85;}.cls-43{letter-spacing:-.01em;}.cls-44{fill:#295676;}.cls-45{letter-spacing:-.02em;}.cls-46{letter-spacing:0em;}</style></defs><g id="Layer_1-2"><path class="cls-7" d="M12.74,2h174.03c5.93,0,10.74,4.81,10.74,10.74v247.69c0,5.93-4.81,10.74-10.74,10.74H12.74c-5.93,0-10.74-4.81-10.74-10.74V12.74C2,6.81,6.81,2,12.74,2Z"/><path class="cls-9" d="M186.78,4c4.82,0,8.74,3.92,8.74,8.74v247.69c0,4.82-3.92,8.74-8.74,8.74H12.74c-4.82,0-8.74-3.92-8.74-8.74V12.74c0-4.82,3.92-8.74,8.74-8.74h174.03M186.78,0H12.74C5.7,0,0,5.7,0,12.74v247.69c0,7.04,5.7,12.74,12.74,12.74h174.03c7.04,0,12.74-5.7,12.74-12.74V12.74c0-7.04-5.7-12.74-12.74-12.74h0Z"/><path class="cls-16" d="M24.53,12.26h150.98c5.93,0,10.74,4.81,10.74,10.74v212.33c0,5.93-4.81,10.74-10.74,10.74H24.53c-5.93,0-10.74-4.81-10.74-10.74V23c0-5.93,4.81-10.74,10.74-10.74Z"/><path class="cls-9" d="M175.5,14.26c4.82,0,8.74,3.92,8.74,8.74v212.33c0,4.82-3.92,8.74-8.74,8.74H24.53c-4.82,0-8.74-3.92-8.74-8.74V23c0-4.82,3.92-8.74,8.74-8.74h150.98M175.5,10.26H24.53c-7.04,0-12.74,5.7-12.74,12.74v212.33c0,7.04,5.7,12.74,12.74,12.74h150.98c7.04,0,12.74-5.7,12.74-12.74V23c0-7.04-5.7-12.74-12.74-12.74h0Z"/><line class="cls-1" x1="14.16" y1="35.9" x2="185.13" y2="35.9"/><line class="cls-1" x1="14.16" y1="150.64" x2="185.13" y2="150.64"/><line class="cls-1" x1="14.16" y1="168.44" x2="185.13" y2="168.44"/><text class="cls-12" transform="translate(20.3 29.45)"><tspan x="0" y="0">Stude</tspan><tspan class="cls-43" x="29.79" y="0">n</tspan><tspan class="cls-26" x="35.75" y="0">t </tspan><tspan class="cls-41" x="42.44" y="0">A</tspan><tspan class="cls-26" x="50.05" y="0">dobe Subscri</tspan><tspan class="cls-18" x="116.38" y="0">p</tspan><tspan x="122.75" y="0">tion</tspan></text><text class="cls-13" transform="translate(20.57 162.93)"><tspan x="0" y="0">Arti</tspan><tspan class="cls-29" x="16.17" y="0">f</tspan><tspan x="19.36" y="0">act- C</tspan><tspan class="cls-38" x="46.89" y="0">r</tspan><tspan x="50.33" y="0">e</tspan><tspan class="cls-8" x="55.91" y="0">a</tspan><tspan x="61.21" y="0">ti</tspan><tspan class="cls-24" x="66.72" y="0">v</tspan><tspan x="71.82" y="0">e Sui</tspan><tspan class="cls-31" x="93.66" y="0">t</tspan><tspan x="96.85" y="0">e</tspan></text><text class="cls-14" transform="translate(21.08 254.97)"><tspan x="0" y="0">12</tspan><tspan class="cls-34" x="0" y="4.8">T</tspan><tspan x="2.48" y="4.8">TM - EN</tspan></text><path class="cls-16" d="M43.1,253.89v-1.77h.54v1.72c0,.54.2.72.67.72s.68-.19.68-.72v-1.72h.54v1.77c0,.74-.4,1.12-1.22,1.12s-1.22-.38-1.22-1.12Z"/><path class="cls-16" d="M49.03,258.85h.53c.04.38.22.55.66.55s.62-.18.62-.45c0-.2-.11-.32-.54-.39l-.36-.05c-.6-.08-.83-.29-.83-.76,0-.51.36-.88,1.1-.88s1.1.36,1.1.92h-.52c-.04-.34-.22-.51-.6-.51s-.55.18-.55.44c0,.2.09.3.47.35l.36.05c.58.08.9.3.9.8,0,.53-.38.89-1.18.89s-1.17-.35-1.17-.96Z"/><path class="cls-16" d="M51.71,260.18h.21c.24,0,.38-.12.38-.31,0-.06-.01-.13-.04-.2l-.74-1.97h.54l.54,1.66.54-1.66h.54l-.74,1.97c-.25.67-.52.88-1.02.88h-.2v-.37Z"/><path class="cls-16" d="M53.69,258.74c0-.64.36-1.07,1.02-1.07s1.03.44,1.03,1.05c0,.04,0,.08,0,.13h-1.53c.02.42.22.61.53.61.26,0,.42-.13.48-.34h.48c-.09.42-.4.69-.96.69-.67,0-1.05-.42-1.05-1.07ZM54.2,258.51h1.02c-.04-.33-.23-.49-.51-.49s-.46.16-.51.49Z"/><path class="cls-16" d="M55.96,258.74c0-.68.35-1.07.91-1.07.31,0,.52.13.64.35v-1.1h.52v2.85h-.49v-.35c-.11.24-.32.39-.66.39-.56,0-.91-.4-.91-1.07ZM57.5,258.74c0-.47-.21-.68-.52-.68s-.51.21-.51.68.21.68.51.68.52-.21.52-.68Z"/><path class="cls-16" d="M60.13,259.77v-2.4h-.86v-.44h2.28v.44h-.87v2.4h-.54Z"/><path class="cls-16" d="M61.41,259.18c0-.32.19-.57.71-.61l.42-.04c.21-.02.27-.08.27-.18,0-.2-.12-.32-.38-.32-.24,0-.37.1-.39.32h-.51c0-.42.26-.69.9-.69s.9.27.9.69v.88c0,.28.02.46.06.53h-.47c-.06-.08-.09-.16-.09-.32-.12.24-.32.36-.68.36-.48,0-.74-.24-.74-.62ZM62.81,258.91v-.14s-.13.07-.27.08l-.24.02c-.26.02-.36.13-.36.28,0,.18.12.31.38.31.32,0,.5-.24.5-.54Z"/><path class="cls-16" d="M63.66,257.13c0-.15.11-.27.3-.27s.3.12.3.27-.1.27-.3.27-.3-.12-.3-.27ZM63.7,259.77v-2.06h.52v2.06h-.52Z"/><path class="cls-16" d="M66.94,259.77v-1.28c0-.28-.09-.4-.29-.4-.22,0-.39.18-.39.52v1.17h-.5v-1.28c0-.28-.09-.4-.29-.4-.22,0-.39.18-.39.52v1.17h-.5v-2.06h.49v.34c.1-.22.28-.38.56-.38.3,0,.49.13.57.39.1-.24.31-.39.59-.39.42,0,.63.24.63.74v1.36h-.5Z"/><path class="cls-16" d="M67.74,258.74c0-.65.38-1.07,1.05-1.07s1.05.42,1.05,1.07-.38,1.07-1.05,1.07-1.05-.42-1.05-1.07ZM69.32,258.74c0-.46-.19-.68-.54-.68s-.53.22-.53.68.19.68.53.68.54-.22.54-.68Z"/><path class="cls-16" d="M70.05,258.74c0-.65.38-1.07,1.05-1.07s1.05.42,1.05,1.07-.38,1.07-1.05,1.07-1.05-.42-1.05-1.07ZM71.63,258.74c0-.46-.19-.68-.54-.68s-.53.22-.53.68.19.68.53.68.54-.22.54-.68Z"/><path class="cls-16" d="M72.45,259.77v-2.06h.49v.46c.11-.36.29-.49.58-.49.06,0,.14.02.19.03v.45h-.21c-.32,0-.53.23-.53.65v.96h-.52Z"/><path class="cls-16" d="M77.63,259.77v-2.35l-.82,2.35h-.46l-.83-2.35v2.35h-.52v-2.85h.85l.72,2.03.72-2.03h.86v2.85h-.52Z"/><path class="cls-16" d="M78.48,259.18c0-.32.19-.57.71-.61l.42-.04c.21-.02.27-.08.27-.18,0-.2-.12-.32-.38-.32-.24,0-.37.1-.39.32h-.51c0-.42.26-.69.9-.69s.9.27.9.69v.88c0,.28.02.46.06.53h-.47c-.06-.08-.09-.16-.09-.32-.12.24-.32.36-.68.36-.48,0-.74-.24-.74-.62ZM79.87,258.91v-.14s-.13.07-.27.08l-.24.02c-.26.02-.36.13-.36.28,0,.18.12.31.38.31.32,0,.5-.24.5-.54Z"/><path class="cls-16" d="M82.08,259.77v-1.26c0-.28-.1-.42-.35-.42-.27,0-.45.2-.45.53v1.15h-.52v-2.06h.49v.34c.11-.22.3-.38.63-.38.47,0,.71.24.71.74v1.36h-.52Z"/><path class="cls-16" d="M82.89,259.12h.5c.02.22.12.35.44.35s.42-.13.42-.28c0-.14-.11-.21-.29-.24l-.36-.05c-.48-.07-.66-.23-.66-.58s.25-.65.88-.65.88.28.88.66h-.5c-.02-.17-.08-.32-.39-.32-.26,0-.36.11-.36.27,0,.14.08.2.23.22l.35.05c.46.06.72.22.72.61,0,.37-.27.65-.94.65s-.93-.28-.93-.69Z"/><path class="cls-16" d="M84.99,258.74c0-.65.38-1.07,1.05-1.07s1.05.42,1.05,1.07-.38,1.07-1.05,1.07-1.05-.42-1.05-1.07ZM86.57,258.74c0-.46-.19-.68-.54-.68s-.53.22-.53.68.19.68.53.68.54-.22.54-.68Z"/><path class="cls-16" d="M87.3,258.74c0-.65.38-1.07,1.05-1.07s1.05.42,1.05,1.07-.38,1.07-1.05,1.07-1.05-.42-1.05-1.07ZM88.89,258.74c0-.46-.19-.68-.54-.68s-.53.22-.53.68.19.68.53.68.54-.22.54-.68Z"/><path class="cls-16" d="M89.7,259.77v-2.06h.49v.46c.11-.36.29-.49.58-.49.06,0,.14.02.19.03v.45h-.21c-.32,0-.53.23-.53.65v.96h-.52Z"/><text class="cls-14" transform="translate(152.99 258.09) scale(.58)"><tspan x="0" y="0" xml:space="preserve">TM  </tspan></text><text class="cls-14" transform="translate(157.64 259.42)"><tspan class="cls-33" x="0" y="0">&amp; © Ti</tspan><tspan class="cls-19" x="11.33" y="0">m</tspan><tspan x="14.51" y="0">taim</tspan></text><text class="cls-10" transform="translate(20.83 216.21)"><tspan x="0" y="0">The d</tspan><tspan class="cls-22" x="19.8" y="0">a</tspan><tspan x="23.83" y="0">y the design indu</tspan><tspan class="cls-37" x="83.06" y="0">s</tspan><tspan class="cls-5" x="86.92" y="0">try decided on </tspan><tspan class="cls-29" x="139.49" y="0">A</tspan><tspan x="144.83" y="0">dobe</tspan><tspan class="cls-36" x="0" y="9.6">t</tspan><tspan x="2.42" y="9.6">o be its </tspan><tspan class="cls-37" x="29.97" y="9.6">s</tspan><tspan class="cls-5" x="33.83" y="9.6">tanda</tspan><tspan class="cls-28" x="53.72" y="9.6">r</tspan><tspan class="cls-5" x="56.32" y="9.6">d all </tspan><tspan class="cls-37" x="72.14" y="9.6">s</tspan><tspan class="cls-5" x="76" y="9.6">tude</tspan><tspan class="cls-37" x="91.83" y="9.6">n</tspan><tspan class="cls-27" x="95.98" y="9.6">ts, junio</tspan><tspan class="cls-46" x="122.04" y="9.6">r</tspan><tspan x="124.83" y="9.6">s, and </tspan><tspan x="0" y="19.2">am</tspan><tspan class="cls-37" x="10.45" y="19.2">a</tspan><tspan class="cls-40" x="14.59" y="19.2">t</tspan><tspan class="cls-27" x="17.01" y="19.2">eu</tspan><tspan class="cls-46" x="25.62" y="19.2">r</tspan><tspan x="28.42" y="19.2">s wrung their collecti</tspan><tspan class="cls-45" x="100.71" y="19.2">v</tspan><tspan class="cls-27" x="104.79" y="19.2">e </tspan><tspan class="cls-6" x="111.18" y="19.2">w</tspan><tspan x="117.47" y="19.2">all</tspan><tspan class="cls-32" x="124.72" y="19.2">e</tspan><tspan class="cls-27" x="129.03" y="19.2">ts. </tspan></text><text class="cls-11" transform="translate(21.13 183.99)"><tspan x="0" y="0">As an additional co</tspan><tspan class="cls-37" x="66.04" y="0">s</tspan><tspan class="cls-27" x="69.9" y="0">t </tspan><tspan class="cls-36" x="74.55" y="0">t</tspan><tspan class="cls-5" x="76.97" y="0">o ca</tspan><tspan class="cls-20" x="91.86" y="0">s</tspan><tspan x="95.72" y="0">t this spell, p</tspan><tspan class="cls-22" x="138.7" y="0">a</tspan><tspan x="142.74" y="0">y</tspan><tspan x="0" y="9.6">$42, 168.26 </tspan><tspan class="cls-39" x="42.55" y="9.6">A</tspan><tspan x="47.76" y="9.6">U</tspan><tspan class="cls-6" x="53.18" y="9.6">D</tspan><tspan x="58.53" y="9.6">.</tspan></text><path class="cls-35" d="M178.36,155.7c-2.17-2.18-5.69-2.2-7.88-.03-2.18,2.17-2.2,5.69-.03,7.88,2.17,2.18,5.69,2.2,7.88.03,2.18-2.17,2.2-5.69.03-7.88ZM173.73,157.08c.86-.85,1.73-1.36,1.96-1.13.23.23-.28,1.1-1.14,1.95-.86.85-1.73,1.36-1.96,1.13s.28-1.1,1.14-1.95ZM174.58,164.06c-1.19,0-2.51-.33-3.41-1.23-.87-.88-1.21-2.17-1.21-3.41,0-1.24.49-2.39,1.37-3.26l.84.84c-.81.8-1.25,1.86-1.26,3,0,.79.39,1.83.83,2.26.39.33,1.14.87,2.28.88,0,0,0,0,0,0,1.13,0,2.2-.43,3-1.23l.82.82c-.9.9-2.08,1.34-3.27,1.34ZM176.94,160.3c-.85.84-1.71,1.34-1.94,1.12-.22-.23.28-1.09,1.13-1.93.85-.84,1.71-1.34,1.94-1.12.22.23-.28,1.09-1.13,1.93Z"/><path class="cls-16" d="M45.65,256.62c-1.55,0-1.81,1.29-1.81,1.29v-1.12h-.99v.2l.07,2.8h.89l.07-1.15s.33,1.22,1.68,1.15c1.35-.07,2.28-1.46,2.28-1.46,0,0-.63-1.71-2.18-1.71ZM45.95,257.87c-1.27-.02-1.43-.34-1.43-.34,0,0,1.43-1.72,3.15.77,0,0-.45-.42-1.72-.43Z"/><circle class="cls-35" cx="173.75" cy="24.46" r="4.67"/><path class="cls-9" d="M173.75,21.78c1.47,0,2.67,1.2,2.67,2.67s-1.2,2.67-2.67,2.67-2.67-1.2-2.67-2.67,1.2-2.67,2.67-2.67M173.75,17.78c-3.69,0-6.67,2.99-6.67,6.67s2.99,6.67,6.67,6.67,6.67-2.99,6.67-6.67-2.99-6.67-6.67-6.67h0Z"/><text class="cls-15" transform="translate(169.28 28.51) scale(1.2 1)"><tspan x="0" y="0">0</tspan></text><path class="cls-44" d="M45.82,49.61h25.35c3.8,0,6.88,3.08,6.88,6.88v25.35c0,4.39-3.56,7.96-7.96,7.96h-24.27c-4.39,0-7.96-3.56-7.96-7.96v-24.27c0-4.39,3.56-7.96,7.96-7.96Z"/><path class="cls-25" d="M130.15,49.78h25.35c3.8,0,6.88,3.08,6.88,6.88v25.35c0,4.39-3.56,7.96-7.96,7.96h-24.27c-4.39,0-7.96-3.56-7.96-7.96v-24.27c0-4.39,3.56-7.96,7.96-7.96Z"/><path class="cls-23" d="M141.09,77.59l-1.19-3.26h-6.82l-1.19,3.26h-3.08l5.83-15.67h3.7l5.83,15.67h-3.08ZM136.49,64.65l-2.68,7.37h5.35l-2.66-7.37Z"/><path class="cls-23" d="M144.48,71.91c0-3.5,1.98-5.9,5.63-5.9s5.66,2.42,5.66,5.76c0,.24-.02.46-.04.73h-8.41c.09,2.31,1.19,3.37,2.93,3.37,1.41,0,2.33-.7,2.66-1.87h2.62c-.48,2.33-2.22,3.81-5.28,3.81-3.7,0-5.77-2.31-5.77-5.9ZM147.31,70.66h5.61c-.24-1.8-1.25-2.71-2.82-2.71s-2.55.9-2.79,2.71Z"/><path class="cls-2" d="M115.4,73.9h24.27c4.39,0,7.96,3.56,7.96,7.96v25.35c0,3.8-3.08,6.88-6.88,6.88h-25.35c-4.39,0-7.96-3.56-7.96-7.96v-24.27c0-4.39,3.56-7.96,7.96-7.96Z" transform="translate(255.06 187.97) rotate(-180)"/><path class="cls-30" d="M52.91,71.75h-3.85v5.68h-2.99v-15.67h6.84c3.48,0,5.63,1.78,5.63,5s-2.16,4.99-5.63,4.99ZM52.5,64h-3.43v5.5h3.43c1.98,0,3.06-.86,3.06-2.75s-1.08-2.75-3.06-2.75Z"/><path class="cls-30" d="M59.51,73.84h2.75c.13,1.21.68,1.94,2.44,1.94s2.29-.7,2.29-1.54c0-.77-.62-1.17-1.58-1.32l-1.96-.29c-2.62-.37-3.63-1.25-3.63-3.19s1.39-3.59,4.84-3.59,4.86,1.56,4.86,3.63h-2.75c-.11-.95-.46-1.76-2.13-1.76-1.43,0-1.98.59-1.98,1.5,0,.75.44,1.08,1.25,1.19l1.94.29c2.51.35,3.98,1.19,3.98,3.37,0,2.02-1.5,3.59-5.17,3.59s-5.15-1.56-5.15-3.81Z"/><path class="cls-4" d="M63.26,73.48h25.35c3.8,0,6.88,3.08,6.88,6.88v25.35c0,4.39-3.56,7.96-7.96,7.96h-24.27c-4.39,0-7.96-3.56-7.96-7.96v-24.27c0-4.39,3.56-7.96,7.96-7.96Z"/><path class="cls-21" d="M129.97,101.86l-1.17-3.21h-6.72l-1.17,3.21h-3.03l5.74-15.43h3.64l5.74,15.43h-3.03ZM125.44,89.12l-2.64,7.26h5.27l-2.62-7.26Z"/><path class="cls-21" d="M133.95,87.56c0-.82.59-1.45,1.63-1.45s1.6.63,1.6,1.45-.56,1.45-1.6,1.45-1.63-.63-1.63-1.45ZM134.17,101.86v-11.18h2.8v11.18h-2.8Z"/><path class="cls-42" d="M67.33,101.29v-15.67h2.99v15.67h-2.99Z"/><path class="cls-42" d="M72.12,95.61c0-3.72,1.94-5.9,5-5.9,1.72,0,2.86.7,3.5,1.94v-6.03h2.84v15.67h-2.71v-1.94c-.62,1.32-1.74,2.16-3.63,2.16-3.06,0-5-2.18-5-5.9ZM80.62,95.61c0-2.6-1.14-3.74-2.84-3.74s-2.82,1.14-2.82,3.74,1.14,3.74,2.82,3.74,2.84-1.14,2.84-3.74Z"/><path class="cls-3" d="M88.3,99.2h24.27c4.39,0,7.96,3.56,7.96,7.96v25.35c0,3.8-3.08,6.88-6.88,6.88h-25.35c-4.39,0-7.96-3.56-7.96-7.96v-24.27c0-4.39,3.56-7.96,7.96-7.96Z" transform="translate(200.86 238.58) rotate(-180)"/><path class="cls-17" d="M99.33,123.84l-.73-3.48s-4.44,14.45-10.63,11.78c-6.19-2.67,9.24-9.55,9.24-9.55h0s.92-2.44.92-2.44c0,0-15.28,5.81-14.59,10.77.69,4.96,8.33,7.26,12.6-.53,3.09-5.64,1.77-3.04,3.18-6.54Z"/><path class="cls-17" d="M99.83,124.79s2.41-.19,2.25-.34-1.99-6.65-1.99-6.65l-1.6.99.02.08,1.32,5.91Z"/><path class="cls-17" d="M100.78,118.49l.97,3.41s.81-.1.81-1.63c0-1.53-1.78-1.78-1.78-1.78Z"/><polygon class="cls-17" points="116.67 105.15 115.04 103.52 100.68 117.88 103.07 118.75 116.67 105.15"/><path class="cls-17" d="M102.61,119.48c.44.17.34,1.6.34,1.6,1.6-1.18,6.18-.28,6.18-.28l1.37-1.37c-1.9-1.9-7.89.04-7.89.04Z"/></g></svg>