<?xml version="1.0" encoding="UTF-8"?><svg id="Layer_2" xmlns="http://www.w3.org/2000/svg" viewBox="0 0 199.52 273.17"><defs><style>.cls-1{fill:#a8adc7;}.cls-2{fill:none;stroke:#231f20;stroke-miterlimit:10;stroke-width:4px;}.cls-3{font-size:14px;}.cls-3,.cls-4,.cls-5,.cls-6{fill:#231f20;}.cls-3,.cls-7,.cls-8{font-family:CreatoDisplay-Bold, 'Creato Display';font-weight:700;}.cls-9{letter-spacing:0em;}.cls-10{letter-spacing:-.01em;}.cls-7{font-size:4px;}.cls-7,.cls-8,.cls-11{fill:#f4eddd;}.cls-12{fill:#e95242;}.cls-13{letter-spacing:-.03em;}.cls-14{letter-spacing:0em;}.cls-15{letter-spacing:-.03em;}.cls-16{letter-spacing:-.02em;}.cls-17{fill:#474850;}.cls-5{font-family:CreatoDisplay-Italic, 'Creato Display';font-size:8px;font-style:italic;}.cls-18{letter-spacing:-.03em;}.cls-19{letter-spacing:-.02em;}.cls-8{font-size:11.69px;}.cls-20{letter-spacing:0em;}.cls-21{letter-spacing:0em;}.cls-22{letter-spacing:.02em;}.cls-23{fill:#010101;}.cls-24{letter-spacing:-.01em;}.cls-6{font-family:CreatoDisplay-Medium, 'Creato Display';font-size:10px;font-weight:500;}.cls-25{fill:#5a6183;}.cls-26{fill:#ee978d;}</style></defs><g id="Layer_1-2"><path class="cls-23" d="M158.78,29.03c-2.58,0-4.67-2.1-4.67-4.67s2.1-4.67,4.67-4.67,4.67,2.1,4.67,4.67-2.1,4.67-4.67,4.67Z"/><path class="cls-4" d="M158.78,21.68c1.47,0,2.67,1.2,2.67,2.67s-1.2,2.67-2.67,2.67-2.67-1.2-2.67-2.67,1.2-2.67,2.67-2.67M158.78,17.68c-3.69,0-6.67,2.99-6.67,6.67s2.99,6.67,6.67,6.67,6.67-2.99,6.67-6.67-2.99-6.67-6.67-6.67h0Z"/><text class="cls-8" transform="translate(155.41 28.41) scale(1.2 1)"><tspan x="0" y="0">1</tspan></text><path class="cls-12" d="M12.74,2h174.03c5.93,0,10.74,4.81,10.74,10.74v247.69c0,5.93-4.81,10.74-10.74,10.74H12.74c-5.93,0-10.74-4.81-10.74-10.74V12.74C2,6.81,6.81,2,12.74,2Z"/><path class="cls-4" d="M186.78,4c4.82,0,8.74,3.92,8.74,8.74v247.69c0,4.82-3.92,8.74-8.74,8.74H12.74c-4.82,0-8.74-3.92-8.74-8.74V12.74c0-4.82,3.92-8.74,8.74-8.74h174.03M186.78,0H12.74C5.7,0,0,5.7,0,12.74v247.69c0,7.04,5.7,12.74,12.74,12.74h174.03c7.04,0,12.74-5.7,12.74-12.74V12.74c0-7.04-5.7-12.74-12.74-12.74h0Z"/><rect class="cls-11" x="13.78" y="12.26" width="172.46" height="233.81" rx="10.74" ry="10.74"/><path class="cls-4" d="M175.5,14.26c4.82,0,8.74,3.92,8.74,8.74v212.33c0,4.82-3.92,8.74-8.74,8.74H24.53c-4.82,0-8.74-3.92-8.74-8.74V23c0-4.82,3.92-8.74,8.74-8.74h150.98M175.5,10.26H24.53c-7.04,0-12.74,5.7-12.74,12.74v212.33c0,7.04,5.7,12.74,12.74,12.74h150.98c7.04,0,12.74-5.7,12.74-12.74V23c0-7.04-5.7-12.74-12.74-12.74h0Z"/><line class="cls-2" x1="14.16" y1="35.9" x2="185.13" y2="35.9"/><line class="cls-2" x1="14.16" y1="150.64" x2="185.13" y2="150.64"/><line class="cls-2" x1="14.16" y1="168.44" x2="185.13" y2="168.44"/><text class="cls-3" transform="translate(20.3 29.45)"><tspan x="0" y="0">Dualism</tspan></text><text class="cls-6" transform="translate(20.57 162.93)"><tspan x="0" y="0">In</tspan><tspan class="cls-20" x="7.65" y="0">s</tspan><tspan x="12.63" y="0">ta</tspan><tspan class="cls-10" x="21.48" y="0">n</tspan><tspan x="26.78" y="0">t</tspan></text><path class="cls-4" d="M20.84,181.12c0-1.73.92-2.93,2.7-2.93,1.54,0,2.49.93,2.49,2.06h-.63c-.1-.86-.72-1.5-1.86-1.5-1.33,0-2.02.86-2.02,2.36s.69,2.36,2.02,2.36c1.13,0,1.76-.61,1.86-1.54h.63c0,1.16-.92,2.11-2.49,2.11-1.78,0-2.7-1.19-2.7-2.93Z"/><path class="cls-4" d="M29.44,183.97v-2.62c0-.69-.25-1.05-.91-1.05s-1.14.54-1.14,1.37v2.3h-.66v-5.69h.66v2.29c.22-.5.65-.8,1.32-.8.94,0,1.39.48,1.39,1.48v2.73h-.66Z"/><path class="cls-4" d="M30.79,181.91c0-1.32.7-2.14,1.98-2.14s1.98.82,1.98,2.14-.7,2.14-1.98,2.14-1.98-.82-1.98-2.14ZM34.08,181.91c0-1.08-.48-1.63-1.32-1.63s-1.31.55-1.31,1.63.48,1.63,1.31,1.63,1.32-.55,1.32-1.63Z"/><path class="cls-4" d="M35.28,181.91c0-1.32.7-2.14,1.97-2.14s1.98.82,1.98,2.14-.7,2.14-1.98,2.14-1.97-.82-1.97-2.14ZM38.57,181.91c0-1.08-.48-1.63-1.32-1.63s-1.31.55-1.31,1.63.48,1.63,1.31,1.63,1.32-.55,1.32-1.63Z"/><path class="cls-4" d="M39.77,182.71h.63c.04.51.25.88,1.08.88s1.04-.37,1.04-.77c0-.38-.26-.56-.68-.62l-.81-.12c-.78-.11-1.15-.4-1.15-1.06s.39-1.26,1.59-1.26,1.6.57,1.6,1.27h-.63c-.04-.42-.17-.82-.97-.82-.68,0-.93.28-.93.75,0,.4.22.53.58.58l.82.12c.77.11,1.25.41,1.25,1.13s-.45,1.26-1.71,1.26-1.7-.57-1.7-1.34Z"/><path class="cls-4" d="M43.71,181.91c0-1.27.66-2.14,1.93-2.14s1.94.9,1.94,2.05c0,.06,0,.14-.02.2h-3.18c.02,1.12.54,1.58,1.31,1.58.66,0,1.06-.35,1.21-.87h.59c-.19.82-.76,1.34-1.8,1.34-1.27,0-1.98-.82-1.98-2.14ZM44.37,181.56h2.53c-.09-.9-.56-1.34-1.27-1.34s-1.17.44-1.26,1.34Z"/><path class="cls-4" d="M50.62,183.01v-2.69h-.7v-.48h.7v-1.25h.66v1.25h.99v.48h-.99v2.7c0,.4.14.5.56.5l.43-.02v.46c-.16.02-.42.04-.57.04-.79,0-1.09-.23-1.09-1Z"/><path class="cls-4" d="M52.75,182.8c0-.61.38-1.08,1.39-1.17l.76-.06c.56-.05.72-.17.72-.47,0-.53-.3-.86-.98-.86-.64,0-.97.27-1.02.86h-.64c0-.82.5-1.33,1.66-1.33s1.66.52,1.66,1.33v1.81c0,.56.05.92.13,1.06h-.58c-.13-.18-.18-.34-.18-.78-.22.58-.71.86-1.44.86-.93,0-1.46-.48-1.46-1.25ZM55.62,182.17v-.41c-.1.13-.35.21-.72.24l-.57.05c-.66.05-.92.33-.92.71,0,.47.29.82.98.82.82,0,1.23-.65,1.23-1.42Z"/><path class="cls-4" d="M57.13,183.97v-4.13h.63v.98c.22-.72.6-1.02,1.21-1.02.11,0,.26.02.38.04v.58l-.4-.02c-.7,0-1.16.56-1.16,1.58v1.99h-.66Z"/><path class="cls-4" d="M59.57,181.79c0-1.2.68-2.02,1.79-2.02.74,0,1.22.32,1.46.9v-.82h.63v3.85c0,1.27-.68,1.92-1.9,1.92s-1.75-.58-1.75-1.43h.61c.06.63.48.98,1.17.98.76,0,1.21-.41,1.21-1.32v-.9c-.23.58-.72.86-1.42.86-1.11,0-1.79-.82-1.79-2.02ZM62.79,181.79c0-1.01-.52-1.54-1.28-1.54s-1.27.54-1.27,1.54.52,1.54,1.27,1.54,1.28-.54,1.28-1.54Z"/><path class="cls-4" d="M64.14,181.91c0-1.27.66-2.14,1.93-2.14s1.94.9,1.94,2.05c0,.06,0,.14-.02.2h-3.18c.02,1.12.54,1.58,1.31,1.58.66,0,1.06-.35,1.21-.87h.59c-.19.82-.76,1.34-1.8,1.34-1.27,0-1.98-.82-1.98-2.14ZM64.81,181.56h2.53c-.09-.9-.56-1.34-1.27-1.34s-1.17.44-1.26,1.34Z"/><path class="cls-4" d="M68.97,183.01v-2.69h-.7v-.48h.7v-1.25h.66v1.25h.99v.48h-.99v2.7c0,.4.14.5.56.5l.43-.02v.46c-.16.02-.42.04-.57.04-.79,0-1.09-.23-1.09-1Z"/><path class="cls-4" d="M73.1,181.91c0-1.32.7-2.14,1.97-2.14s1.98.82,1.98,2.14-.7,2.14-1.98,2.14-1.97-.82-1.97-2.14ZM76.4,181.91c0-1.08-.48-1.63-1.32-1.63s-1.31.55-1.31,1.63.48,1.63,1.31,1.63,1.32-.55,1.32-1.63Z"/><path class="cls-4" d="M78.41,183.18v2.35h-.66v-5.69h.63v.82c.23-.58.71-.9,1.46-.9,1.11,0,1.79.79,1.79,2.14s-.68,2.14-1.79,2.14c-.7,0-1.19-.29-1.42-.86ZM80.96,181.91c0-1.13-.52-1.63-1.28-1.63s-1.27.5-1.27,1.63.52,1.63,1.27,1.63,1.28-.5,1.28-1.63Z"/><path class="cls-4" d="M82.98,183.18v2.35h-.66v-5.69h.63v.82c.23-.58.71-.9,1.46-.9,1.11,0,1.79.79,1.79,2.14s-.68,2.14-1.79,2.14c-.7,0-1.19-.29-1.42-.86ZM85.53,181.91c0-1.13-.52-1.63-1.28-1.63s-1.27.5-1.27,1.63.52,1.63,1.27,1.63,1.28-.5,1.28-1.63Z"/><path class="cls-4" d="M86.73,181.91c0-1.32.7-2.14,1.98-2.14s1.98.82,1.98,2.14-.7,2.14-1.98,2.14-1.98-.82-1.98-2.14ZM90.02,181.91c0-1.08-.48-1.63-1.32-1.63s-1.31.55-1.31,1.63.48,1.63,1.31,1.63,1.32-.55,1.32-1.63Z"/><path class="cls-4" d="M94.08,183.97v-2.62c0-.69-.25-1.05-.91-1.05s-1.13.54-1.13,1.37v2.3h-.66v-4.13h.63v.76c.23-.51.66-.84,1.35-.84.94,0,1.39.48,1.39,1.48v2.73h-.66Z"/><path class="cls-4" d="M95.44,181.91c0-1.27.66-2.14,1.93-2.14s1.94.9,1.94,2.05c0,.06,0,.14-.02.2h-3.18c.02,1.12.54,1.58,1.31,1.58.66,0,1.06-.35,1.21-.87h.59c-.19.82-.76,1.34-1.8,1.34-1.27,0-1.97-.82-1.97-2.14ZM96.1,181.56h2.53c-.09-.9-.56-1.34-1.27-1.34s-1.17.44-1.26,1.34Z"/><path class="cls-4" d="M102.7,183.97v-2.62c0-.69-.25-1.05-.91-1.05s-1.14.54-1.14,1.37v2.3h-.66v-4.13h.63v.76c.23-.51.66-.84,1.35-.84.94,0,1.39.48,1.39,1.48v2.73h-.66Z"/><path class="cls-4" d="M104.49,183.01v-2.69h-.7v-.48h.7v-1.25h.66v1.25h.99v.48h-.99v2.7c0,.4.14.5.56.5l.43-.02v.46c-.16.02-.42.04-.57.04-.79,0-1.09-.23-1.09-1Z"/><path class="cls-4" d="M108.62,182.8c0-.61.38-1.08,1.39-1.17l.76-.06c.56-.05.72-.17.72-.47,0-.53-.3-.86-.98-.86-.64,0-.97.27-1.02.86h-.64c0-.82.5-1.33,1.66-1.33s1.66.52,1.66,1.33v1.81c0,.56.05.92.13,1.06h-.58c-.13-.18-.18-.34-.18-.78-.22.58-.71.86-1.44.86-.93,0-1.46-.48-1.46-1.25ZM111.49,182.17v-.41c-.1.13-.35.21-.72.24l-.57.05c-.66.05-.92.33-.92.71,0,.47.29.82.98.82.82,0,1.23-.65,1.23-1.42Z"/><path class="cls-4" d="M115.72,183.97v-2.62c0-.69-.25-1.05-.91-1.05s-1.13.54-1.13,1.37v2.3h-.66v-4.13h.63v.76c.23-.51.66-.84,1.35-.84.94,0,1.39.48,1.39,1.48v2.73h-.66Z"/><path class="cls-4" d="M117.07,181.91c0-1.35.68-2.14,1.79-2.14.7,0,1.19.29,1.42.86v-2.35h.66v5.69h-.63v-.82c-.23.58-.72.9-1.46.9-1.11,0-1.79-.79-1.79-2.14ZM120.28,181.91c0-1.13-.52-1.63-1.28-1.63s-1.27.5-1.27,1.63.52,1.63,1.27,1.63,1.28-.5,1.28-1.63Z"/><path class="cls-4" d="M123.8,183.97v-4.13h.63v.98c.22-.72.6-1.02,1.21-1.02.11,0,.26.02.38.04v.58l-.4-.02c-.7,0-1.16.56-1.16,1.58v1.99h-.66Z"/><path class="cls-4" d="M126.24,181.91c0-1.27.66-2.14,1.93-2.14s1.94.9,1.94,2.05c0,.06,0,.14-.02.2h-3.18c.02,1.12.54,1.58,1.31,1.58.66,0,1.06-.35,1.21-.87h.59c-.19.82-.76,1.34-1.8,1.34-1.27,0-1.98-.82-1.98-2.14ZM126.9,181.56h2.53c-.09-.9-.56-1.34-1.27-1.34s-1.17.44-1.26,1.34Z"/><path class="cls-4" d="M135.52,183.97v-2.64c0-.69-.21-1.03-.76-1.03s-.98.52-.98,1.35v2.32h-.63v-2.64c0-.69-.22-1.03-.75-1.03s-.97.52-.97,1.35v2.32h-.64v-4.13h.63v.76c.19-.51.6-.84,1.17-.84.63,0,1,.3,1.14.89.21-.58.66-.89,1.22-.89.82,0,1.22.48,1.22,1.48v2.73h-.64Z"/><path class="cls-4" d="M136.85,181.91c0-1.32.7-2.14,1.97-2.14s1.98.82,1.98,2.14-.7,2.14-1.98,2.14-1.97-.82-1.97-2.14ZM140.15,181.91c0-1.08-.48-1.63-1.32-1.63s-1.31.55-1.31,1.63.48,1.63,1.31,1.63,1.32-.55,1.32-1.63Z"/><path class="cls-4" d="M142.55,183.97l-1.61-4.13h.69l1.32,3.53,1.32-3.53h.69l-1.61,4.13h-.8Z"/><path class="cls-4" d="M145.09,181.91c0-1.27.66-2.14,1.93-2.14s1.94.9,1.94,2.05c0,.06,0,.14-.02.2h-3.18c.02,1.12.54,1.58,1.31,1.58.66,0,1.06-.35,1.21-.87h.59c-.19.82-.76,1.34-1.8,1.34-1.27,0-1.98-.82-1.98-2.14ZM145.75,181.56h2.53c-.09-.9-.56-1.34-1.27-1.34s-1.17.44-1.26,1.34Z"/><path class="cls-4" d="M152,183.01v-2.69h-.7v-.48h.7v-1.25h.66v1.25h.99v.48h-.99v2.7c0,.4.14.5.56.5l.43-.02v.46c-.16.02-.42.04-.57.04-.79,0-1.09-.23-1.09-1Z"/><path class="cls-4" d="M157,183.97v-2.62c0-.69-.25-1.05-.91-1.05s-1.13.54-1.13,1.37v2.3h-.66v-5.69h.66v2.29c.22-.5.65-.8,1.32-.8.94,0,1.39.48,1.39,1.48v2.73h-.66Z"/><path class="cls-4" d="M158.35,181.91c0-1.27.66-2.14,1.93-2.14s1.94.9,1.94,2.05c0,.06,0,.14-.02.2h-3.18c.02,1.12.54,1.58,1.31,1.58.66,0,1.06-.35,1.21-.87h.59c-.19.82-.76,1.34-1.8,1.34-1.27,0-1.97-.82-1.97-2.14ZM159.01,181.56h2.53c-.09-.9-.56-1.34-1.27-1.34s-1.17.44-1.26,1.34Z"/><path class="cls-4" d="M162.82,178.65c0-.21.14-.37.41-.37s.42.16.42.37-.15.37-.42.37-.41-.16-.41-.37ZM162.9,183.97v-4.13h.66v4.13h-.66Z"/><path class="cls-4" d="M164.41,183.97v-4.13h.63v.98c.22-.72.6-1.02,1.21-1.02.11,0,.26.02.38.04v.58l-.4-.02c-.7,0-1.16.56-1.16,1.58v1.99h-.66Z"/><path class="cls-4" d="M25.73,193.57v-2.64c0-.69-.21-1.03-.76-1.03s-.98.52-.98,1.35v2.32h-.63v-2.64c0-.69-.22-1.03-.75-1.03s-.97.52-.97,1.35v2.32h-.64v-4.13h.63v.76c.19-.51.6-.84,1.17-.84.63,0,1,.3,1.14.89.21-.58.66-.89,1.22-.89.82,0,1.22.48,1.22,1.48v2.73h-.64Z"/><path class="cls-4" d="M27.14,188.25c0-.21.14-.37.41-.37s.42.16.42.37-.15.37-.42.37-.41-.16-.41-.37ZM27.22,193.57v-4.13h.66v4.13h-.66Z"/><path class="cls-4" d="M31.45,193.57v-2.62c0-.69-.25-1.05-.91-1.05s-1.13.54-1.13,1.37v2.3h-.66v-4.13h.63v.76c.23-.51.66-.84,1.35-.84.94,0,1.39.48,1.39,1.48v2.73h-.66Z"/><path class="cls-4" d="M32.8,191.51c0-1.35.68-2.14,1.79-2.14.7,0,1.19.29,1.42.86v-2.35h.66v5.69h-.63v-.82c-.23.58-.72.9-1.46.9-1.11,0-1.79-.79-1.79-2.14ZM36.01,191.51c0-1.13-.52-1.63-1.28-1.63s-1.27.5-1.27,1.63.52,1.63,1.27,1.63,1.28-.5,1.28-1.63Z"/><path class="cls-4" d="M39.89,193.57v-3.65h-.7v-.48h.7v-.51c0-.74.3-1.1,1.09-1.1.14,0,.41.02.57.04v.46l-.43-.02c-.42,0-.56.19-.56.59v.53h.99v.48h-.99v3.65h-.66Z"/><path class="cls-4" d="M42.13,193.57v-4.13h.63v.98c.22-.72.6-1.02,1.21-1.02.11,0,.26.02.38.04v.58l-.4-.02c-.7,0-1.16.56-1.16,1.58v1.99h-.66Z"/><path class="cls-4" d="M44.57,191.51c0-1.32.7-2.14,1.97-2.14s1.98.82,1.98,2.14-.7,2.14-1.98,2.14-1.97-.82-1.97-2.14ZM47.86,191.51c0-1.08-.48-1.63-1.32-1.63s-1.31.55-1.31,1.63.48,1.63,1.31,1.63,1.32-.55,1.32-1.63Z"/><path class="cls-4" d="M53.95,193.57v-2.64c0-.69-.21-1.03-.76-1.03s-.98.52-.98,1.35v2.32h-.63v-2.64c0-.69-.22-1.03-.75-1.03s-.97.52-.97,1.35v2.32h-.64v-4.13h.63v.76c.19-.51.6-.84,1.17-.84.63,0,1,.3,1.14.89.21-.58.66-.89,1.22-.89.82,0,1.22.48,1.22,1.48v2.73h-.64Z"/><path class="cls-4" d="M57.8,192.61v-2.69h-.7v-.48h.7v-1.25h.66v1.25h.99v.48h-.99v2.7c0,.4.14.5.56.5l.43-.02v.46c-.16.02-.42.04-.57.04-.79,0-1.09-.23-1.09-1Z"/><path class="cls-4" d="M62.8,193.57v-2.62c0-.69-.25-1.05-.91-1.05s-1.13.54-1.13,1.37v2.3h-.66v-5.69h.66v2.29c.22-.5.65-.8,1.32-.8.94,0,1.39.48,1.39,1.48v2.73h-.66Z"/><path class="cls-4" d="M64.15,191.51c0-1.27.66-2.14,1.93-2.14s1.94.9,1.94,2.05c0,.06,0,.14-.02.2h-3.18c.02,1.12.54,1.58,1.31,1.58.66,0,1.06-.35,1.21-.87h.59c-.19.82-.76,1.34-1.8,1.34-1.27,0-1.98-.82-1.98-2.14ZM64.81,191.16h2.53c-.09-.9-.56-1.33-1.27-1.33s-1.17.44-1.26,1.33Z"/><path class="cls-4" d="M68.62,188.25c0-.21.14-.37.41-.37s.42.16.42.37-.15.37-.42.37-.41-.16-.41-.37ZM68.7,193.57v-4.13h.66v4.13h-.66Z"/><path class="cls-4" d="M70.21,193.57v-4.13h.63v.98c.22-.72.6-1.02,1.21-1.02.11,0,.26.02.38.04v.58l-.4-.02c-.7,0-1.16.56-1.16,1.58v1.99h-.66Z"/><path class="cls-4" d="M75.65,192.74v.82h-.63v-5.69h.66v2.35c.23-.58.72-.86,1.42-.86,1.11,0,1.79.79,1.79,2.14s-.68,2.14-1.79,2.14c-.74,0-1.22-.32-1.46-.9ZM78.24,191.51c0-1.13-.52-1.63-1.28-1.63s-1.27.5-1.27,1.63.52,1.63,1.27,1.63,1.28-.5,1.28-1.63Z"/><path class="cls-4" d="M79.43,191.51c0-1.32.7-2.14,1.97-2.14s1.98.82,1.98,2.14-.7,2.14-1.98,2.14-1.97-.82-1.97-2.14ZM82.72,191.51c0-1.08-.48-1.63-1.32-1.63s-1.31.55-1.31,1.63.48,1.63,1.31,1.63,1.32-.55,1.32-1.63Z"/><path class="cls-4" d="M83.92,191.51c0-1.35.68-2.14,1.79-2.14.7,0,1.19.29,1.42.86v-2.35h.66v5.69h-.63v-.82c-.23.58-.72.9-1.46.9-1.11,0-1.79-.79-1.79-2.14ZM87.13,191.51c0-1.13-.52-1.63-1.28-1.63s-1.27.5-1.27,1.63.52,1.63,1.27,1.63,1.28-.5,1.28-1.63Z"/><path class="cls-4" d="M88.7,194.66h.32c.48,0,.78-.26,1.01-.86l-1.7-4.35h.69l1.31,3.57,1.33-3.57h.69l-1.69,4.27c-.44,1.1-.86,1.42-1.63,1.42h-.32v-.48Z"/><path class="cls-4" d="M92.21,193.23c0-.21.15-.38.42-.38s.42.18.42.38-.15.38-.42.38-.42-.17-.42-.38Z"/><text class="cls-7" transform="translate(21.08 254.97)"><tspan x="0" y="0">1</tspan><tspan class="cls-22" x="0" y="4.8">T</tspan><tspan x="2.48" y="4.8">TM - EN</tspan></text><path class="cls-11" d="M44.9,253.63c.31.07.47.28.47.6v.45c0,.12.02.22.04.29h-.52c-.04-.08-.06-.16-.06-.29v-.43c0-.35-.21-.44-.49-.44h-.65v1.15h-.54v-2.85h1.32c.61,0,.94.32.94.81,0,.36-.18.6-.51.7ZM44.41,252.53h-.72v.88h.72c.32,0,.46-.17.46-.44s-.14-.44-.46-.44Z"/><path class="cls-11" d="M49.03,258.85h.53c.04.38.22.55.66.55s.62-.18.62-.45c0-.2-.11-.32-.54-.39l-.36-.05c-.6-.08-.83-.29-.83-.76,0-.51.36-.88,1.1-.88s1.1.36,1.1.92h-.52c-.04-.34-.22-.51-.6-.51s-.55.18-.55.44c0,.2.09.3.47.35l.36.05c.58.08.9.3.9.8,0,.53-.38.89-1.18.89s-1.17-.35-1.17-.96Z"/><path class="cls-11" d="M51.71,260.18h.21c.24,0,.38-.12.38-.31,0-.06-.01-.13-.04-.2l-.74-1.97h.54l.54,1.66.54-1.66h.54l-.74,1.97c-.25.67-.52.88-1.02.88h-.2v-.37Z"/><path class="cls-11" d="M53.69,258.74c0-.64.36-1.07,1.02-1.07s1.03.44,1.03,1.05c0,.04,0,.08,0,.13h-1.53c.02.42.22.61.53.61.26,0,.42-.13.48-.34h.48c-.09.42-.4.69-.96.69-.67,0-1.05-.42-1.05-1.07ZM54.2,258.51h1.02c-.04-.33-.23-.49-.51-.49s-.46.16-.51.49Z"/><path class="cls-11" d="M55.95,258.74c0-.68.35-1.07.91-1.07.31,0,.52.13.64.35v-1.1h.52v2.85h-.49v-.35c-.11.24-.32.39-.66.39-.56,0-.91-.4-.91-1.07ZM57.5,258.74c0-.47-.21-.68-.52-.68s-.51.21-.51.68.21.68.51.68.52-.21.52-.68Z"/><path class="cls-11" d="M60.13,259.77v-2.4h-.86v-.44h2.28v.44h-.87v2.4h-.54Z"/><path class="cls-11" d="M61.41,259.18c0-.32.19-.57.71-.61l.42-.04c.21-.02.27-.08.27-.18,0-.2-.12-.32-.38-.32-.24,0-.37.1-.39.32h-.51c0-.42.26-.69.9-.69s.9.27.9.69v.88c0,.28.02.46.06.53h-.47c-.06-.08-.09-.16-.09-.32-.12.24-.32.36-.68.36-.48,0-.74-.24-.74-.62ZM62.81,258.91v-.14s-.13.07-.27.08l-.24.02c-.26.02-.36.13-.36.28,0,.18.12.31.38.31.32,0,.5-.24.5-.54Z"/><path class="cls-11" d="M63.66,257.13c0-.15.11-.27.3-.27s.3.12.3.27-.1.27-.3.27-.3-.12-.3-.27ZM63.7,259.77v-2.06h.52v2.06h-.52Z"/><path class="cls-11" d="M66.94,259.77v-1.28c0-.28-.09-.4-.29-.4-.22,0-.39.18-.39.52v1.17h-.5v-1.28c0-.28-.09-.4-.29-.4-.22,0-.39.18-.39.52v1.17h-.5v-2.06h.49v.34c.1-.22.28-.38.56-.38.3,0,.49.13.57.39.1-.24.31-.39.59-.39.42,0,.63.24.63.74v1.36h-.5Z"/><path class="cls-11" d="M67.74,258.74c0-.65.38-1.07,1.05-1.07s1.05.42,1.05,1.07-.38,1.07-1.05,1.07-1.05-.42-1.05-1.07ZM69.32,258.74c0-.46-.19-.68-.54-.68s-.53.22-.53.68.19.68.53.68.54-.22.54-.68Z"/><path class="cls-11" d="M70.05,258.74c0-.65.38-1.07,1.05-1.07s1.05.42,1.05,1.07-.38,1.07-1.05,1.07-1.05-.42-1.05-1.07ZM71.63,258.74c0-.46-.19-.68-.54-.68s-.53.22-.53.68.19.68.53.68.54-.22.54-.68Z"/><path class="cls-11" d="M72.45,259.77v-2.06h.49v.46c.11-.36.29-.49.58-.49.06,0,.14.02.19.03v.45h-.21c-.32,0-.53.23-.53.65v.96h-.52Z"/><path class="cls-11" d="M77.63,259.77v-2.35l-.82,2.35h-.46l-.83-2.35v2.35h-.52v-2.85h.85l.72,2.03.72-2.03h.86v2.85h-.52Z"/><path class="cls-11" d="M78.48,259.18c0-.32.19-.57.71-.61l.42-.04c.21-.02.27-.08.27-.18,0-.2-.12-.32-.38-.32-.24,0-.37.1-.39.32h-.51c0-.42.26-.69.9-.69s.9.27.9.69v.88c0,.28.02.46.06.53h-.47c-.06-.08-.09-.16-.09-.32-.12.24-.32.36-.68.36-.48,0-.74-.24-.74-.62ZM79.87,258.91v-.14s-.13.07-.27.08l-.24.02c-.26.02-.36.13-.36.28,0,.18.12.31.38.31.32,0,.5-.24.5-.54Z"/><path class="cls-11" d="M82.08,259.77v-1.26c0-.28-.1-.42-.35-.42-.27,0-.45.2-.45.53v1.15h-.52v-2.06h.49v.34c.11-.22.3-.38.63-.38.47,0,.71.24.71.74v1.36h-.52Z"/><path class="cls-11" d="M82.89,259.12h.5c.02.22.12.35.44.35s.42-.13.42-.28c0-.14-.11-.21-.29-.24l-.36-.05c-.48-.07-.66-.23-.66-.58s.25-.65.88-.65.88.28.88.66h-.5c-.02-.17-.08-.32-.39-.32-.26,0-.36.11-.36.27,0,.14.08.2.23.22l.35.05c.46.06.72.22.72.61,0,.37-.27.65-.94.65s-.93-.28-.93-.69Z"/><path class="cls-11" d="M84.99,258.74c0-.65.38-1.07,1.05-1.07s1.05.42,1.05,1.07-.38,1.07-1.05,1.07-1.05-.42-1.05-1.07ZM86.57,258.74c0-.46-.19-.68-.54-.68s-.53.22-.53.68.19.68.53.68.54-.22.54-.68Z"/><path class="cls-11" d="M87.3,258.74c0-.65.38-1.07,1.05-1.07s1.05.42,1.05,1.07-.38,1.07-1.05,1.07-1.05-.42-1.05-1.07ZM88.89,258.74c0-.46-.19-.68-.54-.68s-.53.22-.53.68.19.68.53.68.54-.22.54-.68Z"/><path class="cls-11" d="M89.7,259.77v-2.06h.49v.46c.11-.36.29-.49.58-.49.06,0,.14.02.19.03v.45h-.21c-.32,0-.53.23-.53.65v.96h-.52Z"/><text class="cls-7" transform="translate(152.99 258.09) scale(.58)"><tspan x="0" y="0" xml:space="preserve">TM  </tspan></text><text class="cls-7" transform="translate(157.64 259.42)"><tspan class="cls-21" x="0" y="0">&amp; © Ti</tspan><tspan class="cls-14" x="11.33" y="0">m</tspan><tspan x="14.51" y="0">taim</tspan></text><text class="cls-5" transform="translate(20.57 235.74)"><tspan x="0" y="0">I do n</tspan><tspan class="cls-24" x="18.91" y="0">o</tspan><tspan class="cls-9" x="23.32" y="0">t think, the</tspan><tspan class="cls-15" x="59.56" y="0">r</tspan><tspan class="cls-16" x="62.16" y="0">e</tspan><tspan class="cls-13" x="66.37" y="0">f</tspan><tspan x="68.7" y="0">o</tspan><tspan class="cls-18" x="73.19" y="0">r</tspan><tspan class="cls-19" x="75.79" y="0">e</tspan><tspan x="80.02" y="0">, I do n</tspan><tspan class="cls-24" x="102.45" y="0">o</tspan><tspan x="106.86" y="0">t am</tspan></text><path class="cls-23" d="M178.36,155.7c-2.17-2.18-5.69-2.2-7.88-.03-2.18,2.17-2.2,5.69-.03,7.88,2.17,2.18,5.69,2.2,7.88.03,2.18-2.17,2.2-5.69.03-7.88ZM173.73,157.08c.86-.85,1.73-1.36,1.96-1.13.23.23-.28,1.1-1.14,1.95-.86.85-1.73,1.36-1.96,1.13s.28-1.1,1.14-1.95ZM174.58,164.06c-1.19,0-2.51-.33-3.41-1.23-.87-.88-1.21-2.17-1.21-3.41,0-1.24.49-2.39,1.37-3.26l.84.84c-.81.8-1.25,1.86-1.26,3,0,.79.39,1.83.83,2.26.39.33,1.14.87,2.28.88,0,0,0,0,0,0,1.13,0,2.2-.43,3-1.23l.82.82c-.9.9-2.08,1.34-3.27,1.34ZM176.94,160.3c-.85.84-1.71,1.34-1.94,1.12-.22-.23.28-1.09,1.13-1.93.85-.84,1.71-1.34,1.94-1.12.22.23-.28,1.09-1.13,1.93Z"/><path class="cls-12" d="M140.05,69.5c-.23,0-.44.23-.61.6-.16-.84-.46-1.41-.81-1.41s-.65.58-.81,1.44c0-1.66-.43-2.99-.94-2.99-.23,0-.45.29-.61.75-.14-1.11-.48-1.89-.87-1.89-.27,0-.51.37-.69.97.04-1.73-.25-3.08-.72-3.11-.38-.03-.77.84-1,2.1-.13-.12-.26-.25-.39-.37,0,0,0,0,0-.01.13-1.99-.18-3.63-.7-3.67-.39-.03-.78.85-1.01,2.11-.1-.09-.2-.18-.3-.26,0-.13,0-.26-.02-.4-.14-1.99-.67-3.58-1.18-3.54-.32.02-.55.64-.66,1.57-.39-1.95-1.28-3.41-2.01-3.27-.36.07-.61.53-.73,1.21-.16-.44-.37-.9-.64-1.37-1-1.73-2.33-2.83-2.97-2.45-.25.14-.35.48-.34.94-.12-.2-.25-.4-.38-.6-1.14-1.64-2.56-2.62-3.17-2.2-.27.19-.33.63-.22,1.19-.24-.31-.5-.63-.81-.93-1.41-1.41-2.98-2.13-3.51-1.6-.3.3-.18.96.24,1.73-.23-.07-.47-.14-.71-.2-.18-.51-.54-1.07-1.05-1.58-1.05-1.05-2.33-1.48-2.86-.95-.34.34-.28,1,.09,1.71-.49-.07-.99-.13-1.49-.17-.2-.35-.46-.72-.8-1.06-1.05-1.05-2.33-1.48-2.86-.95-.38.38-.26,1.15.23,1.94-.38.03-.75.07-1.12.11-.13-.17-.27-.33-.43-.49-1.05-1.05-2.33-1.48-2.86-.95-.37.37-.26,1.1.18,1.86-.33.05-.65.11-.97.17-.14-.18-.29-.36-.46-.54-1.05-1.05-2.33-1.48-2.86-.95-.41.41-.24,1.27.35,2.13-.22.06-.44.12-.66.17,0,0,0,0,0,0-1.05-1.05-2.33-1.48-2.86-.95-.35.35-.27,1.03.12,1.76-.39.13-.78.26-1.15.39-.09-.11-.19-.22-.29-.32-1.05-1.05-2.33-1.48-2.86-.95-.44.44-.21,1.4.49,2.32-.3.13-.6.26-.89.39-.15-.21-.32-.41-.51-.61-1.05-1.05-2.33-1.48-2.86-.95s-.12,1.74.88,2.78c-.24.12-.47.25-.7.37-.07-.08-.14-.16-.22-.24-1.05-1.05-2.33-1.48-2.86-.95-.48.48-.16,1.6.71,2.6-.52.33-1.01.66-1.46.97-.07-.07-.13-.15-.2-.22-1.05-1.05-2.33-1.48-2.86-.95s-.11,1.76.9,2.8c-.42.34-.79.65-1.11.94-.12-.15-.26-.31-.4-.46-1.05-1.05-2.33-1.48-2.86-.95-.53.53-.1,1.81.95,2.86.01.01.02.02.03.03l-5.32-.48-4.85,4.11.74,1.18-1.37.05c-7.08,6.27-3.24,10.47-3.24,10.47-1.31-3.59,3.69-6.47,3.69-6.47l5.66.3,2.9-1.11c.27-1.62,1.48-2.29,1.48-2.29l2.02.27,14.7-8.63c10.73-4.27,17.87-3.39,22.5-1.65.36.13.68.28.98.41,6.75,2.95,10.38,6.55,14.34,9.7,2.34,1.86,5.82,4.38,10.52,6.93.48-.29.97-.57,1.45-.86l1.28-7.48-2.47,1.65c-.14-.87-.48-1.48-.86-1.48Z"/><path class="cls-26" d="M141.2,68.56c4.92-3.54,10.67-2.28,13.66,2.07,3.18,4.62.37,9.63-1.66,13.57-3.39,4.33-10.12,3.24-11.6,2.33-.41-.25-1.43-1.63-1.88-1.73-.31-.07-.91,1.15-1.21,1.07-3.88-1.05-6.83-3.12-7.97-4.63,1.13-1.91,2.92-5.55,5.04-5.76,0,0,3.42,1.6,4.65,1.11,1.12-.45,1.79-1,.96-8.02Z"/><path class="cls-17" d="M140.82,83.87c.12-.56,1.7-.93,2.93-.4,1.54.66,2.17,2.53,1.75,2.97-.68.71-4.91-1.56-4.69-2.56Z"/><path class="cls-25" d="M61.66,97.82s20.76-17.26,36.67-18.47,31.15,10.93,33.58,17.87c.61,2.63,14.09,4.92,14.09,4.92,0,0,13.21,1.55,9.91,14.76s-13.75,11.46-13.75,11.46l-14.83-4.25.2-2.83-3.17-2.02s.34-3.3-4.92-4.99l-4.65.13s7.82,8.09-1.48,13.35-85.28,1.69-85.28,1.69l12.03-4.65s25.48-3.84,23.16-10.31c-8.7-10.11-1.56-16.66-1.56-16.66Z"/><path class="cls-1" d="M122.19,114.89c1.29.47,7.94,2.41,11.78-5.78.07-.14.19-.25.35-.28.15-.03.31,0,.44.09.05.04,4.91,3.76,8.2,2.66.12-.04.26-.05.36.01,5.01,3.11,13.32,3.39,13.11,1.9.43-10.08-10.43-11.36-10.43-11.36,0,0-13.48-2.29-14.09-4.92-2.43-6.94-17.67-19.09-33.58-17.87-15.91,1.21-36.67,18.47-36.67,18.47,0,0-7.14,6.55,1.56,16.66,2.33,6.47-23.16,10.31-23.16,10.31l-12.03,4.65s75.98,3.57,85.28-1.69c9.3-5.26,1.48-13.35,1.48-13.35l4.65-.13c.84.27,2.49.52,2.75.61Z"/><path class="cls-1" d="M128.87,117c.54-.1,5.65-2.58,7.79-5.66-.86-.46-1.58-.92-2.02-1.23-2.66,5.21-6.44,6.36-9.24,6.36-.98,0-1.84-.14-2.5-.3.33.31.58.61.77.91.03,0,.05,0,.08.01,1.99.55,4.58.01,5.12-.09Z"/><path class="cls-1" d="M143.09,112.62c-1.77.51-3.81-.06-5.49-.82-1.54,2.26-3.83,4.62-7.09,5.78,2.34.69,7.03,1.53,12.6-.39.11-.04.24-.04.34,0,4.22,1.54,10.64,3.11,11.73,1.82.04-.05.09-.08.14-.11.22-.63.42-1.29.6-2,.17-.69.29-1.34.38-1.97-2.75,1.8-11.02-1.42-13.2-2.31ZM139.7,117.1c-1.2.51-2.35.51-2.56.02-.21-.5.6-1.31,1.8-1.81,1.2-.51,2.35-.51,2.56-.02s-.6,1.31-1.8,1.81Z"/><path class="cls-1" d="M153.25,120.52c-3.34,0-8.4-1.72-9.98-2.29-7.42,2.49-13.2.4-14.52-.16-.82.16-1.68.26-2.6.26-.62,0-1.27-.05-1.95-.14.2.64.16,1.08.16,1.08,0,0,5.72.34,7.24.44.09,0,.18.04.26.09.06.04,5.88,4,11.95,1.98.27-.09.56.06.65.33.09.27-.06.56-.33.65-1.37.45-2.71.63-3.98.63-4.45,0-8.04-2.2-8.75-2.67-1.6-.1-3.82-.23-5.24-.31l1.32.84c.15-.16,9.27,3.93,13.66,3.21,4.06-.68,8.02,1.15,9.16,1.73,1.65-1.21,3.25-3.05,4.47-5.86-.44.11-.95.17-1.52.17ZM139.83,120.94c-.86.09-1.6-.12-1.64-.47-.04-.36.63-.72,1.49-.82.86-.09,1.6.12,1.64.47.04.36-.63.72-1.49.82Z"/><path class="cls-1" d="M141.31,125.49c-4.69.79-13.31-3.24-13.68-3.41-.06-.03-.11-.07-.15-.11l-.15,2.15,14.83,4.25s3.53.59,7.13-1.51c-1.48-.68-4.74-1.91-7.98-1.37Z"/><path class="cls-25" d="M118.23,100.02s7.55-5.12,9.84.54c2.29,5.66-6.61,12.27-6.61,12.27l-24,8.63-36.54,11.6-5.53-.47-2.29.47c-3.11.98-5.58.42-8.81-.05l-.64-.09c-2.6-.38-5-1.73-6.5-3.88-1.35-1.93-2.08-4.32.42-6.14-.33,1.04-1.85,6.47,4.74,6.58,0,0-6.4-3.91-2.02-6.03-2.13,2.37,1.88,4.29,6.17,5.06,2.21.15,3.8-.35,4.75-.9.67-.39,1.08-1.07,1.1-1.85.03-1.28-.49-3.85-5.01-4.5,0,0,.51-3.24,7.18,2.97,6.67,6.2,21.47-5.56,21.47-5.56l17.9-7.7,22.35-8.8,2.04-2.14Z"/><path class="cls-11" d="M45.65,256.62c-1.55,0-1.81,1.29-1.81,1.29v-1.12h-.99v.2l.07,2.8h.89l.07-1.15s.33,1.22,1.68,1.15c1.35-.07,2.28-1.46,2.28-1.46,0,0-.63-1.71-2.18-1.71ZM45.95,257.87c-1.27-.02-1.43-.34-1.43-.34,0,0,1.43-1.72,3.15.77,0,0-.45-.42-1.72-.43Z"/><path class="cls-23" d="M173.29,29.07c-2.58,0-4.67-2.1-4.67-4.67s2.1-4.67,4.67-4.67,4.67,2.1,4.67,4.67-2.1,4.67-4.67,4.67Z"/><path class="cls-4" d="M173.29,21.72c1.47,0,2.67,1.2,2.67,2.67s-1.2,2.67-2.67,2.67-2.67-1.2-2.67-2.67,1.2-2.67,2.67-2.67M173.29,17.72c-3.69,0-6.67,2.99-6.67,6.67s2.99,6.67,6.67,6.67,6.67-2.99,6.67-6.67-2.99-6.67-6.67-6.67h0Z"/><path class="cls-12" d="M176.75,24.26c0-1.73-1.29-3.16-2.95-3.4v-.47h1.39v-1h-3.9v1h1.51v.47c-1.67.24-2.95,1.67-2.95,3.4s1.29,3.16,2.95,3.4v.5h-1.51v1h3.9v-1h-1.39v-.5c1.67-.24,2.95-1.67,2.95-3.4ZM175.75,24.26c0,1.18-.84,2.17-1.95,2.4v-4.8c1.11.23,1.95,1.22,1.95,2.4ZM170.84,24.26c0-1.18.84-2.17,1.95-2.4v4.8c-1.11-.23-1.95-1.22-1.95-2.4Z"/><path class="cls-23" d="M158.78,29.03c-2.58,0-4.67-2.1-4.67-4.67s2.1-4.67,4.67-4.67,4.67,2.1,4.67,4.67-2.1,4.67-4.67,4.67Z"/><path class="cls-4" d="M158.78,21.68c1.47,0,2.67,1.2,2.67,2.67s-1.2,2.67-2.67,2.67-2.67-1.2-2.67-2.67,1.2-2.67,2.67-2.67M158.78,17.68c-3.69,0-6.67,2.99-6.67,6.67s2.99,6.67,6.67,6.67,6.67-2.99,6.67-6.67-2.99-6.67-6.67-6.67h0Z"/><text class="cls-8" transform="translate(155.41 28.41) scale(1.2 1)"><tspan x="0" y="0">1</tspan></text></g></svg>