<?xml version="1.0" encoding="UTF-8"?><svg id="Layer_2" xmlns="http://www.w3.org/2000/svg" viewBox="0 0 199.52 273.17"><defs><style>.cls-1{letter-spacing:-.02em;}.cls-2{fill:#ceb9ac;}.cls-3{fill:none;stroke:#231f20;stroke-miterlimit:10;stroke-width:4px;}.cls-4{font-size:14px;}.cls-4,.cls-5,.cls-6,.cls-7,.cls-8,.cls-9,.cls-10{fill:#231f20;}.cls-4,.cls-6{font-family:CreatoDisplay-Bold, 'Creato Display';}.cls-4,.cls-6,.cls-9{font-weight:700;}.cls-11{letter-spacing:0em;}.cls-12{letter-spacing:-.03em;}.cls-13{letter-spacing:-.01em;}.cls-14{fill:#88323d;}.cls-15{letter-spacing:-.02em;}.cls-16{fill:#fff;}.cls-17{letter-spacing:-.03em;}.cls-18{letter-spacing:0em;}.cls-19{letter-spacing:-.03em;}.cls-20{fill:#fff7ab;}.cls-21{letter-spacing:-.01em;}.cls-22{letter-spacing:-.03em;}.cls-6{font-size:4px;}.cls-23{letter-spacing:-.02em;}.cls-24{fill:#d7cf61;}.cls-25{letter-spacing:0em;}.cls-7{font-family:CreatoDisplay-Italic, 'Creato Display';font-style:italic;}.cls-7,.cls-8,.cls-9{font-size:8px;}.cls-26{fill:#c5ba5f;}.cls-8{font-family:CreatoDisplay-Regular, 'Creato Display';}.cls-27{letter-spacing:-.02em;}.cls-28{fill:#f6f083;}.cls-29{letter-spacing:0em;}.cls-30{letter-spacing:-.02em;}.cls-31{letter-spacing:0em;}.cls-32{letter-spacing:.02em;}.cls-33{fill:#010101;}.cls-34{fill:#f4eddd;}.cls-35{letter-spacing:-.03em;}.cls-36{letter-spacing:-.04em;}.cls-37{letter-spacing:-.01em;}.cls-9{font-family:CreatoDisplay-ExtraBold, 'Creato Display';}.cls-38{letter-spacing:-.03em;}.cls-10{font-family:CreatoDisplay-Medium, 'Creato Display';font-size:10px;font-weight:500;}.cls-39{letter-spacing:-.02em;}.cls-40{letter-spacing:0em;}</style></defs><g id="Layer_1-2"><path class="cls-28" d="M12.74,2h174.03c5.93,0,10.74,4.81,10.74,10.74v247.69c0,5.93-4.81,10.74-10.74,10.74H12.74c-5.93,0-10.74-4.81-10.74-10.74V12.74C2,6.81,6.81,2,12.74,2Z"/><path class="cls-5" d="M186.78,4c4.82,0,8.74,3.92,8.74,8.74v247.69c0,4.82-3.92,8.74-8.74,8.74H12.74c-4.82,0-8.74-3.92-8.74-8.74V12.74c0-4.82,3.92-8.74,8.74-8.74h174.03M186.78,0H12.74C5.7,0,0,5.7,0,12.74v247.69c0,7.04,5.7,12.74,12.74,12.74h174.03c7.04,0,12.74-5.7,12.74-12.74V12.74c0-7.04-5.7-12.74-12.74-12.74h0Z"/><polygon class="cls-20" points="195.79 51.42 164.35 64.59 164.1 65.23 164.1 79.59 195.76 82.77 195.76 68.8 195.72 68.79 195.79 68.8 195.79 51.42"/><polygon class="cls-24" points="84.16 38.78 83.21 66.09 166.45 74.62 194.82 47.46 84.16 38.78"/><path class="cls-24" d="M10.49,3.31c-3.76-.01-6.81,3.04-6.81,6.8l.38,252.84c0,3.73,3.01,6.76,6.74,6.79l176.91,1.56c4.65.04,8.44-3.72,8.44-8.37l-.04-252.61c0-3.59-2.9-6.5-6.49-6.51L10.49,3.31Z"/><polygon class="cls-20" points="84.13 65.11 122.15 49.19 122.15 70.19 83.5 65.85 84.13 65.11"/><polygon class="cls-20" points="87.37 123.74 125.39 107.82 125.39 128.83 86.74 124.48 87.37 123.74"/><polygon class="cls-24" points="26.59 37.7 81.15 37.83 65.9 44.01 26.59 37.7"/><polygon class="cls-24" points="91.45 37.84 195.59 37.97 195.79 47.83 91.45 37.84"/><path class="cls-24" d="M61.5,44.83l-45.58-6.86v29.96l14.89-5.27s31.61,3.38,31.61,2.7-.92-20.53-.92-20.53Z"/><polygon class="cls-24" points="3.73 72.62 15.88 66.75 15.92 37.97 3.73 37.97 3.73 72.62"/><polygon class="cls-26" points="41.11 53.44 104.48 58.71 104.48 68.03 41.15 61.65 41.11 53.44"/><polygon class="cls-20" points="158.55 216.04 113.19 252.97 113.25 267.88 158.55 271.45 158.55 216.04"/><polygon class="cls-26" points="81.94 124.63 195.77 134.09 195.77 149.33 82.01 148.86 81.94 124.63"/><polygon class="cls-26" points="81.4 155.91 195.23 165.37 196.94 215.24 81.47 180.14 81.4 155.91"/><polygon class="cls-20" points="52.71 51.95 84.16 38.78 84.16 56.16 52.19 52.56 52.71 51.95"/><polygon class="cls-20" points="2.36 19.7 33.8 6.42 33.8 40.23 1.83 33.23 2.36 19.7"/><polygon class="cls-20" points="161.39 70.96 197.15 49.54 197.15 77.8 160.8 71.95 161.39 70.96"/><polygon class="cls-20" points="161.09 16.52 190.88 1.8 190.88 21.22 160.6 17.2 161.09 16.52"/><polygon class="cls-20" points="35.52 61.99 4.08 75.16 3.83 75.8 3.83 90.16 35.49 93.33 35.49 79.36 35.45 79.35 35.52 79.36 35.52 61.99"/><polyline class="cls-20" points="3.59 259.87 7.61 258.44 6.87 180.59 2.16 181.37"/><polygon class="cls-20" points="98.76 68.75 67.31 81.93 67.07 82.57 67.07 96.92 98.73 100.1 98.73 86.13 98.69 86.12 98.76 86.13 98.76 68.75"/><polygon class="cls-20" points="76.64 145.72 69.46 148.74 76.64 148.83 76.64 145.72"/><polygon class="cls-26" points="64.68 80.32 76.67 81.7 76.67 97.57 64.69 95.9 64.68 80.32"/><polygon class="cls-26" points="76.64 142.94 88.63 144.32 98.18 148.9 76.65 148.86 76.64 142.94"/><path class="cls-28" d="M105.05,121.77l27.74-19.7L3.88,88.97v3.74s109.81,11.57,109.81,11.57l-31.76,20.3s114.03,13.52,113.83,13.52l-.02-6.63-90.69-9.7Z"/><path class="cls-28" d="M87.55,68.37l-22.92,11.91,12.06,1.43,22.09-12.06,96.99,9.78v-3.66s-25.18-2.75-25.18-2.75l25.14-19.75v-5.92s.03,0,.03,0v-2.31h-.03s0-1.24,0-1.24l-1.54,1.13-96.38-7.08h-20.05s-4.49,1.93-10.33,4.43L1.14,33.19l-.67,3.64,61.04,8c-9.29,3.98-20.39,8.61-20.39,8.61l63.37,5.27,17.66-9.52-9.25-1.38-14.35,8-45.68-3.45,31.46-13.11,107,7.78-33.61,24.58-127.05-10.86-26.83,10.74v5.79l31.61-12.91,52.09,4Z"/><polygon class="cls-28" points="3.89 134.55 14.16 136.01 60.21 143.19 48.64 148.79 69.46 148.74 76.81 145.78 198.02 166.57 199.37 162.25 3.88 128.69 3.89 134.55"/><polygon class="cls-28" points="1.2 179.85 15.19 183.12 60.21 196.31 48.64 201.91 69.46 201.86 76.81 198.9 199.1 232.2 199.37 215.38 12.43 174.19 1.2 179.85"/><path class="cls-28" d="M41.11,53.44c-.05,0-.1.01-.11.02-.02.02.03,0,.11-.02Z"/><polygon class="cls-28" points="171.39 16.81 189.83 2.32 176.1 2.32 158.26 15.37 28.61 4.29 1.22 15.25 1.22 21.16 33.48 7.99 86.64 12.06 63.25 24.22 75.56 25.68 98.1 13.37 197.08 23.35 197.07 19.62 171.39 16.81"/><path class="cls-2" d="M121.87,109.64s-3.44-.78-1.87,3.05c.1.26.2.49.29.72-.75.65-2.28,2.63.96,6.31,0,0-3.86.75-.97,3.72l7.85.81-6.25-14.6Z"/><path class="cls-16" d="M181.37,129.91l-1.75-4.07c-5.41-.62-2.29-4.37-5.83-5.83-3.54-1.46-1.46-6.87-1.46-6.87,0,0-5.21,3.85-7.08-3.44-1.87-7.29,1.87-4.06,1.98-4.37.1-.31-3.85-4.27-3.85-4.27l.31-3.64c-7.18,1.56-7.39-4.48-7.39-4.48,9.37-14.68-10.2-16.14-10.2-16.14-22.28-11.14-45.24-1.15-45.24-1.15l-7.5.31c-4.17,1.51-.99,6.35-.99,6.35,0,.24.03.46.04.69-3.67.26-8.5,1.6-12.84,6.11,0,0,5.57-5.18,12.78-5.77-3.44,1.4-7.73,4.25-10.43,10.1,0,0,3.7-6.97,10.55-9.79.1.9.28,1.74.6,2.54-4.91,4.47-13,14.39-8.51,28.41,0,0-4.07-16.55,8.82-27.7.21.42.47.85.77,1.28-3.37,4.61-8.24,13.95-5.32,26.92,0,0-2.7-15.61,5.67-26.42.25.32.53.64.84.97-1.95,4.82-4.18,14.26,1.79,24.79,0,0-6.39-12.81-1.38-24.37,2.23,2.24,5.86,4.84,11.82,8.68,12.91,8.33,20.49,25.47,20.49,25.47l53.31,5.67Z"/><circle class="cls-14" cx="111.76" cy="82.99" r="2.81"/><path class="cls-2" d="M130.35,95.38s-2.81-13.9,14.84-12.18c0,0,12.03,6.56.47,16.24,0,0-12.57,1.38-11.01,3.57l-4.3-7.63Z"/><path class="cls-14" d="M130.35,95.38s3.08-10.76,10.46-2.54c0,0-.23,2.56-.53,2.56s-4.96-2.7-8.8,1.97l-1.14-1.99Z"/><polygon class="cls-28" points="68.62 148.8 .56 184.5 1.88 172.06 49 148.6 68.62 148.8"/><polygon class="cls-26" points="86.28 250.69 113.25 252.27 113.25 268.14 86.3 266.48 86.28 250.69"/><polygon class="cls-28" points="147.5 214.28 86.28 250.69 113.25 252.92 164.69 216.64 147.5 214.28"/><polygon class="cls-28" points="1.81 253.38 174.33 271.18 96.87 270.78 2.21 259.87 1.81 253.38"/><path class="cls-34" d="M14.22,36v-12.94c0-5.92,4.82-10.74,10.74-10.74h150.98c5.92,0,10.74,4.82,10.74,10.74v12.94H14.22Z"/><path class="cls-5" d="M175.94,14.33c4.82,0,8.74,3.92,8.74,8.74v10.93H16.22v-10.93c0-4.82,3.92-8.74,8.74-8.74h150.98M175.94,10.33H24.96c-7.04,0-12.74,5.7-12.74,12.74v14.93h176.46v-14.93c0-7.04-5.7-12.74-12.74-12.74h0Z"/><path class="cls-34" d="M24.96,246.14c-5.92,0-10.74-4.82-10.74-10.74v-84.71h172.46v84.71c0,5.92-4.82,10.74-10.74,10.74H24.96Z"/><path class="cls-5" d="M184.68,152.69v82.71c0,4.82-3.92,8.74-8.74,8.74H24.96c-4.82,0-8.74-3.92-8.74-8.74v-82.71h168.46M188.68,148.69H12.22v86.71c0,7.04,5.7,12.74,12.74,12.74h150.98c7.04,0,12.74-5.7,12.74-12.74v-86.71h0Z"/><line class="cls-3" x1="14.6" y1="35.97" x2="185.57" y2="35.97"/><line class="cls-3" x1="14.6" y1="150.71" x2="185.57" y2="150.71"/><line class="cls-3" x1="14.6" y1="168.51" x2="185.57" y2="168.51"/><text class="cls-4" transform="translate(20.74 29.52)"><tspan x="0" y="0">Algernon</tspan></text><text class="cls-10" transform="translate(21.01 163)"><tspan class="cls-1" x="0" y="0">L</tspan><tspan x="5.2" y="0">egendary C</tspan><tspan class="cls-30" x="57.58" y="0">r</tspan><tspan x="61.02" y="0">e</tspan><tspan class="cls-13" x="66.6" y="0">a</tspan><tspan x="71.9" y="0">tu</tspan><tspan class="cls-30" x="80.75" y="0">r</tspan><tspan x="84.19" y="0">e- Mouse</tspan></text><text class="cls-6" transform="translate(21.52 255.04)"><tspan x="0" y="0">13</tspan><tspan class="cls-32" x="0" y="4.8">T</tspan><tspan x="2.48" y="4.8">TM - EN</tspan></text><path class="cls-5" d="M45.34,253.7c.31.07.47.28.47.6v.45c0,.12.02.22.04.29h-.52c-.04-.08-.06-.16-.06-.29v-.43c0-.35-.21-.44-.49-.44h-.65v1.15h-.54v-2.85h1.32c.61,0,.94.32.94.81,0,.36-.18.6-.51.7ZM44.84,252.6h-.72v.88h.72c.32,0,.46-.17.46-.44s-.14-.44-.46-.44Z"/><path class="cls-5" d="M49.47,258.92h.53c.04.38.22.55.66.55s.62-.18.62-.45c0-.2-.11-.32-.54-.39l-.36-.05c-.6-.08-.83-.29-.83-.76,0-.51.36-.88,1.1-.88s1.1.36,1.1.92h-.52c-.04-.34-.22-.51-.6-.51s-.55.18-.55.44c0,.2.09.3.47.35l.36.05c.58.08.9.3.9.8,0,.53-.38.89-1.18.89s-1.17-.35-1.17-.96Z"/><path class="cls-5" d="M52.15,260.25h.21c.24,0,.38-.12.38-.31,0-.06-.01-.13-.04-.2l-.74-1.97h.54l.54,1.66.54-1.66h.54l-.74,1.97c-.25.67-.52.88-1.02.88h-.2v-.37Z"/><path class="cls-5" d="M54.13,258.8c0-.64.36-1.07,1.02-1.07s1.03.44,1.03,1.05c0,.04,0,.08,0,.13h-1.53c.02.42.22.61.53.61.26,0,.42-.13.48-.34h.48c-.09.42-.4.69-.96.69-.67,0-1.05-.42-1.05-1.07ZM54.64,258.58h1.02c-.04-.33-.23-.49-.51-.49s-.46.16-.51.49Z"/><path class="cls-5" d="M56.39,258.8c0-.68.35-1.07.91-1.07.31,0,.52.13.64.35v-1.1h.52v2.85h-.49v-.35c-.11.24-.32.39-.66.39-.56,0-.91-.4-.91-1.07ZM57.94,258.8c0-.47-.21-.68-.52-.68s-.51.21-.51.68.21.68.51.68.52-.21.52-.68Z"/><path class="cls-5" d="M60.57,259.84v-2.4h-.86v-.44h2.28v.44h-.87v2.4h-.54Z"/><path class="cls-5" d="M61.85,259.25c0-.32.19-.57.71-.61l.42-.04c.21-.02.27-.08.27-.18,0-.2-.12-.32-.38-.32-.24,0-.37.1-.39.32h-.51c0-.42.26-.69.9-.69s.9.27.9.69v.88c0,.28.02.46.06.53h-.47c-.06-.08-.09-.16-.09-.32-.12.24-.32.36-.68.36-.48,0-.74-.24-.74-.62ZM63.24,258.98v-.14s-.13.07-.27.08l-.24.02c-.26.02-.36.13-.36.28,0,.18.12.31.38.31.32,0,.5-.24.5-.54Z"/><path class="cls-5" d="M64.1,257.2c0-.15.11-.27.3-.27s.3.12.3.27-.1.27-.3.27-.3-.12-.3-.27ZM64.14,259.84v-2.06h.52v2.06h-.52Z"/><path class="cls-5" d="M67.38,259.84v-1.28c0-.28-.09-.4-.29-.4-.22,0-.39.18-.39.52v1.17h-.5v-1.28c0-.28-.09-.4-.29-.4-.22,0-.39.18-.39.52v1.17h-.5v-2.06h.49v.34c.1-.22.28-.38.56-.38.3,0,.49.13.57.39.1-.24.31-.39.59-.39.42,0,.63.24.63.74v1.36h-.5Z"/><path class="cls-5" d="M68.17,258.8c0-.65.38-1.07,1.05-1.07s1.05.42,1.05,1.07-.38,1.07-1.05,1.07-1.05-.42-1.05-1.07ZM69.76,258.8c0-.46-.19-.68-.54-.68s-.53.22-.53.68.19.68.53.68.54-.22.54-.68Z"/><path class="cls-5" d="M70.49,258.8c0-.65.38-1.07,1.05-1.07s1.05.42,1.05,1.07-.38,1.07-1.05,1.07-1.05-.42-1.05-1.07ZM72.07,258.8c0-.46-.19-.68-.54-.68s-.53.22-.53.68.19.68.53.68.54-.22.54-.68Z"/><path class="cls-5" d="M72.88,259.84v-2.06h.49v.46c.11-.36.29-.49.58-.49.06,0,.14.02.19.03v.45h-.21c-.32,0-.53.23-.53.65v.96h-.52Z"/><path class="cls-5" d="M78.07,259.84v-2.35l-.82,2.35h-.46l-.83-2.35v2.35h-.52v-2.85h.85l.72,2.03.72-2.03h.86v2.85h-.52Z"/><path class="cls-5" d="M78.92,259.25c0-.32.19-.57.71-.61l.42-.04c.21-.02.27-.08.27-.18,0-.2-.12-.32-.38-.32-.24,0-.37.1-.39.32h-.51c0-.42.26-.69.9-.69s.9.27.9.69v.88c0,.28.02.46.06.53h-.47c-.06-.08-.09-.16-.09-.32-.12.24-.32.36-.68.36-.48,0-.74-.24-.74-.62ZM80.31,258.98v-.14s-.13.07-.27.08l-.24.02c-.26.02-.36.13-.36.28,0,.18.12.31.38.31.32,0,.5-.24.5-.54Z"/><path class="cls-5" d="M82.52,259.84v-1.26c0-.28-.1-.42-.35-.42-.27,0-.45.2-.45.53v1.15h-.52v-2.06h.49v.34c.11-.22.3-.38.63-.38.47,0,.71.24.71.74v1.36h-.52Z"/><path class="cls-5" d="M83.33,259.18h.5c.02.22.12.35.44.35s.42-.13.42-.28c0-.14-.11-.21-.29-.24l-.36-.05c-.48-.07-.66-.23-.66-.58s.25-.65.88-.65.88.28.88.66h-.5c-.02-.17-.08-.32-.39-.32-.26,0-.36.11-.36.27,0,.14.08.2.23.22l.35.05c.46.06.72.22.72.61,0,.37-.27.65-.94.65s-.93-.28-.93-.69Z"/><path class="cls-5" d="M85.42,258.8c0-.65.38-1.07,1.05-1.07s1.05.42,1.05,1.07-.38,1.07-1.05,1.07-1.05-.42-1.05-1.07ZM87.01,258.8c0-.46-.19-.68-.54-.68s-.53.22-.53.68.19.68.53.68.54-.22.54-.68Z"/><path class="cls-5" d="M87.74,258.8c0-.65.38-1.07,1.05-1.07s1.05.42,1.05,1.07-.38,1.07-1.05,1.07-1.05-.42-1.05-1.07ZM89.32,258.8c0-.46-.19-.68-.54-.68s-.53.22-.53.68.19.68.53.68.54-.22.54-.68Z"/><path class="cls-5" d="M90.14,259.84v-2.06h.49v.46c.11-.36.29-.49.58-.49.06,0,.14.02.19.03v.45h-.21c-.32,0-.53.23-.53.65v.96h-.52Z"/><text class="cls-6" transform="translate(153.43 258.15) scale(.58)"><tspan x="0" y="0" xml:space="preserve">TM  </tspan></text><text class="cls-6" transform="translate(158.08 259.49)"><tspan class="cls-31" x="0" y="0">&amp; © Ti</tspan><tspan class="cls-18" x="11.33" y="0">m</tspan><tspan x="14.51" y="0">taim</tspan></text><text class="cls-7" transform="translate(21.27 225.58)"><tspan x="0" y="0">Th</tspan><tspan class="cls-29" x="8.84" y="0">a</tspan><tspan x="12.98" y="0">t</tspan><tspan class="cls-39" x="15.63" y="0">&apos;</tspan><tspan class="cls-11" x="16.98" y="0">s the thing about human li</tspan><tspan class="cls-17" x="105.66" y="0">f</tspan><tspan x="108" y="0">e- the</tspan><tspan class="cls-22" x="128.47" y="0">r</tspan><tspan class="cls-25" x="131.07" y="0">e is no </tspan><tspan x="0" y="9.6">co</tspan><tspan class="cls-37" x="8.66" y="9.6">n</tspan><tspan class="cls-25" x="12.81" y="9.6">t</tspan><tspan class="cls-22" x="15.46" y="9.6">r</tspan><tspan x="18.06" y="9.6">ol g</tspan><tspan class="cls-22" x="30.62" y="9.6">r</tspan><tspan x="33.22" y="9.6">ou</tspan><tspan class="cls-27" x="41.94" y="9.6">p</tspan><tspan x="46.34" y="9.6">.</tspan></text><text class="cls-8" transform="translate(21.57 184.05)"><tspan class="cls-36" x="0" y="0">A</tspan><tspan x="5.18" y="0">t the beginning </tspan><tspan class="cls-15" x="58.89" y="0">o</tspan><tspan class="cls-25" x="63.19" y="0">f </tspan><tspan class="cls-12" x="67.79" y="0">y</tspan><tspan x="71.78" y="0">our up</tspan><tspan class="cls-36" x="94.09" y="0">k</tspan><tspan x="97.98" y="0">ee</tspan><tspan class="cls-27" x="106.76" y="0">p</tspan><tspan x="111.17" y="0">, Algernon </tspan><tspan class="cls-22" x="0" y="9.6">r</tspan><tspan class="cls-25" x="2.6" y="9.6">eci</tspan><tspan class="cls-19" x="12.68" y="9.6">ev</tspan><tspan x="20.82" y="9.6">es an I</tspan><tspan class="cls-29" x="43.23" y="9.6">n</tspan><tspan class="cls-35" x="47.38" y="9.6">t</tspan><tspan x="49.79" y="9.6">ellect cou</tspan><tspan class="cls-37" x="83.31" y="9.6">n</tspan><tspan class="cls-35" x="87.46" y="9.6">t</tspan><tspan class="cls-25" x="89.87" y="9.6">er. When</tspan><tspan class="cls-12" x="121.31" y="9.6">ev</tspan><tspan x="129.45" y="9.6">er </tspan><tspan class="cls-12" x="138.65" y="9.6">y</tspan><tspan x="142.63" y="9.6">ou</tspan><tspan x="0" y="19.2">ca</tspan><tspan class="cls-21" x="8.4" y="19.2">s</tspan><tspan x="12.26" y="19.2">t a spell, </tspan><tspan class="cls-12" x="42.58" y="19.2">y</tspan><tspan x="46.56" y="19.2">ou gain X li</tspan><tspan class="cls-17" x="84.17" y="19.2">f</tspan><tspan class="cls-27" x="86.5" y="19.2">e</tspan><tspan class="cls-25" x="90.74" y="19.2">, whe</tspan><tspan class="cls-22" x="109.39" y="19.2">r</tspan><tspan class="cls-25" x="111.99" y="19.2">e X is half the</tspan><tspan x="0" y="28.8">number </tspan><tspan class="cls-23" x="28.44" y="28.8">o</tspan><tspan x="32.74" y="28.8">f its I</tspan><tspan class="cls-37" x="49.08" y="28.8">n</tspan><tspan class="cls-38" x="53.22" y="28.8">t</tspan><tspan x="55.64" y="28.8">ellect cou</tspan><tspan class="cls-29" x="89.16" y="28.8">n</tspan><tspan class="cls-35" x="93.3" y="28.8">t</tspan><tspan x="95.72" y="28.8">e</tspan><tspan class="cls-40" x="100.11" y="28.8">r</tspan><tspan x="102.9" y="28.8">s </tspan><tspan class="cls-22" x="108.85" y="28.8">r</tspan><tspan x="111.45" y="28.8">ounded u</tspan><tspan class="cls-27" x="144.13" y="28.8">p</tspan><tspan class="cls-25" x="148.54" y="28.8">.</tspan></text><path class="cls-33" d="M178.8,155.77c-2.17-2.18-5.69-2.2-7.88-.03-2.18,2.17-2.2,5.69-.03,7.88,2.17,2.18,5.69,2.2,7.88.03,2.18-2.17,2.2-5.69.03-7.88ZM174.17,157.15c.86-.85,1.73-1.36,1.96-1.13.23.23-.28,1.1-1.14,1.95-.86.85-1.73,1.36-1.96,1.13s.28-1.1,1.14-1.95ZM175.02,164.13c-1.19,0-2.51-.33-3.41-1.23-.87-.88-1.21-2.17-1.21-3.41,0-1.24.49-2.39,1.37-3.26l.84.84c-.81.8-1.25,1.86-1.26,3,0,.79.39,1.83.83,2.26.39.33,1.14.87,2.28.88,0,0,0,0,0,0,1.13,0,2.2-.43,3-1.23l.82.82c-.9.9-2.08,1.34-3.27,1.34ZM177.38,160.37c-.85.84-1.71,1.34-1.94,1.12-.22-.23.28-1.09,1.13-1.93.85-.84,1.71-1.34,1.94-1.12.22.23-.28,1.09-1.13,1.93Z"/><path class="cls-5" d="M46.09,256.69c-1.55,0-1.81,1.29-1.81,1.29v-1.12h-.99v.2l.07,2.8h.89l.07-1.15s.33,1.22,1.68,1.15c1.35-.07,2.28-1.46,2.28-1.46,0,0-.63-1.71-2.18-1.71ZM46.39,257.94c-1.27-.02-1.43-.34-1.43-.34,0,0,1.43-1.72,3.15.77,0,0-.45-.42-1.72-.43Z"/><path class="cls-33" d="M174.24,29.2c-2.58,0-4.67-2.1-4.67-4.67s2.1-4.67,4.67-4.67,4.67,2.1,4.67,4.67-2.1,4.67-4.67,4.67Z"/><path class="cls-5" d="M174.24,21.85c1.47,0,2.67,1.2,2.67,2.67s-1.2,2.67-2.67,2.67-2.67-1.2-2.67-2.67,1.2-2.67,2.67-2.67M174.24,17.85c-3.69,0-6.67,2.99-6.67,6.67s2.99,6.67,6.67,6.67,6.67-2.99,6.67-6.67-2.99-6.67-6.67-6.67h0Z"/><path class="cls-28" d="M174.23,21.66c-.41-.63-4.64-2.48-4.66.36v5.91s1.2-2.48,4.65-.2h0s0,0,0,0c0,0,0,0,0,0h0c3.45-2.29,4.65.19,4.65.19v-5.91c-.02-2.84-4.26-.98-4.66-.35Z"/><rect class="cls-34" x="153.61" y="239" width="31.74" height="14.04" rx="6.67" ry="6.67"/><path class="cls-33" d="M178.94,254.74h-18.92c-4.39,0-7.97-3.91-7.97-8.72s3.58-8.73,7.97-8.73h18.92c4.39,0,7.97,3.91,7.97,8.72s-3.58,8.73-7.97,8.73ZM160.02,240.71c-2.68,0-4.85,2.38-4.85,5.31s2.18,5.31,4.85,5.31h18.92c2.68,0,4.85-2.38,4.85-5.31s-2.18-5.31-4.85-5.31h-18.92Z"/><text class="cls-9" transform="translate(164.75 248.56)"><tspan x="0" y="0">1/1</tspan></text><path class="cls-5" d="M186.78,4c4.82,0,8.74,3.92,8.74,8.74v247.69c0,4.82-3.92,8.74-8.74,8.74H12.74c-4.82,0-8.74-3.92-8.74-8.74V12.74c0-4.82,3.92-8.74,8.74-8.74h174.03M186.78,0H12.74C5.7,0,0,5.7,0,12.74v247.69c0,7.04,5.7,12.74,12.74,12.74h174.03c7.04,0,12.74-5.7,12.74-12.74V12.74c0-7.04-5.7-12.74-12.74-12.74h0Z"/></g></svg>