<?xml version="1.0" encoding="UTF-8"?><svg id="Layer_2" xmlns="http://www.w3.org/2000/svg" viewBox="0 0 199.52 273.17"><defs><style>.cls-1{letter-spacing:-.02em;}.cls-2{letter-spacing:-.02em;}.cls-3{letter-spacing:-.02em;}.cls-4{stroke:#231f20;stroke-width:4px;}.cls-4,.cls-5{fill:none;}.cls-4,.cls-5,.cls-6,.cls-7{stroke-miterlimit:10;}.cls-8{font-size:14px;}.cls-8,.cls-9,.cls-10,.cls-11,.cls-12{fill:#231f20;}.cls-8,.cls-13,.cls-14{font-family:CreatoDisplay-Bold, 'Creato Display';}.cls-8,.cls-13,.cls-14,.cls-11{font-weight:700;}.cls-13{font-size:4px;}.cls-13,.cls-14,.cls-15{fill:#f4eddd;}.cls-16{letter-spacing:0em;}.cls-17{fill:#e95242;}.cls-18{letter-spacing:0em;}.cls-5,.cls-7{stroke:#010101;}.cls-19{letter-spacing:0em;}.cls-20{letter-spacing:-.02em;}.cls-21{letter-spacing:-.09em;}.cls-10{font-family:CreatoDisplay-Regular, 'Creato Display';font-size:7px;}.cls-22{letter-spacing:0em;}.cls-23{letter-spacing:-.02em;}.cls-24{fill:#db9191;}.cls-25{letter-spacing:0em;}.cls-26{letter-spacing:-.03em;}.cls-27{letter-spacing:-.03em;}.cls-28{letter-spacing:-.02em;}.cls-14{font-size:11.69px;}.cls-29{fill:#f2cbca;}.cls-30{letter-spacing:0em;}.cls-31{letter-spacing:.02em;}.cls-32,.cls-6{fill:#010101;}.cls-33{letter-spacing:-.03em;}.cls-34{letter-spacing:0em;}.cls-6{stroke:#c9aeac;stroke-width:.25px;}.cls-7{fill:#7e8ba0;stroke-width:3px;}.cls-11{font-family:CreatoDisplay-ExtraBold, 'Creato Display';font-size:8px;}.cls-35{letter-spacing:-.03em;}.cls-12{font-family:CreatoDisplay-Medium, 'Creato Display';font-size:10px;font-weight:500;}.cls-36{letter-spacing:-.01em;}.cls-37{letter-spacing:0em;}</style></defs><g id="Layer_1-2"><path class="cls-17" d="M12.74,2h174.03c5.93,0,10.74,4.81,10.74,10.74v247.69c0,5.93-4.81,10.74-10.74,10.74H12.74c-5.93,0-10.74-4.81-10.74-10.74V12.74C2,6.81,6.81,2,12.74,2Z"/><path class="cls-9" d="M186.78,4c4.82,0,8.74,3.92,8.74,8.74v247.69c0,4.82-3.92,8.74-8.74,8.74H12.74c-4.82,0-8.74-3.92-8.74-8.74V12.74c0-4.82,3.92-8.74,8.74-8.74h174.03M186.78,0H12.74C5.7,0,0,5.7,0,12.74v247.69c0,7.04,5.7,12.74,12.74,12.74h174.03c7.04,0,12.74-5.7,12.74-12.74V12.74c0-7.04-5.7-12.74-12.74-12.74h0Z"/><path class="cls-15" d="M24.53,12.26h150.98c5.93,0,10.74,4.81,10.74,10.74v212.33c0,5.93-4.81,10.74-10.74,10.74H24.53c-5.93,0-10.74-4.81-10.74-10.74V23c0-5.93,4.81-10.74,10.74-10.74Z"/><path class="cls-9" d="M175.5,14.26c4.82,0,8.74,3.92,8.74,8.74v212.33c0,4.82-3.92,8.74-8.74,8.74H24.53c-4.82,0-8.74-3.92-8.74-8.74V23c0-4.82,3.92-8.74,8.74-8.74h150.98M175.5,10.26H24.53c-7.04,0-12.74,5.7-12.74,12.74v212.33c0,7.04,5.7,12.74,12.74,12.74h150.98c7.04,0,12.74-5.7,12.74-12.74V23c0-7.04-5.7-12.74-12.74-12.74h0Z"/><line class="cls-4" x1="14.16" y1="35.9" x2="185.13" y2="35.9"/><line class="cls-4" x1="14.16" y1="150.64" x2="185.13" y2="150.64"/><line class="cls-4" x1="14.16" y1="168.44" x2="185.13" y2="168.44"/><text class="cls-8" transform="translate(20.3 29.45)"><tspan x="0" y="0">Ship </tspan><tspan class="cls-28" x="31.58" y="0">o</tspan><tspan x="39.45" y="0">f Theseus</tspan></text><text class="cls-12" transform="translate(20.57 162.93)"><tspan class="cls-1" x="0" y="0">L</tspan><tspan x="5.2" y="0">egendary Arti</tspan><tspan class="cls-20" x="66.49" y="0">f</tspan><tspan class="cls-16" x="69.68" y="0">act- </tspan><tspan class="cls-21" x="89.95" y="0">V</tspan><tspan x="96.05" y="0">ehicle</tspan></text><text class="cls-10" transform="translate(20.57 183.97)"><tspan x="0" y="0">Ship </tspan><tspan class="cls-2" x="15.09" y="0">o</tspan><tspan x="18.86" y="0">f Theseus e</tspan><tspan class="cls-36" x="54.5" y="0">n</tspan><tspan class="cls-26" x="58.12" y="0">t</tspan><tspan class="cls-25" x="60.23" y="0">e</tspan><tspan class="cls-18" x="64.08" y="0">r</tspan><tspan x="66.52" y="0">s the b</tspan><tspan class="cls-36" x="87.32" y="0">a</tspan><tspan x="90.95" y="0">ttl</tspan><tspan class="cls-3" x="96.91" y="0">e</tspan><tspan class="cls-22" x="100.59" y="0">field with 4 +1/+1 </tspan><tspan x="0" y="8.4">cou</tspan><tspan class="cls-34" x="11.28" y="8.4">n</tspan><tspan class="cls-26" x="14.9" y="8.4">t</tspan><tspan x="17.02" y="8.4">e</tspan><tspan class="cls-37" x="20.86" y="8.4">r</tspan><tspan x="23.3" y="8.4">s. E</tspan><tspan class="cls-33" x="33.89" y="8.4">v</tspan><tspan x="37.38" y="8.4">ery time Ship </tspan><tspan class="cls-2" x="78.9" y="8.4">o</tspan><tspan x="82.66" y="8.4">f Theseus </tspan><tspan class="cls-36" x="114.46" y="8.4">a</tspan><tspan x="118.08" y="8.4">ttac</tspan><tspan class="cls-23" x="130.07" y="8.4">k</tspan><tspan x="133.61" y="8.4">s,</tspan><tspan class="cls-35" x="0" y="16.8">r</tspan><tspan x="2.28" y="16.8">em</tspan><tspan class="cls-33" x="11.56" y="16.8">ov</tspan><tspan class="cls-25" x="18.77" y="16.8">e 3 +/+1 cou</tspan><tspan class="cls-36" x="55.3" y="16.8">n</tspan><tspan class="cls-26" x="58.93" y="16.8">t</tspan><tspan class="cls-25" x="61.04" y="16.8">e</tspan><tspan class="cls-18" x="64.88" y="16.8">r</tspan><tspan x="67.33" y="16.8">s f</tspan><tspan class="cls-27" x="74.8" y="16.8">r</tspan><tspan x="77.08" y="16.8">om it, then add 3 +1/+1 </tspan><tspan x="0" y="25.2">cou</tspan><tspan class="cls-34" x="11.28" y="25.2">n</tspan><tspan class="cls-26" x="14.9" y="25.2">t</tspan><tspan x="17.02" y="25.2">e</tspan><tspan class="cls-37" x="20.86" y="25.2">r</tspan><tspan x="23.3" y="25.2">s on it.</tspan><tspan x="0" y="42">C</tspan><tspan class="cls-35" x="5.01" y="42">r</tspan><tspan class="cls-33" x="7.29" y="42">e</tspan><tspan x="10.92" y="42">w 1</tspan></text><text class="cls-13" transform="translate(21.08 254.97)"><tspan x="0" y="0">4</tspan><tspan class="cls-31" x="0" y="4.8">T</tspan><tspan x="2.48" y="4.8">TM - EN</tspan></text><path class="cls-15" d="M43.1,253.89v-1.77h.54v1.72c0,.54.2.72.67.72s.68-.19.68-.72v-1.72h.54v1.77c0,.74-.4,1.12-1.22,1.12s-1.22-.38-1.22-1.12Z"/><path class="cls-15" d="M49.03,258.85h.53c.04.38.22.55.66.55s.62-.18.62-.45c0-.2-.11-.32-.54-.39l-.36-.05c-.6-.08-.83-.29-.83-.76,0-.51.36-.88,1.1-.88s1.1.36,1.1.92h-.52c-.04-.34-.22-.51-.6-.51s-.55.18-.55.44c0,.2.09.3.47.35l.36.05c.58.08.9.3.9.8,0,.53-.38.89-1.18.89s-1.17-.35-1.17-.96Z"/><path class="cls-15" d="M51.71,260.18h.21c.24,0,.38-.12.38-.31,0-.06-.01-.13-.04-.2l-.74-1.97h.54l.54,1.66.54-1.66h.54l-.74,1.97c-.25.67-.52.88-1.02.88h-.2v-.37Z"/><path class="cls-15" d="M53.69,258.74c0-.64.36-1.07,1.02-1.07s1.03.44,1.03,1.05c0,.04,0,.08,0,.13h-1.53c.02.42.22.61.53.61.26,0,.42-.13.48-.34h.48c-.09.42-.4.69-.96.69-.67,0-1.05-.42-1.05-1.07ZM54.2,258.51h1.02c-.04-.33-.23-.49-.51-.49s-.46.16-.51.49Z"/><path class="cls-15" d="M55.96,258.74c0-.68.35-1.07.91-1.07.31,0,.52.13.64.35v-1.1h.52v2.85h-.49v-.35c-.11.24-.32.39-.66.39-.56,0-.91-.4-.91-1.07ZM57.5,258.74c0-.47-.21-.68-.52-.68s-.51.21-.51.68.21.68.51.68.52-.21.52-.68Z"/><path class="cls-15" d="M60.13,259.77v-2.4h-.86v-.44h2.28v.44h-.87v2.4h-.54Z"/><path class="cls-15" d="M61.41,259.18c0-.32.19-.57.71-.61l.42-.04c.21-.02.27-.08.27-.18,0-.2-.12-.32-.38-.32-.24,0-.37.1-.39.32h-.51c0-.42.26-.69.9-.69s.9.27.9.69v.88c0,.28.02.46.06.53h-.47c-.06-.08-.09-.16-.09-.32-.12.24-.32.36-.68.36-.48,0-.74-.24-.74-.62ZM62.81,258.91v-.14s-.13.07-.27.08l-.24.02c-.26.02-.36.13-.36.28,0,.18.12.31.38.31.32,0,.5-.24.5-.54Z"/><path class="cls-15" d="M63.66,257.13c0-.15.11-.27.3-.27s.3.12.3.27-.1.27-.3.27-.3-.12-.3-.27ZM63.7,259.77v-2.06h.52v2.06h-.52Z"/><path class="cls-15" d="M66.94,259.77v-1.28c0-.28-.09-.4-.29-.4-.22,0-.39.18-.39.52v1.17h-.5v-1.28c0-.28-.09-.4-.29-.4-.22,0-.39.18-.39.52v1.17h-.5v-2.06h.49v.34c.1-.22.28-.38.56-.38.3,0,.49.13.57.39.1-.24.31-.39.59-.39.42,0,.63.24.63.74v1.36h-.5Z"/><path class="cls-15" d="M67.74,258.74c0-.65.38-1.07,1.05-1.07s1.05.42,1.05,1.07-.38,1.07-1.05,1.07-1.05-.42-1.05-1.07ZM69.32,258.74c0-.46-.19-.68-.54-.68s-.53.22-.53.68.19.68.53.68.54-.22.54-.68Z"/><path class="cls-15" d="M70.05,258.74c0-.65.38-1.07,1.05-1.07s1.05.42,1.05,1.07-.38,1.07-1.05,1.07-1.05-.42-1.05-1.07ZM71.63,258.74c0-.46-.19-.68-.54-.68s-.53.22-.53.68.19.68.53.68.54-.22.54-.68Z"/><path class="cls-15" d="M72.45,259.77v-2.06h.49v.46c.11-.36.29-.49.58-.49.06,0,.14.02.19.03v.45h-.21c-.32,0-.53.23-.53.65v.96h-.52Z"/><path class="cls-15" d="M77.63,259.77v-2.35l-.82,2.35h-.46l-.83-2.35v2.35h-.52v-2.85h.85l.72,2.03.72-2.03h.86v2.85h-.52Z"/><path class="cls-15" d="M78.48,259.18c0-.32.19-.57.71-.61l.42-.04c.21-.02.27-.08.27-.18,0-.2-.12-.32-.38-.32-.24,0-.37.1-.39.32h-.51c0-.42.26-.69.9-.69s.9.27.9.69v.88c0,.28.02.46.06.53h-.47c-.06-.08-.09-.16-.09-.32-.12.24-.32.36-.68.36-.48,0-.74-.24-.74-.62ZM79.87,258.91v-.14s-.13.07-.27.08l-.24.02c-.26.02-.36.13-.36.28,0,.18.12.31.38.31.32,0,.5-.24.5-.54Z"/><path class="cls-15" d="M82.08,259.77v-1.26c0-.28-.1-.42-.35-.42-.27,0-.45.2-.45.53v1.15h-.52v-2.06h.49v.34c.11-.22.3-.38.63-.38.47,0,.71.24.71.74v1.36h-.52Z"/><path class="cls-15" d="M82.89,259.12h.5c.02.22.12.35.44.35s.42-.13.42-.28c0-.14-.11-.21-.29-.24l-.36-.05c-.48-.07-.66-.23-.66-.58s.25-.65.88-.65.88.28.88.66h-.5c-.02-.17-.08-.32-.39-.32-.26,0-.36.11-.36.27,0,.14.08.2.23.22l.35.05c.46.06.72.22.72.61,0,.37-.27.65-.94.65s-.93-.28-.93-.69Z"/><path class="cls-15" d="M84.99,258.74c0-.65.38-1.07,1.05-1.07s1.05.42,1.05,1.07-.38,1.07-1.05,1.07-1.05-.42-1.05-1.07ZM86.57,258.74c0-.46-.19-.68-.54-.68s-.53.22-.53.68.19.68.53.68.54-.22.54-.68Z"/><path class="cls-15" d="M87.3,258.74c0-.65.38-1.07,1.05-1.07s1.05.42,1.05,1.07-.38,1.07-1.05,1.07-1.05-.42-1.05-1.07ZM88.89,258.74c0-.46-.19-.68-.54-.68s-.53.22-.53.68.19.68.53.68.54-.22.54-.68Z"/><path class="cls-15" d="M89.7,259.77v-2.06h.49v.46c.11-.36.29-.49.58-.49.06,0,.14.02.19.03v.45h-.21c-.32,0-.53.23-.53.65v.96h-.52Z"/><text class="cls-13" transform="translate(151.91 258.29) scale(.58)"><tspan x="0" y="0" xml:space="preserve">TM  </tspan></text><text class="cls-13" transform="translate(156.56 259.62)"><tspan class="cls-30" x="0" y="0">&amp; © Ti</tspan><tspan class="cls-19" x="11.33" y="0">m</tspan><tspan x="14.51" y="0">taim</tspan></text><path class="cls-32" d="M178.36,155.7c-2.17-2.18-5.69-2.2-7.88-.03-2.18,2.17-2.2,5.69-.03,7.88s5.69,2.2,7.88.03c2.18-2.17,2.2-5.69.03-7.88ZM173.73,157.08c.86-.85,1.73-1.36,1.96-1.13.23.23-.28,1.1-1.14,1.95-.86.85-1.73,1.36-1.96,1.13s.28-1.1,1.14-1.95ZM174.58,164.06c-1.19,0-2.51-.33-3.41-1.23-.87-.88-1.21-2.17-1.21-3.41,0-1.24.49-2.39,1.37-3.26l.84.84c-.81.8-1.25,1.86-1.26,3,0,.79.39,1.83.83,2.26.39.33,1.14.87,2.28.88,0,0,0,0,0,0,1.13,0,2.2-.43,3-1.23l.82.82c-.9.9-2.08,1.34-3.27,1.34ZM176.94,160.3c-.85.84-1.71,1.34-1.94,1.12-.22-.23.28-1.09,1.13-1.93.85-.84,1.71-1.34,1.94-1.12.22.23-.28,1.09-1.13,1.93Z"/><path class="cls-15" d="M45.65,256.62c-1.55,0-1.81,1.29-1.81,1.29v-1.12h-.99v.2l.07,2.8h.89l.07-1.15s.33,1.22,1.68,1.15c1.35-.07,2.28-1.46,2.28-1.46,0,0-.63-1.71-2.18-1.71ZM45.95,257.87c-1.27-.02-1.43-.34-1.43-.34,0,0,1.43-1.72,3.15.77,0,0-.45-.42-1.72-.43Z"/><rect class="cls-15" x="152.39" y="238.42" width="31.74" height="14.04" rx="6.67" ry="6.67"/><path class="cls-32" d="M177.72,254.16h-18.92c-4.39,0-7.97-3.91-7.97-8.72s3.58-8.73,7.97-8.73h18.92c4.39,0,7.97,3.91,7.97,8.72s-3.58,8.73-7.97,8.73ZM158.8,240.12c-2.68,0-4.85,2.38-4.85,5.31s2.18,5.31,4.85,5.31h18.92c2.68,0,4.85-2.38,4.85-5.31s-2.18-5.31-4.85-5.31h-18.92Z"/><text class="cls-11" transform="translate(162.06 247.88)"><tspan x="0" y="0">0/0</tspan></text><path class="cls-32" d="M173.28,29.03c-2.58,0-4.67-2.1-4.67-4.67s2.1-4.67,4.67-4.67,4.67,2.1,4.67,4.67-2.1,4.67-4.67,4.67Z"/><path class="cls-9" d="M173.28,21.68c1.47,0,2.67,1.2,2.67,2.67s-1.2,2.67-2.67,2.67-2.67-1.2-2.67-2.67,1.2-2.67,2.67-2.67M173.28,17.68c-3.69,0-6.67,2.99-6.67,6.67s2.99,6.67,6.67,6.67,6.67-2.99,6.67-6.67-2.99-6.67-6.67-6.67h0Z"/><path class="cls-17" d="M176.73,24.22c0-1.73-1.29-3.16-2.95-3.4v-.47h1.39v-1h-3.9v1h1.51v.47c-1.67.24-2.95,1.67-2.95,3.4s1.29,3.16,2.95,3.4v.5h-1.51v1h3.9v-1h-1.39v-.5c1.67-.24,2.95-1.67,2.95-3.4ZM175.73,24.22c0,1.18-.84,2.17-1.95,2.4v-4.8c1.11.23,1.95,1.22,1.95,2.4ZM170.83,24.22c0-1.18.84-2.17,1.95-2.4v4.8c-1.11-.23-1.95-1.22-1.95-2.4Z"/><path class="cls-32" d="M158.72,29.03c-2.58,0-4.67-2.1-4.67-4.67s2.1-4.67,4.67-4.67,4.67,2.1,4.67,4.67-2.1,4.67-4.67,4.67Z"/><path class="cls-9" d="M158.72,21.68c1.47,0,2.67,1.2,2.67,2.67s-1.2,2.67-2.67,2.67-2.67-1.2-2.67-2.67,1.2-2.67,2.67-2.67M158.72,17.68c-3.69,0-6.67,2.99-6.67,6.67s2.99,6.67,6.67,6.67,6.67-2.99,6.67-6.67-2.99-6.67-6.67-6.67h0Z"/><text class="cls-14" transform="translate(154.46 28.41) scale(1.2 1)"><tspan x="0" y="0">3</tspan></text><rect class="cls-7" x="14.16" y="35.9" width="171.78" height="114.74"/><path class="cls-29" d="M159.72,53.98l-85.18,12.49s25.74,8.14,5.3,35.4c0,0,40.89-14.2,47.13-3.41,6.25,10.79,24.99-8.52,24.99-8.52l7.76-35.97Z"/><rect class="cls-32" x="112.57" y="54.55" width="1.7" height="59.63"/><path class="cls-5" d="M79.33,117.34c0,4.55-3.69,8.23-8.23,8.23-4.2,0-7.67-3.15-8.17-7.22-.5,4.07-3.96,7.22-8.17,7.22s-7.85-3.33-8.2-7.55c-.35,4.23-3.88,7.55-8.2,7.55s-7.67-3.15-8.17-7.22c-.5,4.07-3.96,7.22-8.17,7.22-4.55,0-8.23-3.69-8.23-8.23"/><path class="cls-5" d="M185.81,117.34c0,4.55-3.69,8.23-8.23,8.23-4.2,0-7.67-3.15-8.17-7.22-.5,4.07-3.96,7.22-8.17,7.22s-7.85-3.33-8.2-7.55c-.35,4.23-3.88,7.55-8.2,7.55s-7.67-3.15-8.17-7.22c-.5,4.07-3.96,7.22-8.17,7.22-4.55,0-8.23-3.69-8.23-8.23"/><path class="cls-32" d="M40.05,108.15s-2.75,14.99,8,17.49c10.74,2.5,104.32,0,104.32,0,0,0-11.62-1.25-14.62-4.62-3-3.37,23.24-11.99,23.24-21.36,0,0-7.87,13.12-50.97,13.12s-62.59-.75-62.59-.75c0,0-5.79,0-7.37-3.87Z"/><path class="cls-6" d="M54.83,114.91s-5,4.74-10.35,10.11c-6.36,6.39-13.22,13.66-12.75,14.87.88,2.23,3.38,1.43,3.38,1.43l9.85-15.75,10.59-10.34-.74-.32Z"/><path class="cls-6" d="M62.64,114.91s-5,4.74-10.35,10.11c-6.36,6.39-13.22,13.66-12.75,14.87.88,2.23,3.38,1.43,3.38,1.43l9.85-15.75,10.59-10.34-.74-.32Z"/><path class="cls-6" d="M81.66,114.91s-5,4.74-10.35,10.11c-6.36,6.39-13.22,13.66-12.75,14.87.88,2.23,3.38,1.43,3.38,1.43l9.85-15.75,10.59-10.34-.74-.32Z"/><path class="cls-6" d="M88.48,114.91s-5,4.74-10.35,10.11c-6.36,6.39-13.22,13.66-12.75,14.87.88,2.23,3.38,1.43,3.38,1.43l9.85-15.75,10.59-10.34-.74-.32Z"/><path class="cls-6" d="M95.29,114.91s-5,4.74-10.35,10.11c-6.36,6.39-13.22,13.66-12.75,14.87.88,2.23,3.38,1.43,3.38,1.43l9.85-15.75,10.59-10.34-.74-.32Z"/><path class="cls-6" d="M101.73,114.91s-5,4.74-10.35,10.11c-6.36,6.39-13.22,13.66-12.75,14.87.88,2.23,3.38,1.43,3.38,1.43l9.85-15.75,10.59-10.34-.74-.32Z"/><path class="cls-6" d="M116.02,114.91s-5,4.74-10.35,10.11c-6.36,6.39-13.22,13.66-12.75,14.87.88,2.23,3.38,1.43,3.38,1.43l9.85-15.75,10.59-10.34-.74-.32Z"/><path class="cls-6" d="M122.84,114.91s-5,4.74-10.35,10.11c-6.36,6.39-13.22,13.66-12.75,14.87.88,2.23,3.38,1.43,3.38,1.43l9.85-15.75,10.59-10.34-.74-.32Z"/><path class="cls-6" d="M129.65,114.91s-5,4.74-10.35,10.11c-6.36,6.39-13.22,13.66-12.75,14.87.88,2.23,3.38,1.43,3.38,1.43l9.85-15.75,10.59-10.34-.74-.32Z"/><circle class="cls-29" cx="85.69" cy="113.5" r="3.14"/><circle class="cls-29" cx="91.8" cy="113.5" r="3.14"/><circle class="cls-29" cx="97.57" cy="113.5" r="3.14"/><circle class="cls-29" cx="117.15" cy="113.51" r="3.14"/><circle class="cls-29" cx="123.25" cy="113.16" r="3.14"/><circle class="cls-29" cx="129.01" cy="112.84" r="3.14"/><circle class="cls-29" cx="134.92" cy="112.34" r="3.14"/><circle class="cls-29" cx="56.45" cy="113.5" r="3.14"/><circle class="cls-29" cx="62.57" cy="113.5" r="3.14"/><path class="cls-29" d="M39.89,115.01l103.78.31c.29-.17.58-.35.88-.52l-104.71-.32c.02.17.04.35.06.53Z"/><line class="cls-5" x1="74.54" y1="66.47" x2="159.72" y2="53.98"/><path class="cls-24" d="M159.72,53.65s-23.09,52.02-39.75,51.29c0,0,26.5,4.76,37.86-15.75,0,0,6.06-15.75,1.89-35.54Z"/></g></svg>