<?xml version="1.0" encoding="UTF-8"?><svg id="Layer_2" xmlns="http://www.w3.org/2000/svg" viewBox="0 0 199.52 273.17"><defs><style>.cls-1{letter-spacing:-.02em;}.cls-2{letter-spacing:-.01em;}.cls-3{letter-spacing:-.02em;}.cls-4{fill:none;stroke:#231f20;stroke-width:4px;}.cls-4,.cls-5,.cls-6,.cls-7,.cls-8{stroke-miterlimit:10;}.cls-9{font-size:14px;}.cls-9,.cls-10,.cls-11,.cls-12,.cls-13{fill:#231f20;}.cls-9,.cls-11,.cls-14{font-family:CreatoDisplay-Bold, 'Creato Display';font-weight:700;}.cls-15{letter-spacing:0em;}.cls-16{letter-spacing:-.09em;}.cls-17{letter-spacing:-.02em;}.cls-18{letter-spacing:0em;}.cls-19{letter-spacing:-.04em;}.cls-20{letter-spacing:0em;}.cls-21{fill:#e65544;}.cls-22{letter-spacing:-.03em;}.cls-23{font-family:CreatoDisplay-Regular, 'Creato Display';}.cls-5{fill:#3a88c6;}.cls-5,.cls-7,.cls-8{stroke:#f4eddd;}.cls-24{font-family:CreatoDisplay-Italic, 'Creato Display';font-style:italic;}.cls-25{letter-spacing:-.02em;}.cls-6{stroke:#f4ecdd;}.cls-6,.cls-26{fill:#a686bd;}.cls-27{letter-spacing:-.03em;}.cls-11{font-size:4px;}.cls-28{letter-spacing:-.02em;}.cls-29{letter-spacing:0em;}.cls-30{letter-spacing:0em;}.cls-31{letter-spacing:-.03em;}.cls-7{fill:#7bc062;}.cls-8{fill:#ede983;}.cls-14{font-size:11.69px;}.cls-14,.cls-32{fill:#f4eddd;}.cls-33{letter-spacing:0em;}.cls-34{letter-spacing:0em;}.cls-35{letter-spacing:.02em;}.cls-36{fill:#010101;}.cls-12{font-size:8px;}.cls-37{letter-spacing:-.09em;}.cls-38{letter-spacing:-.01em;}.cls-39{letter-spacing:-.02em;}.cls-40{letter-spacing:-.03em;}.cls-13{font-family:CreatoDisplay-Medium, 'Creato Display';font-size:10px;font-weight:500;}.cls-41{letter-spacing:-.02em;}</style></defs><g id="Layer_1-2"><path class="cls-26" d="M12.74,2h174.03c5.93,0,10.74,4.81,10.74,10.74v247.69c0,5.93-4.81,10.74-10.74,10.74H12.74c-5.93,0-10.74-4.81-10.74-10.74V12.74C2,6.81,6.81,2,12.74,2Z"/><path class="cls-10" d="M186.78,4c4.82,0,8.74,3.92,8.74,8.74v247.69c0,4.82-3.92,8.74-8.74,8.74H12.74c-4.82,0-8.74-3.92-8.74-8.74V12.74c0-4.82,3.92-8.74,8.74-8.74h174.03M186.78,0H12.74C5.7,0,0,5.7,0,12.74v247.69c0,7.04,5.7,12.74,12.74,12.74h174.03c7.04,0,12.74-5.7,12.74-12.74V12.74c0-7.04-5.7-12.74-12.74-12.74h0Z"/><path class="cls-32" d="M24.53,11.01h150.98c5.93,0,10.74,4.81,10.74,10.74v212.33c0,5.93-4.81,10.74-10.74,10.74H24.53c-5.93,0-10.74-4.81-10.74-10.74V21.75c0-5.93,4.81-10.74,10.74-10.74Z"/><path class="cls-10" d="M175.5,13.01c4.82,0,8.74,3.92,8.74,8.74v212.33c0,4.82-3.92,8.74-8.74,8.74H24.53c-4.82,0-8.74-3.92-8.74-8.74V21.75c0-4.82,3.92-8.74,8.74-8.74h150.98M175.5,9.01H24.53c-7.04,0-12.74,5.7-12.74,12.74v212.33c0,7.04,5.7,12.74,12.74,12.74h150.98c7.04,0,12.74-5.7,12.74-12.74V21.75c0-7.04-5.7-12.74-12.74-12.74h0Z"/><line class="cls-4" x1="14.06" y1="35.97" x2="185.03" y2="35.97"/><line class="cls-4" x1="14.06" y1="150.71" x2="185.03" y2="150.71"/><line class="cls-4" x1="14.06" y1="168.51" x2="185.03" y2="168.51"/><text class="cls-9" transform="translate(20.2 29.52)"><tspan class="cls-16" x="0" y="0">V</tspan><tspan x="8.75" y="0">olu</tspan><tspan class="cls-18" x="27.71" y="0">n</tspan><tspan class="cls-1" x="35.29" y="0">t</tspan><tspan x="39.98" y="0">eer</tspan></text><text class="cls-13" transform="translate(21.28 163)"><tspan x="0" y="0">So</tspan><tspan class="cls-39" x="12" y="0">r</tspan><tspan class="cls-29" x="15.44" y="0">cery</tspan></text><text class="cls-11" transform="translate(20.98 255.04)"><tspan x="0" y="0">22</tspan><tspan class="cls-35" x="0" y="4.8">T</tspan><tspan x="2.48" y="4.8">TM - EN</tspan></text><path class="cls-10" d="M42.93,253.61c0-.87.51-1.46,1.41-1.46.78,0,1.31.46,1.31,1.08h-.52c-.05-.36-.3-.64-.8-.64-.57,0-.87.36-.87,1.02s.3,1.02.87,1.02c.49,0,.75-.26.8-.66h.52c0,.63-.52,1.1-1.31,1.1-.9,0-1.41-.6-1.41-1.46Z"/><path class="cls-10" d="M48.93,258.92h.53c.04.38.22.55.66.55s.62-.18.62-.45c0-.2-.11-.32-.54-.39l-.36-.05c-.6-.08-.83-.29-.83-.76,0-.51.36-.88,1.1-.88s1.1.36,1.1.92h-.52c-.04-.34-.22-.51-.6-.51s-.55.18-.55.44c0,.2.09.3.47.35l.36.05c.58.08.9.3.9.8,0,.53-.38.89-1.18.89s-1.17-.35-1.17-.96Z"/><path class="cls-10" d="M51.61,260.25h.21c.24,0,.38-.12.38-.31,0-.06-.01-.13-.04-.2l-.74-1.97h.54l.54,1.66.54-1.66h.54l-.74,1.97c-.25.67-.52.88-1.02.88h-.2v-.37Z"/><path class="cls-10" d="M53.59,258.8c0-.64.36-1.07,1.02-1.07s1.03.44,1.03,1.05c0,.04,0,.08,0,.13h-1.53c.02.42.22.61.53.61.26,0,.42-.13.48-.34h.48c-.09.42-.4.69-.96.69-.67,0-1.05-.42-1.05-1.07ZM54.1,258.58h1.02c-.04-.33-.23-.49-.51-.49s-.46.16-.51.49Z"/><path class="cls-10" d="M55.85,258.8c0-.68.35-1.07.91-1.07.31,0,.52.13.64.35v-1.1h.52v2.85h-.49v-.35c-.11.24-.32.39-.66.39-.56,0-.91-.4-.91-1.07ZM57.4,258.8c0-.47-.21-.68-.52-.68s-.51.21-.51.68.21.68.51.68.52-.21.52-.68Z"/><path class="cls-10" d="M60.03,259.84v-2.4h-.86v-.44h2.28v.44h-.87v2.4h-.54Z"/><path class="cls-10" d="M61.31,259.25c0-.32.19-.57.71-.61l.42-.04c.21-.02.27-.08.27-.18,0-.2-.12-.32-.38-.32-.24,0-.37.1-.39.32h-.51c0-.42.26-.69.9-.69s.9.27.9.69v.88c0,.28.02.46.06.53h-.47c-.06-.08-.09-.16-.09-.32-.12.24-.32.36-.68.36-.48,0-.74-.24-.74-.62ZM62.7,258.98v-.14s-.13.07-.27.08l-.24.02c-.26.02-.36.13-.36.28,0,.18.12.31.38.31.32,0,.5-.24.5-.54Z"/><path class="cls-10" d="M63.56,257.2c0-.15.11-.27.3-.27s.3.12.3.27-.1.27-.3.27-.3-.12-.3-.27ZM63.6,259.84v-2.06h.52v2.06h-.52Z"/><path class="cls-10" d="M66.84,259.84v-1.28c0-.28-.09-.4-.29-.4-.22,0-.39.18-.39.52v1.17h-.5v-1.28c0-.28-.09-.4-.29-.4-.22,0-.39.18-.39.52v1.17h-.5v-2.06h.49v.34c.1-.22.28-.38.56-.38.3,0,.49.13.57.39.1-.24.31-.39.59-.39.42,0,.63.24.63.74v1.36h-.5Z"/><path class="cls-10" d="M67.63,258.8c0-.65.38-1.07,1.05-1.07s1.05.42,1.05,1.07-.38,1.07-1.05,1.07-1.05-.42-1.05-1.07ZM69.22,258.8c0-.46-.19-.68-.54-.68s-.53.22-.53.68.19.68.53.68.54-.22.54-.68Z"/><path class="cls-10" d="M69.95,258.8c0-.65.38-1.07,1.05-1.07s1.05.42,1.05,1.07-.38,1.07-1.05,1.07-1.05-.42-1.05-1.07ZM71.53,258.8c0-.46-.19-.68-.54-.68s-.53.22-.53.68.19.68.53.68.54-.22.54-.68Z"/><path class="cls-10" d="M72.34,259.84v-2.06h.49v.46c.11-.36.29-.49.58-.49.06,0,.14.02.19.03v.45h-.21c-.32,0-.53.23-.53.65v.96h-.52Z"/><path class="cls-10" d="M77.53,259.84v-2.35l-.82,2.35h-.46l-.83-2.35v2.35h-.52v-2.85h.85l.72,2.03.72-2.03h.86v2.85h-.52Z"/><path class="cls-10" d="M78.38,259.25c0-.32.19-.57.71-.61l.42-.04c.21-.02.27-.08.27-.18,0-.2-.12-.32-.38-.32-.24,0-.37.1-.39.32h-.51c0-.42.26-.69.9-.69s.9.27.9.69v.88c0,.28.02.46.06.53h-.47c-.06-.08-.09-.16-.09-.32-.12.24-.32.36-.68.36-.48,0-.74-.24-.74-.62ZM79.77,258.98v-.14s-.13.07-.27.08l-.24.02c-.26.02-.36.13-.36.28,0,.18.12.31.38.31.32,0,.5-.24.5-.54Z"/><path class="cls-10" d="M81.98,259.84v-1.26c0-.28-.1-.42-.35-.42-.27,0-.45.2-.45.53v1.15h-.52v-2.06h.49v.34c.11-.22.3-.38.63-.38.47,0,.71.24.71.74v1.36h-.52Z"/><path class="cls-10" d="M82.79,259.18h.5c.02.22.12.35.44.35s.42-.13.42-.28c0-.14-.11-.21-.29-.24l-.36-.05c-.48-.07-.66-.23-.66-.58s.25-.65.88-.65.88.28.88.66h-.5c-.02-.17-.08-.32-.39-.32-.26,0-.36.11-.36.27,0,.14.08.2.23.22l.35.05c.46.06.72.22.72.61,0,.37-.27.65-.94.65s-.93-.28-.93-.69Z"/><path class="cls-10" d="M84.88,258.8c0-.65.38-1.07,1.05-1.07s1.05.42,1.05,1.07-.38,1.07-1.05,1.07-1.05-.42-1.05-1.07ZM86.47,258.8c0-.46-.19-.68-.54-.68s-.53.22-.53.68.19.68.53.68.54-.22.54-.68Z"/><path class="cls-10" d="M87.2,258.8c0-.65.38-1.07,1.05-1.07s1.05.42,1.05,1.07-.38,1.07-1.05,1.07-1.05-.42-1.05-1.07ZM88.78,258.8c0-.46-.19-.68-.54-.68s-.53.22-.53.68.19.68.53.68.54-.22.54-.68Z"/><path class="cls-10" d="M89.6,259.84v-2.06h.49v.46c.11-.36.29-.49.58-.49.06,0,.14.02.19.03v.45h-.21c-.32,0-.53.23-.53.65v.96h-.52Z"/><text class="cls-11" transform="translate(152.89 258.15) scale(.58)"><tspan x="0" y="0" xml:space="preserve">TM  </tspan></text><text class="cls-11" transform="translate(157.54 259.49)"><tspan class="cls-34" x="0" y="0">&amp; © Ti</tspan><tspan class="cls-20" x="11.33" y="0">m</tspan><tspan x="14.51" y="0">taim</tspan></text><text class="cls-12" transform="translate(21.03 184.05)"><tspan class="cls-23"><tspan class="cls-37" x="0" y="0">T</tspan><tspan class="cls-30" x="3.93" y="0">a</tspan><tspan class="cls-27" x="8.15" y="0">r</tspan><tspan x="10.75" y="0">g</tspan><tspan class="cls-38" x="15.32" y="0">e</tspan><tspan x="19.63" y="0">t oppone</tspan><tspan class="cls-33" x="51.01" y="0">n</tspan><tspan x="55.15" y="0">t gains co</tspan><tspan class="cls-33" x="88.94" y="0">n</tspan><tspan class="cls-15" x="93.08" y="0">t</tspan><tspan class="cls-31" x="95.73" y="0">r</tspan><tspan class="cls-15" x="98.33" y="0">ol </tspan><tspan class="cls-28" x="106.33" y="0">o</tspan><tspan x="110.63" y="0">f ta</tspan><tspan class="cls-27" x="122.1" y="0">r</tspan><tspan x="124.7" y="0">g</tspan><tspan class="cls-33" x="129.27" y="0">e</tspan><tspan x="133.58" y="0">t </tspan></tspan><tspan class="cls-23"><tspan x="0" y="9.6">c</tspan><tspan class="cls-31" x="4.18" y="9.6">r</tspan><tspan x="6.78" y="9.6">e</tspan><tspan class="cls-33" x="11.17" y="9.6">a</tspan><tspan x="15.31" y="9.6">tu</tspan><tspan class="cls-31" x="22.18" y="9.6">r</tspan><tspan x="24.78" y="9.6">e </tspan><tspan class="cls-22" x="31.18" y="9.6">y</tspan><tspan x="35.16" y="9.6">ou co</tspan><tspan class="cls-38" x="54.54" y="9.6">n</tspan><tspan x="58.68" y="9.6">t</tspan><tspan class="cls-27" x="61.33" y="9.6">r</tspan><tspan x="63.93" y="9.6">ol u</tspan><tspan class="cls-33" x="76.15" y="9.6">n</tspan><tspan x="80.3" y="9.6">til the </tspan><tspan class="cls-38" x="101.23" y="9.6">s</tspan><tspan x="105.1" y="9.6">tart </tspan><tspan class="cls-17" x="119.42" y="9.6">o</tspan><tspan x="123.73" y="9.6">f their </tspan></tspan><tspan class="cls-23"><tspan x="0" y="19.2">n</tspan><tspan class="cls-19" x="4.22" y="19.2">e</tspan><tspan x="8.3" y="19.2">xt end </tspan><tspan class="cls-38" x="32.19" y="19.2">s</tspan><tspan class="cls-40" x="36.06" y="19.2">t</tspan><tspan class="cls-30" x="38.47" y="19.2">e</tspan><tspan class="cls-3" x="42.86" y="19.2">p</tspan><tspan class="cls-30" x="47.27" y="19.2">.</tspan></tspan><tspan class="cls-24"><tspan x="0" y="38.4">Check out </tspan><tspan class="cls-41" x="38.09" y="38.4">y</tspan><tspan class="cls-15" x="42.17" y="38.4">our local soup ki</tspan><tspan class="cls-40" x="98.54" y="38.4">t</tspan><tspan x="100.96" y="38.4">chen or</tspan></tspan><tspan class="cls-24"><tspan x="0" y="48">eme</tspan><tspan class="cls-31" x="15.01" y="48">r</tspan><tspan class="cls-15" x="17.61" y="48">gen</tspan><tspan class="cls-2" x="30.79" y="48">c</tspan><tspan class="cls-30" x="34.86" y="48">y services </tspan><tspan class="cls-40" x="72.47" y="48">t</tspan><tspan x="74.89" y="48">od</tspan><tspan class="cls-25" x="83.94" y="48">a</tspan><tspan x="87.98" y="48">y!</tspan></tspan></text><path class="cls-36" d="M178.26,155.77c-2.17-2.18-5.69-2.2-7.88-.03-2.18,2.17-2.2,5.69-.03,7.88,2.17,2.18,5.69,2.2,7.88.03,2.18-2.17,2.2-5.69.03-7.88ZM173.63,157.15c.86-.85,1.73-1.36,1.96-1.13.23.23-.28,1.1-1.14,1.95-.86.85-1.73,1.36-1.96,1.13s.28-1.1,1.14-1.95ZM174.48,164.13c-1.19,0-2.51-.33-3.41-1.23-.87-.88-1.21-2.17-1.21-3.41,0-1.24.49-2.39,1.37-3.26l.84.84c-.81.8-1.25,1.86-1.26,3,0,.79.39,1.83.83,2.26.39.33,1.14.87,2.28.88,0,0,0,0,0,0,1.13,0,2.2-.43,3-1.23l.82.82c-.9.9-2.08,1.34-3.27,1.34ZM176.84,160.37c-.85.84-1.71,1.34-1.94,1.12-.22-.23.28-1.09,1.13-1.93.85-.84,1.71-1.34,1.94-1.12.22.23-.28,1.09-1.13,1.93Z"/><path class="cls-10" d="M45.55,256.69c-1.55,0-1.81,1.29-1.81,1.29v-1.12h-.99v.2l.07,2.8h.89l.07-1.15s.33,1.22,1.68,1.15c1.35-.07,2.28-1.46,2.28-1.46,0,0-.63-1.71-2.18-1.71ZM45.85,257.94c-1.27-.02-1.43-.34-1.43-.34,0,0,1.43-1.72,3.15.77,0,0-.45-.42-1.72-.43Z"/><path class="cls-36" d="M172.85,28.3c-2.58,0-4.67-2.1-4.67-4.67s2.1-4.67,4.67-4.67,4.67,2.1,4.67,4.67-2.1,4.67-4.67,4.67Z"/><path class="cls-10" d="M172.85,20.95c1.47,0,2.67,1.2,2.67,2.67s-1.2,2.67-2.67,2.67-2.67-1.2-2.67-2.67,1.2-2.67,2.67-2.67M172.85,16.95c-3.69,0-6.67,2.99-6.67,6.67s2.99,6.67,6.67,6.67,6.67-2.99,6.67-6.67-2.99-6.67-6.67-6.67h0Z"/><text class="cls-14" transform="translate(168.4 27.68) scale(1.2 1)"><tspan x="0" y="0">0</tspan></text><path class="cls-6" d="M147.46,80.05l-2.53-30.23s.04-2,2.1-2.8c2.06-.79,3.12,1.69,3.12,1.69l3.17,22-.63-21.68s.16-3.48,2.22-3.48,3.01,3.01,3.01,3.01l2.06,22,1.59-18.62c.08-1.87.71-4.27,1.52-5.16.44-.49,1.01-.75,1.48-.75.53,0,1.04.35,1.48.82,1.01,1.06,1.53,2.49,1.57,3.95l.75,28.62,5.7-7.28c5.06-11.39,9.18-4.75,9.18-4.75,0,0-5.49,5.8-7.7,16.56s-10.02,14.45-10.02,14.45l-.34,29.26-12.93-1.85.3-29.94-6.33-3.48s-8.96-21.42-9.6-24.27c-.63-2.85-1.16-6.01,1.37-5.7s2.64,1.79,2.64,1.79l6.85,15.83Z"/><path class="cls-21" d="M58.37,66.4c-4.87-2.82-11.05,7.58-11.05,7.58l-1.08-25.13s-.79-1.52-1.81-1.66-1.59,1.73-1.59,1.73l-1.73,20.65-2.46-20.51s-1.16-2.6-2.17-2.6-1.16,1.59-1.16,1.59l-.29,22.35-3.47-21.99s-.87-2.49-3.14-1.52c-2.27.97,1.12,24.59,1.12,24.59l-7.29-7.37s-1.3-2.27-3.57-.97,0,3.57,0,3.57l13.65,18.2c1.21,1.22,2.48,2.04,3.75,2.56l-2.34,28.95s15.27,10.03,15.5,8.43c.19-1.32-2.11-28.74-2.92-38.26,2.23-1.09,3.7-2.33,3.7-2.33l8.34-17.87Z"/><path class="cls-5" d="M107.4,87.02c4.9-2.83,11.1,7.62,11.1,7.62l1.09-25.24s.8-1.52,1.81-1.67,1.6,1.74,1.6,1.74l1.74,20.75,2.47-20.6s1.16-2.61,2.18-2.61,1.16,1.6,1.16,1.6l.29,22.45,3.48-22.09s.87-2.5,3.16-1.52c2.28.98-1.12,24.7-1.12,24.7l7.33-7.4s1.31-2.28,3.59-.98,0,3.59,0,3.59l-13.71,18.28c-1.22,1.22-2.49,2.05-3.77,2.57l2.35,29.08s-15.34,10.08-15.57,8.47c-.19-1.32,2.12-28.87,2.93-38.44-2.24-1.1-3.71-2.34-3.71-2.34l-8.38-17.95Z"/><path class="cls-8" d="M60.65,96.93l-2.39-28.5s.04-1.89,1.98-2.64,2.94,1.59,2.94,1.59l2.98,20.74-.6-20.44s.15-3.28,2.09-3.28,2.83,2.83,2.83,2.83l1.94,20.74,1.5-17.56c.08-1.76.67-4.03,1.43-4.86.42-.46.95-.71,1.4-.71.5,0,.98.33,1.4.77.95,1,1.44,2.35,1.48,3.72l.71,26.99,5.37-6.86c4.77-10.74,8.65-4.48,8.65-4.48,0,0-5.17,5.47-7.26,15.62s-9.45,13.63-9.45,13.63l-.32,27.59-12.19-1.74.28-28.23-5.97-3.28s-8.45-20.19-9.05-22.88-1.09-5.67,1.29-5.37,2.49,1.69,2.49,1.69l6.46,14.92Z"/><path class="cls-7" d="M111.95,76.3l2.39-28.5s-.04-1.89-1.98-2.64-2.94,1.59-2.94,1.59l-2.98,20.74.6-20.44s-.15-3.28-2.09-3.28-2.83,2.83-2.83,2.83l-1.94,20.74-1.5-17.56c-.08-1.76-.67-4.03-1.43-4.86-.42-.46-.95-.71-1.4-.71-.5,0-.98.33-1.4.77-.95,1-1.44,2.35-1.48,3.72l-.71,26.99-5.37-6.86c-4.77-10.74-8.65-4.48-8.65-4.48,0,0,5.17,5.47,7.26,15.62s9.45,13.63,9.45,13.63l.32,27.59,12.19-1.74-.28-28.23,5.97-3.28s8.45-20.19,9.05-22.88,1.09-5.67-1.29-5.37-2.49,1.69-2.49,1.69l-6.46,14.92Z"/></g></svg>