<?xml version="1.0" encoding="UTF-8"?><svg id="Layer_2" xmlns="http://www.w3.org/2000/svg" viewBox="0 0 199.52 273.17"><defs><style>.cls-1{stroke-linecap:round;}.cls-1,.cls-2{fill:none;stroke:#231f20;stroke-miterlimit:10;}.cls-3{letter-spacing:-.02em;}.cls-4{letter-spacing:0em;}.cls-5{letter-spacing:-.02em;}.cls-6{fill:#7ac360;}.cls-7{font-family:CreatoDisplay-Italic, 'Creato Display';font-style:italic;}.cls-7,.cls-8,.cls-9,.cls-10,.cls-11,.cls-12{fill:#231f20;}.cls-7,.cls-10{font-size:6px;}.cls-13{letter-spacing:-.03em;}.cls-2{stroke-width:4px;}.cls-8{font-size:14px;}.cls-8,.cls-14,.cls-15,.cls-16{font-family:CreatoDisplay-Bold, 'Creato Display';}.cls-8,.cls-14,.cls-15,.cls-16,.cls-11{font-weight:700;}.cls-17{fill:#b6b5b2;}.cls-18{letter-spacing:-.03em;}.cls-19{letter-spacing:-.01em;}.cls-14{font-size:4px;}.cls-14,.cls-15,.cls-16,.cls-20{fill:#f4eddd;}.cls-21{letter-spacing:-.03em;}.cls-22{letter-spacing:0em;}.cls-10{font-family:CreatoDisplay-Regular, 'Creato Display';}.cls-23{letter-spacing:-.02em;}.cls-24{letter-spacing:-.02em;}.cls-25{letter-spacing:-.02em;}.cls-26{letter-spacing:0em;}.cls-27{letter-spacing:0em;}.cls-28{letter-spacing:0em;}.cls-29{letter-spacing:-.03em;}.cls-15{font-size:4.46px;}.cls-30{fill:#c1dfab;}.cls-31{fill:#dcd9d3;}.cls-32{letter-spacing:-.02em;}.cls-33{letter-spacing:-.03em;}.cls-34{letter-spacing:-.02em;}.cls-16{font-size:11.69px;}.cls-35{letter-spacing:-.02em;}.cls-36{letter-spacing:0em;}.cls-37{letter-spacing:.02em;}.cls-38{fill:#010101;}.cls-39{fill:#eae6dc;}.cls-40{letter-spacing:-.04em;}.cls-41{letter-spacing:-.01em;}.cls-11{font-family:CreatoDisplay-ExtraBold, 'Creato Display';font-size:8px;}.cls-12{font-family:CreatoDisplay-Medium, 'Creato Display';font-size:10px;font-weight:500;}.cls-42{letter-spacing:-.03em;}.cls-43{letter-spacing:-.03em;}</style></defs><g id="Layer_1-2"><rect class="cls-6" x="2" y="2" width="195.52" height="269.17" rx="10.74" ry="10.74"/><path class="cls-9" d="M186.78,4c4.82,0,8.74,3.92,8.74,8.74v247.69c0,4.82-3.92,8.74-8.74,8.74H12.74c-4.82,0-8.74-3.92-8.74-8.74V12.74c0-4.82,3.92-8.74,8.74-8.74h174.03M186.78,0H12.74C5.7,0,0,5.7,0,12.74v247.69c0,7.04,5.7,12.74,12.74,12.74h174.03c7.04,0,12.74-5.7,12.74-12.74V12.74c0-7.04-5.7-12.74-12.74-12.74h0Z"/><path class="cls-20" d="M24.53,12.26h150.98c5.93,0,10.74,4.81,10.74,10.74v212.33c0,5.93-4.81,10.74-10.74,10.74H24.53c-5.93,0-10.74-4.81-10.74-10.74V23c0-5.93,4.81-10.74,10.74-10.74Z"/><path class="cls-9" d="M175.5,14.26c4.82,0,8.74,3.92,8.74,8.74v212.33c0,4.82-3.92,8.74-8.74,8.74H24.53c-4.82,0-8.74-3.92-8.74-8.74V23c0-4.82,3.92-8.74,8.74-8.74h150.98M175.5,10.26H24.53c-7.04,0-12.74,5.7-12.74,12.74v212.33c0,7.04,5.7,12.74,12.74,12.74h150.98c7.04,0,12.74-5.7,12.74-12.74V23c0-7.04-5.7-12.74-12.74-12.74h0Z"/><line class="cls-2" x1="14.16" y1="35.9" x2="185.13" y2="35.9"/><line class="cls-2" x1="14.16" y1="150.64" x2="185.13" y2="150.64"/><line class="cls-2" x1="14.16" y1="168.44" x2="185.13" y2="168.44"/><text class="cls-8" transform="translate(20.31 29.45)"><tspan x="0" y="0">O</tspan><tspan class="cls-5" x="10.65" y="0">r</tspan><tspan x="15.74" y="0">eo</tspan></text><text class="cls-12" transform="translate(20.57 162.93)"><tspan class="cls-3" x="0" y="0">L</tspan><tspan x="5.2" y="0">egendary C</tspan><tspan class="cls-35" x="57.58" y="0">r</tspan><tspan x="61.02" y="0">e</tspan><tspan class="cls-19" x="66.6" y="0">a</tspan><tspan x="71.9" y="0">tu</tspan><tspan class="cls-35" x="80.75" y="0">r</tspan><tspan x="84.19" y="0">e- C</tspan><tspan class="cls-19" x="103.11" y="0">a</tspan><tspan x="108.41" y="0">t</tspan></text><text class="cls-14" transform="translate(21.08 254.97)"><tspan x="0" y="0">10</tspan><tspan class="cls-37" x="0" y="4.8">T</tspan><tspan x="2.48" y="4.8">TM - EN</tspan></text><path class="cls-20" d="M45.77,254.97v-2.35l-.82,2.35h-.46l-.83-2.35v2.35h-.52v-2.85h.85l.72,2.03.72-2.03h.86v2.85h-.52Z"/><path class="cls-20" d="M49.03,258.85h.53c.04.38.22.55.66.55s.62-.18.62-.45c0-.2-.11-.32-.54-.39l-.36-.05c-.6-.08-.83-.29-.83-.76,0-.51.36-.88,1.1-.88s1.1.36,1.1.92h-.52c-.04-.34-.22-.51-.6-.51s-.55.18-.55.44c0,.2.09.3.47.35l.36.05c.58.08.9.3.9.8,0,.53-.38.89-1.18.89s-1.17-.35-1.17-.96Z"/><path class="cls-20" d="M51.71,260.18h.21c.24,0,.38-.12.38-.31,0-.06-.01-.13-.04-.2l-.74-1.97h.54l.54,1.66.54-1.66h.54l-.74,1.97c-.25.67-.52.88-1.02.88h-.2v-.37Z"/><path class="cls-20" d="M53.69,258.74c0-.64.36-1.07,1.02-1.07s1.03.44,1.03,1.05c0,.04,0,.08,0,.13h-1.53c.02.42.22.61.53.61.26,0,.42-.13.48-.34h.48c-.09.42-.4.69-.96.69-.67,0-1.05-.42-1.05-1.07ZM54.2,258.51h1.02c-.04-.33-.23-.49-.51-.49s-.46.16-.51.49Z"/><path class="cls-20" d="M55.96,258.74c0-.68.35-1.07.91-1.07.31,0,.52.13.64.35v-1.1h.52v2.85h-.49v-.35c-.11.24-.32.39-.66.39-.56,0-.91-.4-.91-1.07ZM57.5,258.74c0-.47-.21-.68-.52-.68s-.51.21-.51.68.21.68.51.68.52-.21.52-.68Z"/><path class="cls-20" d="M60.13,259.77v-2.4h-.86v-.44h2.28v.44h-.87v2.4h-.54Z"/><path class="cls-20" d="M61.41,259.18c0-.32.19-.57.71-.61l.42-.04c.21-.02.27-.08.27-.18,0-.2-.12-.32-.38-.32-.24,0-.37.1-.39.32h-.51c0-.42.26-.69.9-.69s.9.27.9.69v.88c0,.28.02.46.06.53h-.47c-.06-.08-.09-.16-.09-.32-.12.24-.32.36-.68.36-.48,0-.74-.24-.74-.62ZM62.81,258.91v-.14s-.13.07-.27.08l-.24.02c-.26.02-.36.13-.36.28,0,.18.12.31.38.31.32,0,.5-.24.5-.54Z"/><path class="cls-20" d="M63.66,257.13c0-.15.11-.27.3-.27s.3.12.3.27-.1.27-.3.27-.3-.12-.3-.27ZM63.7,259.77v-2.06h.52v2.06h-.52Z"/><path class="cls-20" d="M66.94,259.77v-1.28c0-.28-.09-.4-.29-.4-.22,0-.39.18-.39.52v1.17h-.5v-1.28c0-.28-.09-.4-.29-.4-.22,0-.39.18-.39.52v1.17h-.5v-2.06h.49v.34c.1-.22.28-.38.56-.38.3,0,.49.13.57.39.1-.24.31-.39.59-.39.42,0,.63.24.63.74v1.36h-.5Z"/><path class="cls-20" d="M67.74,258.74c0-.65.38-1.07,1.05-1.07s1.05.42,1.05,1.07-.38,1.07-1.05,1.07-1.05-.42-1.05-1.07ZM69.32,258.74c0-.46-.19-.68-.54-.68s-.53.22-.53.68.19.68.53.68.54-.22.54-.68Z"/><path class="cls-20" d="M70.05,258.74c0-.65.38-1.07,1.05-1.07s1.05.42,1.05,1.07-.38,1.07-1.05,1.07-1.05-.42-1.05-1.07ZM71.63,258.74c0-.46-.19-.68-.54-.68s-.53.22-.53.68.19.68.53.68.54-.22.54-.68Z"/><path class="cls-20" d="M72.45,259.77v-2.06h.49v.46c.11-.36.29-.49.58-.49.06,0,.14.02.19.03v.45h-.21c-.32,0-.53.23-.53.65v.96h-.52Z"/><path class="cls-20" d="M77.63,259.77v-2.35l-.82,2.35h-.46l-.83-2.35v2.35h-.52v-2.85h.85l.72,2.03.72-2.03h.86v2.85h-.52Z"/><path class="cls-20" d="M78.48,259.18c0-.32.19-.57.71-.61l.42-.04c.21-.02.27-.08.27-.18,0-.2-.12-.32-.38-.32-.24,0-.37.1-.39.32h-.51c0-.42.26-.69.9-.69s.9.27.9.69v.88c0,.28.02.46.06.53h-.47c-.06-.08-.09-.16-.09-.32-.12.24-.32.36-.68.36-.48,0-.74-.24-.74-.62ZM79.87,258.91v-.14s-.13.07-.27.08l-.24.02c-.26.02-.36.13-.36.28,0,.18.12.31.38.31.32,0,.5-.24.5-.54Z"/><path class="cls-20" d="M82.08,259.77v-1.26c0-.28-.1-.42-.35-.42-.27,0-.45.2-.45.53v1.15h-.52v-2.06h.49v.34c.11-.22.3-.38.63-.38.47,0,.71.24.71.74v1.36h-.52Z"/><path class="cls-20" d="M82.89,259.12h.5c.02.22.12.35.44.35s.42-.13.42-.28c0-.14-.11-.21-.29-.24l-.36-.05c-.48-.07-.66-.23-.66-.58s.25-.65.88-.65.88.28.88.66h-.5c-.02-.17-.08-.32-.39-.32-.26,0-.36.11-.36.27,0,.14.08.2.23.22l.35.05c.46.06.72.22.72.61,0,.37-.27.65-.94.65s-.93-.28-.93-.69Z"/><path class="cls-20" d="M84.99,258.74c0-.65.38-1.07,1.05-1.07s1.05.42,1.05,1.07-.38,1.07-1.05,1.07-1.05-.42-1.05-1.07ZM86.57,258.74c0-.46-.19-.68-.54-.68s-.53.22-.53.68.19.68.53.68.54-.22.54-.68Z"/><path class="cls-20" d="M87.3,258.74c0-.65.38-1.07,1.05-1.07s1.05.42,1.05,1.07-.38,1.07-1.05,1.07-1.05-.42-1.05-1.07ZM88.89,258.74c0-.46-.19-.68-.54-.68s-.53.22-.53.68.19.68.53.68.54-.22.54-.68Z"/><path class="cls-20" d="M89.7,259.77v-2.06h.49v.46c.11-.36.29-.49.58-.49.06,0,.14.02.19.03v.45h-.21c-.32,0-.53.23-.53.65v.96h-.52Z"/><text class="cls-14" transform="translate(152.99 258.09) scale(.58)"><tspan x="0" y="0" xml:space="preserve">TM  </tspan></text><text class="cls-14" transform="translate(157.64 259.42)"><tspan class="cls-36" x="0" y="0">&amp; © Ti</tspan><tspan class="cls-22" x="11.33" y="0">m</tspan><tspan x="14.51" y="0">taim</tspan></text><text class="cls-10" transform="translate(20.57 183.28)"><tspan x="0" y="0">Flash. O</tspan><tspan class="cls-33" x="20.92" y="0">r</tspan><tspan x="22.87" y="0">eo co</tspan><tspan class="cls-26" x="37.53" y="0">s</tspan><tspan x="40.43" y="0" xml:space="preserve">ts      less </tspan><tspan class="cls-29" x="66.22" y="0">t</tspan><tspan x="68.03" y="0">o ca</tspan><tspan class="cls-26" x="79.19" y="0">s</tspan><tspan class="cls-4" x="82.09" y="0">t, whe</tspan><tspan class="cls-33" x="98.07" y="0">r</tspan><tspan x="100.02" y="0">e X is the number </tspan><tspan class="cls-34" x="147.19" y="0">o</tspan><tspan x="150.42" y="0">f </tspan><tspan class="cls-41" x="0" y="7.2">F</tspan><tspan x="3.34" y="7.2">ood </tspan><tspan class="cls-29" x="15" y="7.2">t</tspan><tspan x="16.81" y="7.2">o</tspan><tspan class="cls-40" x="20.18" y="7.2">k</tspan><tspan x="23.09" y="7.2">ens sacrificed this turn.</tspan><tspan x="0" y="14.4"></tspan><tspan class="cls-40" x="0" y="21.6">A</tspan><tspan x="3.89" y="21.6">t the beginning </tspan><tspan class="cls-34" x="44.17" y="21.6">o</tspan><tspan x="47.39" y="21.6">f comb</tspan><tspan class="cls-26" x="65.44" y="21.6">a</tspan><tspan class="cls-4" x="68.54" y="21.6">t, an oppone</tspan><tspan class="cls-26" x="101.04" y="21.6">n</tspan><tspan x="104.15" y="21.6">t m</tspan><tspan class="cls-23" x="112.31" y="21.6">a</tspan><tspan x="115.33" y="21.6">y sacrifice a</tspan><tspan class="cls-25" x="146.67" y="21.6">n</tspan><tspan x="149.7" y="21.6">y </tspan><tspan x="0" y="28.8">number </tspan><tspan class="cls-34" x="21.33" y="28.8">o</tspan><tspan x="24.56" y="28.8">f </tspan><tspan class="cls-41" x="28.01" y="28.8">F</tspan><tspan x="31.35" y="28.8">ood, if th</tspan><tspan class="cls-42" x="53.88" y="28.8">e</tspan><tspan x="56.99" y="28.8">y d</tspan><tspan class="cls-32" x="65.09" y="28.8">o</tspan><tspan x="68.33" y="28.8">, tap O</tspan><tspan class="cls-43" x="85.51" y="28.8">r</tspan><tspan class="cls-28" x="87.46" y="28.8">eo and put X </tspan><tspan class="cls-41" x="122.47" y="28.8">s</tspan><tspan x="125.36" y="28.8">tun </tspan><tspan x="0" y="36">cou</tspan><tspan class="cls-41" x="9.67" y="36">n</tspan><tspan class="cls-21" x="12.77" y="36">t</tspan><tspan x="14.59" y="36">e</tspan><tspan class="cls-27" x="17.88" y="36">r</tspan><tspan x="19.97" y="36">s on O</tspan><tspan class="cls-33" x="36.92" y="36">r</tspan><tspan x="38.87" y="36">eo equal </tspan><tspan class="cls-21" x="62.72" y="36">t</tspan><tspan class="cls-4" x="64.54" y="36">o the number </tspan><tspan class="cls-34" x="100.68" y="36">o</tspan><tspan x="103.91" y="36">f </tspan><tspan class="cls-13" x="107.36" y="36">f</tspan><tspan x="109.11" y="36">ood sacrificed. </tspan><tspan x="0" y="43.2">When</tspan><tspan class="cls-18" x="15.55" y="43.2">ev</tspan><tspan x="21.65" y="43.2">er </tspan><tspan class="cls-18" x="28.55" y="43.2">y</tspan><tspan class="cls-4" x="31.54" y="43.2">ou gain li</tspan><tspan class="cls-13" x="54.23" y="43.2">f</tspan><tspan class="cls-24" x="55.99" y="43.2">e</tspan><tspan x="59.16" y="43.2">, u</tspan><tspan class="cls-26" x="64.96" y="43.2">n</tspan><tspan class="cls-4" x="68.07" y="43.2">tap O</tspan><tspan class="cls-33" x="82.61" y="43.2">r</tspan><tspan x="84.56" y="43.2">e</tspan><tspan class="cls-32" x="87.85" y="43.2">o</tspan><tspan x="91.1" y="43.2">.</tspan></text><path class="cls-38" d="M178.36,155.7c-2.17-2.18-5.69-2.2-7.88-.03-2.18,2.17-2.2,5.69-.03,7.88s5.69,2.2,7.88.03c2.18-2.17,2.2-5.69.03-7.88ZM173.73,157.08c.86-.85,1.73-1.36,1.96-1.13.23.23-.28,1.1-1.14,1.95-.86.85-1.73,1.36-1.96,1.13s.28-1.1,1.14-1.95ZM174.58,164.06c-1.19,0-2.51-.33-3.41-1.23-.87-.88-1.21-2.17-1.21-3.41,0-1.24.49-2.39,1.37-3.26l.84.84c-.81.8-1.25,1.86-1.26,3,0,.79.39,1.83.83,2.26.39.33,1.14.87,2.28.88,0,0,0,0,0,0,1.13,0,2.2-.43,3-1.23l.82.82c-.9.9-2.08,1.34-3.27,1.34ZM176.94,160.3c-.85.84-1.71,1.34-1.94,1.12-.22-.23.28-1.09,1.13-1.93.85-.84,1.71-1.34,1.94-1.12.22.23-.28,1.09-1.13,1.93Z"/><path class="cls-20" d="M45.65,256.62c-1.55,0-1.81,1.29-1.81,1.29v-1.12h-.99v.2l.07,2.8h.89l.07-1.15s.33,1.22,1.68,1.15c1.35-.07,2.28-1.46,2.28-1.46,0,0-.63-1.71-2.18-1.71ZM45.95,257.87c-1.27-.02-1.43-.34-1.43-.34,0,0,1.43-1.72,3.15.77,0,0-.45-.42-1.72-.43Z"/><path class="cls-38" d="M173.75,29.13c-2.58,0-4.67-2.1-4.67-4.67s2.1-4.67,4.67-4.67,4.67,2.1,4.67,4.67-2.1,4.67-4.67,4.67Z"/><path class="cls-9" d="M173.75,21.78c1.47,0,2.67,1.2,2.67,2.67s-1.2,2.67-2.67,2.67-2.67-1.2-2.67-2.67,1.2-2.67,2.67-2.67M173.75,17.78c-3.69,0-6.67,2.99-6.67,6.67s2.99,6.67,6.67,6.67,6.67-2.99,6.67-6.67-2.99-6.67-6.67-6.67h0Z"/><rect class="cls-20" x="152.34" y="239.03" width="31.74" height="14.04" rx="6.67" ry="6.67"/><path class="cls-38" d="M177.67,254.78h-18.92c-4.39,0-7.97-3.91-7.97-8.72s3.58-8.73,7.97-8.73h18.92c4.39,0,7.97,3.91,7.97,8.72s-3.58,8.73-7.97,8.73ZM158.75,240.74c-2.68,0-4.85,2.38-4.85,5.31s2.18,5.31,4.85,5.31h18.92c2.68,0,4.85-2.38,4.85-5.31s-2.18-5.31-4.85-5.31h-18.92Z"/><text class="cls-11" transform="translate(158.27 248.49)"><tspan x="0" y="0">10/10</tspan></text><path class="cls-38" d="M159.19,29.07c-2.58,0-4.67-2.1-4.67-4.67s2.1-4.67,4.67-4.67,4.67,2.1,4.67,4.67-2.1,4.67-4.67,4.67Z"/><path class="cls-9" d="M159.19,21.73c1.47,0,2.67,1.2,2.67,2.67s-1.2,2.67-2.67,2.67-2.67-1.2-2.67-2.67,1.2-2.67,2.67-2.67M159.19,17.73c-3.69,0-6.67,2.99-6.67,6.67s2.99,6.67,6.67,6.67,6.67-2.99,6.67-6.67-2.99-6.67-6.67-6.67h0Z"/><text class="cls-16" transform="translate(155.22 28.46) scale(1.2 1)"><tspan x="0" y="0">8</tspan></text><path class="cls-38" d="M70.51,182.35c-.45,0-.81-.36-.81-.81s.36-.81.81-.81.81.36.81.81-.36.81-.81.81Z"/><path class="cls-9" d="M70.51,178.74c-1.55,0-2.81,1.26-2.81,2.81s1.26,2.81,2.81,2.81,2.81-1.26,2.81-2.81-1.26-2.81-2.81-2.81h0Z"/><text class="cls-15" transform="translate(68.62 183.1) scale(1.2 1)"><tspan x="0" y="0">X</tspan></text><path class="cls-6" d="M177.61,20.92c-7.28-.32-6.8,4.79-6.59,5.99l-1.46.95,1.15.48.58-1.03c3.36,2.31,5.56-1.91,4.65-3.13-.9-1.21,1.68-3.26,1.68-3.26Z"/><text class="cls-7" transform="translate(20.41 236.22)"><tspan x="0" y="0">His g</tspan><tspan class="cls-33" x="13.2" y="0">r</tspan><tspan x="15.15" y="0">eed sic</tspan><tspan class="cls-40" x="33.89" y="0">k</tspan><tspan x="36.8" y="0">ens m</tspan><tspan class="cls-32" x="52.39" y="0">e</tspan><tspan x="55.57" y="0">.</tspan></text><rect class="cls-30" x="15.75" y="37.89" width="168.5" height="110.73"/><path class="cls-17" d="M166.13,120.94c-1.93-5.73-9.04-24.89-9.04-24.89l-9.3-20.76-26.39-.28-9.2,9.86,4.23,6.15-17.38-5.87s0,.02.01.03l-5.18-2.94s8.73,17.75,9.02,18.6c.22.66,5.17-1.79,7.39-2.92,7.64,5.18,19.73,8.9,37.97,3.86.2-.2-1.03,1.31-1.03,1.31,0,0,1.83-.63,1.83-1.06s.99,2.82.99,2.82c0,0,1.55,27.4,13.24,26.41,0,0,3.46-1.08,2.33-4.24.81-.67,1.79-2.29.51-6.09Z"/><path class="cls-39" d="M165.65,96.63c-1.63-1.09-9.55-17.61-14.82-26.03l.18.13-7.89-14.84-9.77-18.78-20.1-4.7.75,6.39-49.26,7.47-18.36,27.19-7.23,26.95,4.19-3.77-2.41,3.75,2.4,8.17,34.94-27.05,30.15-9.44,12.49,10.24c.56.09,17.09-2.07,18.78-5.07l3.05,5.5,5.74-.81c.43,2.1-2.94,4.82-2.94,4.82,0,0,7.91,18.22,14.11,18.85,6.2.63,8.17-7.51,5.99-8.97Z"/><path class="cls-31" d="M132.73,115.94c-3.51,1.15-6.64-1.16-8.02-2.43-.04-.22-.1-.46-.16-.71,3.42,2.2,6.05.83,6.05.83-2.23.81-4.73-.41-5.98-1.17,4.62.64,7.38-1.46,7.38-1.46-3.73,1.32-6.21,1.24-7.74.84-.59-1.75-1.69-3.8-3.76-5.39-2.45-1.88-4.89-2.13-7.53-1.25,3.71-3.55,6.44-13.92-.47-27.63-7.3-14.49-9.44,6.69-9.44,6.69l2.25,13.66s-4.34-11.36-10.96-13.62c-6.62-2.25-12.68-5.35-12.54-3.66.14,1.69,5.92,49.59,6.34,50.29.12.2,1.1.9,2.45,1.77l-10.41,4.85-7.11,16.13c8.2,3.79,14.57-.21,13.28-1.88,1.9.77-.28,2.96-.28,2.96,2.47-.07,3.17-2.25,3.17-2.25,1.2.35.7,1.62.7,1.62,1.34.42,1.55-1.69,1.55-1.69.99,1.27,0,2.39,0,2.39,1.41.49,1.69-4.58,1.69-4.58.35,2.18,5.07,2.32,5.07,2.32-4.23-1.48-.21-3.24-.21-3.24,4.79-.21,3.38,2.32,3.38,2.32l.56-.77,1.41.63.7-1.27,1.83.49,5.34-3.13c-.99,2.08,1.51,1.51,1.51,1.51-1.44-.77,1.12-1.36,1.12-1.36,0,0,3.4-2.91,3.01-1.24-.4,1.67,1.03,1.13,1.03,1.13-1.47.13-.86-.9-.86-.9l6.3-4.14,3.8-5.35.42-6.06.19-9.42-2.87-6.26s0-.41-.08-1.07c5.1,3.15,7.87,1.48,7.87,1.48Z"/><path class="cls-17" d="M94.76,103.66l1.34-8.59,2.54,2.96s4.86,10.35,7.47,11.34l-.7,1.06s-2.47-5.92-8.31-5.07l-2.11-1.41"/><path class="cls-9" d="M136.98,62.57c-.73,1.02-1.19,1.9-1.19,1.9,0,0,.65-.76,1.19-1.9Z"/><path class="cls-9" d="M170.72,97.2s-11.55-19.44-19.16-38.6c-10.63-24.23-28.24-27.24-37.09-27.07,1.52-1.16,3.45-2.33,3.45-2.33l-4.76,2.38c-2.57.15-4.14.53-4.14.53-.2-.05-.38-.08-.57-.12,2.42-1.11,5.03-2.02,5.03-2.02,0,0-3.2.89-6.3,1.79-7.33-.88-11.7,5.22-13.66,4.31-2.11-.99-21.79,2.75-21.79,2.75,0,0-17.84,5.54-28.46,22.73-10.61,17.19-3.93,41.02-3.84,41.3.09.28,6.29-8.36,6.29-8.36l-1.42-9.37s9.39-1.31,11.55-7.61c2.16-6.29-4.13-9.58-4.13-9.58,0,0,17.66,8.64,20.19,7.51,2.54-1.13-1.5-9.86-1.5-9.86,0,0-10.52-11.65-3.1-14.18,7.42-2.54,13.05,7.7,16.53,7.23s.09-9.86.09-9.86l11.18-4.13s5.35,6.39,11.65,8.17c6.29,1.78,9.39-7.61,9.86-8.55.47-.94-2.72-9.96-2.72-9.96l1.22-.79c.26.03.41.03.49,0,2.15.42,4.97.95,8.71,1.63,13.52,2.44,13.71,15.68,13.71,15.68,0,0-4.13,2.54-1.41,6.01,1.56,1.99,1.06,4.18.34,5.71,1.28-1.79,3.38-4.02,5.29-2.7,3.01,2.07,1.6,5.63,1.6,5.63,0,0,6.86,4.32,9.39,11.18,2.54,6.86,6.86,13.34,6.86,13.34l5.54,6.62c1.03,5.54-19.63,16.25-19.63,16.25-4.6,2.82,1.69,6.1,1.69,6.1,0,0,13.05,2.16,18.88-6.57,5.82-8.73,4.13-15.21,4.13-15.21Z"/><path class="cls-9" d="M61.33,127.56c-.27,0-.54-.16-.65-.44-.14-.36.03-.76.39-.91.29-.12,28.93-11.92,24.11-27.61-4.62-15-14.9-13.45-16.12-13.21-.53.34-3.27,2.34-2.13,6.34.25.87.53,1.73.79,2.56.97,3.01,1.81,5.62.76,7.06-.48.65-1.27.99-2.37.99-.48,0-1.07,0-1.75-.02-4.39-.07-13.53-.21-15.73,2.38-.25.3-.69.33-.98.08-.29-.25-.33-.69-.08-.98,2.42-2.86,9.96-2.98,16.82-2.87.66.01,1.25.02,1.72.02.94,0,1.16-.31,1.24-.41.64-.87-.18-3.38-.96-5.81-.27-.85-.56-1.72-.81-2.6-1.54-5.39,2.82-7.96,2.86-7.98l.19-.07c.13-.03,12.67-2.77,17.87,14.14,5.2,16.9-23.68,28.81-24.92,29.31-.09.03-.17.05-.26.05Z"/><path class="cls-1" d="M106.13,109.89s13.71-13.52,13.15,2.25c-.56,15.78.38,5.82.38,5.82"/><path class="cls-39" d="M102.55,71.21s11.55,11.97,7.18,14.93c0,0,.99-5.92-8.59-7.18l5.89,1.15s1.97,2.25,1.13,3.99c0,0,.42-2.21-2.16-2.3,0,0,.89,1.17.19,1.78l-1.88-.09s-3.38,7.18-.61,9.63c0,0-10.42-10.47-17.47-7.94l9.66,10.11s-8.96,2.14-5.44,9.05c0,0,0-2.54,4.65-1.83,0,0-5.78,3.66-2.68,8.31,0,0-3.52,10,3.8,9.02,0,0,5.07,2.25-4.09,4.93s3.52,6.06,3.52,6.06c0,0-15.36,11.13-20.85,8.17-5.49-2.96-15.64-13.81-15.64-13.81l-10.57-25.36,39.87-31.27,14.06,2.65Z"/><path class="cls-9" d="M127.8,121.78s-.14,13.38-1.97,13.81-3.24-1.13-3.66,2.11c-.42,3.24,2.11,3.52,2.11,3.52l-7.47,5.78,9.72-6.2c1.87-5,1.84-11.76,1.27-19.02Z"/><path class="cls-9" d="M145.57,86.97l.12-.54c.51.45,1.47.2,1.47.2,0,0,3.12-3.94,1.6-5.82-1.53-1.88-4.37,1.67-4.37,1.67l-1.63.27-3.31,4.51s2.89-1.13,3.87.07c.99,1.2-1.2,3.24-1.2,3.24,1.97,2.11,4.44.63,4.44.63l-1.62,2.68,3.94-.35-1.48,1.34c1.48,1.41,3.03.85,3.03.85l-4.86-8.73Z"/><polygon class="cls-39" points="154.34 101.91 154.35 101.9 154.34 101.9 154.34 101.91"/><path class="cls-39" d="M165.54,96.61c-.06-.04-.13-.1-.2-.18l-.18.09-10.82,5.39c1.74,2.03,3.54,3.5,5.21,3.67,6.2.63,8.17-7.51,5.99-8.97Z"/><path class="cls-1" d="M163.31,105.15s-4.16-.14-5.49-3.38"/><path class="cls-1" d="M165.65,127.03s-4.16-.14-5.49-3.38"/><path class="cls-1" d="M165.89,103.34s-4.16-.14-5.49-3.38"/><path class="cls-1" d="M167.53,101.27s-4.16-.14-5.49-3.38"/><path class="cls-39" d="M85.34,98.44c-4.77-15.5-15.39-13.9-16.65-13.65-.55.36-3.38,2.42-2.2,6.55.26.9.54,1.78.82,2.64,1,3.11,1.87,5.8.79,7.3-.49.68-1.32,1.02-2.44,1.02-.5,0-1.11,0-1.8-.02-4.53-.07-13.98-.22-16.25,2.46-.03.04-.07.06-.11.09l.05.08-4.62,12.81s10.42,16.44,10.71,16.53c.18.06,3.75-4.01,6.42-7.09l.06.11c.08-.13.19-.24.34-.31.3-.12,29.89-12.32,24.9-28.52Z"/><path class="cls-39" d="M40.63,101.49c-1.97-1.14-4.43-1.67-4.43-1.67,4.93,1.13,5.63,7.61,5.78,8.88l.77-5.21c-.2-.4-.5-.75-.86-1.08l.61-.52c-.9-.74-2.67-1.45-3.57-1.79.49.29,1.14.86,1.69,1.4Z"/><path class="cls-39" d="M38.93,100.1c-.22-.13-.42-.22-.55-.2,0,0,.22.07.55.2Z"/><path class="cls-39" d="M39.8,98.92c1.06.74,2.14,2.1,2.74,2.94l.33-.28c-.25-1.11-1.91-2.1-3.07-2.66Z"/><path class="cls-39" d="M39.8,98.92c-.39-.27-.77-.46-1.13-.5,0,0,.49.18,1.13.5Z"/><path class="cls-39" d="M42.66,102.03c-.04-.06-.08-.11-.13-.18l-.03.03c.06.05.11.1.16.15Z"/><path class="cls-39" d="M42.89,101.66s0-.04-.02-.09h0s.02.06.02.09Z"/><path class="cls-39" d="M42.66,102.03c.23.32.37.54.37.54-.04-.18-.18-.36-.37-.54Z"/><path class="cls-39" d="M40.93,97.45c-.14-.1-.29-.16-.43-.16,0,0,.18.05.43.16Z"/><path class="cls-39" d="M40.93,97.45c1.03.7,1.81,3.61,1.94,4.12l.73-.62c0-2.16-1.82-3.16-2.67-3.51Z"/><path class="cls-39" d="M43.78,93c1.07.03,2.13.94,2.89,1.78l.3-1.02c-.94-1.64-3.19-.75-3.19-.75Z"/><path class="cls-39" d="M42.69,94.57c1.39.24,2.68,1.54,3.36,2.35l.52-1.79c-1.18-.56-2.78-.62-3.89-.56Z"/><path class="cls-39" d="M46.57,95.14c.49.23.91.55,1.18.99,0,0-.43-.65-1.07-1.36l-.11.36Z"/><path class="cls-39" d="M46.12,97.01s-.05-.05-.07-.08v.03s.04.03.07.05Z"/><path class="cls-39" d="M46.12,97.01c.28.34.44.57.44.57-.06-.23-.22-.42-.44-.57Z"/><path class="cls-39" d="M41.41,94.69s.52-.08,1.27-.11c-.42-.07-.85-.05-1.27.11Z"/><path class="cls-39" d="M38.98,96.73c1.27-.22,5.66.93,6.59,1.18.1.03.16.05.17.05l.29-1c-1.73-1.05-7.06-.23-7.06-.23Z"/><path class="cls-39" d="M46.34,88.3c-1.6-3.01-3.38-1.22-3.38-1.22,2.25-1.03,4.09,4.16,4.09,4.16l-.42-3.31c-2.63-5.45-5.26-4.32-5.26-4.32,2.44-.75,4.98,4.7,4.98,4.7Z"/><path class="cls-39" d="M55.41,78.34c-1.13.05-1.36,2.44-1.36,2.44l.61.33c-.42-1.41.75-2.77.75-2.77Z"/><path class="cls-9" d="M63.57,126.65c6.67-3.06,27.41-13.9,22.94-28.44-5.2-16.91-17.75-14.17-17.87-14.14l-.19.07s-4.4,2.59-2.86,7.98c.25.88.53,1.76.81,2.6.78,2.43,1.6,4.94.96,5.81-.07.1-.3.41-1.24.41-.48,0-1.06,0-1.72-.02-6.05-.1-12.62,0-15.75,1.98-4.35,1.72-15.23,7.76-8.6,23.52,8.17,19.44,33.11,27.33,33.11,27.33,0,0,6.48-16.62,8.03-17.89,1.36-1.11-13.81-7.62-17.6-9.22ZM54.55,124.6l-5.78-7.61s-1.42-8.1-.03-12.37c2.34-2.5,11.3-2.36,15.64-2.29.67.01,1.26.02,1.75.02,1.09,0,1.89-.33,2.37-.99,1.05-1.45.21-4.05-.76-7.06-.27-.83-.55-1.69-.79-2.56-1.14-3.99,1.6-5.99,2.13-6.34,1.22-.24,11.5-1.79,16.12,13.21,4.5,14.63-20.12,25.88-23.68,27.42l-6.95-1.44Z"/><path class="cls-39" d="M118.1,80.9s1.48,3.66,8.1,4.01c0,0-6.13-.92-7.04-3.94,0,0,3.24,4.09,7.61,2.82,0,0-4.3.07-4.3-1.13,0,0,.77.92,2.39.35,0,0-3.1-.49-1.97-1.48,0,0,6.62.21,9.65-.49,0,0-9.09.92-8.24-1.41,0,0,4.93,5.92,5.92,5.35,0,0-5.64-4.86-4.37-6.27l8.95,4.58s-6.9-3.38-6.41-4.79c0,0,7.61,3.45,9.58,3.38,0,0-7.68-3.17-7.18-4.44,0,0,8.24,5.14,9.93,4.37,0,0-7.82-3.45-7.89-4.16s6.41,1.97,8.73,1.69c0,0-7.68-3.8-6.55-4.51l-16.91,6.06Z"/><path class="cls-9" d="M116.26,63.35l4.32,3.94s-5.73,8.08-.47,15.21c0,0-13.15,1.41-16.06-7.7-2.91-9.11,7.8-8.36,7.8-8.36l4.41-3.1Z"/></g></svg>