<?xml version="1.0" encoding="UTF-8"?><svg id="Layer_2" xmlns="http://www.w3.org/2000/svg" viewBox="0 0 199.52 273.17"><defs><style>.cls-1{fill:#89311c;}.cls-2{fill:#e5d95a;}.cls-3{fill:none;stroke:#231f20;stroke-miterlimit:10;stroke-width:4px;}.cls-4{font-size:14px;}.cls-4,.cls-5,.cls-6,.cls-7,.cls-8{fill:#231f20;}.cls-4,.cls-9,.cls-10,.cls-11{font-family:CreatoDisplay-Bold, 'Creato Display';font-weight:700;}.cls-12{letter-spacing:0em;}.cls-13{fill:#7f8080;}.cls-14{letter-spacing:-.01em;}.cls-15{fill:#f0f0f0;}.cls-9{font-size:4px;}.cls-9,.cls-10,.cls-11,.cls-16{fill:#f4eddd;}.cls-17{letter-spacing:0em;}.cls-18{letter-spacing:-.03em;}.cls-19{letter-spacing:-.02em;}.cls-20{letter-spacing:-.03em;}.cls-21{letter-spacing:-.04em;}.cls-22{letter-spacing:0em;}.cls-23{letter-spacing:-.04em;}.cls-24{letter-spacing:-.02em;}.cls-25{fill:#32b25d;}.cls-26{letter-spacing:-.03em;}.cls-27{letter-spacing:-.02em;}.cls-28{letter-spacing:0em;}.cls-6{font-family:CreatoDisplay-Italic, 'Creato Display';font-style:italic;}.cls-6,.cls-7{font-size:8px;}.cls-7{font-family:CreatoDisplay-Regular, 'Creato Display';}.cls-29{letter-spacing:-.02em;}.cls-10{font-size:11.69px;}.cls-11{font-size:7.79px;}.cls-30{fill:#732914;}.cls-31{letter-spacing:0em;}.cls-32{letter-spacing:0em;}.cls-33{fill:#a23f23;}.cls-34{letter-spacing:.02em;}.cls-35{fill:#010101;}.cls-36{letter-spacing:-.14em;}.cls-37{fill:#99211f;}.cls-38{letter-spacing:-.04em;}.cls-39{letter-spacing:-.01em;}.cls-40{fill:#d7d7d7;}.cls-41{letter-spacing:-.04em;}.cls-42{letter-spacing:-.03em;}.cls-43{letter-spacing:-.07em;}.cls-8{font-family:CreatoDisplay-Medium, 'Creato Display';font-size:10px;font-weight:500;}.cls-44{letter-spacing:-.02em;}.cls-45{letter-spacing:-.02em;}.cls-46{letter-spacing:0em;}</style></defs><g id="Layer_1-2"><path class="cls-13" d="M12.74,2h174.03c5.93,0,10.74,4.81,10.74,10.74v247.69c0,5.93-4.81,10.74-10.74,10.74H12.74c-5.93,0-10.74-4.81-10.74-10.74V12.74C2,6.81,6.81,2,12.74,2Z"/><path class="cls-5" d="M186.78,4c4.82,0,8.74,3.92,8.74,8.74v247.69c0,4.82-3.92,8.74-8.74,8.74H12.74c-4.82,0-8.74-3.92-8.74-8.74V12.74c0-4.82,3.92-8.74,8.74-8.74h174.03M186.78,0H12.74C5.7,0,0,5.7,0,12.74v247.69c0,7.04,5.7,12.74,12.74,12.74h174.03c7.04,0,12.74-5.7,12.74-12.74V12.74c0-7.04-5.7-12.74-12.74-12.74h0Z"/><path class="cls-16" d="M24.53,12.26h150.98c5.93,0,10.74,4.81,10.74,10.74v212.33c0,5.93-4.81,10.74-10.74,10.74H24.53c-5.93,0-10.74-4.81-10.74-10.74V23c0-5.93,4.81-10.74,10.74-10.74Z"/><path class="cls-5" d="M175.5,14.26c4.82,0,8.74,3.92,8.74,8.74v212.33c0,4.82-3.92,8.74-8.74,8.74H24.53c-4.82,0-8.74-3.92-8.74-8.74V23c0-4.82,3.92-8.74,8.74-8.74h150.98M175.5,10.26H24.53c-7.04,0-12.74,5.7-12.74,12.74v212.33c0,7.04,5.7,12.74,12.74,12.74h150.98c7.04,0,12.74-5.7,12.74-12.74V23c0-7.04-5.7-12.74-12.74-12.74h0Z"/><line class="cls-3" x1="14.16" y1="35.9" x2="185.13" y2="35.9"/><line class="cls-3" x1="14.16" y1="150.64" x2="185.13" y2="150.64"/><line class="cls-3" x1="14.16" y1="168.44" x2="185.13" y2="168.44"/><text class="cls-4" transform="translate(20.3 29.45)"><tspan x="0" y="0">Nihari</tspan></text><text class="cls-8" transform="translate(20.57 162.93)"><tspan class="cls-43" x="0" y="0">T</tspan><tspan x="5.18" y="0">o</tspan><tspan class="cls-21" x="10.88" y="0">k</tspan><tspan x="15.92" y="0">en Arti</tspan><tspan class="cls-24" x="45.57" y="0">f</tspan><tspan class="cls-17" x="48.76" y="0">act- </tspan><tspan class="cls-14" x="69.03" y="0">F</tspan><tspan x="74.71" y="0">ood</tspan></text><text class="cls-9" transform="translate(21.08 254.97)"><tspan x="0" y="0">11</tspan><tspan class="cls-34" x="0" y="4.8">T</tspan><tspan x="2.48" y="4.8">TM - EN</tspan></text><path class="cls-16" d="M43.03,253.55c0-.87.51-1.46,1.41-1.46.78,0,1.31.46,1.31,1.08h-.52c-.05-.36-.3-.64-.8-.64-.57,0-.87.36-.87,1.02s.3,1.02.87,1.02c.49,0,.75-.26.8-.66h.52c0,.63-.52,1.1-1.31,1.1-.9,0-1.41-.6-1.41-1.46Z"/><path class="cls-16" d="M49.03,258.85h.53c.04.38.22.55.66.55s.62-.18.62-.45c0-.2-.11-.32-.54-.39l-.36-.05c-.6-.08-.83-.29-.83-.76,0-.51.36-.88,1.1-.88s1.1.36,1.1.92h-.52c-.04-.34-.22-.51-.6-.51s-.55.18-.55.44c0,.2.09.3.47.35l.36.05c.58.08.9.3.9.8,0,.53-.38.89-1.18.89s-1.17-.35-1.17-.96Z"/><path class="cls-16" d="M51.71,260.18h.21c.24,0,.38-.12.38-.31,0-.06-.01-.13-.04-.2l-.74-1.97h.54l.54,1.66.54-1.66h.54l-.74,1.97c-.25.67-.52.88-1.02.88h-.2v-.37Z"/><path class="cls-16" d="M53.69,258.74c0-.64.36-1.07,1.02-1.07s1.03.44,1.03,1.05c0,.04,0,.08,0,.13h-1.53c.02.42.22.61.53.61.26,0,.42-.13.48-.34h.48c-.09.42-.4.69-.96.69-.67,0-1.05-.42-1.05-1.07ZM54.2,258.51h1.02c-.04-.33-.23-.49-.51-.49s-.46.16-.51.49Z"/><path class="cls-16" d="M55.96,258.74c0-.68.35-1.07.91-1.07.31,0,.52.13.64.35v-1.1h.52v2.85h-.49v-.35c-.11.24-.32.39-.66.39-.56,0-.91-.4-.91-1.07ZM57.5,258.74c0-.47-.21-.68-.52-.68s-.51.21-.51.68.21.68.51.68.52-.21.52-.68Z"/><path class="cls-16" d="M60.13,259.77v-2.4h-.86v-.44h2.28v.44h-.87v2.4h-.54Z"/><path class="cls-16" d="M61.41,259.18c0-.32.19-.57.71-.61l.42-.04c.21-.02.27-.08.27-.18,0-.2-.12-.32-.38-.32-.24,0-.37.1-.39.32h-.51c0-.42.26-.69.9-.69s.9.27.9.69v.88c0,.28.02.46.06.53h-.47c-.06-.08-.09-.16-.09-.32-.12.24-.32.36-.68.36-.48,0-.74-.24-.74-.62ZM62.81,258.91v-.14s-.13.07-.27.08l-.24.02c-.26.02-.36.13-.36.28,0,.18.12.31.38.31.32,0,.5-.24.5-.54Z"/><path class="cls-16" d="M63.66,257.13c0-.15.11-.27.3-.27s.3.12.3.27-.1.27-.3.27-.3-.12-.3-.27ZM63.7,259.77v-2.06h.52v2.06h-.52Z"/><path class="cls-16" d="M66.94,259.77v-1.28c0-.28-.09-.4-.29-.4-.22,0-.39.18-.39.52v1.17h-.5v-1.28c0-.28-.09-.4-.29-.4-.22,0-.39.18-.39.52v1.17h-.5v-2.06h.49v.34c.1-.22.28-.38.56-.38.3,0,.49.13.57.39.1-.24.31-.39.59-.39.42,0,.63.24.63.74v1.36h-.5Z"/><path class="cls-16" d="M67.74,258.74c0-.65.38-1.07,1.05-1.07s1.05.42,1.05,1.07-.38,1.07-1.05,1.07-1.05-.42-1.05-1.07ZM69.32,258.74c0-.46-.19-.68-.54-.68s-.53.22-.53.68.19.68.53.68.54-.22.54-.68Z"/><path class="cls-16" d="M70.05,258.74c0-.65.38-1.07,1.05-1.07s1.05.42,1.05,1.07-.38,1.07-1.05,1.07-1.05-.42-1.05-1.07ZM71.63,258.74c0-.46-.19-.68-.54-.68s-.53.22-.53.68.19.68.53.68.54-.22.54-.68Z"/><path class="cls-16" d="M72.45,259.77v-2.06h.49v.46c.11-.36.29-.49.58-.49.06,0,.14.02.19.03v.45h-.21c-.32,0-.53.23-.53.65v.96h-.52Z"/><path class="cls-16" d="M77.63,259.77v-2.35l-.82,2.35h-.46l-.83-2.35v2.35h-.52v-2.85h.85l.72,2.03.72-2.03h.86v2.85h-.52Z"/><path class="cls-16" d="M78.48,259.18c0-.32.19-.57.71-.61l.42-.04c.21-.02.27-.08.27-.18,0-.2-.12-.32-.38-.32-.24,0-.37.1-.39.32h-.51c0-.42.26-.69.9-.69s.9.27.9.69v.88c0,.28.02.46.06.53h-.47c-.06-.08-.09-.16-.09-.32-.12.24-.32.36-.68.36-.48,0-.74-.24-.74-.62ZM79.87,258.91v-.14s-.13.07-.27.08l-.24.02c-.26.02-.36.13-.36.28,0,.18.12.31.38.31.32,0,.5-.24.5-.54Z"/><path class="cls-16" d="M82.08,259.77v-1.26c0-.28-.1-.42-.35-.42-.27,0-.45.2-.45.53v1.15h-.52v-2.06h.49v.34c.11-.22.3-.38.63-.38.47,0,.71.24.71.74v1.36h-.52Z"/><path class="cls-16" d="M82.89,259.12h.5c.02.22.12.35.44.35s.42-.13.42-.28c0-.14-.11-.21-.29-.24l-.36-.05c-.48-.07-.66-.23-.66-.58s.25-.65.88-.65.88.28.88.66h-.5c-.02-.17-.08-.32-.39-.32-.26,0-.36.11-.36.27,0,.14.08.2.23.22l.35.05c.46.06.72.22.72.61,0,.37-.27.65-.94.65s-.93-.28-.93-.69Z"/><path class="cls-16" d="M84.99,258.74c0-.65.38-1.07,1.05-1.07s1.05.42,1.05,1.07-.38,1.07-1.05,1.07-1.05-.42-1.05-1.07ZM86.57,258.74c0-.46-.19-.68-.54-.68s-.53.22-.53.68.19.68.53.68.54-.22.54-.68Z"/><path class="cls-16" d="M87.3,258.74c0-.65.38-1.07,1.05-1.07s1.05.42,1.05,1.07-.38,1.07-1.05,1.07-1.05-.42-1.05-1.07ZM88.89,258.74c0-.46-.19-.68-.54-.68s-.53.22-.53.68.19.68.53.68.54-.22.54-.68Z"/><path class="cls-16" d="M89.7,259.77v-2.06h.49v.46c.11-.36.29-.49.58-.49.06,0,.14.02.19.03v.45h-.21c-.32,0-.53.23-.53.65v.96h-.52Z"/><text class="cls-9" transform="translate(152.99 258.09) scale(.58)"><tspan x="0" y="0" xml:space="preserve">TM  </tspan></text><text class="cls-9" transform="translate(157.64 259.42)"><tspan class="cls-32" x="0" y="0">&amp; © Ti</tspan><tspan class="cls-22" x="11.33" y="0">m</tspan><tspan x="14.51" y="0">taim</tspan></text><text class="cls-6" transform="translate(20.83 216.21)"><tspan x="0" y="0">Wh</tspan><tspan class="cls-39" x="12.11" y="0">a</tspan><tspan class="cls-28" x="16.26" y="0">t I pe</tspan><tspan class="cls-46" x="33.5" y="0">r</tspan><tspan class="cls-12" x="36.29" y="0">sonally consider </tspan><tspan class="cls-42" x="94.53" y="0">t</tspan><tspan x="96.94" y="0">o be the n</tspan><tspan class="cls-31" x="131.88" y="0">a</tspan><tspan class="cls-12" x="136.02" y="0">tional</tspan><tspan x="0" y="9.6">dish </tspan><tspan class="cls-19" x="16.25" y="9.6">o</tspan><tspan class="cls-28" x="20.55" y="9.6">f </tspan><tspan class="cls-18" x="25.15" y="9.6">P</tspan><tspan class="cls-28" x="29.94" y="9.6">aki</tspan><tspan class="cls-39" x="39.89" y="9.6">s</tspan><tspan class="cls-12" x="43.75" y="9.6">tan. Nihari is a sl</tspan><tspan class="cls-23" x="99.35" y="9.6">o</tspan><tspan x="103.5" y="9.6">w-coo</tspan><tspan class="cls-38" x="126" y="9.6">k</tspan><tspan class="cls-28" x="129.89" y="9.6">ed </tspan><tspan x="0" y="19.2">be</tspan><tspan class="cls-27" x="8.96" y="19.2">e</tspan><tspan x="13.17" y="19.2">f </tspan><tspan class="cls-39" x="17.77" y="19.2">s</tspan><tspan class="cls-42" x="21.63" y="19.2">t</tspan><tspan class="cls-41" x="24.05" y="19.2">e</tspan><tspan x="28.1" y="19.2">w ser</tspan><tspan class="cls-45" x="47.78" y="19.2">v</tspan><tspan class="cls-28" x="51.86" y="19.2">ed with ric</tspan><tspan class="cls-44" x="88.22" y="19.2">e</tspan><tspan x="92.46" y="19.2">, </tspan><tspan class="cls-26" x="95.97" y="19.2">r</tspan><tspan class="cls-39" x="98.57" y="19.2">o</tspan><tspan x="102.98" y="19.2">ti or naan.</tspan></text><text class="cls-7" transform="translate(30.15 183.99)"><tspan x="0" y="0">,</tspan></text><text class="cls-7" transform="translate(41.2 183.99)"><tspan x="0" y="0">, Sacrifice this arti</tspan><tspan class="cls-44" x="61.38" y="0">f</tspan><tspan x="63.82" y="0">act: </tspan><tspan class="cls-36" x="78.38" y="0">Y</tspan><tspan x="82.58" y="0">ou gain 3 li</tspan><tspan class="cls-20" x="119.52" y="0">f</tspan><tspan class="cls-29" x="121.86" y="0">e</tspan><tspan class="cls-28" x="126.09" y="0">.</tspan></text><path class="cls-35" d="M178.36,155.7c-2.17-2.18-5.69-2.2-7.88-.03-2.18,2.17-2.2,5.69-.03,7.88,2.17,2.18,5.69,2.2,7.88.03,2.18-2.17,2.2-5.69.03-7.88ZM173.73,157.08c.86-.85,1.73-1.36,1.96-1.13.23.23-.28,1.1-1.14,1.95-.86.85-1.73,1.36-1.96,1.13s.28-1.1,1.14-1.95ZM174.58,164.06c-1.19,0-2.51-.33-3.41-1.23-.87-.88-1.21-2.17-1.21-3.41,0-1.24.49-2.39,1.37-3.26l.84.84c-.81.8-1.25,1.86-1.26,3,0,.79.39,1.83.83,2.26.39.33,1.14.87,2.28.88,0,0,0,0,0,0,1.13,0,2.2-.43,3-1.23l.82.82c-.9.9-2.08,1.34-3.27,1.34ZM176.94,160.3c-.85.84-1.71,1.34-1.94,1.12-.22-.23.28-1.09,1.13-1.93.85-.84,1.71-1.34,1.94-1.12.22.23-.28,1.09-1.13,1.93Z"/><path class="cls-16" d="M45.65,256.62c-1.55,0-1.81,1.29-1.81,1.29v-1.12h-.99v.2l.07,2.8h.89l.07-1.15s.33,1.22,1.68,1.15c1.35-.07,2.28-1.46,2.28-1.46,0,0-.63-1.71-2.18-1.71ZM45.95,257.87c-1.27-.02-1.43-.34-1.43-.34,0,0,1.43-1.72,3.15.77,0,0-.45-.42-1.72-.43Z"/><path class="cls-35" d="M173.75,29.13c-2.58,0-4.67-2.1-4.67-4.67s2.1-4.67,4.67-4.67,4.67,2.1,4.67,4.67-2.1,4.67-4.67,4.67Z"/><path class="cls-5" d="M173.75,21.78c1.47,0,2.67,1.2,2.67,2.67s-1.2,2.67-2.67,2.67-2.67-1.2-2.67-2.67,1.2-2.67,2.67-2.67M173.75,17.78c-3.69,0-6.67,2.99-6.67,6.67s2.99,6.67,6.67,6.67,6.67-2.99,6.67-6.67-2.99-6.67-6.67-6.67h0Z"/><path class="cls-35" d="M25.32,184.02c-1.35,0-2.45-1.1-2.45-2.45s1.1-2.45,2.45-2.45,2.45,1.1,2.45,2.45-1.1,2.45-2.45,2.45Z"/><path class="cls-5" d="M25.32,181.12c.25,0,.45.2.45.45s-.2.45-.45.45-.45-.2-.45-.45.2-.45.45-.45M25.32,177.12c-2.46,0-4.45,1.99-4.45,4.45s1.99,4.45,4.45,4.45,4.45-1.99,4.45-4.45-1.99-4.45-4.45-4.45h0Z"/><text class="cls-11" transform="translate(22.62 184.1) scale(1.2 1)"><tspan x="0" y="0">2</tspan></text><path class="cls-35" d="M36.45,184c-1.35,0-2.45-1.1-2.45-2.45s1.1-2.45,2.45-2.45,2.45,1.1,2.45,2.45-1.1,2.45-2.45,2.45Z"/><path class="cls-5" d="M36.45,181.1c.25,0,.45.2.45.45s-.2.45-.45.45-.45-.2-.45-.45.2-.45.45-.45M36.45,177.1c-2.46,0-4.45,1.99-4.45,4.45s1.99,4.45,4.45,4.45,4.45-1.99,4.45-4.45-1.99-4.45-4.45-4.45h0Z"/><text class="cls-10" transform="translate(170.54 28.51) scale(1.2 1)"><tspan x="0" y="0">1</tspan></text><path class="cls-16" d="M39.38,181.72l-.2-2.55-.93.74c-.31-.36-.86-.96-1.4-1.26-2.31-.7-3.59,2.01-3.17,3.78.24.79,1.95,2.51,1.94,2.49l.79-.76c-.07,0-1.26-1.03-1.57-1.67-.3-.64-.47-1.8.64-2.75.94-.79,1.87.21,2.25.57l-.94.74,2.58.67Z"/><path class="cls-40" d="M153.49,92.2c0-8.83-4.84-10.05-6.4-10.22-5.26-21.26-24.45-37.03-47.33-37.03s-42.17,15.84-47.37,37.18c-1.9.52-5.9,2.58-5.9,10.61,0,7.32,3.33,9.41,5.35,10.01,4.24,22.61,24.07,39.73,47.92,39.73s43.66-17.1,47.91-39.7c1.93-.56,5.82-2.67,5.82-10.59Z"/><circle class="cls-15" cx="99.76" cy="93.72" r="43.96"/><circle class="cls-33" cx="99.76" cy="93.72" r="38.16"/><path class="cls-37" d="M83.7,59.27s-9.3,2.63-3.64,7.89c5.66,5.26,10.92,5.66,5.87,9.71-5.06,4.04,16.18,17.6,18,1.62s-20.22-19.21-20.22-19.21Z"/><circle class="cls-37" cx="81.98" cy="69.45" r="2.49"/><circle class="cls-37" cx="85.35" cy="80.23" r="4.45"/><circle class="cls-37" cx="73.92" cy="100.97" r="3.13"/><circle class="cls-37" cx="88.83" cy="118.02" r="4.99"/><circle class="cls-37" cx="72.32" cy="98.07" r="1.78"/><circle class="cls-37" cx="104.46" cy="114.66" r="2.12"/><circle class="cls-37" cx="102.71" cy="110.21" r="1.04"/><circle class="cls-37" cx="82.01" cy="100.3" r="1.04"/><circle class="cls-37" cx="114.44" cy="77.11" r="1.04"/><circle class="cls-37" cx="114.27" cy="76" r=".68"/><circle class="cls-37" cx="104.08" cy="111.36" r=".89"/><circle class="cls-37" cx="92.7" cy="59.74" r="1.21"/><circle class="cls-37" cx="96.01" cy="58.79" r=".74"/><circle class="cls-37" cx="95.8" cy="60.68" r="1.55"/><path class="cls-37" d="M132.01,76.59s-26.43,2.7-16.99,19.69c9.44,16.99-8.09,15.64-8.09,15.64,0,0-8.36,21.3,5.93,14.56,14.29-6.74,33.44-20.76,19.15-49.89Z"/><circle class="cls-33" cx="121.73" cy="81.98" r="4.04"/><circle class="cls-33" cx="118.26" cy="94.42" r="1.62"/><circle class="cls-33" cx="108.42" cy="124.49" r="4.96"/><circle class="cls-33" cx="119.27" cy="96.92" r=".67"/><circle class="cls-33" cx="120.08" cy="94.02" r=".67"/><path class="cls-37" d="M96.92,95.74s-11.73-8.97-11.73,4.79-6.47,14.29-6.47,14.29c0,0,8.63,14.56,11.87,3.78s2.97-21.57,8.36-17.93-2.02-4.92-2.02-4.92Z"/><circle class="cls-33" cx="96.89" cy="103.36" r="4.96"/><circle class="cls-33" cx="94.78" cy="97.88" r="1.23"/><circle class="cls-33" cx="88.66" cy="108.19" r="2.03"/><circle class="cls-33" cx="103.68" cy="76.57" r="1.23"/><circle class="cls-33" cx="91.94" cy="98.44" r=".46"/><path class="cls-30" d="M107.32,66.92l-6.37,7.28s8.39,9.61,8.8,9.1-.71-5.87,3.44-5.76-1.21-3.94-1.21-3.94l-4.65-6.67Z"/><polygon class="cls-1" points="100.94 74.2 99.58 72.46 105.17 66.5 107.32 66.92 100.94 74.2"/><path class="cls-30" d="M88.59,100.51l-6.5,1.01s1.04,8.61,1.47,8.52,1.89-3.34,4.22-1.5c2.33,1.85.85-2.57.85-2.57l-.05-5.47Z"/><polygon class="cls-1" points="82.09 101.53 81.99 100.04 87.53 99.37 88.59 100.51 82.09 101.53"/><path class="cls-30" d="M75.71,81.21s-8.09-3.51-8.9,3.78,4.69,5.97,4.69,5.97c0,0,7.69-2.02,6.17-5.87-1.52-3.84-1.96-3.88-1.96-3.88Z"/><circle class="cls-37" cx="109.22" cy="121.36" r=".89"/><circle class="cls-37" cx="110.69" cy="122.35" r="1.13"/><circle class="cls-37" cx="108.93" cy="123.49" r=".27"/><path class="cls-1" d="M120.34,117.45c-.9-2.27-1.42-3.21-1.69-3.6h0s-5.3-7.36-5.3-7.36c0,0-3.13,8.14-3.13,8.29l.05.02c-.38.65-.66,1.48-.78,2.55-.81,7.28,4.69,5.97,4.69,5.97,0,0,7.69-2.02,6.17-5.87Z"/><path class="cls-30" d="M118.93,113.57l-5.58-7.07,5.16,8.78c.52,3.08.16,7.87-7.16,7.73,0,0,2.68,1.97,7.2-1.56,4-3.12,1.89-6.38.37-7.88Z"/><path class="cls-2" d="M99.76,85.12l9.57,16.45s7.08-10.31,2.02-15.37-11.6-1.08-11.6-1.08Z"/><polygon class="cls-25" points="93.73 89.44 96.46 90.75 94.94 91.76 93.73 89.44"/><polygon class="cls-25" points="96.26 70.34 97.77 74.65 95.07 74.11 96.26 70.34"/><polygon class="cls-25" points="84.13 75.76 85.92 77.86 84.28 78.14 84.13 75.76"/><polygon class="cls-25" points="118.62 80.65 118.3 85.15 116.06 83.61 118.62 80.65"/><polygon class="cls-25" points="82.99 82.04 85.95 85.45 83.28 85.94 82.99 82.04"/><polygon class="cls-25" points="78.09 94.44 77.89 97.78 80.92 95.05 78.09 94.44"/><polygon class="cls-25" points="101.85 99.5 101.35 100.11 102.97 99.8 101.85 99.5"/><path class="cls-25" d="M125.11,99.09s-.71,5.97-.71,5.26,3.34-6.78,3.34-6.78l-2.63,1.52Z"/><polygon class="cls-25" points="95.48 105.77 94.77 109.61 97.3 106.48 95.48 105.77"/><polygon class="cls-25" points="87.6 64 87.9 65.82 90.83 63.8 87.6 64"/><polygon class="cls-25" points="74.75 94.24 75.26 95.35 76.57 93.84 74.75 94.24"/><polygon class="cls-25" points="76.27 92.62 75.56 95.25 77.08 93.63 76.27 92.62"/><polygon class="cls-25" points="79.81 92.62 79.3 93.23 80.82 93.13 79.81 92.62"/><polygon class="cls-25" points="113.31 64.81 112.24 67.64 115.2 65.08 113.31 64.81"/><polygon class="cls-25" points="88.91 120.5 88.1 121.85 89.85 120.63 88.91 120.5"/><polygon class="cls-25" points="94.71 123.6 93.09 127.64 95.38 126.7 94.71 123.6"/><polygon class="cls-25" points="86.62 121.71 89.31 122.12 88.24 123.87 86.62 121.71"/><polygon class="cls-25" points="83.25 116.18 82.3 119.28 88.37 117.4 83.25 116.18"/><polygon class="cls-25" points="122.75 109.85 120.86 112.68 124.37 110.39 122.75 109.85"/><polygon class="cls-25" points="104.68 117.8 105.09 120.23 107.79 118.61 104.68 117.8"/><polygon class="cls-25" points="105.49 115.78 105.9 117.53 108.46 115.11 105.49 115.78"/><polyline class="cls-25" points="106.98 111.46 107.25 113.49 108.86 111.46 106.93 111.92"/><polygon class="cls-25" points="124.71 86.59 124.85 86.8 125.58 87.9 127.54 86.69 124.71 86.59"/><polyline class="cls-25" points="125.04 74.69 124.77 75.9 125.92 74.96 125.1 74.7"/></g></svg>