<?xml version="1.0" encoding="UTF-8"?><svg id="Layer_2" xmlns="http://www.w3.org/2000/svg" viewBox="0 0 199.52 273.17"><defs><style>.cls-1{letter-spacing:-.02em;}.cls-2{fill:#7ac360;}.cls-3{fill:#d6615f;}.cls-4{fill:#a13f40;}.cls-5{fill:none;stroke:#231f20;stroke-miterlimit:10;stroke-width:4px;}.cls-6{font-size:14px;}.cls-6,.cls-7,.cls-8,.cls-9,.cls-10{fill:#231f20;}.cls-6,.cls-11,.cls-12{font-family:CreatoDisplay-Bold, 'Creato Display';}.cls-6,.cls-11,.cls-12,.cls-9{font-weight:700;}.cls-13{letter-spacing:-.03em;}.cls-14{letter-spacing:-.01em;}.cls-11{font-size:4px;}.cls-11,.cls-12,.cls-15{fill:#f4eddd;}.cls-16{fill:#e87e7e;}.cls-17{fill:#3687c8;}.cls-18{letter-spacing:-.02em;}.cls-19{letter-spacing:0em;}.cls-20{letter-spacing:-.03em;}.cls-21{letter-spacing:-.03em;}.cls-22{fill:#b64544;}.cls-23{letter-spacing:0em;}.cls-24{letter-spacing:-.03em;}.cls-8{font-family:CreatoDisplay-Regular, 'Creato Display';}.cls-8,.cls-9{font-size:8px;}.cls-12{font-size:11.69px;}.cls-25{fill:#8f3736;}.cls-26{letter-spacing:0em;}.cls-27{letter-spacing:-.02em;}.cls-28{letter-spacing:0em;}.cls-29{letter-spacing:.02em;}.cls-30{fill:#010101;}.cls-31{letter-spacing:-.03em;}.cls-32{letter-spacing:-.03em;}.cls-33{letter-spacing:-.04em;}.cls-34{letter-spacing:-.01em;}.cls-9{font-family:CreatoDisplay-ExtraBold, 'Creato Display';}.cls-35{letter-spacing:-.03em;}.cls-10{font-family:CreatoDisplay-Medium, 'Creato Display';font-size:10px;font-weight:500;}.cls-36{letter-spacing:-.02em;}</style></defs><g id="Layer_1-2"><rect class="cls-2" x="2" y="2" width="195.52" height="269.17" rx="10.74" ry="10.74"/><path class="cls-7" d="M186.78,4c4.82,0,8.74,3.92,8.74,8.74v247.69c0,4.82-3.92,8.74-8.74,8.74H12.74c-4.82,0-8.74-3.92-8.74-8.74V12.74c0-4.82,3.92-8.74,8.74-8.74h174.03M186.78,0H12.74C5.7,0,0,5.7,0,12.74v247.69c0,7.04,5.7,12.74,12.74,12.74h174.03c7.04,0,12.74-5.7,12.74-12.74V12.74c0-7.04-5.7-12.74-12.74-12.74h0Z"/><path class="cls-17" d="M12.74,271.17c-5.92,0-10.74-4.82-10.74-10.74V12.74C2,6.82,6.82,2,12.74,2h85.01v269.17H12.74Z"/><path class="cls-7" d="M95.76,4v265.17H12.74c-4.82,0-8.74-3.92-8.74-8.74V12.74c0-4.82,3.92-8.74,8.74-8.74h83.02M99.76,0H12.74C5.7,0,0,5.7,0,12.74v247.69c0,7.04,5.7,12.74,12.74,12.74h87.02V0h0Z"/><rect class="cls-15" x="13.78" y="12.26" width="172.46" height="233.81" rx="10.74" ry="10.74"/><path class="cls-7" d="M175.5,14.26c4.82,0,8.74,3.92,8.74,8.74v212.33c0,4.82-3.92,8.74-8.74,8.74H24.53c-4.82,0-8.74-3.92-8.74-8.74V23c0-4.82,3.92-8.74,8.74-8.74h150.98M175.5,10.26H24.53c-7.04,0-12.74,5.7-12.74,12.74v212.33c0,7.04,5.7,12.74,12.74,12.74h150.98c7.04,0,12.74-5.7,12.74-12.74V23c0-7.04-5.7-12.74-12.74-12.74h0Z"/><line class="cls-5" x1="14.16" y1="35.9" x2="185.13" y2="35.9"/><line class="cls-5" x1="14.16" y1="150.64" x2="185.13" y2="150.64"/><line class="cls-5" x1="14.16" y1="168.44" x2="185.13" y2="168.44"/><text class="cls-6" transform="translate(20.3 29.45)"><tspan x="0" y="0">Bac</tspan><tspan class="cls-1" x="24.88" y="0">t</tspan><tspan x="29.57" y="0">eriophage</tspan></text><text class="cls-10" transform="translate(20.57 162.93)"><tspan x="0" y="0">C</tspan><tspan class="cls-27" x="7.26" y="0">r</tspan><tspan x="10.7" y="0">e</tspan><tspan class="cls-14" x="16.28" y="0">a</tspan><tspan x="21.58" y="0">tu</tspan><tspan class="cls-27" x="30.43" y="0">r</tspan><tspan x="33.87" y="0">e- Virus</tspan></text><text class="cls-11" transform="translate(21.08 254.97)"><tspan x="0" y="0">8</tspan><tspan class="cls-29" x="0" y="4.8">T</tspan><tspan x="2.48" y="4.8">TM - EN</tspan></text><path class="cls-15" d="M43.1,253.89v-1.77h.54v1.72c0,.54.2.72.67.72s.68-.19.68-.72v-1.72h.54v1.77c0,.74-.4,1.12-1.22,1.12s-1.22-.38-1.22-1.12Z"/><path class="cls-15" d="M49.03,258.85h.53c.04.38.22.55.66.55s.62-.18.62-.45c0-.2-.11-.32-.54-.39l-.36-.05c-.6-.08-.83-.29-.83-.76,0-.51.36-.88,1.1-.88s1.1.36,1.1.92h-.52c-.04-.34-.22-.51-.6-.51s-.55.18-.55.44c0,.2.09.3.47.35l.36.05c.58.08.9.3.9.8,0,.53-.38.89-1.18.89s-1.17-.35-1.17-.96Z"/><path class="cls-15" d="M51.71,260.18h.21c.24,0,.38-.12.38-.31,0-.06-.01-.13-.04-.2l-.74-1.97h.54l.54,1.66.54-1.66h.54l-.74,1.97c-.25.67-.52.88-1.02.88h-.2v-.37Z"/><path class="cls-15" d="M53.69,258.74c0-.64.36-1.07,1.02-1.07s1.03.44,1.03,1.05c0,.04,0,.08,0,.13h-1.53c.02.42.22.61.53.61.26,0,.42-.13.48-.34h.48c-.09.42-.4.69-.96.69-.67,0-1.05-.42-1.05-1.07ZM54.2,258.51h1.02c-.04-.33-.23-.49-.51-.49s-.46.16-.51.49Z"/><path class="cls-15" d="M55.95,258.74c0-.68.35-1.07.91-1.07.31,0,.52.13.64.35v-1.1h.52v2.85h-.49v-.35c-.11.24-.32.39-.66.39-.56,0-.91-.4-.91-1.07ZM57.5,258.74c0-.47-.21-.68-.52-.68s-.51.21-.51.68.21.68.51.68.52-.21.52-.68Z"/><path class="cls-15" d="M60.13,259.77v-2.4h-.86v-.44h2.28v.44h-.87v2.4h-.54Z"/><path class="cls-15" d="M61.41,259.18c0-.32.19-.57.71-.61l.42-.04c.21-.02.27-.08.27-.18,0-.2-.12-.32-.38-.32-.24,0-.37.1-.39.32h-.51c0-.42.26-.69.9-.69s.9.27.9.69v.88c0,.28.02.46.06.53h-.47c-.06-.08-.09-.16-.09-.32-.12.24-.32.36-.68.36-.48,0-.74-.24-.74-.62ZM62.81,258.91v-.14s-.13.07-.27.08l-.24.02c-.26.02-.36.13-.36.28,0,.18.12.31.38.31.32,0,.5-.24.5-.54Z"/><path class="cls-15" d="M63.66,257.13c0-.15.11-.27.3-.27s.3.12.3.27-.1.27-.3.27-.3-.12-.3-.27ZM63.7,259.77v-2.06h.52v2.06h-.52Z"/><path class="cls-15" d="M66.94,259.77v-1.28c0-.28-.09-.4-.29-.4-.22,0-.39.18-.39.52v1.17h-.5v-1.28c0-.28-.09-.4-.29-.4-.22,0-.39.18-.39.52v1.17h-.5v-2.06h.49v.34c.1-.22.28-.38.56-.38.3,0,.49.13.57.39.1-.24.31-.39.59-.39.42,0,.63.24.63.74v1.36h-.5Z"/><path class="cls-15" d="M67.74,258.74c0-.65.38-1.07,1.05-1.07s1.05.42,1.05,1.07-.38,1.07-1.05,1.07-1.05-.42-1.05-1.07ZM69.32,258.74c0-.46-.19-.68-.54-.68s-.53.22-.53.68.19.68.53.68.54-.22.54-.68Z"/><path class="cls-15" d="M70.05,258.74c0-.65.38-1.07,1.05-1.07s1.05.42,1.05,1.07-.38,1.07-1.05,1.07-1.05-.42-1.05-1.07ZM71.63,258.74c0-.46-.19-.68-.54-.68s-.53.22-.53.68.19.68.53.68.54-.22.54-.68Z"/><path class="cls-15" d="M72.45,259.77v-2.06h.49v.46c.11-.36.29-.49.58-.49.06,0,.14.02.19.03v.45h-.21c-.32,0-.53.23-.53.65v.96h-.52Z"/><path class="cls-15" d="M77.63,259.77v-2.35l-.82,2.35h-.46l-.83-2.35v2.35h-.52v-2.85h.85l.72,2.03.72-2.03h.86v2.85h-.52Z"/><path class="cls-15" d="M78.48,259.18c0-.32.19-.57.71-.61l.42-.04c.21-.02.27-.08.27-.18,0-.2-.12-.32-.38-.32-.24,0-.37.1-.39.32h-.51c0-.42.26-.69.9-.69s.9.27.9.69v.88c0,.28.02.46.06.53h-.47c-.06-.08-.09-.16-.09-.32-.12.24-.32.36-.68.36-.48,0-.74-.24-.74-.62ZM79.87,258.91v-.14s-.13.07-.27.08l-.24.02c-.26.02-.36.13-.36.28,0,.18.12.31.38.31.32,0,.5-.24.5-.54Z"/><path class="cls-15" d="M82.08,259.77v-1.26c0-.28-.1-.42-.35-.42-.27,0-.45.2-.45.53v1.15h-.52v-2.06h.49v.34c.11-.22.3-.38.63-.38.47,0,.71.24.71.74v1.36h-.52Z"/><path class="cls-15" d="M82.89,259.12h.5c.02.22.12.35.44.35s.42-.13.42-.28c0-.14-.11-.21-.29-.24l-.36-.05c-.48-.07-.66-.23-.66-.58s.25-.65.88-.65.88.28.88.66h-.5c-.02-.17-.08-.32-.39-.32-.26,0-.36.11-.36.27,0,.14.08.2.23.22l.35.05c.46.06.72.22.72.61,0,.37-.27.65-.94.65s-.93-.28-.93-.69Z"/><path class="cls-15" d="M84.99,258.74c0-.65.38-1.07,1.05-1.07s1.05.42,1.05,1.07-.38,1.07-1.05,1.07-1.05-.42-1.05-1.07ZM86.57,258.74c0-.46-.19-.68-.54-.68s-.53.22-.53.68.19.68.53.68.54-.22.54-.68Z"/><path class="cls-15" d="M87.3,258.74c0-.65.38-1.07,1.05-1.07s1.05.42,1.05,1.07-.38,1.07-1.05,1.07-1.05-.42-1.05-1.07ZM88.89,258.74c0-.46-.19-.68-.54-.68s-.53.22-.53.68.19.68.53.68.54-.22.54-.68Z"/><path class="cls-15" d="M89.7,259.77v-2.06h.49v.46c.11-.36.29-.49.58-.49.06,0,.14.02.19.03v.45h-.21c-.32,0-.53.23-.53.65v.96h-.52Z"/><text class="cls-11" transform="translate(152.99 258.09) scale(.58)"><tspan x="0" y="0" xml:space="preserve">TM  </tspan></text><text class="cls-11" transform="translate(157.64 259.42)"><tspan class="cls-28" x="0" y="0">&amp; © Ti</tspan><tspan class="cls-19" x="11.33" y="0">m</tspan><tspan x="14.51" y="0">taim</tspan></text><text class="cls-8" transform="translate(20.57 184.78)"><tspan x="0" y="0">P</tspan><tspan class="cls-21" x="5.03" y="0">r</tspan><tspan class="cls-34" x="7.63" y="0">o</tspan><tspan class="cls-32" x="12.04" y="0">t</tspan><tspan x="14.46" y="0">ection f</tspan><tspan class="cls-21" x="40.5" y="0">r</tspan><tspan x="43.1" y="0">om Bac</tspan><tspan class="cls-35" x="69.48" y="0">t</tspan><tspan x="71.9" y="0">eria</tspan><tspan x="0" y="19.2">When</tspan><tspan class="cls-20" x="20.73" y="19.2">ev</tspan><tspan x="28.86" y="19.2">er Bac</tspan><tspan class="cls-35" x="51.74" y="19.2">t</tspan><tspan class="cls-23" x="54.15" y="19.2">eriophage de</tspan><tspan class="cls-34" x="100.29" y="19.2">s</tspan><tspan class="cls-23" x="104.15" y="19.2">t</tspan><tspan class="cls-21" x="106.8" y="19.2">r</tspan><tspan class="cls-13" x="109.4" y="19.2">o</tspan><tspan class="cls-31" x="113.65" y="19.2">y</tspan><tspan x="117.65" y="19.2">s a Bac</tspan><tspan class="cls-35" x="143.49" y="19.2">t</tspan><tspan x="145.9" y="19.2">eria</tspan><tspan x="0" y="28.8">c</tspan><tspan class="cls-24" x="4.18" y="28.8">r</tspan><tspan x="6.78" y="28.8">e</tspan><tspan class="cls-26" x="11.17" y="28.8">a</tspan><tspan class="cls-35" x="15.31" y="28.8">t</tspan><tspan x="17.73" y="28.8">e a </tspan><tspan class="cls-32" x="30.34" y="28.8">t</tspan><tspan x="32.76" y="28.8">o</tspan><tspan class="cls-33" x="37.25" y="28.8">k</tspan><tspan x="41.14" y="28.8">en co</tspan><tspan class="cls-13" x="60.42" y="28.8">p</tspan><tspan x="64.74" y="28.8">y </tspan><tspan class="cls-18" x="70.97" y="28.8">o</tspan><tspan x="75.27" y="28.8">f Bac</tspan><tspan class="cls-35" x="93.54" y="28.8">t</tspan><tspan class="cls-23" x="95.96" y="28.8">eriophag</tspan><tspan class="cls-36" x="126.74" y="28.8">e</tspan><tspan x="130.98" y="28.8">.</tspan></text><path class="cls-30" d="M178.36,155.7c-2.17-2.18-5.69-2.2-7.88-.03-2.18,2.17-2.2,5.69-.03,7.88,2.17,2.18,5.69,2.2,7.88.03,2.18-2.17,2.2-5.69.03-7.88ZM173.73,157.08c.86-.85,1.73-1.36,1.96-1.13.23.23-.28,1.1-1.14,1.95-.86.85-1.73,1.36-1.96,1.13s.28-1.1,1.14-1.95ZM174.58,164.06c-1.19,0-2.51-.33-3.41-1.23-.87-.88-1.21-2.17-1.21-3.41,0-1.24.49-2.39,1.37-3.26l.84.84c-.81.8-1.25,1.86-1.26,3,0,.79.39,1.83.83,2.26.39.33,1.14.87,2.28.88,0,0,0,0,0,0,1.13,0,2.2-.43,3-1.23l.82.82c-.9.9-2.08,1.34-3.27,1.34ZM176.94,160.3c-.85.84-1.71,1.34-1.94,1.12-.22-.23.28-1.09,1.13-1.93.85-.84,1.71-1.34,1.94-1.12.22.23-.28,1.09-1.13,1.93Z"/><path class="cls-15" d="M45.65,256.62c-1.55,0-1.81,1.29-1.81,1.29v-1.12h-.99v.2l.07,2.8h.89l.07-1.15s.33,1.22,1.68,1.15c1.35-.07,2.28-1.46,2.28-1.46,0,0-.63-1.71-2.18-1.71ZM45.95,257.87c-1.27-.02-1.43-.34-1.43-.34,0,0,1.43-1.72,3.15.77,0,0-.45-.42-1.72-.43Z"/><path class="cls-30" d="M159.46,29.13c-2.58,0-4.67-2.1-4.67-4.67s2.1-4.67,4.67-4.67,4.67,2.1,4.67,4.67-2.1,4.67-4.67,4.67Z"/><path class="cls-7" d="M159.46,21.78c1.47,0,2.67,1.2,2.67,2.67s-1.2,2.67-2.67,2.67-2.67-1.2-2.67-2.67,1.2-2.67,2.67-2.67M159.46,17.78c-3.69,0-6.67,2.99-6.67,6.67s2.99,6.67,6.67,6.67,6.67-2.99,6.67-6.67-2.99-6.67-6.67-6.67h0Z"/><path class="cls-17" d="M160.4,20.04c-.16-.4-.54-.69-1-.69s-.85.3-1.01.71c-2.08.48-3.64,2.33-3.64,4.56,0,2.58,2.1,4.68,4.68,4.68s4.69-2.1,4.69-4.68c0-2.25-1.6-4.14-3.72-4.58ZM159.44,28.42c-2.09,0-3.8-1.7-3.8-3.8,0-1.76,1.21-3.23,2.84-3.66.19.32.52.55.92.55s.75-.24.94-.57c1.66.41,2.9,1.9,2.9,3.68,0,2.09-1.7,3.8-3.8,3.8Z"/><circle class="cls-17" cx="159.46" cy="24.46" r="1.99"/><rect class="cls-15" x="152" y="239.03" width="31.74" height="14.04" rx="6.67" ry="6.67"/><path class="cls-30" d="M177.33,254.78h-18.92c-4.39,0-7.97-3.91-7.97-8.72s3.58-8.73,7.97-8.73h18.92c4.39,0,7.97,3.91,7.97,8.72s-3.58,8.73-7.97,8.73ZM158.41,240.74c-2.68,0-4.85,2.38-4.85,5.31s2.18,5.31,4.85,5.31h18.92c2.68,0,4.85-2.38,4.85-5.31s-2.18-5.31-4.85-5.31h-18.92Z"/><text class="cls-9" transform="translate(163.13 248.49)"><tspan x="0" y="0">1/1</tspan></text><circle class="cls-30" cx="144.98" cy="24.4" r="4.67"/><path class="cls-7" d="M144.98,21.73c1.47,0,2.67,1.2,2.67,2.67s-1.2,2.67-2.67,2.67-2.67-1.2-2.67-2.67,1.2-2.67,2.67-2.67M144.98,17.73c-3.69,0-6.67,2.99-6.67,6.67s2.99,6.67,6.67,6.67,6.67-2.99,6.67-6.67-2.99-6.67-6.67-6.67h0Z"/><text class="cls-12" transform="translate(141.95 28.46) scale(1.2 1)"><tspan x="0" y="0">1</tspan></text><path class="cls-30" d="M173.75,29.13c-2.58,0-4.67-2.1-4.67-4.67s2.1-4.67,4.67-4.67,4.67,2.1,4.67,4.67-2.1,4.67-4.67,4.67Z"/><path class="cls-7" d="M173.75,21.78c1.47,0,2.67,1.2,2.67,2.67s-1.2,2.67-2.67,2.67-2.67-1.2-2.67-2.67,1.2-2.67,2.67-2.67M173.75,17.78c-3.69,0-6.67,2.99-6.67,6.67s2.99,6.67,6.67,6.67,6.67-2.99,6.67-6.67-2.99-6.67-6.67-6.67h0Z"/><path class="cls-2" d="M177.99,20.92c-7.28-.32-6.8,4.79-6.59,5.99l-1.46.95,1.15.48.58-1.03c3.36,2.31,5.56-1.91,4.65-3.13-.9-1.21,1.68-3.26,1.68-3.26Z"/><polygon class="cls-25" points="100.37 111.14 78.66 93.52 57.47 148.66 63.88 148.66 80.52 104.15 98.31 115.62 100.37 111.14"/><polygon class="cls-25" points="98.82 111.14 120.53 93.52 142.08 148.63 135.5 148.64 118.67 104.15 100.89 115.62 98.82 111.14"/><polygon class="cls-3" points="76.06 43.76 98.44 30.89 90.6 44.03 76.06 43.76"/><polygon class="cls-4" points="90.6 44.03 76.9 67.53 76.06 43.76 90.6 44.03"/><polygon class="cls-22" points="90.6 44.03 76.9 67.53 99.17 67.53 90.6 44.03"/><polygon class="cls-3" points="90.6 44.03 108.47 44.03 99.17 67.53 90.6 44.03"/><polygon class="cls-16" points="98.44 30.89 108.47 44.03 90.6 44.03 98.44 30.89"/><polygon class="cls-4" points="76.9 67.53 98.72 81.62 98.72 67.53 76.9 67.53"/><polygon class="cls-3" points="120.85 43.76 98.47 30.89 106.3 44.03 120.85 43.76"/><polygon class="cls-4" points="106.3 44.03 120.01 67.53 120.85 43.76 106.3 44.03"/><polygon class="cls-22" points="106.3 44.03 120.01 67.53 97.74 67.53 106.3 44.03"/><polygon class="cls-25" points="120.01 67.53 98.19 81.62 98.19 67.53 120.01 67.53"/><path class="cls-22" d="M106.45,74.96c0-2.31-3.65-4.18-8.15-4.18s-8.15,1.87-8.15,4.18v4.87h16.35v-4.87h-.05Z"/><ellipse class="cls-25" cx="98.3" cy="79.93" rx="8.15" ry="4.18"/><path class="cls-22" d="M104.42,80.51c0-1.73-2.73-3.13-6.11-3.13s-6.11,1.4-6.11,3.13v9.28s12.22,0,12.22,0l.04-9.28h-.04Z"/><ellipse class="cls-25" cx="98.31" cy="89.79" rx="6.11" ry="3.13"/><path class="cls-22" d="M104.42,91.01c0-1.73-2.73-3.13-6.11-3.13s-6.11,1.4-6.11,3.13v3.65h12.26v-3.65h-.04Z"/><ellipse class="cls-25" cx="98.31" cy="94.57" rx="6.11" ry="3.13"/><path class="cls-25" d="M98.31,93.74c-.53,0-1.04.04-1.53.1.47.06.97.1,1.48.1s1.04-.04,1.53-.1c-.47-.06-.96-.1-1.47-.1Z"/><path class="cls-25" d="M102.74,94.72v4.3c1.04-.56,1.67-1.32,1.67-2.15s-.64-1.59-1.67-2.15Z"/><path class="cls-25" d="M93.91,94.7c-1.06.56-1.71,1.33-1.71,2.17s.65,1.61,1.71,2.17v-4.34Z"/><path class="cls-22" d="M104.42,95.74c0-1.73-2.73-3.13-6.11-3.13s-6.11,1.4-6.11,3.13v3.65h12.26v-3.65h-.04Z"/><ellipse class="cls-25" cx="98.31" cy="99.46" rx="6.11" ry="3.13"/><path class="cls-25" d="M98.31,98.64c-.53,0-1.04.04-1.53.1.47.06.97.1,1.48.1s1.04-.04,1.53-.1c-.47-.06-.96-.1-1.47-.1Z"/><path class="cls-25" d="M102.74,99.62v4.3c1.04-.56,1.67-1.32,1.67-2.15s-.64-1.59-1.67-2.15Z"/><path class="cls-25" d="M93.91,99.6c-1.06.56-1.71,1.33-1.71,2.17s.65,1.61,1.71,2.17v-4.34Z"/><path class="cls-22" d="M104.42,100.98c0-1.73-2.73-3.13-6.11-3.13s-6.11,1.4-6.11,3.13v3.65h12.26v-3.65h-.04Z"/><ellipse class="cls-25" cx="98.31" cy="104.71" rx="6.11" ry="3.13"/><path class="cls-22" d="M104.42,106.02c0-1.73-2.73-3.13-6.11-3.13s-6.11,1.4-6.11,3.13v3.65h12.26v-3.65h-.04Z"/><ellipse class="cls-25" cx="98.31" cy="109.74" rx="6.11" ry="3.13"/><path class="cls-22" d="M106.45,111.46c0-2.31-3.65-4.18-8.15-4.18s-8.15,1.87-8.15,4.18v4.87h16.35v-4.87h-.05Z"/><ellipse class="cls-25" cx="98.3" cy="116.43" rx="8.15" ry="4.18"/><polygon class="cls-22" points="92.82 111.14 63.45 93.52 34.76 148.6 43.2 148.61 65.97 104.15 90.03 115.62 92.82 111.14"/><polygon class="cls-22" points="103.56 111.14 132.93 93.52 160.92 148.61 153.07 148.68 130.42 104.15 106.36 115.62 103.56 111.14"/><polygon class="cls-3" points="96.43 107.37 77.83 101.82 67.13 160.66 75.38 151.74 82.24 107.28 96.5 112.32 96.43 107.37"/><polygon class="cls-3" points="101.3 107.58 119.89 102.03 130.59 160.87 122.34 151.94 115.49 107.48 101.23 112.52 101.3 107.58"/></g></svg>