<?xml version="1.0" encoding="UTF-8"?><svg id="Layer_2" xmlns="http://www.w3.org/2000/svg" viewBox="0 0 199.52 273.17"><defs><style>.cls-1{letter-spacing:0em;}.cls-2{letter-spacing:-.02em;}.cls-3{letter-spacing:-.03em;}.cls-4{fill:none;stroke:#231f20;stroke-miterlimit:10;stroke-width:4px;}.cls-5{font-size:14px;}.cls-5,.cls-6,.cls-7,.cls-8{fill:#231f20;}.cls-5,.cls-9{font-family:CreatoDisplay-Bold, 'Creato Display';font-weight:700;}.cls-10{letter-spacing:-.03em;}.cls-11{letter-spacing:-.01em;}.cls-9{font-size:4px;}.cls-9,.cls-12{fill:#f4eddd;}.cls-13{letter-spacing:0em;}.cls-14{fill:#e95242;}.cls-15{letter-spacing:-.03em;}.cls-16{letter-spacing:0em;}.cls-7{font-family:CreatoDisplay-Regular, 'Creato Display';font-size:6px;}.cls-17{letter-spacing:-.02em;}.cls-18{letter-spacing:0em;}.cls-19{letter-spacing:0em;}.cls-20{letter-spacing:-.02em;}.cls-21{letter-spacing:-.04em;}.cls-22{letter-spacing:0em;}.cls-23{letter-spacing:-.03em;}.cls-24{letter-spacing:-.02em;}.cls-25{letter-spacing:-.03em;}.cls-26{letter-spacing:-.02em;}.cls-27{letter-spacing:0em;}.cls-28{letter-spacing:0em;}.cls-29{letter-spacing:.02em;}.cls-30{fill:#010101;}.cls-31{letter-spacing:-.04em;}.cls-32{letter-spacing:-.01em;}.cls-8{font-family:CreatoDisplay-Medium, 'Creato Display';font-size:10px;font-weight:500;}.cls-33{letter-spacing:-.03em;}.cls-34{letter-spacing:0em;}</style></defs><g id="Layer_1-2"><path class="cls-14" d="M12.74,2h174.03c5.93,0,10.74,4.81,10.74,10.74v247.69c0,5.93-4.81,10.74-10.74,10.74H12.74c-5.93,0-10.74-4.81-10.74-10.74V12.74C2,6.81,6.81,2,12.74,2Z"/><path class="cls-6" d="M186.78,4c4.82,0,8.74,3.92,8.74,8.74v247.69c0,4.82-3.92,8.74-8.74,8.74H12.74c-4.82,0-8.74-3.92-8.74-8.74V12.74c0-4.82,3.92-8.74,8.74-8.74h174.03M186.78,0H12.74C5.7,0,0,5.7,0,12.74v247.69c0,7.04,5.7,12.74,12.74,12.74h174.03c7.04,0,12.74-5.7,12.74-12.74V12.74c0-7.04-5.7-12.74-12.74-12.74h0Z"/><path class="cls-12" d="M24.53,12.26h150.98c5.93,0,10.74,4.81,10.74,10.74v212.33c0,5.93-4.81,10.74-10.74,10.74H24.53c-5.93,0-10.74-4.81-10.74-10.74V23c0-5.93,4.81-10.74,10.74-10.74Z"/><path class="cls-6" d="M175.5,14.26c4.82,0,8.74,3.92,8.74,8.74v212.33c0,4.82-3.92,8.74-8.74,8.74H24.53c-4.82,0-8.74-3.92-8.74-8.74V23c0-4.82,3.92-8.74,8.74-8.74h150.98M175.5,10.26H24.53c-7.04,0-12.74,5.7-12.74,12.74v212.33c0,7.04,5.7,12.74,12.74,12.74h150.98c7.04,0,12.74-5.7,12.74-12.74V23c0-7.04-5.7-12.74-12.74-12.74h0Z"/><line class="cls-4" x1="14.16" y1="35.9" x2="185.13" y2="35.9"/><line class="cls-4" x1="14.16" y1="150.64" x2="185.13" y2="150.64"/><line class="cls-4" x1="14.16" y1="168.44" x2="185.13" y2="168.44"/><text class="cls-5" transform="translate(20.3 29.45)"><tspan x="0" y="0">Hyper</tspan><tspan class="cls-2" x="39.31" y="0">r</tspan><tspan x="44.39" y="0">eality</tspan></text><text class="cls-8" transform="translate(20.57 162.93)"><tspan x="0" y="0">Encha</tspan><tspan class="cls-11" x="27.46" y="0">n</tspan><tspan x="32.76" y="0">tme</tspan><tspan class="cls-27" x="49.71" y="0">n</tspan><tspan class="cls-13" x="55.01" y="0">t</tspan></text><text class="cls-7" transform="translate(20.57 182.45)"><tspan x="0" y="0">When Hyper</tspan><tspan class="cls-25" x="33.22" y="0">r</tspan><tspan x="35.17" y="0">eality e</tspan><tspan class="cls-18" x="53.85" y="0">n</tspan><tspan class="cls-23" x="56.96" y="0">t</tspan><tspan x="58.77" y="0">e</tspan><tspan class="cls-34" x="62.06" y="0">r</tspan><tspan x="64.16" y="0">s the b</tspan><tspan class="cls-18" x="81.99" y="0">a</tspan><tspan x="85.1" y="0">ttl</tspan><tspan class="cls-20" x="90.2" y="0">e</tspan><tspan x="93.36" y="0">field, c</tspan><tspan class="cls-25" x="110.06" y="0">r</tspan><tspan x="112.01" y="0">e</tspan><tspan class="cls-32" x="115.31" y="0">a</tspan><tspan class="cls-15" x="118.42" y="0">t</tspan><tspan x="120.23" y="0">e a </tspan><tspan class="cls-15" x="129.69" y="0">t</tspan><tspan class="cls-1" x="131.5" y="0">o</tspan><tspan class="cls-31" x="134.87" y="0">k</tspan><tspan x="137.78" y="0">en co</tspan><tspan class="cls-10" x="152.24" y="0">p</tspan><tspan x="155.49" y="0">y </tspan><tspan class="cls-26" x="0" y="7.2">o</tspan><tspan x="3.23" y="7.2">f all permane</tspan><tspan class="cls-32" x="36.74" y="7.2">n</tspan><tspan x="39.85" y="7.2">ts, then </tspan><tspan class="cls-31" x="60.54" y="7.2">e</tspan><tspan x="63.59" y="7.2">xile all non-</tspan><tspan class="cls-15" x="92.45" y="7.2">t</tspan><tspan x="94.27" y="7.2">o</tspan><tspan class="cls-21" x="97.63" y="7.2">k</tspan><tspan class="cls-22" x="100.55" y="7.2">en permane</tspan><tspan class="cls-18" x="131.63" y="7.2">n</tspan><tspan x="134.74" y="7.2">ts. No </tspan><tspan x="0" y="14.4">e</tspan><tspan class="cls-18" x="3.29" y="14.4">n</tspan><tspan class="cls-23" x="6.4" y="14.4">t</tspan><tspan x="8.21" y="14.4">e</tspan><tspan class="cls-19" x="11.51" y="14.4">r</tspan><tspan x="13.6" y="14.4">s or le</tspan><tspan class="cls-17" x="29.46" y="14.4">a</tspan><tspan class="cls-33" x="32.48" y="14.4">v</tspan><tspan x="35.47" y="14.4">es the b</tspan><tspan class="cls-18" x="56.6" y="14.4">a</tspan><tspan class="cls-1" x="59.71" y="14.4">ttl</tspan><tspan class="cls-20" x="64.81" y="14.4">e</tspan><tspan x="67.97" y="14.4">field </tspan><tspan class="cls-20" x="80.41" y="14.4">e</tspan><tspan x="83.56" y="14.4">f</tspan><tspan class="cls-3" x="85.51" y="14.4">f</tspan><tspan x="87.26" y="14.4">ect trigger in </tspan><tspan class="cls-25" x="121.96" y="14.4">r</tspan><tspan x="123.91" y="14.4">espons</tspan><tspan class="cls-24" x="143.08" y="14.4">e</tspan><tspan class="cls-22" x="146.25" y="14.4">.</tspan><tspan x="0" y="28.8">When</tspan><tspan class="cls-10" x="15.55" y="28.8">ev</tspan><tspan x="21.65" y="28.8">er a pl</tspan><tspan class="cls-17" x="37.78" y="28.8">a</tspan><tspan class="cls-10" x="40.8" y="28.8">y</tspan><tspan x="43.79" y="28.8">er ca</tspan><tspan class="cls-32" x="56.99" y="28.8">s</tspan><tspan x="59.89" y="28.8">ts a permane</tspan><tspan class="cls-32" x="94.12" y="28.8">n</tspan><tspan x="97.23" y="28.8">t spell, cou</tspan><tspan class="cls-18" x="124.96" y="28.8">n</tspan><tspan class="cls-15" x="128.07" y="28.8">t</tspan><tspan x="129.88" y="28.8">er it and </tspan><tspan x="0" y="36">c</tspan><tspan class="cls-25" x="3.13" y="36">r</tspan><tspan x="5.08" y="36">e</tspan><tspan class="cls-18" x="8.38" y="36">a</tspan><tspan class="cls-23" x="11.48" y="36">t</tspan><tspan x="13.3" y="36">e a co</tspan><tspan class="cls-10" x="29.26" y="36">p</tspan><tspan x="32.5" y="36">y </tspan><tspan class="cls-26" x="37.17" y="36">o</tspan><tspan x="40.4" y="36">f th</tspan><tspan class="cls-32" x="49" y="36">a</tspan><tspan x="52.11" y="36">t spell. All permane</tspan><tspan class="cls-18" x="101.2" y="36">n</tspan><tspan class="cls-1" x="104.3" y="36">ts m</tspan><tspan class="cls-17" x="115.42" y="36">a</tspan><tspan x="118.44" y="36">y be ta</tspan><tspan class="cls-25" x="136.48" y="36">r</tspan><tspan x="138.43" y="36">g</tspan><tspan class="cls-18" x="141.86" y="36">e</tspan><tspan class="cls-23" x="145.09" y="36">t</tspan><tspan x="146.9" y="36">ed </tspan><tspan x="0" y="43.2">as though th</tspan><tspan class="cls-10" x="32.56" y="43.2">e</tspan><tspan x="35.68" y="43.2">y a</tspan><tspan class="cls-25" x="43.51" y="43.2">r</tspan><tspan x="45.46" y="43.2">e non-</tspan><tspan class="cls-15" x="62.07" y="43.2">t</tspan><tspan x="63.88" y="43.2">o</tspan><tspan class="cls-31" x="67.25" y="43.2">k</tspan><tspan x="70.16" y="43.2">en permane</tspan><tspan class="cls-32" x="101.25" y="43.2">n</tspan><tspan x="104.36" y="43.2">ts.</tspan></text><text class="cls-9" transform="translate(21.08 254.97)"><tspan x="0" y="0">3</tspan><tspan class="cls-29" x="0" y="4.8">T</tspan><tspan x="2.48" y="4.8">TM - EN</tspan></text><path class="cls-12" d="M45.77,254.97v-2.35l-.82,2.35h-.46l-.83-2.35v2.35h-.52v-2.85h.85l.72,2.03.72-2.03h.86v2.85h-.52Z"/><path class="cls-12" d="M49.03,258.85h.53c.04.38.22.55.66.55s.62-.18.62-.45c0-.2-.11-.32-.54-.39l-.36-.05c-.6-.08-.83-.29-.83-.76,0-.51.36-.88,1.1-.88s1.1.36,1.1.92h-.52c-.04-.34-.22-.51-.6-.51s-.55.18-.55.44c0,.2.09.3.47.35l.36.05c.58.08.9.3.9.8,0,.53-.38.89-1.18.89s-1.17-.35-1.17-.96Z"/><path class="cls-12" d="M51.71,260.18h.21c.24,0,.38-.12.38-.31,0-.06-.01-.13-.04-.2l-.74-1.97h.54l.54,1.66.54-1.66h.54l-.74,1.97c-.25.67-.52.88-1.02.88h-.2v-.37Z"/><path class="cls-12" d="M53.69,258.74c0-.64.36-1.07,1.02-1.07s1.03.44,1.03,1.05c0,.04,0,.08,0,.13h-1.53c.02.42.22.61.53.61.26,0,.42-.13.48-.34h.48c-.09.42-.4.69-.96.69-.67,0-1.05-.42-1.05-1.07ZM54.2,258.51h1.02c-.04-.33-.23-.49-.51-.49s-.46.16-.51.49Z"/><path class="cls-12" d="M55.96,258.74c0-.68.35-1.07.91-1.07.31,0,.52.13.64.35v-1.1h.52v2.85h-.49v-.35c-.11.24-.32.39-.66.39-.56,0-.91-.4-.91-1.07ZM57.5,258.74c0-.47-.21-.68-.52-.68s-.51.21-.51.68.21.68.51.68.52-.21.52-.68Z"/><path class="cls-12" d="M60.13,259.77v-2.4h-.86v-.44h2.28v.44h-.87v2.4h-.54Z"/><path class="cls-12" d="M61.41,259.18c0-.32.19-.57.71-.61l.42-.04c.21-.02.27-.08.27-.18,0-.2-.12-.32-.38-.32-.24,0-.37.1-.39.32h-.51c0-.42.26-.69.9-.69s.9.27.9.69v.88c0,.28.02.46.06.53h-.47c-.06-.08-.09-.16-.09-.32-.12.24-.32.36-.68.36-.48,0-.74-.24-.74-.62ZM62.81,258.91v-.14s-.13.07-.27.08l-.24.02c-.26.02-.36.13-.36.28,0,.18.12.31.38.31.32,0,.5-.24.5-.54Z"/><path class="cls-12" d="M63.66,257.13c0-.15.11-.27.3-.27s.3.12.3.27-.1.27-.3.27-.3-.12-.3-.27ZM63.7,259.77v-2.06h.52v2.06h-.52Z"/><path class="cls-12" d="M66.94,259.77v-1.28c0-.28-.09-.4-.29-.4-.22,0-.39.18-.39.52v1.17h-.5v-1.28c0-.28-.09-.4-.29-.4-.22,0-.39.18-.39.52v1.17h-.5v-2.06h.49v.34c.1-.22.28-.38.56-.38.3,0,.49.13.57.39.1-.24.31-.39.59-.39.42,0,.63.24.63.74v1.36h-.5Z"/><path class="cls-12" d="M67.74,258.74c0-.65.38-1.07,1.05-1.07s1.05.42,1.05,1.07-.38,1.07-1.05,1.07-1.05-.42-1.05-1.07ZM69.32,258.74c0-.46-.19-.68-.54-.68s-.53.22-.53.68.19.68.53.68.54-.22.54-.68Z"/><path class="cls-12" d="M70.05,258.74c0-.65.38-1.07,1.05-1.07s1.05.42,1.05,1.07-.38,1.07-1.05,1.07-1.05-.42-1.05-1.07ZM71.63,258.74c0-.46-.19-.68-.54-.68s-.53.22-.53.68.19.68.53.68.54-.22.54-.68Z"/><path class="cls-12" d="M72.45,259.77v-2.06h.49v.46c.11-.36.29-.49.58-.49.06,0,.14.02.19.03v.45h-.21c-.32,0-.53.23-.53.65v.96h-.52Z"/><path class="cls-12" d="M77.63,259.77v-2.35l-.82,2.35h-.46l-.83-2.35v2.35h-.52v-2.85h.85l.72,2.03.72-2.03h.86v2.85h-.52Z"/><path class="cls-12" d="M78.48,259.18c0-.32.19-.57.71-.61l.42-.04c.21-.02.27-.08.27-.18,0-.2-.12-.32-.38-.32-.24,0-.37.1-.39.32h-.51c0-.42.26-.69.9-.69s.9.27.9.69v.88c0,.28.02.46.06.53h-.47c-.06-.08-.09-.16-.09-.32-.12.24-.32.36-.68.36-.48,0-.74-.24-.74-.62ZM79.87,258.91v-.14s-.13.07-.27.08l-.24.02c-.26.02-.36.13-.36.28,0,.18.12.31.38.31.32,0,.5-.24.5-.54Z"/><path class="cls-12" d="M82.08,259.77v-1.26c0-.28-.1-.42-.35-.42-.27,0-.45.2-.45.53v1.15h-.52v-2.06h.49v.34c.11-.22.3-.38.63-.38.47,0,.71.24.71.74v1.36h-.52Z"/><path class="cls-12" d="M82.89,259.12h.5c.02.22.12.35.44.35s.42-.13.42-.28c0-.14-.11-.21-.29-.24l-.36-.05c-.48-.07-.66-.23-.66-.58s.25-.65.88-.65.88.28.88.66h-.5c-.02-.17-.08-.32-.39-.32-.26,0-.36.11-.36.27,0,.14.08.2.23.22l.35.05c.46.06.72.22.72.61,0,.37-.27.65-.94.65s-.93-.28-.93-.69Z"/><path class="cls-12" d="M84.99,258.74c0-.65.38-1.07,1.05-1.07s1.05.42,1.05,1.07-.38,1.07-1.05,1.07-1.05-.42-1.05-1.07ZM86.57,258.74c0-.46-.19-.68-.54-.68s-.53.22-.53.68.19.68.53.68.54-.22.54-.68Z"/><path class="cls-12" d="M87.3,258.74c0-.65.38-1.07,1.05-1.07s1.05.42,1.05,1.07-.38,1.07-1.05,1.07-1.05-.42-1.05-1.07ZM88.89,258.74c0-.46-.19-.68-.54-.68s-.53.22-.53.68.19.68.53.68.54-.22.54-.68Z"/><path class="cls-12" d="M89.7,259.77v-2.06h.49v.46c.11-.36.29-.49.58-.49.06,0,.14.02.19.03v.45h-.21c-.32,0-.53.23-.53.65v.96h-.52Z"/><text class="cls-9" transform="translate(151.91 258.29) scale(.58)"><tspan x="0" y="0" xml:space="preserve">TM  </tspan></text><text class="cls-9" transform="translate(156.56 259.62)"><tspan class="cls-28" x="0" y="0">&amp; © Ti</tspan><tspan class="cls-16" x="11.33" y="0">m</tspan><tspan x="14.51" y="0">taim</tspan></text><path class="cls-30" d="M178.36,155.7c-2.17-2.18-5.69-2.2-7.88-.03-2.18,2.17-2.2,5.69-.03,7.88s5.69,2.2,7.88.03c2.18-2.17,2.2-5.69.03-7.88ZM173.73,157.08c.86-.85,1.73-1.36,1.96-1.13.23.23-.28,1.1-1.14,1.95-.86.85-1.73,1.36-1.96,1.13s.28-1.1,1.14-1.95ZM174.58,164.06c-1.19,0-2.51-.33-3.41-1.23-.87-.88-1.21-2.17-1.21-3.41,0-1.24.49-2.39,1.37-3.26l.84.84c-.81.8-1.25,1.86-1.26,3,0,.79.39,1.83.83,2.26.39.33,1.14.87,2.28.88,0,0,0,0,0,0,1.13,0,2.2-.43,3-1.23l.82.82c-.9.9-2.08,1.34-3.27,1.34ZM176.94,160.3c-.85.84-1.71,1.34-1.94,1.12-.22-.23.28-1.09,1.13-1.93.85-.84,1.71-1.34,1.94-1.12.22.23-.28,1.09-1.13,1.93Z"/><path class="cls-12" d="M45.65,256.62c-1.55,0-1.81,1.29-1.81,1.29v-1.12h-.99v.2l.07,2.8h.89l.07-1.15s.33,1.22,1.68,1.15c1.35-.07,2.28-1.46,2.28-1.46,0,0-.63-1.71-2.18-1.71ZM45.95,257.87c-1.27-.02-1.43-.34-1.43-.34,0,0,1.43-1.72,3.15.77,0,0-.45-.42-1.72-.43Z"/><path class="cls-30" d="M173.27,29.02c-2.58,0-4.67-2.1-4.67-4.67s2.1-4.67,4.67-4.67,4.67,2.1,4.67,4.67-2.1,4.67-4.67,4.67Z"/><path class="cls-6" d="M173.27,21.67c1.47,0,2.67,1.2,2.67,2.67s-1.2,2.67-2.67,2.67-2.67-1.2-2.67-2.67,1.2-2.67,2.67-2.67M173.27,17.67c-3.69,0-6.67,2.99-6.67,6.67s2.99,6.67,6.67,6.67,6.67-2.99,6.67-6.67-2.99-6.67-6.67-6.67h0Z"/><path class="cls-14" d="M176.72,24.22c0-1.73-1.29-3.16-2.95-3.4v-.47h1.39v-1h-3.9v1h1.51v.47c-1.67.24-2.95,1.67-2.95,3.4s1.29,3.16,2.95,3.4v.5h-1.51v1h3.9v-1h-1.39v-.5c1.67-.24,2.95-1.67,2.95-3.4ZM175.72,24.22c0,1.18-.84,2.17-1.95,2.4v-4.8c1.11.23,1.95,1.22,1.95,2.4ZM170.81,24.22c0-1.18.84-2.17,1.95-2.4v4.8c-1.11-.23-1.95-1.22-1.95-2.4Z"/><path class="cls-30" d="M158.97,29.02c-2.58,0-4.67-2.1-4.67-4.67s2.1-4.67,4.67-4.67,4.67,2.1,4.67,4.67-2.1,4.67-4.67,4.67Z"/><path class="cls-6" d="M158.97,21.67c1.47,0,2.67,1.2,2.67,2.67s-1.2,2.67-2.67,2.67-2.67-1.2-2.67-2.67,1.2-2.67,2.67-2.67M158.97,17.67c-3.69,0-6.67,2.99-6.67,6.67s2.99,6.67,6.67,6.67,6.67-2.99,6.67-6.67-2.99-6.67-6.67-6.67h0Z"/><path class="cls-14" d="M162.43,24.22c0-1.73-1.29-3.16-2.95-3.4v-.47h1.39v-1h-3.9v1h1.51v.47c-1.67.24-2.95,1.67-2.95,3.4s1.29,3.16,2.95,3.4v.5h-1.51v1h3.9v-1h-1.39v-.5c1.67-.24,2.95-1.67,2.95-3.4ZM161.43,24.22c0,1.18-.84,2.17-1.95,2.4v-4.8c1.11.23,1.95,1.22,1.95,2.4ZM156.52,24.22c0-1.18.84-2.17,1.95-2.4v4.8c-1.11-.23-1.95-1.22-1.95-2.4Z"/><path class="cls-30" d="M144.14,29.02c-2.58,0-4.67-2.1-4.67-4.67s2.1-4.67,4.67-4.67,4.67,2.1,4.67,4.67-2.1,4.67-4.67,4.67Z"/><path class="cls-6" d="M144.14,21.67c1.47,0,2.67,1.2,2.67,2.67s-1.2,2.67-2.67,2.67-2.67-1.2-2.67-2.67,1.2-2.67,2.67-2.67M144.14,17.67c-3.69,0-6.67,2.99-6.67,6.67s2.99,6.67,6.67,6.67,6.67-2.99,6.67-6.67-2.99-6.67-6.67-6.67h0Z"/><path class="cls-14" d="M147.59,24.22c0-1.73-1.29-3.16-2.95-3.4v-.47h1.39v-1h-3.9v1h1.51v.47c-1.67.24-2.95,1.67-2.95,3.4s1.29,3.16,2.95,3.4v.5h-1.51v1h3.9v-1h-1.39v-.5c1.67-.24,2.95-1.67,2.95-3.4ZM146.59,24.22c0,1.18-.84,2.17-1.95,2.4v-4.8c1.11.23,1.95,1.22,1.95,2.4ZM141.69,24.22c0-1.18.84-2.17,1.95-2.4v4.8c-1.11-.23-1.95-1.22-1.95-2.4Z"/><path class="cls-30" d="M129.85,29.02c-2.58,0-4.67-2.1-4.67-4.67s2.1-4.67,4.67-4.67,4.67,2.1,4.67,4.67-2.1,4.67-4.67,4.67Z"/><path class="cls-6" d="M129.85,21.67c1.47,0,2.67,1.2,2.67,2.67s-1.2,2.67-2.67,2.67-2.67-1.2-2.67-2.67,1.2-2.67,2.67-2.67M129.85,17.67c-3.69,0-6.67,2.99-6.67,6.67s2.99,6.67,6.67,6.67,6.67-2.99,6.67-6.67-2.99-6.67-6.67-6.67h0Z"/><path class="cls-14" d="M133.3,24.22c0-1.73-1.29-3.16-2.95-3.4v-.47h1.39v-1h-3.9v1h1.51v.47c-1.67.24-2.95,1.67-2.95,3.4s1.29,3.16,2.95,3.4v.5h-1.51v1h3.9v-1h-1.39v-.5c1.67-.24,2.95-1.67,2.95-3.4ZM132.3,24.22c0,1.18-.84,2.17-1.95,2.4v-4.8c1.11.23,1.95,1.22,1.95,2.4ZM127.4,24.22c0-1.18.84-2.17,1.95-2.4v4.8c-1.11-.23-1.95-1.22-1.95-2.4Z"/><path class="cls-14" d="M137.46,135.17c-.06,0-.12,0-.19-.01h-60.49c-.29,0-.55-.11-.75-.31l-21.93-22.6c-.11-.13-.17-.24-.22-.36-.02-.05-.03-.14-.03-.22,0-.07,0-.15,0-.22v-60.54s-.02-.08,0-.15c0-.05,0-.11,0-.14.01-.08.05-.15.09-.21l.04-.05c.04-.08.1-.15.17-.21.09-.07.2-.11.32-.11h.23s.09,0,.14,0h60.69s.16,0,.21.02c.16.05.3.13.41.25l21.96,22.55c.1.12.16.21.2.31.03.07.05.14.05.22,0,.12-.04.33-.13.42-.02.02-.03.03-.05.05v60.37c.01.08.01.15,0,.23h0c0,.07,0,.14,0,.2-.02.1-.07.2-.14.27-.07.07-.16.13-.24.18-.05.03-.11.05-.17.06-.06,0-.12.01-.19.01ZM134.11,133.06l-28.09-20.48h-20.56l-7.18,20.48h55.83ZM75.79,131.53v-18.94h-18.45l18.45,18.94ZM136.32,131.52v-56.27l-19.84,10.5v25.34l19.84,20.44ZM77.89,127.91l5.41-15.33h-5.41v15.33ZM127.99,125.99l-13.02-13.4h-5.37s18.4,13.4,18.4,13.4ZM103.12,110.55l-1.64-1.21h-14.81l-.46,1.21h16.9ZM84.01,110.53l.7-1.98-4.87-5.06-1.95.72v6.32h6.12ZM110.77,110.48l-7.86-3.76v1l3.79,2.75h4.07ZM75.79,110.48v-5.5l-15.02,5.5h15.02ZM55.9,110.02l19.88-7.27v-20.73l-19.88-27.77v55.77ZM114.38,109.86v-23.01l-11.46,5.99v11.51l11.46,5.51ZM99.36,107.19l-3.74-3.86h-8.71v3.86h12.45ZM84.82,105.65v-2.31h-2.25l2.25,2.31ZM100.81,103.38v-10.08h-3.7v8.31l3.7,1.77ZM77.89,102.01l1.21-.43v-14.92l-1.21-1.69v17.05ZM95.01,101.23v-7.93h-8.1v7.93h8.1ZM84.82,101.23v-8.56l-3.69-3.79v12.35h3.69ZM99.36,91.2l-2.24-2.31v2.31h2.24ZM95.01,91.2v-3.86h-10.37l1.87,3.86h8.49ZM102.06,90.96l12.31-6.43v-9.96h-10.71l-6.3,11.54,4.7,4.85ZM81.34,85.27l-3.45-7.1v3.19l2.73,3.91h.73ZM95.44,85.23l5.82-10.62h-22.79l5.16,10.62h11.81ZM116.48,83.37l16.62-8.76h-16.62v8.76ZM75.79,78.42v-4.42l-11.98-12.3,11.98,16.71ZM134.86,72.51l-18.38-18.94v18.94h18.38ZM114.38,72.51l-.02-17.4-9.54,17.4h9.56ZM102.45,72.51l11.17-20.48h-56.29l19.9,20.48h25.22Z"/><path class="cls-14" d="M54.71,50.52s.04,0,.06,0h60.83c.08.02.14.06.2.12l21.96,22.55c.04.05.08.11.11.18v.09c-.05.05-.11.09-.18.1v60.7s.01.1,0,.14c0,.03,0,.05,0,.08,0,.03,0,.06,0,.09-.04.04-.08.07-.13.1-.04,0-.07,0-.11,0s-.07,0-.11,0h-60.57c-.15,0-.28-.06-.39-.17l-21.93-22.6c-.05-.06-.08-.12-.11-.19,0-.03,0-.05,0-.08,0-.03,0-.07,0-.1v-60.63s0-.08,0-.12c0-.03,0-.05,0-.08l.07-.09s.04-.06.07-.09h.17s.04,0,.06,0M77.02,73.01h25.72l11.72-21.48h-58.32l20.87,21.48M115.98,73.01h20.07l-20.07-20.67v20.67M55.4,110.74l20.88-7.64v-21.24l-20.88-29.16v58.04M103.97,73.01h10.9l-.02-19.85-10.88,19.85M76.29,79.97v-6.17l-16.75-17.2,16.75,23.37M101.96,91.57l12.91-6.75v-10.76h-11.51l-6.62,12.13,5.22,5.38M115.98,84.2l19.14-10.09h-19.14v10.09M83.32,85.73h12.42l6.37-11.62h-24.43l5.65,11.62M136.82,132.76v-58.34l-20.84,11.03v25.84l20.84,21.47M80.35,85.77h1.79l-4.75-9.77v5.51l2.97,4.26M77.39,102.72l2.21-.79v-15.44l-2.21-3.09v19.32M114.88,110.66v-24.63l-12.46,6.52v12.13l12.46,5.99M86.21,91.7h9.31v-4.86h-11.67l2.36,4.86M83.88,89.41l-1.26-2.58h-1.26l2.51,2.58M96.62,91.7h3.93l-3.93-4.05v4.05M80.63,101.73h4.69v-9.26l-4.69-4.82v14.08M101.31,104.18v-11.38h-4.7v9.13l4.7,2.25M86.42,101.73h9.1v-8.93h-9.1v8.93M86.42,107.69h14.12l-4.71-4.86h-9.42v4.86M85.32,106.88v-4.05h-3.94l3.94,4.05M77.39,111.03h6.98l.92-2.6-5.31-5.51-2.58.95v7.17M101.31,106.88v-1.48l-2.7-1.29,2.7,2.77M57.95,110.98h18.34v-6.71l-18.34,6.71M106.54,110.98h6.44l-10.56-5.05v2.05l4.12,3M85.49,111.05h19.15l-3-2.21h-15.31l-.84,2.21M132.44,129.86l-17.27-17.76h-7.12s24.39,17.76,24.39,17.76M77.58,133.56h58.07l-29.46-21.48h-21.08l-7.53,21.48M77.39,130.83l6.62-18.74h-6.62v18.74M76.29,132.76v-20.67h-20.13l20.13,20.67M54.71,49.52s-.08,0-.12,0h-.11c-.23,0-.45.08-.63.23-.11.09-.2.2-.28.32l-.02.03c-.09.12-.15.26-.18.41-.02.09-.02.18-.02.27,0,.05,0,.11,0,.16v60.53c0,.05,0,.1,0,.15,0,.09,0,.17.02.26.01.06.03.12.05.18.07.17.16.33.28.48.02.02.03.04.05.05l21.93,22.6c.28.29.69.47,1.1.47h60.51c.06,0,.11,0,.17,0,.09,0,.18,0,.26-.02.12-.02.23-.06.33-.11.13-.07.25-.16.35-.27.16-.16.26-.36.29-.58,0-.07.01-.13.01-.2,0-.02,0-.05,0-.07,0-.08,0-.16,0-.24v-60.16c.11-.17.18-.36.18-.57v-.09c0-.15-.03-.3-.1-.44-.06-.13-.14-.25-.23-.36-.02-.03-.04-.05-.07-.08l-21.96-22.55c-.17-.18-.39-.31-.63-.38-.09-.03-.19-.04-.29-.04h-60.77s-.08,0-.12,0h0ZM58.52,52.53h54.26l-10.63,19.48h-24.71l-18.93-19.48h0ZM116.98,72.01v-17.21l16.7,17.21h-16.7ZM56.4,109.31v-53.5l18.88,26.37v20.22l-18.88,6.91h0ZM105.66,72.01l8.2-14.95.02,14.95h-8.21ZM75.29,76.86l-7.2-10.05,7.2,7.4v2.66h0ZM103.96,75.07h9.92v9.16l-11.71,6.12-4.18-4.32,5.98-10.96h0ZM116.98,75.11h14.1l-14.1,7.43v-7.43h0ZM79.27,75.11h21.15l-5.28,9.62h-11.2l-4.67-9.62h0ZM116.98,86.05l18.84-9.97v54.21l-18.84-19.41v-24.84h0ZM78.39,81.2v-.86l1.38,2.84-1.38-1.98h0ZM78.39,101.3v-14.77l.21.29v14.41l-.21.07h0ZM103.42,93.15l10.46-5.47v21.39l-10.46-5.03v-10.89h0ZM85.45,87.83h9.07v2.86h-7.68l-1.39-2.86h0ZM81.63,100.73v-10.62l2.69,2.76v7.86h-2.69ZM97.62,90.7v-.58l.56.58h-.56ZM97.62,93.8h2.7v8.79l-2.7-1.29v-7.5h0ZM87.42,93.8h7.1v6.93h-7.1v-6.93h0ZM87.42,103.83h7.99l2.77,2.86h-10.76v-2.86h0ZM83.75,103.83h.57v.58l-.57-.58h0ZM78.39,104.57l1.31-.48,4.43,4.6-.48,1.35h-5.27v-5.47h0ZM63.59,109.98l11.7-4.28v4.28h-11.7ZM106.87,109.98l-3.27-2.38,4.97,2.38h-1.7ZM87.02,109.84h14.3l.28.21h-14.65l.08-.21h0ZM85.82,113.08h20.05l26.72,19.48h-53.59l6.83-19.48h0ZM78.39,113.08h4.2l-4.2,11.91v-11.91h0ZM58.52,113.08h16.76v17.21l-16.76-17.21h0ZM123.53,122.13l-12.4-9.04h3.62s8.78,9.04,8.78,9.04h0Z"/></g></svg>