<?xml version="1.0" encoding="UTF-8"?><svg id="Layer_2" xmlns="http://www.w3.org/2000/svg" viewBox="0 0 199.52 273.17"><defs><style>.cls-1{font-family:CreatoDisplay-Italic, 'Creato Display';font-style:italic;}.cls-1,.cls-2,.cls-3,.cls-4,.cls-5,.cls-6,.cls-7{fill:#231f20;}.cls-1,.cls-4{font-size:6px;}.cls-8{fill:none;stroke:#231f20;stroke-miterlimit:10;stroke-width:4px;}.cls-2{font-size:14px;}.cls-2,.cls-5{font-family:CreatoDisplay-Bold, 'Creato Display';font-weight:700;}.cls-9{letter-spacing:0em;}.cls-10{letter-spacing:-.03em;}.cls-11{letter-spacing:-.02em;}.cls-12{letter-spacing:-.02em;}.cls-13{letter-spacing:0em;}.cls-4,.cls-6{font-family:CreatoDisplay-Regular, 'Creato Display';}.cls-14{letter-spacing:-.03em;}.cls-15{letter-spacing:-.03em;}.cls-5{font-size:4px;}.cls-16{letter-spacing:0em;}.cls-17{fill:#a9ced2;}.cls-18{letter-spacing:-.14em;}.cls-19{letter-spacing:0em;}.cls-20{letter-spacing:.02em;}.cls-21{letter-spacing:-.03em;}.cls-6{font-size:8px;}.cls-22{letter-spacing:-.02em;}.cls-23{fill:#a686bd;}.cls-24{letter-spacing:0em;}.cls-25{letter-spacing:0em;}.cls-26{letter-spacing:0em;}.cls-27{letter-spacing:.02em;}.cls-28{fill:#010101;}.cls-29{fill:#f1da99;}.cls-30{fill:#f4eddd;}.cls-31{letter-spacing:-.03em;}.cls-32{letter-spacing:-.04em;}.cls-33{letter-spacing:-.01em;}.cls-34{letter-spacing:-.03em;}.cls-7{font-family:CreatoDisplay-Medium, 'Creato Display';font-size:10px;font-weight:500;}.cls-35{letter-spacing:-.06em;}</style></defs><g id="Layer_1-2"><path class="cls-23" d="M12.74,2h174.03c5.93,0,10.74,4.81,10.74,10.74v247.69c0,5.93-4.81,10.74-10.74,10.74H12.74c-5.93,0-10.74-4.81-10.74-10.74V12.74C2,6.81,6.81,2,12.74,2Z"/><path class="cls-3" d="M186.78,4c4.82,0,8.74,3.92,8.74,8.74v247.69c0,4.82-3.92,8.74-8.74,8.74H12.74c-4.82,0-8.74-3.92-8.74-8.74V12.74c0-4.82,3.92-8.74,8.74-8.74h174.03M186.78,0H12.74C5.7,0,0,5.7,0,12.74v247.69c0,7.04,5.7,12.74,12.74,12.74h174.03c7.04,0,12.74-5.7,12.74-12.74V12.74c0-7.04-5.7-12.74-12.74-12.74h0Z"/><path class="cls-30" d="M24.42,12.33h150.98c5.93,0,10.74,4.81,10.74,10.74v212.33c0,5.93-4.81,10.74-10.74,10.74H24.42c-5.93,0-10.74-4.81-10.74-10.74V23.07c0-5.93,4.81-10.74,10.74-10.74Z"/><path class="cls-3" d="M175.4,14.33c4.82,0,8.74,3.92,8.74,8.74v212.33c0,4.82-3.92,8.74-8.74,8.74H24.42c-4.82,0-8.74-3.92-8.74-8.74V23.07c0-4.82,3.92-8.74,8.74-8.74h150.98M175.4,10.33H24.42c-7.04,0-12.74,5.7-12.74,12.74v212.33c0,7.04,5.7,12.74,12.74,12.74h150.98c7.04,0,12.74-5.7,12.74-12.74V23.07c0-7.04-5.7-12.74-12.74-12.74h0Z"/><line class="cls-8" x1="14.06" y1="35.97" x2="185.03" y2="35.97"/><line class="cls-8" x1="14.06" y1="150.71" x2="185.03" y2="150.71"/><line class="cls-8" x1="14.06" y1="168.51" x2="185.03" y2="168.51"/><text class="cls-2" transform="translate(20.2 29.52)"><tspan x="0" y="0">Malacca St</tspan><tspan class="cls-11" x="71.65" y="0">r</tspan><tspan class="cls-24" x="76.65" y="0">ait</tspan></text><text class="cls-7" transform="translate(21.28 163)"><tspan class="cls-16" x="0" y="0">L</tspan><tspan x="5.42" y="0">and</tspan></text><text class="cls-5" transform="translate(20.98 255.04)"><tspan x="0" y="0">21</tspan><tspan class="cls-27" x="0" y="4.8">T</tspan><tspan x="2.48" y="4.8">TM - EN</tspan></text><path class="cls-3" d="M44.8,253.7c.31.07.47.28.47.6v.45c0,.12.02.22.04.29h-.52c-.04-.08-.06-.16-.06-.29v-.43c0-.35-.21-.44-.49-.44h-.65v1.15h-.54v-2.85h1.32c.61,0,.94.32.94.81,0,.36-.18.6-.51.7ZM44.3,252.6h-.72v.88h.72c.32,0,.46-.17.46-.44s-.14-.44-.46-.44Z"/><path class="cls-3" d="M48.93,258.92h.53c.04.38.22.55.66.55s.62-.18.62-.45c0-.2-.11-.32-.54-.39l-.36-.05c-.6-.08-.83-.29-.83-.76,0-.51.36-.88,1.1-.88s1.1.36,1.1.92h-.52c-.04-.34-.22-.51-.6-.51s-.55.18-.55.44c0,.2.09.3.47.35l.36.05c.58.08.9.3.9.8,0,.53-.38.89-1.18.89s-1.17-.35-1.17-.96Z"/><path class="cls-3" d="M51.61,260.25h.21c.24,0,.38-.12.38-.31,0-.06-.01-.13-.04-.2l-.74-1.97h.54l.54,1.66.54-1.66h.54l-.74,1.97c-.25.67-.52.88-1.02.88h-.2v-.37Z"/><path class="cls-3" d="M53.59,258.8c0-.64.36-1.07,1.02-1.07s1.03.44,1.03,1.05c0,.04,0,.08,0,.13h-1.53c.02.42.22.61.53.61.26,0,.42-.13.48-.34h.48c-.09.42-.4.69-.96.69-.67,0-1.05-.42-1.05-1.07ZM54.1,258.58h1.02c-.04-.33-.23-.49-.51-.49s-.46.16-.51.49Z"/><path class="cls-3" d="M55.85,258.8c0-.68.35-1.07.91-1.07.31,0,.52.13.64.35v-1.1h.52v2.85h-.49v-.35c-.11.24-.32.39-.66.39-.56,0-.91-.4-.91-1.07ZM57.4,258.8c0-.47-.21-.68-.52-.68s-.51.21-.51.68.21.68.51.68.52-.21.52-.68Z"/><path class="cls-3" d="M60.03,259.84v-2.4h-.86v-.44h2.28v.44h-.87v2.4h-.54Z"/><path class="cls-3" d="M61.31,259.25c0-.32.19-.57.71-.61l.42-.04c.21-.02.27-.08.27-.18,0-.2-.12-.32-.38-.32-.24,0-.37.1-.39.32h-.51c0-.42.26-.69.9-.69s.9.27.9.69v.88c0,.28.02.46.06.53h-.47c-.06-.08-.09-.16-.09-.32-.12.24-.32.36-.68.36-.48,0-.74-.24-.74-.62ZM62.7,258.98v-.14s-.13.07-.27.08l-.24.02c-.26.02-.36.13-.36.28,0,.18.12.31.38.31.32,0,.5-.24.5-.54Z"/><path class="cls-3" d="M63.56,257.2c0-.15.11-.27.3-.27s.3.12.3.27-.1.27-.3.27-.3-.12-.3-.27ZM63.6,259.84v-2.06h.52v2.06h-.52Z"/><path class="cls-3" d="M66.84,259.84v-1.28c0-.28-.09-.4-.29-.4-.22,0-.39.18-.39.52v1.17h-.5v-1.28c0-.28-.09-.4-.29-.4-.22,0-.39.18-.39.52v1.17h-.5v-2.06h.49v.34c.1-.22.28-.38.56-.38.3,0,.49.13.57.39.1-.24.31-.39.59-.39.42,0,.63.24.63.74v1.36h-.5Z"/><path class="cls-3" d="M67.63,258.8c0-.65.38-1.07,1.05-1.07s1.05.42,1.05,1.07-.38,1.07-1.05,1.07-1.05-.42-1.05-1.07ZM69.22,258.8c0-.46-.19-.68-.54-.68s-.53.22-.53.68.19.68.53.68.54-.22.54-.68Z"/><path class="cls-3" d="M69.95,258.8c0-.65.38-1.07,1.05-1.07s1.05.42,1.05,1.07-.38,1.07-1.05,1.07-1.05-.42-1.05-1.07ZM71.53,258.8c0-.46-.19-.68-.54-.68s-.53.22-.53.68.19.68.53.68.54-.22.54-.68Z"/><path class="cls-3" d="M72.34,259.84v-2.06h.49v.46c.11-.36.29-.49.58-.49.06,0,.14.02.19.03v.45h-.21c-.32,0-.53.23-.53.65v.96h-.52Z"/><path class="cls-3" d="M77.53,259.84v-2.35l-.82,2.35h-.46l-.83-2.35v2.35h-.52v-2.85h.85l.72,2.03.72-2.03h.86v2.85h-.52Z"/><path class="cls-3" d="M78.38,259.25c0-.32.19-.57.71-.61l.42-.04c.21-.02.27-.08.27-.18,0-.2-.12-.32-.38-.32-.24,0-.37.1-.39.32h-.51c0-.42.26-.69.9-.69s.9.27.9.69v.88c0,.28.02.46.06.53h-.47c-.06-.08-.09-.16-.09-.32-.12.24-.32.36-.68.36-.48,0-.74-.24-.74-.62ZM79.77,258.98v-.14s-.13.07-.27.08l-.24.02c-.26.02-.36.13-.36.28,0,.18.12.31.38.31.32,0,.5-.24.5-.54Z"/><path class="cls-3" d="M81.98,259.84v-1.26c0-.28-.1-.42-.35-.42-.27,0-.45.2-.45.53v1.15h-.52v-2.06h.49v.34c.11-.22.3-.38.63-.38.47,0,.71.24.71.74v1.36h-.52Z"/><path class="cls-3" d="M82.79,259.18h.5c.02.22.12.35.44.35s.42-.13.42-.28c0-.14-.11-.21-.29-.24l-.36-.05c-.48-.07-.66-.23-.66-.58s.25-.65.88-.65.88.28.88.66h-.5c-.02-.17-.08-.32-.39-.32-.26,0-.36.11-.36.27,0,.14.08.2.23.22l.35.05c.46.06.72.22.72.61,0,.37-.27.65-.94.65s-.93-.28-.93-.69Z"/><path class="cls-3" d="M84.88,258.8c0-.65.38-1.07,1.05-1.07s1.05.42,1.05,1.07-.38,1.07-1.05,1.07-1.05-.42-1.05-1.07ZM86.47,258.8c0-.46-.19-.68-.54-.68s-.53.22-.53.68.19.68.53.68.54-.22.54-.68Z"/><path class="cls-3" d="M87.2,258.8c0-.65.38-1.07,1.05-1.07s1.05.42,1.05,1.07-.38,1.07-1.05,1.07-1.05-.42-1.05-1.07ZM88.78,258.8c0-.46-.19-.68-.54-.68s-.53.22-.53.68.19.68.53.68.54-.22.54-.68Z"/><path class="cls-3" d="M89.6,259.84v-2.06h.49v.46c.11-.36.29-.49.58-.49.06,0,.14.02.19.03v.45h-.21c-.32,0-.53.23-.53.65v.96h-.52Z"/><text class="cls-5" transform="translate(152.89 258.15) scale(.58)"><tspan x="0" y="0" xml:space="preserve">TM  </tspan></text><text class="cls-5" transform="translate(157.54 259.49)"><tspan class="cls-26" x="0" y="0">&amp; © Ti</tspan><tspan class="cls-13" x="11.33" y="0">m</tspan><tspan x="14.51" y="0">taim</tspan></text><path class="cls-28" d="M178.26,155.77c-2.17-2.18-5.69-2.2-7.88-.03-2.18,2.17-2.2,5.69-.03,7.88,2.17,2.18,5.69,2.2,7.88.03,2.18-2.17,2.2-5.69.03-7.88ZM173.63,157.15c.86-.85,1.73-1.36,1.96-1.13.23.23-.28,1.1-1.14,1.95-.86.85-1.73,1.36-1.96,1.13s.28-1.1,1.14-1.95ZM174.48,164.13c-1.19,0-2.51-.33-3.41-1.23-.87-.88-1.21-2.17-1.21-3.41,0-1.24.49-2.39,1.37-3.26l.84.84c-.81.8-1.25,1.86-1.26,3,0,.79.39,1.83.83,2.26.39.33,1.14.87,2.28.88,0,0,0,0,0,0,1.13,0,2.2-.43,3-1.23l.82.82c-.9.9-2.08,1.34-3.27,1.34ZM176.84,160.37c-.85.84-1.71,1.34-1.94,1.12-.22-.23.28-1.09,1.13-1.93.85-.84,1.71-1.34,1.94-1.12.22.23-.28,1.09-1.13,1.93Z"/><path class="cls-3" d="M45.55,256.69c-1.55,0-1.81,1.29-1.81,1.29v-1.12h-.99v.2l.07,2.8h.89l.07-1.15s.33,1.22,1.68,1.15c1.35-.07,2.28-1.46,2.28-1.46,0,0-.63-1.71-2.18-1.71ZM45.85,257.94c-1.27-.02-1.43-.34-1.43-.34,0,0,1.43-1.72,3.15.77,0,0-.45-.42-1.72-.43Z"/><text class="cls-6" transform="translate(31.23 185.56)"><tspan x="0" y="0">, </tspan><tspan class="cls-22" x="3.51" y="0">A</tspan><tspan x="8.86" y="0" xml:space="preserve">dd      </tspan><tspan class="cls-31" x="29.99" y="0">t</tspan><tspan class="cls-9" x="32.41" y="0">o </tspan><tspan class="cls-14" x="38.9" y="0">y</tspan><tspan x="42.88" y="0">our mana pool.</tspan></text><path class="cls-28" d="M26.47,185.58c-1.35,0-2.45-1.1-2.45-2.45s1.1-2.45,2.45-2.45,2.45,1.1,2.45,2.45-1.1,2.45-2.45,2.45Z"/><path class="cls-3" d="M26.47,182.68c.25,0,.45.2.45.45s-.2.45-.45.45-.45-.2-.45-.45.2-.45.45-.45M26.47,178.68c-2.46,0-4.45,1.99-4.45,4.45s1.99,4.45,4.45,4.45,4.45-1.99,4.45-4.45-1.99-4.45-4.45-4.45h0Z"/><path class="cls-30" d="M29.41,183.3l-.2-2.55-.93.74c-.31-.36-.86-.96-1.4-1.26-2.31-.7-3.59,2.01-3.17,3.78.24.79,1.95,2.51,1.94,2.49l.79-.76c-.07,0-1.26-1.03-1.57-1.67-.3-.64-.47-1.8.64-2.75.94-.79,1.87.21,2.25.57l-.94.74,2.58.67Z"/><path class="cls-28" d="M56.03,185.51c-1.35,0-2.45-1.1-2.45-2.45s1.1-2.45,2.45-2.45,2.45,1.1,2.45,2.45-1.1,2.45-2.45,2.45Z"/><path class="cls-3" d="M56.03,182.61c.25,0,.45.2.45.45s-.2.45-.45.45-.45-.2-.45-.45.2-.45.45-.45M56.03,178.61c-2.46,0-4.45,1.99-4.45,4.45s1.99,4.45,4.45,4.45,4.45-1.99,4.45-4.45-1.99-4.45-4.45-4.45h0Z"/><path class="cls-23" d="M53.54,185.59c.61,0,1.21-.53,1.21-.53l-1.01-1.89-1.22,1.85s.41.57,1.03.57Z"/><path class="cls-23" d="M58.65,180.33h0s-.24-.41-.24-.41l-2.06,1.19v-.98h-.57v1.31l-2.29,1.32.24.41,2.06-1.19v3.82h.57v-4.15l2.29-1.32-1.22,1.84s.41.57,1.03.57,1.21-.53,1.21-.53l-1.01-1.89Z"/><text class="cls-6" transform="translate(21.25 204)"><tspan class="cls-32" x="0" y="0">A</tspan><tspan x="5.18" y="0">t the beginning </tspan><tspan class="cls-12" x="58.89" y="0">o</tspan><tspan class="cls-19" x="63.19" y="0">f </tspan><tspan class="cls-10" x="67.79" y="0">y</tspan><tspan x="71.78" y="0">our up</tspan><tspan class="cls-32" x="94.09" y="0">k</tspan><tspan x="97.98" y="0">ee</tspan><tspan class="cls-22" x="106.76" y="0">p</tspan><tspan x="111.17" y="0">, if </tspan><tspan class="cls-14" x="120.79" y="0">y</tspan><tspan x="124.78" y="0">ou also </tspan><tspan x="0" y="9.6">co</tspan><tspan class="cls-33" x="8.66" y="9.6">n</tspan><tspan class="cls-19" x="12.81" y="9.6">t</tspan><tspan class="cls-15" x="15.46" y="9.6">r</tspan><tspan x="18.06" y="9.6">ol the Andaman Sea and the South </tspan><tspan x="0" y="19.2">China Sea, c</tspan><tspan class="cls-15" x="43.16" y="19.2">r</tspan><tspan x="45.76" y="19.2">e</tspan><tspan class="cls-25" x="50.15" y="19.2">a</tspan><tspan class="cls-31" x="54.3" y="19.2">t</tspan><tspan x="56.71" y="19.2">e a tapped t</tspan><tspan class="cls-21" x="98.94" y="19.2">r</tspan><tspan x="101.54" y="19.2">easu</tspan><tspan class="cls-15" x="118.33" y="19.2">r</tspan><tspan x="120.93" y="19.2">e </tspan><tspan class="cls-34" x="127.32" y="19.2">t</tspan><tspan x="129.74" y="19.2">o</tspan><tspan class="cls-32" x="134.22" y="19.2">k</tspan><tspan class="cls-19" x="138.11" y="19.2">en.</tspan></text><rect class="cls-29" x="15.67" y="37.95" width="168.5" height="110.73"/><path class="cls-17" d="M128.67,144.46l20.18,3.17,1.29,1.08h33.98v-22.33l-8.03,2.42-2.05-5.3-11.14-1.19-.76-8.33-8.33-7.24,1.19-2.27.22-1.84-3.03-1.62-.22-4.87,4.54-5.95,9.01.86.58,2.02,3.46.29v-1.15l2.31-1.59v-3.32l1.44-1.73,2.59-2.02h5.91l2.29-1.43v-44.18h-105.44l.97.97,2.16,4.32,1.01,4.76,4.32,7.35,7.5.86,5.33,3.75,2.02-.14,7.5,10.81.14,2.02.72,5.05-3.6,1.87,2.02,5.19,7.93,6.92.43,2.74-9.51,1.44-22.78-19.03-.14-5.19-3.46-8.36,1.3-3.89-9.8-10.38-6.34-.14.6-10.92H15.67v110.74h108.96l4.05-4.25ZM149.47,122.26s-5.05,2.67-5.26,2.59c-.22-.07-1.73-3.24-1.73-3.24l-.29-.14,7.28.79ZM126.26,114.44c.58.14-1.01,1.15-1.01,1.15h2.45l.14-2.02,1.73-.86,1.73,5.91,3.17,3.46-1.3,4.04-5.19-7.35h-5.19l-.72-3.75s3.6-.72,4.18-.58ZM36.27,44.25l4,.5-3,3.5-3.83-.33,2.83-3.66ZM38.27,60.07c-.33.5-2.83-1.33-2.83-1.33l.17-5.83,3.16-.5,2.16,5.83s-2.33,1.33-2.66,1.83ZM63.89,100.2l-1.3.59-4.38-5.51.43-2.32,3.08.32,2.49,3.3-.32,3.62ZM71.91,116.07l-2.31-1.37-.29-4.83,2.81.43,2.96,3.96-3.17,1.8ZM67.26,107.06l.11-4.27,3.08,4-3.19.27ZM76.38,119.17v-1.87l2.96.5.79,2.02-1.15.43-2.59-1.08ZM82.94,125.58l-3.39-4.04,2.59.14,2.02,2.23.36,1.87-1.59-.22ZM100.25,143.02l-2.14-1.24-.25-2.57,1.08-.07,1.71,1.72-.41,2.16ZM117.61,143.13l-2.88-1.44-.29-2.59-3.17-1.44-5.19-4.61-2.88-.29-2.31-2.31-2.59-1.44-2.31-.58-6.34-6.92-6.05-11.82-12.97-11.53-.86-8.07-6.92-4.04.58-3.17-4.61-2.31-4.61-4.32-5.19-.29-6.05-6.34-1.23-6.13,8.65,3.03,10.38-1.73,5.62,7.78s12.54,4.32,21.19,16.87l3.89-1.73,12.25,10.67s4.61-3.17,6.56,3.32l-1.01,5.69,5.77,3.17,3.75,10.09,10.96,2.31-1.44,18.16s0,2.02-3.46,2.31l-3.17.29-1.44-2.59-2.59,2.02Z"/><text class="cls-4" transform="translate(78.28 64.85)"><tspan x="0" y="0">MA</tspan><tspan class="cls-20" x="9.38" y="0">L</tspan><tspan class="cls-18" x="12.65" y="0">A</tspan><tspan class="cls-35" x="15.94" y="0">Y</tspan><tspan x="19.58" y="0">SIA</tspan></text><text class="cls-4" transform="translate(110.64 129.57)"><tspan x="0" y="0">SINGAPORE</tspan></text><text class="cls-4" transform="translate(161.96 86.62)"><tspan x="0" y="0">BRUNEI</tspan></text><text class="cls-1" transform="translate(27.3 52.07)"><tspan class="cls-22" x="0" y="0">A</tspan><tspan x="4.01" y="0">daman Sea</tspan></text><text class="cls-1" transform="translate(132.73 64.21)"><tspan x="0" y="0">South China</tspan><tspan x="10.83" y="7.2">Sea</tspan></text></g></svg>