<?xml version="1.0" encoding="UTF-8"?><svg id="Layer_2" xmlns="http://www.w3.org/2000/svg" viewBox="0 0 199.52 273.17"><defs><style>.cls-1{fill:#b17581;}.cls-2{fill:#7ac360;}.cls-3{fill:none;stroke:#231f20;stroke-miterlimit:10;stroke-width:4px;}.cls-4{font-size:14px;}.cls-4,.cls-5,.cls-6,.cls-7,.cls-8{fill:#231f20;}.cls-4,.cls-9,.cls-10{font-family:CreatoDisplay-Bold, 'Creato Display';}.cls-4,.cls-9,.cls-10,.cls-7{font-weight:700;}.cls-11{fill:#79b648;}.cls-12{fill:#771717;}.cls-13{fill:#7fc8cf;}.cls-14{letter-spacing:-.01em;}.cls-9{font-size:4px;}.cls-9,.cls-10,.cls-15{fill:#f4eddd;}.cls-16{letter-spacing:-.02em;}.cls-17{letter-spacing:0em;}.cls-18{letter-spacing:0em;}.cls-19{letter-spacing:0em;}.cls-20{fill:#ce472f;}.cls-21{fill:#055d93;}.cls-22{fill:#29131b;}.cls-23{fill:#e6c345;}.cls-24{fill:#60aa7b;}.cls-6{font-family:CreatoDisplay-Regular, 'Creato Display';font-size:7px;}.cls-25{fill:#b5542b;}.cls-26{fill:#044d27;}.cls-27{letter-spacing:0em;}.cls-28{fill:#488f63;}.cls-29{letter-spacing:-.02em;}.cls-30{fill:#8b3424;}.cls-31{fill:#1b4727;}.cls-32{letter-spacing:-.09em;}.cls-33{letter-spacing:0em;}.cls-34{letter-spacing:-.03em;}.cls-35{fill:#0d8f83;}.cls-36{fill:#a2d3dc;}.cls-37{letter-spacing:-.04em;}.cls-38{letter-spacing:-.03em;}.cls-39{fill:#e43c3b;}.cls-40{letter-spacing:-.03em;}.cls-10{font-size:11.69px;}.cls-41{letter-spacing:0em;}.cls-42{letter-spacing:-.02em;}.cls-43{letter-spacing:0em;}.cls-44{letter-spacing:.02em;}.cls-45{fill:#010101;}.cls-46{letter-spacing:0em;}.cls-47{letter-spacing:-.04em;}.cls-48{fill:#9c4022;}.cls-7{font-family:CreatoDisplay-ExtraBold, 'Creato Display';font-size:8px;}.cls-49{letter-spacing:-.03em;}.cls-50{fill:#6cbebe;}.cls-8{font-family:CreatoDisplay-Medium, 'Creato Display';font-size:10px;font-weight:500;}.cls-51{fill:#af2626;}.cls-52{letter-spacing:-.01em;}.cls-53{letter-spacing:-.06em;}.cls-54{fill:#64943f;}.cls-55{fill:#eed88e;}</style></defs><g id="Layer_1-2"><path class="cls-2" d="M12.74,2h174.03c5.93,0,10.74,4.81,10.74,10.74v247.69c0,5.93-4.81,10.74-10.74,10.74H12.74c-5.93,0-10.74-4.81-10.74-10.74V12.74C2,6.81,6.81,2,12.74,2Z"/><path class="cls-5" d="M186.78,4c4.82,0,8.74,3.92,8.74,8.74v247.69c0,4.82-3.92,8.74-8.74,8.74H12.74c-4.82,0-8.74-3.92-8.74-8.74V12.74c0-4.82,3.92-8.74,8.74-8.74h174.03M186.78,0H12.74C5.7,0,0,5.7,0,12.74v247.69c0,7.04,5.7,12.74,12.74,12.74h174.03c7.04,0,12.74-5.7,12.74-12.74V12.74c0-7.04-5.7-12.74-12.74-12.74h0Z"/><rect class="cls-15" x="14.66" y="12.18" width="172.46" height="233.81" rx="10.74" ry="10.74"/><path class="cls-5" d="M176.38,14.18c4.82,0,8.74,3.92,8.74,8.74v212.33c0,4.82-3.92,8.74-8.74,8.74H25.4c-4.82,0-8.74-3.92-8.74-8.74V22.92c0-4.82,3.92-8.74,8.74-8.74h150.98M176.38,10.18H25.4c-7.04,0-12.74,5.7-12.74,12.74v212.33c0,7.04,5.7,12.74,12.74,12.74h150.98c7.04,0,12.74-5.7,12.74-12.74V22.92c0-7.04-5.7-12.74-12.74-12.74h0Z"/><line class="cls-3" x1="15.04" y1="35.82" x2="186.01" y2="35.82"/><line class="cls-3" x1="15.04" y1="150.56" x2="186.01" y2="150.56"/><line class="cls-3" x1="15.04" y1="168.36" x2="186.01" y2="168.36"/><text class="cls-4" transform="translate(21.18 29.37)"><tspan x="0" y="0">Ma</tspan><tspan class="cls-18" x="20.29" y="0">n</tspan><tspan class="cls-41" x="27.87" y="0">tis Shrimp</tspan></text><text class="cls-8" transform="translate(21.45 162.86)"><tspan x="0" y="0">C</tspan><tspan class="cls-42" x="7.26" y="0">r</tspan><tspan x="10.7" y="0">e</tspan><tspan class="cls-14" x="16.28" y="0">a</tspan><tspan x="21.58" y="0">tu</tspan><tspan class="cls-42" x="30.43" y="0">r</tspan><tspan x="33.87" y="0">e- Arth</tspan><tspan class="cls-42" x="65.04" y="0">r</tspan><tspan x="68.48" y="0">opod</tspan></text><text class="cls-9" transform="translate(21.96 254.89)"><tspan x="0" y="0">9</tspan><tspan class="cls-44" x="0" y="4.8">T</tspan><tspan x="2.48" y="4.8">TM - EN</tspan></text><path class="cls-15" d="M45.78,253.55c.31.07.47.28.47.6v.45c0,.12.02.22.04.29h-.52c-.04-.08-.06-.16-.06-.29v-.43c0-.35-.21-.44-.49-.44h-.65v1.15h-.54v-2.85h1.32c.61,0,.94.32.94.81,0,.36-.18.6-.51.7ZM45.28,252.45h-.72v.88h.72c.32,0,.46-.17.46-.44s-.14-.44-.46-.44Z"/><path class="cls-15" d="M49.91,258.77h.53c.04.38.22.55.66.55s.62-.18.62-.45c0-.2-.11-.32-.54-.39l-.36-.05c-.6-.08-.83-.29-.83-.76,0-.51.36-.88,1.1-.88s1.1.36,1.1.92h-.52c-.04-.34-.22-.51-.6-.51s-.55.18-.55.44c0,.2.09.3.47.35l.36.05c.58.08.9.3.9.8,0,.53-.38.89-1.18.89s-1.18-.35-1.18-.96Z"/><path class="cls-15" d="M52.58,260.11h.21c.24,0,.38-.12.38-.31,0-.06-.01-.13-.04-.2l-.74-1.97h.54l.54,1.66.54-1.66h.54l-.73,1.97c-.25.67-.52.88-1.02.88h-.21v-.37Z"/><path class="cls-15" d="M54.57,258.66c0-.64.36-1.07,1.02-1.07s1.03.44,1.03,1.05c0,.04,0,.08,0,.13h-1.53c.02.42.22.61.53.61.26,0,.42-.13.48-.34h.48c-.09.42-.4.69-.96.69-.67,0-1.05-.42-1.05-1.07ZM55.08,258.43h1.02c-.04-.33-.23-.49-.51-.49s-.46.16-.51.49Z"/><path class="cls-15" d="M56.83,258.66c0-.68.35-1.07.91-1.07.31,0,.52.13.63.35v-1.1h.52v2.85h-.49v-.35c-.11.24-.31.39-.66.39-.56,0-.91-.4-.91-1.07ZM58.38,258.66c0-.47-.21-.68-.52-.68s-.51.21-.51.68.21.68.51.68.52-.21.52-.68Z"/><path class="cls-15" d="M61,259.69v-2.4h-.86v-.44h2.28v.44h-.87v2.4h-.54Z"/><path class="cls-15" d="M62.29,259.11c0-.32.19-.57.71-.61l.42-.04c.21-.02.27-.08.27-.18,0-.2-.12-.32-.38-.32-.24,0-.37.1-.39.32h-.51c0-.42.26-.69.9-.69s.9.27.9.69v.88c0,.28.02.46.06.53h-.47c-.06-.08-.09-.16-.09-.32-.12.24-.32.36-.68.36-.48,0-.74-.24-.74-.62ZM63.68,258.83v-.14s-.13.07-.27.08l-.24.02c-.26.02-.36.13-.36.28,0,.18.12.31.38.31.32,0,.5-.24.5-.54Z"/><path class="cls-15" d="M64.54,257.05c0-.15.11-.27.3-.27s.29.12.29.27-.1.27-.29.27-.3-.12-.3-.27ZM64.58,259.69v-2.06h.52v2.06h-.52Z"/><path class="cls-15" d="M67.82,259.69v-1.28c0-.28-.09-.4-.29-.4-.22,0-.39.18-.39.52v1.17h-.5v-1.28c0-.28-.09-.4-.29-.4-.22,0-.39.18-.39.52v1.17h-.5v-2.06h.49v.34c.1-.22.28-.38.56-.38s.49.13.57.39c.11-.24.31-.39.59-.39.42,0,.63.24.63.74v1.36h-.5Z"/><path class="cls-15" d="M68.61,258.66c0-.65.38-1.07,1.05-1.07s1.05.42,1.05,1.07-.38,1.07-1.05,1.07-1.05-.42-1.05-1.07ZM70.2,258.66c0-.46-.19-.68-.54-.68s-.53.22-.53.68.19.68.53.68.54-.22.54-.68Z"/><path class="cls-15" d="M70.93,258.66c0-.65.38-1.07,1.05-1.07s1.05.42,1.05,1.07-.38,1.07-1.05,1.07-1.05-.42-1.05-1.07ZM72.51,258.66c0-.46-.19-.68-.54-.68s-.53.22-.53.68.19.68.53.68.54-.22.54-.68Z"/><path class="cls-15" d="M73.32,259.69v-2.06h.49v.46c.11-.36.29-.49.57-.49.06,0,.14.02.19.03v.45h-.21c-.32,0-.53.23-.53.65v.96h-.52Z"/><path class="cls-15" d="M78.51,259.69v-2.35l-.82,2.35h-.46l-.83-2.35v2.35h-.52v-2.85h.85l.72,2.03.72-2.03h.86v2.85h-.52Z"/><path class="cls-15" d="M79.36,259.11c0-.32.19-.57.71-.61l.42-.04c.21-.02.27-.08.27-.18,0-.2-.12-.32-.38-.32-.24,0-.37.1-.39.32h-.51c0-.42.26-.69.9-.69s.9.27.9.69v.88c0,.28.03.46.06.53h-.47c-.06-.08-.09-.16-.09-.32-.12.24-.32.36-.68.36-.48,0-.74-.24-.74-.62ZM80.75,258.83v-.14s-.13.07-.27.08l-.24.02c-.26.02-.36.13-.36.28,0,.18.12.31.38.31.32,0,.5-.24.5-.54Z"/><path class="cls-15" d="M82.96,259.69v-1.26c0-.28-.1-.42-.35-.42-.27,0-.45.2-.45.53v1.15h-.52v-2.06h.49v.34c.11-.22.3-.38.63-.38.47,0,.71.24.71.74v1.36h-.52Z"/><path class="cls-15" d="M83.77,259.04h.5c.02.22.12.35.44.35s.42-.13.42-.28c0-.14-.11-.21-.29-.24l-.36-.05c-.47-.07-.66-.23-.66-.58s.25-.65.88-.65.88.28.88.66h-.5c-.02-.17-.08-.32-.39-.32-.26,0-.36.11-.36.27,0,.14.08.2.23.22l.35.05c.46.06.72.22.72.61,0,.37-.27.65-.94.65s-.94-.28-.94-.69Z"/><path class="cls-15" d="M85.86,258.66c0-.65.38-1.07,1.05-1.07s1.05.42,1.05,1.07-.38,1.07-1.05,1.07-1.05-.42-1.05-1.07ZM87.45,258.66c0-.46-.19-.68-.54-.68s-.53.22-.53.68.19.68.53.68.54-.22.54-.68Z"/><path class="cls-15" d="M88.18,258.66c0-.65.38-1.07,1.05-1.07s1.05.42,1.05,1.07-.38,1.07-1.05,1.07-1.05-.42-1.05-1.07ZM89.76,258.66c0-.46-.19-.68-.54-.68s-.53.22-.53.68.19.68.53.68.54-.22.54-.68Z"/><path class="cls-15" d="M90.58,259.69v-2.06h.49v.46c.11-.36.29-.49.57-.49.06,0,.14.02.19.03v.45h-.21c-.32,0-.53.23-.53.65v.96h-.52Z"/><text class="cls-9" transform="translate(153.87 258.01) scale(.58)"><tspan x="0" y="0" xml:space="preserve">TM  </tspan></text><text class="cls-9" transform="translate(158.52 259.34)"><tspan class="cls-43" x="0" y="0">&amp; © Ti</tspan><tspan class="cls-19" x="11.33" y="0">m</tspan><tspan x="14.51" y="0">taim</tspan></text><text class="cls-6" transform="translate(21.45 184.7)"><tspan x="0" y="0">Fi</tspan><tspan class="cls-17" x="5.29" y="0">r</tspan><tspan class="cls-46" x="7.73" y="0">s</tspan><tspan class="cls-27" x="11.12" y="0">t </tspan><tspan class="cls-52" x="15.18" y="0">s</tspan><tspan x="18.56" y="0">tri</tspan><tspan class="cls-47" x="24.66" y="0">k</tspan><tspan class="cls-29" x="28.06" y="0">e</tspan><tspan x="31.77" y="0">, Ha</tspan><tspan class="cls-52" x="43.41" y="0">s</tspan><tspan class="cls-34" x="46.79" y="0">t</tspan><tspan class="cls-29" x="48.91" y="0">e</tspan><tspan x="52.61" y="0">, Vigilance</tspan><tspan x="0" y="16.8">When Ma</tspan><tspan class="cls-52" x="29.71" y="16.8">n</tspan><tspan x="33.33" y="16.8">tis Shrimp deals comb</tspan><tspan class="cls-52" x="100.25" y="16.8">a</tspan><tspan class="cls-27" x="103.88" y="16.8">t damag</tspan><tspan class="cls-29" x="128.78" y="16.8">e</tspan><tspan x="132.48" y="16.8">, c</tspan><tspan class="cls-49" x="139.21" y="16.8">r</tspan><tspan x="141.48" y="16.8">e</tspan><tspan class="cls-52" x="145.33" y="16.8">a</tspan><tspan class="cls-38" x="148.95" y="16.8">t</tspan><tspan x="151.07" y="16.8">e </tspan><tspan x="0" y="25.2">a </tspan><tspan class="cls-34" x="5.45" y="25.2">t</tspan><tspan class="cls-33" x="7.56" y="25.2">o</tspan><tspan class="cls-47" x="11.49" y="25.2">k</tspan><tspan x="14.89" y="25.2">en encha</tspan><tspan class="cls-52" x="42.76" y="25.2">n</tspan><tspan x="46.39" y="25.2">tme</tspan><tspan class="cls-52" x="58" y="25.2">n</tspan><tspan class="cls-27" x="61.62" y="25.2">t called “C</tspan><tspan class="cls-16" x="92.83" y="25.2">a</tspan><tspan x="96.35" y="25.2">vit</tspan><tspan class="cls-52" x="103.69" y="25.2">a</tspan><tspan x="107.32" y="25.2">tion Bubble” </tspan><tspan class="cls-52" x="0" y="33.6">a</tspan><tspan x="3.63" y="33.6">ttached </tspan><tspan class="cls-38" x="28.9" y="33.6">t</tspan><tspan x="31.01" y="33.6">o ta</tspan><tspan class="cls-40" x="42.7" y="33.6">r</tspan><tspan x="44.97" y="33.6">g</tspan><tspan class="cls-46" x="48.97" y="33.6">e</tspan><tspan class="cls-27" x="52.75" y="33.6">t c</tspan><tspan class="cls-49" x="60.47" y="33.6">r</tspan><tspan x="62.74" y="33.6">e</tspan><tspan class="cls-52" x="66.58" y="33.6">a</tspan><tspan class="cls-27" x="70.21" y="33.6">tu</tspan><tspan class="cls-49" x="76.22" y="33.6">r</tspan><tspan x="78.5" y="33.6">e with the </tspan><tspan class="cls-38" x="110.49" y="33.6">t</tspan><tspan class="cls-37" x="112.61" y="33.6">e</tspan><tspan x="116.17" y="33.6">xt “</tspan><tspan class="cls-32" x="126.34" y="33.6">T</tspan><tspan x="129.77" y="33.6">ap </tspan><tspan x="0" y="42">encha</tspan><tspan class="cls-52" x="18.58" y="42">n</tspan><tspan class="cls-38" x="22.21" y="42">t</tspan><tspan x="24.33" y="42">ed c</tspan><tspan class="cls-49" x="37.57" y="42">r</tspan><tspan x="39.84" y="42">e</tspan><tspan class="cls-52" x="43.69" y="42">a</tspan><tspan x="47.31" y="42">tu</tspan><tspan class="cls-40" x="53.33" y="42">r</tspan><tspan class="cls-29" x="55.6" y="42">e</tspan><tspan x="59.3" y="42">, encha</tspan><tspan class="cls-52" x="80.96" y="42">n</tspan><tspan class="cls-38" x="84.59" y="42">t</tspan><tspan x="86.7" y="42">ed c</tspan><tspan class="cls-49" x="99.95" y="42">r</tspan><tspan x="102.22" y="42">e</tspan><tspan class="cls-52" x="106.06" y="42">a</tspan><tspan x="109.69" y="42">tu</tspan><tspan class="cls-40" x="115.7" y="42">r</tspan><tspan class="cls-33" x="117.98" y="42">e does n</tspan><tspan class="cls-46" x="144.23" y="42">o</tspan><tspan class="cls-27" x="148.09" y="42">t </tspan><tspan x="0" y="50.4">u</tspan><tspan class="cls-52" x="3.7" y="50.4">n</tspan><tspan class="cls-27" x="7.32" y="50.4">tap during it</tspan><tspan class="cls-53" x="43.64" y="50.4">’</tspan><tspan x="44.54" y="50.4">s co</tspan><tspan class="cls-52" x="57.32" y="50.4">n</tspan><tspan x="60.95" y="50.4">t</tspan><tspan class="cls-49" x="63.27" y="50.4">r</tspan><tspan x="65.54" y="50.4">oller</tspan><tspan class="cls-53" x="78.41" y="50.4">’</tspan><tspan x="79.32" y="50.4">s n</tspan><tspan class="cls-47" x="88.21" y="50.4">e</tspan><tspan x="91.78" y="50.4">xt u</tspan><tspan class="cls-52" x="103.1" y="50.4">n</tspan><tspan class="cls-27" x="106.72" y="50.4">tap </tspan><tspan class="cls-52" x="118.48" y="50.4">s</tspan><tspan class="cls-38" x="121.86" y="50.4">t</tspan><tspan x="123.98" y="50.4">e</tspan><tspan class="cls-29" x="127.82" y="50.4">p</tspan><tspan class="cls-27" x="131.68" y="50.4">. </tspan></text><path class="cls-45" d="M179.24,155.62c-2.17-2.18-5.69-2.2-7.88-.03-2.18,2.17-2.2,5.69-.03,7.88s5.69,2.2,7.88.03c2.18-2.17,2.2-5.69.03-7.88ZM174.61,157.01c.86-.85,1.73-1.36,1.96-1.13.23.23-.28,1.1-1.14,1.95-.86.85-1.73,1.36-1.96,1.13s.28-1.1,1.14-1.95ZM175.46,163.98c-1.19,0-2.51-.33-3.41-1.23-.87-.88-1.21-2.17-1.21-3.41,0-1.24.49-2.39,1.37-3.26l.84.84c-.81.8-1.25,1.86-1.26,3,0,.79.39,1.83.83,2.26.39.33,1.14.87,2.28.88,0,0,0,0,0,0,1.13,0,2.2-.43,3-1.23l.82.82c-.9.9-2.08,1.34-3.27,1.34ZM177.82,160.22c-.85.84-1.71,1.34-1.94,1.12-.22-.23.28-1.09,1.13-1.93.85-.84,1.71-1.34,1.94-1.12.22.23-.28,1.09-1.13,1.93Z"/><path class="cls-15" d="M46.53,256.54c-1.55,0-1.81,1.29-1.81,1.29v-1.12h-.99v.2l.07,2.8h.89l.07-1.15s.33,1.22,1.68,1.15c1.35-.07,2.28-1.46,2.28-1.46,0,0-.63-1.71-2.18-1.71ZM46.83,257.79c-1.27-.02-1.43-.34-1.43-.34,0,0,1.43-1.72,3.15.77,0,0-.45-.42-1.72-.43Z"/><path class="cls-45" d="M174.63,29.05c-2.58,0-4.67-2.1-4.67-4.67s2.1-4.67,4.67-4.67,4.67,2.1,4.67,4.67-2.1,4.67-4.67,4.67Z"/><path class="cls-5" d="M174.63,21.7c1.47,0,2.67,1.2,2.67,2.67s-1.2,2.67-2.67,2.67-2.67-1.2-2.67-2.67,1.2-2.67,2.67-2.67M174.63,17.7c-3.69,0-6.67,2.99-6.67,6.67s2.99,6.67,6.67,6.67,6.67-2.99,6.67-6.67-2.99-6.67-6.67-6.67h0Z"/><path class="cls-45" d="M160.16,29.05c-2.58,0-4.67-2.1-4.67-4.67s2.1-4.67,4.67-4.67,4.67,2.1,4.67,4.67-2.1,4.67-4.67,4.67Z"/><path class="cls-5" d="M160.17,21.7c1.47,0,2.67,1.2,2.67,2.67s-1.2,2.67-2.67,2.67-2.67-1.2-2.67-2.67,1.2-2.67,2.67-2.67M160.17,17.7c-3.69,0-6.67,2.99-6.67,6.67s2.99,6.67,6.67,6.67,6.67-2.99,6.67-6.67-2.99-6.67-6.67-6.67h0Z"/><rect class="cls-15" x="153.22" y="238.95" width="31.74" height="14.04" rx="6.67" ry="6.67"/><path class="cls-45" d="M178.55,254.7h-18.92c-4.39,0-7.97-3.91-7.97-8.72s3.58-8.73,7.97-8.73h18.92c4.39,0,7.97,3.91,7.97,8.72s-3.58,8.73-7.97,8.73ZM159.63,240.66c-2.68,0-4.85,2.38-4.85,5.31s2.18,5.31,4.85,5.31h18.92c2.68,0,4.85-2.38,4.85-5.31s-2.18-5.31-4.85-5.31h-18.92Z"/><text class="cls-7" transform="translate(161.79 248.42)"><tspan x="0" y="0">4/4</tspan></text><circle class="cls-45" cx="145.51" cy="24.32" r="4.67"/><path class="cls-5" d="M145.51,21.65c1.47,0,2.67,1.2,2.67,2.67s-1.2,2.67-2.67,2.67-2.67-1.2-2.67-2.67,1.2-2.67,2.67-2.67M145.51,17.65c-3.69,0-6.67,2.99-6.67,6.67s2.99,6.67,6.67,6.67,6.67-2.99,6.67-6.67-2.99-6.67-6.67-6.67h0Z"/><text class="cls-10" transform="translate(141.53 28.38) scale(1.2 1)"><tspan x="0" y="0">2</tspan></text><path class="cls-2" d="M164.06,20.84c-7.28-.32-6.8,4.79-6.59,5.99l-1.46.95,1.15.48.58-1.03c3.36,2.31,5.56-1.91,4.65-3.13-.9-1.21,1.68-3.26,1.68-3.26Z"/><path class="cls-2" d="M178.49,20.84c-7.28-.32-6.8,4.79-6.59,5.99l-1.46.95,1.15.48.58-1.03c3.36,2.31,5.56-1.91,4.65-3.13-.9-1.21,1.68-3.26,1.68-3.26Z"/><path class="cls-39" d="M90.14,107.76s-1.75.9-.98,3.82.21,19.14.6,21.6-.82,14.66,1.89,15.07c.16.02,2.35,0,2.81-.3,1.42-.91-.19-1.03-.86-4.44-1.22-6.23-3.47-22.18-2.23-27.18,1.24-5,1.45-8.57,1.45-8.57h-2.67Z"/><path class="cls-48" d="M91.85,141.71l-2.15.96.4,4.14-.48,1.75h8.94s.1-.62-1.09-1.35c0,0,1.19-3.91,0-4.08s-5.61-1.42-5.61-1.42Z"/><path class="cls-25" d="M105.23,131.86s-4.61-2.19-8.47.68c-3.86,2.87-5.75,7.94-5.75,7.94,0,0,.45,6.73,6.35,4.91,5.9-1.81,5.82-.08,9.53-1.44,3.7-1.36,6.8-4.01,6.8-4.23s-8.47-7.86-8.47-7.86Z"/><path class="cls-25" d="M117.72,138.41s-5.09-.35-7.63,3.74-2.2,6.42-2.2,6.42h15.84s4.83-5.74,4.75-5.95-10.76-4.21-10.76-4.21Z"/><path class="cls-12" d="M159.51,136.57s.19,3.36-1.32,4.38c-1.51,1.02-5.44,2.42-5.44,2.42l-1.78-6.27,8.54-.53Z"/><path class="cls-54" d="M128.23,87.29l56.89,27.78-.05,33.47c-.34.14-26.96-4.18-27.83-10.89,0,0,.46-11.35-13.9-13.02,0,0-18.6-34.62-15.12-37.35Z"/><path class="cls-36" d="M101.34,87.31s-29.94.15-25.7,20.41c4.23,20.26,55.79,30.69,55.79,30.69l-11.04-33.41-19.05-17.69Z"/><path class="cls-51" d="M158.86,139.89c-.11-.94-.87-1.74-1.82-1.76-.86-.02-1.8.55-2.15,2.89-.68,4.69-7.56,3.55-7.56,3.55l-17.67-7,5.48-5.98-13.12-12.81s-3.78,1.29-4.69,8.54c-.91,7.26-18.07.98-18.07.98l.36.34-.14-.05s6.01,11.4,16.33,13.38c10.32,1.98,8.96,3,8.96,3,0,0,8.8,17.24,22.81,12.04,14.85-5.52,11.66-13.71,11.26-17.12Z"/><path class="cls-13" d="M97.9,91.2s-1.41-.51-2.57-.17-1.47,1.33-2.27,1.67-3.94-.45-5.33.79-2.24,1.76-3.15,4.08c0,0-2.95,1.47-2.83,3.46.11,1.98-.68,3.57-.68,3.57,0,0-1,2.66-.11,4.8.89,2.14,2.29,4.42,6.71,4.52,0,0-.62,5.1,6.48,3.7,7.11-1.4,10.36-3.06,10.24-5.41-.11-2.34-6.49-21.03-6.49-21.03Z"/><path class="cls-35" d="M108.51,91.04s-6.09-2.15-8.75-.91c-2.66,1.25-2.78,2.72-2.95,3.97-.17,1.25-2.44,2.66-2.78,3.46s-1.47,2.72.79,5.16,6.8,9.64,9.3,10.43c2.49.79,3.57,4.03,5.1,4.93s5.61,3.57,6.52,1.13c.91-2.44-7.24-28.18-7.24-28.18Z"/><path class="cls-54" d="M114.59,89.91s-10.77-.45-9.41,11.34c1.36,11.79,9.87,19.62,9.87,19.62,0,0,10.55-13.95,10.55-14.29s-11-16.67-11-16.67Z"/><path class="cls-39" d="M94.43,109.24s-1.55,1.21-.26,3.93,3.72,18.78,4.55,21.12c.83,2.34,4.76,15.04,5.07,17.77.3,2.72,1.89,9.83.45,15.88-1.44,6.05-2.65,5.29-3.93,9s-.38,5.37-.38,5.37c0,0-.15-2.65,1.59-4.84s4.31-8.09,4.76-11.34c.45-3.25.45-16.48-1.89-22.38-2.34-5.9-7.48-21.17-7.18-26.31s-.15-8.69-.15-8.69l-2.63.5Z"/><path class="cls-25" d="M102.8,91.21s2.34.76,1.85,2.08-2.42-.28-4.97,9.98-5.84,6.58-5.84,6.58c0,0-2.04-2.95,5.39-15.48,0,0,1.76-.08,3.57-3.16Z"/><path class="cls-55" d="M109.77,80.66s0,3.18-7.03,4.16c0,0-3.33.98-2.19,4.08l2.15,1.78,2.31-.04,5.78-3.48s1.59-4.84,1.51-4.95-2.53-1.55-2.53-1.55Z"/><path class="cls-23" d="M111.89,83.46s0,3.18-7.03,4.16c0,0-3.33.98-2.19,4.08l2.15,1.78,2.31-.04,5.78-3.48s1.59-4.84,1.51-4.95-2.53-1.55-2.53-1.55Z"/><path class="cls-31" d="M111.72,78.04s-1.36-4.54,3.09-4.37,10.43,4.14,10.43,4.14l-1.9,3.52-11.62-3.29Z"/><path class="cls-28" d="M113.55,86.39s-4.76-2.87-5.07-5.33,2.08-4.04,2.08-4.04c0,0,11.57-5.48,14.59,6.5,3.02,11.98-11.6,2.87-11.6,2.87Z"/><path class="cls-50" d="M113.1,86.31s-5.82-6.73.08-8.84c5.9-2.12,11.79,6.35,11.79,6.35l-11.87,2.49Z"/><path class="cls-35" d="M115.37,80.64s-6.35,3.4-.83,5.97c0,0,4.25-3.28,9.46.19,5.22,3.48,4.07,1.7,4.07,1.7,0,0-4.84-10.81-12.7-7.86Z"/><path class="cls-20" d="M10.82,106.22s12.07-14.15,17.06-15.66,25.92-6.74,29.03-9.26c0,0,1.77.89-.08,2.08-1.85,1.19-18.75,6.7-26.19,8.47s-12.51,9.55-12.51,9.55c0,0-3.76,4.53-7.31,4.82Z"/><path class="cls-20" d="M57.72,79.15c-3.43,2.06-25.35,5.18-30.04,5.1s-10.69-1.63-14.5.16c-3.8,1.78-4.61,4.08-4.61,4.08,0,0,3-3.67,8.72-3.03,5.72.64,11.53,1.14,15.57.22.12-.03.22-.05.31-.08,8.45-1.06,22.4-3.57,24.17-4.39,2-.92.37-2.05.37-2.05Z"/><path class="cls-20" d="M57.45,82.05s-4.99,1.51-6.88,7.41-5.72,7.71-5.72,7.71c0,0-3.54,3.56-1.95,7.46,0,0,1.56,2.43-.9,3.29,0,0,3.09-.16,1.47-4.35-1.62-4.19,4.87-6.03,6.19-8.33s3.25-9.63,8.92-11.26-1.12-1.94-1.12-1.94Z"/><path class="cls-23" d="M57.5,78.68s-1.61.55-.82,2.96c.79,2.41,1.9,2.37,1.9,2.37,0,0,1.57.11,5.4-1.93s15.19-3.83,15.19-3.83c0,0,2.46,1.08,3.47.3s-.54-5.71-2.83-4.55-15.07,4.14-15.07,4.14c0,0-6.28-.1-7.24.54Z"/><path class="cls-20" d="M4.77,76.14s15.65-10.05,20.86-10.05,26.76,1.06,30.47-.45c0,0,1.44,1.36-.68,1.97s-19.88.98-27.52.53c-7.64-.45-14.74,5.52-14.74,5.52,0,0-4.91,3.25-8.39,2.49Z"/><path class="cls-20" d="M57.5,63.8c-3.88.98-25.77-2.38-30.23-3.82-4.46-1.44-9.76-4.65-13.92-4.05-4.16.6-5.59,2.57-5.59,2.57,0,0,3.93-2.65,9.22-.38,5.29,2.27,10.71,4.43,14.85,4.72.12,0,.22.01.32.02,8.4,1.43,22.47,3.06,24.41,2.8,2.18-.3.95-1.85.95-1.85Z"/><path class="cls-20" d="M56.4,66.51s-5.22,0-8.73,5.1-7.71,5.73-7.71,5.73c0,0-4.42,2.38-4.03,6.58,0,0,.79,2.78-1.81,2.89,0,0,3,.74,2.66-3.74-.34-4.48,6.41-4.37,8.33-6.18,1.93-1.81,5.9-8.28,11.79-8.19,5.9.09-.51-2.18-.51-2.18Z"/><path class="cls-23" d="M57.42,63.25s-1.7.06-1.64,2.61c.06,2.55,1.13,2.83,1.13,2.83,0,0,1.47.57,5.73-.28s15.65.74,15.65.74c0,0,2.04,1.76,3.23,1.3s1.14-5.66-1.39-5.21-15.62-.4-15.62-.4c0,0-5.98-1.93-7.09-1.59Z"/><path class="cls-24" d="M98.49,68.93c-3.95-1.84-5.54-1.43-9.64-2.33s-8.15-2.77-8.71-1.35c0,0,2.29,1.3,1.76,3.54-.53,2.24-2.71,1.03-2.71,1.03,0,0-.28.85,1.44,1.5,1.72.65,7.56.19,7.56.19l6.86.5s7.4-1.23,3.45-3.07Z"/><path class="cls-39" d="M81.9,68.78c-.53,2.24-2.71,1.03-2.71,1.03,0,0-.28.85,1.44,1.5.43.16.9.2,1.4.17.3-.23.61-.48.95-.77,2.44-2.13.3-5.03-.33-5.78-1.32-.29-2.27-.32-2.52.32,0,0,2.29,1.3,1.76,3.54Z"/><path class="cls-24" d="M94.65,67.58l.74-1.19c.06-.7,5.44-.96,8.9,1.11,3.34,2-2.35,5.16-2.35,5.16,0,0-7.46-.65-7.37-.68s3.32-2.89.09-4.39Z"/><path class="cls-39" d="M96.06,72.08c.12-.04,4.57-3.99.24-6.12-.59.09-.96.24-.97.42l-.74,1.19c3.23,1.5,0,4.37-.09,4.39-.08.03,7.37.68,7.37.68,0,0,0,0,.01,0-2.82-.25-5.9-.53-5.83-.56Z"/><path class="cls-24" d="M105.3,67.24s5.67,1.88,8.93,1.62c0,0,2.37,1.35.42,2.41s-2.89.07-4,.07-2.6.37-4.2.2-2.78-1.55-2.78-1.55c0,0-.72-2.73,1.63-2.77Z"/><path class="cls-39" d="M104.75,70.3s-.69-2.65,1.54-2.76c-.62-.18-1.01-.31-1.01-.31-2.35.03-1.63,2.77-1.63,2.77,0,0,1.18,1.38,2.78,1.55,0,0,.01,0,.02,0-1.02-.46-1.7-1.24-1.7-1.24Z"/><path class="cls-50" d="M111.91,68.47s-1.06-2.19.6-2.65,6.27.91,6.27.91c0,0,11.94,7.56,2.87,9.83,0,0-2.12.6-4.54-1.89,0,0-3.1,1.59-4.46-.98,0,0,4.99-.53,4.23-2.65s-2.9-1.01-2.9-1.01c0,0-1.41-.5-2.09-1.56Z"/><path class="cls-11" d="M135.57,67.24c-9.37,1.69-16.91,6.92-9.37,18.9,0,0,.77,3.53,14.75,8.61,13.99,5.07,44.22,40.35,44.22,40.35l-.08-35.83s-36.43-32.52-49.52-32.03Z"/><path class="cls-36" d="M130.11,67.83s3.52-.79,1.93,1.81c-1.59,2.61-3.82,5.1-5.18,6.77,0,0-3.67-.11-4.04,1.21,0,0-2.08-.72.38-2.83,2.46-2.12-2.08-5.41-2.08-5.41l9-1.55Z"/><path class="cls-21" d="M135.39,65.84c-.53-3.7-1.51-7.48-5.14-9-1.17-.49-1.71-1.21-1.9-1.97.73-1.4,1.15-3,1.15-4.69,0-5.64-4.57-10.21-10.21-10.21s-10.21,4.57-10.21,10.21c0,4.93,3.5,9.05,8.15,10-.08.68-.58,5.12.54,6.93,0,0,3.48,5.97,11.11,2.04,0,0,2.19-1.51,2.87,1.21,0,0,4.16-.83,3.63-4.54Z"/><circle class="cls-1" cx="118.3" cy="49.78" r="7.26"/><path class="cls-28" d="M97.58,72.94c-3.93-.87-5.25-.05-9.11.07s-7.87-.76-8.06.83c0,0,2.32.74,2.35,3.15.03,2.41-2.18,1.73-2.18,1.73,0,0-.06.94,1.62,1.16,1.67.23,6.77-1.72,6.77-1.72l6.22-1.23s6.32-3.12,2.39-3.99Z"/><path class="cls-39" d="M82.76,76.98c.03,2.41-2.18,1.73-2.18,1.73,0,0-.06.94,1.62,1.16.42.06.84-.03,1.29-.19.22-.3.44-.64.67-1.02,1.7-2.78-.85-5.19-1.57-5.79-1.25.04-2.09.25-2.17.96,0,0,2.32.74,2.35,3.15Z"/><path class="cls-28" d="M95.4,71.73s9.3.48,14.09-1.25c0,0,4.12,1.05,1.63,3.45s-4.31,1.3-5.99,1.76-3.75,1.63-6.22,2.04-4.82-1.17-4.82-1.17c0,0-2.2-3.81,1.31-4.83Z"/><path class="cls-39" d="M95.84,76.56s-2.13-3.7,1.17-4.78c-1.01-.02-1.65-.05-1.65-.05-3.51,1.02-1.31,4.83-1.31,4.83,0,0,2.35,1.58,4.82,1.17.01,0,.02,0,.03,0-1.72-.26-3.07-1.17-3.07-1.17Z"/><circle class="cls-22" cx="114.16" cy="51.86" r="1.25"/><path class="cls-28" d="M103.44,70.48s7.86.4,11.91-1.05c0,0,3.48.89,1.38,2.92-2.11,2.02-3.64,1.1-5.06,1.49s-3.17,1.38-5.26,1.72-4.07-.99-4.07-.99c0,0-1.86-3.22,1.1-4.08Z"/><path class="cls-39" d="M103.81,74.56s-1.8-3.13.99-4.04c-.85-.01-1.39-.04-1.39-.04-2.97.86-1.1,4.08-1.1,4.08,0,0,1.98,1.34,4.07.99,0,0,.02,0,.03,0-1.46-.22-2.59-.99-2.59-.99Z"/><circle class="cls-22" cx="121.57" cy="46.43" r="1.25"/><path class="cls-30" d="M114.9,84.49s-5.01,2.7-6.94,13.02c0,0,3.74,2.08,2.76,13.42,0,0,1.66,2.34,1.81,6.05,0,0,2.27-1.13,2.8-2.95,0,0-1.64,4.38-1.47,6.43.17,2.04.73,5.64.73,5.64l1.3.05s-.16,1.93.22,2.65l1.21.72.15,1.89,3.58,3.98.21.88.99.43,1.73,3.09,1.33,1.09.15,2.1,1.13,1.47,1.83.6,1.38,1.63,2.36,3.69s2.13,2.66,3.4,3.03,1.59,1.42,1.59,1.42l1.39,1.11s.06,1.59,1.33,2.75c0,0,1.73.17,1.9-1.33.11-.06-.09,1.73,2.07,1.7s3.37-4.68,3.37-4.68l.75-5.79s2.49-1.89,1.66-4.54c-.83-2.65-.68-6.12-.68-6.12l-5.29-14.47s2.19,21.21-2.97,22.06c-5.16.85-8.01-6.43-8.01-6.43,0,0-18.09-44.53-18.14-53.22,0-.71.11-1.17.36-1.37Z"/><path class="cls-51" d="M143.3,124.17s19.22-.91,18.65,11.68c0,0-.28,2.15-5.44,2.21,0,0-3,.34-2.04,4.65,0,0-.57,4.54-5.78,1.93s-5.39-20.47-5.39-20.47Z"/><path class="cls-26" d="M113.98,86.7c.23-1.71,1.74-2.94,3.47-2.97,3.63-.07,11.52,1.84,17.85,17.86,8.5,21.55,9.75,22,10.32,33.57.57,11.57-5.44,11-5.44,11,0,0-6.8,2.27-13.61-20.07-5.72-18.79-13.45-33.09-12.59-39.38Z"/></g></svg>