<?xml version="1.0" encoding="UTF-8"?><svg id="Layer_2" xmlns="http://www.w3.org/2000/svg" xmlns:xlink="http://www.w3.org/1999/xlink" viewBox="0 0 199.56 273.38"><defs><style>.cls-1{fill:#7ac360;}.cls-2{fill:none;stroke:#231f20;stroke-miterlimit:10;stroke-width:4px;}.cls-3{font-size:14px;}.cls-3,.cls-4,.cls-5,.cls-6,.cls-7{fill:#231f20;}.cls-3,.cls-8{font-family:CreatoDisplay-Bold, 'Creato Display';font-weight:700;}.cls-9{letter-spacing:0em;}.cls-8{font-size:4px;}.cls-8,.cls-10{fill:#f4eddd;}.cls-11{fill:#e95242;}.cls-12{fill:#3687c8;}.cls-13{letter-spacing:-.02em;}.cls-14{letter-spacing:0em;}.cls-15{letter-spacing:-.03em;}.cls-16{fill:#306944;}.cls-17{letter-spacing:-.02em;}.cls-18{letter-spacing:0em;}.cls-19{letter-spacing:0em;}.cls-5{font-family:CreatoDisplay-Italic, 'Creato Display';font-style:italic;}.cls-5,.cls-6{font-size:8px;}.cls-6{font-family:CreatoDisplay-Regular, 'Creato Display';}.cls-20{letter-spacing:-.02em;}.cls-21{fill:#a686bd;}.cls-22{letter-spacing:-.02em;}.cls-23{fill:#f6f083;}.cls-24{letter-spacing:0em;}.cls-25{letter-spacing:0em;}.cls-26{letter-spacing:.02em;}.cls-27{fill:#010101;}.cls-28{letter-spacing:-.03em;}.cls-29{letter-spacing:-.03em;}.cls-30{fill:url(#linear-gradient);}.cls-7{font-family:CreatoDisplay-Medium, 'Creato Display';font-size:10px;font-weight:500;}</style><linearGradient id="linear-gradient" x1="99.76" y1="271.3" x2="99.76" y2="2.13" gradientUnits="userSpaceOnUse"><stop offset=".06" stop-color="#072021"/><stop offset=".11" stop-color="#092021" stop-opacity=".99"/><stop offset=".45" stop-color="#0f1f20" stop-opacity=".73"/><stop offset=".98" stop-color="#221f20" stop-opacity=".03"/><stop offset="1" stop-color="#231f20" stop-opacity="0"/></linearGradient></defs><g id="Layer_1-2"><path class="cls-12" d="M12.74,2.13h174.03c5.93,0,10.74,4.81,10.74,10.74v247.69c0,5.93-4.81,10.74-10.74,10.74H12.74c-5.93,0-10.74-4.81-10.74-10.74V12.88C2,6.95,6.81,2.13,12.74,2.13Z"/><path class="cls-4" d="M186.78,4.13c4.82,0,8.74,3.92,8.74,8.74v247.69c0,4.82-3.92,8.74-8.74,8.74H12.74c-4.82,0-8.74-3.92-8.74-8.74V12.88c0-4.82,3.92-8.74,8.74-8.74h174.03M186.78.13H12.74C5.7.13,0,5.84,0,12.88v247.69c0,7.04,5.7,12.74,12.74,12.74h174.03c7.04,0,12.74-5.7,12.74-12.74V12.88c0-7.04-5.7-12.74-12.74-12.74h0Z"/><rect class="cls-23" x="42.99" y="2.13" width="39.78" height="269.17"/><path class="cls-4" d="M80.77,4.13v265.17h-35.78V4.13h35.78M84.77.13h-43.78v273.17h43.78V.13h0Z"/><rect class="cls-1" x="82.67" y="2.13" width="39.78" height="269.17"/><path class="cls-4" d="M120.44,4.13v265.17h-35.78V4.13h35.78M124.44.13h-43.78v273.17h43.78V.13h0Z"/><path class="cls-11" d="M11.49,271.38c-5.06,0-9.49-5.06-9.49-10.83V12.86c0-7.48,2.14-10.4,7.65-10.4,6.5,0,26.82-.24,33.33-.32v269.15c-6.42.02-26.41.08-31.48.08Z"/><path class="cls-4" d="M40.97,4.17v265.13c-7.84.02-24.89.07-29.48.07-3.99,0-7.49-4.13-7.49-8.83V12.86c0-7.8,2.34-8.4,5.65-8.4,5.94,0,23.36-.2,31.33-.29M44.97.12S17.47.46,9.65.46,0,5.83,0,12.86v247.69c0,7.04,5.42,12.83,11.49,12.83s33.48-.09,33.48-.09V.12h0Z"/><path class="cls-21" d="M188.06,271.26c-5.07,0-25.06-.06-31.48-.08V2.02c6.51.08,26.82.32,33.33.32,5.5,0,7.65,2.92,7.65,10.4v247.69c0,5.77-4.44,10.83-9.49,10.83Z"/><path class="cls-4" d="M158.58,4.05c7.96.09,25.39.29,31.33.29,3.31,0,5.65.6,5.65,8.4v247.69c0,4.7-3.5,8.83-7.49,8.83-4.59,0-21.64-.05-29.48-.07V4.05M154.58,0v273.17s27.41.09,33.48.09,11.49-5.79,11.49-12.83V12.74c0-7.04-1.83-12.4-9.65-12.4s-35.33-.34-35.33-.34h0Z"/><path class="cls-30" d="M12.74,2.13h174.03c5.93,0,10.74,4.81,10.74,10.74v247.69c0,5.93-4.81,10.74-10.74,10.74H12.74c-5.93,0-10.74-4.81-10.74-10.74V12.88C2,6.95,6.81,2.13,12.74,2.13Z"/><path class="cls-4" d="M186.78,4.13c4.82,0,8.74,3.92,8.74,8.74v247.69c0,4.82-3.92,8.74-8.74,8.74H12.74c-4.82,0-8.74-3.92-8.74-8.74V12.88c0-4.82,3.92-8.74,8.74-8.74h174.03M186.78.13H12.74C5.7.13,0,5.84,0,12.88v247.69c0,7.04,5.7,12.74,12.74,12.74h174.03c7.04,0,12.74-5.7,12.74-12.74V12.88c0-7.04-5.7-12.74-12.74-12.74h0Z"/><rect class="cls-10" x="13.78" y="12.39" width="172.46" height="233.81" rx="10.74" ry="10.74"/><path class="cls-4" d="M175.5,14.39c4.82,0,8.74,3.92,8.74,8.74v212.33c0,4.82-3.92,8.74-8.74,8.74H24.53c-4.82,0-8.74-3.92-8.74-8.74V23.13c0-4.82,3.92-8.74,8.74-8.74h150.98M175.5,10.39H24.53c-7.04,0-12.74,5.7-12.74,12.74v212.33c0,7.04,5.7,12.74,12.74,12.74h150.98c7.04,0,12.74-5.7,12.74-12.74V23.13c0-7.04-5.7-12.74-12.74-12.74h0Z"/><line class="cls-2" x1="14.16" y1="36.03" x2="185.13" y2="36.03"/><line class="cls-2" x1="14.16" y1="150.78" x2="185.13" y2="150.78"/><line class="cls-2" x1="14.16" y1="168.57" x2="185.13" y2="168.57"/><text class="cls-3" transform="translate(20.3 29.59)"><tspan x="0" y="0">Place </tspan><tspan class="cls-22" x="39.02" y="0">o</tspan><tspan x="46.88" y="0">f Birth</tspan></text><text class="cls-7" transform="translate(20.57 163.07)"><tspan class="cls-18" x="0" y="0">L</tspan><tspan x="5.42" y="0">and</tspan></text><text class="cls-8" transform="translate(21.08 255.1)"><tspan x="0" y="0">19</tspan><tspan class="cls-26" x="0" y="4.8">T</tspan><tspan x="2.48" y="4.8">TM - EN</tspan></text><path class="cls-10" d="M46.03,253.68c0-.87.51-1.46,1.41-1.46.78,0,1.31.46,1.31,1.08h-.52c-.05-.36-.3-.64-.8-.64-.57,0-.87.36-.87,1.02s.3,1.02.87,1.02c.49,0,.75-.26.8-.66h.52c0,.63-.52,1.1-1.31,1.1-.9,0-1.41-.6-1.41-1.46Z"/><path class="cls-10" d="M52.03,258.99h.53c.04.38.22.55.66.55s.62-.18.62-.45c0-.2-.11-.32-.54-.39l-.36-.05c-.6-.08-.83-.29-.83-.76,0-.51.36-.88,1.1-.88s1.1.36,1.1.92h-.52c-.04-.34-.22-.51-.6-.51s-.55.18-.55.44c0,.2.09.3.47.35l.36.05c.58.08.9.3.9.8,0,.53-.38.89-1.18.89s-1.17-.35-1.17-.96Z"/><path class="cls-10" d="M54.71,260.32h.21c.24,0,.38-.12.38-.31,0-.06-.01-.13-.04-.2l-.74-1.97h.54l.54,1.66.54-1.66h.54l-.74,1.97c-.25.67-.52.88-1.02.88h-.2v-.37Z"/><path class="cls-10" d="M56.69,258.87c0-.64.36-1.07,1.02-1.07s1.03.44,1.03,1.05c0,.04,0,.08,0,.13h-1.53c.02.42.22.61.53.61.26,0,.42-.13.48-.34h.48c-.09.42-.4.69-.96.69-.67,0-1.05-.42-1.05-1.07ZM57.2,258.64h1.02c-.04-.33-.23-.49-.51-.49s-.46.16-.51.49Z"/><path class="cls-10" d="M58.96,258.87c0-.68.35-1.07.91-1.07.31,0,.52.13.64.35v-1.1h.52v2.85h-.49v-.35c-.11.24-.32.39-.66.39-.56,0-.91-.4-.91-1.07ZM60.5,258.87c0-.47-.21-.68-.52-.68s-.51.21-.51.68.21.68.51.68.52-.21.52-.68Z"/><path class="cls-10" d="M63.13,259.9v-2.4h-.86v-.44h2.28v.44h-.87v2.4h-.54Z"/><path class="cls-10" d="M64.41,259.32c0-.32.19-.57.71-.61l.42-.04c.21-.02.27-.08.27-.18,0-.2-.12-.32-.38-.32-.24,0-.37.1-.39.32h-.51c0-.42.26-.69.9-.69s.9.27.9.69v.88c0,.28.02.46.06.53h-.47c-.06-.08-.09-.16-.09-.32-.12.24-.32.36-.68.36-.48,0-.74-.24-.74-.62ZM65.81,259.05v-.14s-.13.07-.27.08l-.24.02c-.26.02-.36.13-.36.28,0,.18.12.31.38.31.32,0,.5-.24.5-.54Z"/><path class="cls-10" d="M66.66,257.26c0-.15.11-.27.3-.27s.3.12.3.27-.1.27-.3.27-.3-.12-.3-.27ZM66.7,259.9v-2.06h.52v2.06h-.52Z"/><path class="cls-10" d="M69.94,259.9v-1.28c0-.28-.09-.4-.29-.4-.22,0-.39.18-.39.52v1.17h-.5v-1.28c0-.28-.09-.4-.29-.4-.22,0-.39.18-.39.52v1.17h-.5v-2.06h.49v.34c.1-.22.28-.38.56-.38.3,0,.49.13.57.39.1-.24.31-.39.59-.39.42,0,.63.24.63.74v1.36h-.5Z"/><path class="cls-10" d="M70.74,258.87c0-.65.38-1.07,1.05-1.07s1.05.42,1.05,1.07-.38,1.07-1.05,1.07-1.05-.42-1.05-1.07ZM72.32,258.87c0-.46-.19-.68-.54-.68s-.53.22-.53.68.19.68.53.68.54-.22.54-.68Z"/><path class="cls-10" d="M73.05,258.87c0-.65.38-1.07,1.05-1.07s1.05.42,1.05,1.07-.38,1.07-1.05,1.07-1.05-.42-1.05-1.07ZM74.63,258.87c0-.46-.19-.68-.54-.68s-.53.22-.53.68.19.68.53.68.54-.22.54-.68Z"/><path class="cls-10" d="M75.45,259.9v-2.06h.49v.46c.11-.36.29-.49.58-.49.06,0,.14.02.19.03v.45h-.21c-.32,0-.53.23-.53.65v.96h-.52Z"/><path class="cls-10" d="M80.63,259.9v-2.35l-.82,2.35h-.46l-.83-2.35v2.35h-.52v-2.85h.85l.72,2.03.72-2.03h.86v2.85h-.52Z"/><path class="cls-10" d="M81.48,259.32c0-.32.19-.57.71-.61l.42-.04c.21-.02.27-.08.27-.18,0-.2-.12-.32-.38-.32-.24,0-.37.1-.39.32h-.51c0-.42.26-.69.9-.69s.9.27.9.69v.88c0,.28.02.46.06.53h-.47c-.06-.08-.09-.16-.09-.32-.12.24-.32.36-.68.36-.48,0-.74-.24-.74-.62ZM82.87,259.05v-.14s-.13.07-.27.08l-.24.02c-.26.02-.36.13-.36.28,0,.18.12.31.38.31.32,0,.5-.24.5-.54Z"/><path class="cls-10" d="M85.08,259.9v-1.26c0-.28-.1-.42-.35-.42-.27,0-.45.2-.45.53v1.15h-.52v-2.06h.49v.34c.11-.22.3-.38.63-.38.47,0,.71.24.71.74v1.36h-.52Z"/><path class="cls-10" d="M85.89,259.25h.5c.02.22.12.35.44.35s.42-.13.42-.28c0-.14-.11-.21-.29-.24l-.36-.05c-.48-.07-.66-.23-.66-.58s.25-.65.88-.65.88.28.88.66h-.5c-.02-.17-.08-.32-.39-.32-.26,0-.36.11-.36.27,0,.14.08.2.23.22l.35.05c.46.06.72.22.72.61,0,.37-.27.65-.94.65s-.93-.28-.93-.69Z"/><path class="cls-10" d="M87.99,258.87c0-.65.38-1.07,1.05-1.07s1.05.42,1.05,1.07-.38,1.07-1.05,1.07-1.05-.42-1.05-1.07ZM89.57,258.87c0-.46-.19-.68-.54-.68s-.53.22-.53.68.19.68.53.68.54-.22.54-.68Z"/><path class="cls-10" d="M90.3,258.87c0-.65.38-1.07,1.05-1.07s1.05.42,1.05,1.07-.38,1.07-1.05,1.07-1.05-.42-1.05-1.07ZM91.89,258.87c0-.46-.19-.68-.54-.68s-.53.22-.53.68.19.68.53.68.54-.22.54-.68Z"/><path class="cls-10" d="M92.7,259.9v-2.06h.49v.46c.11-.36.29-.49.58-.49.06,0,.14.02.19.03v.45h-.21c-.32,0-.53.23-.53.65v.96h-.52Z"/><path class="cls-10" d="M48.49,256.76c-1.55,0-1.81,1.29-1.81,1.29v-1.12h-.99v.2l.07,2.8h.89l.07-1.15s.33,1.22,1.68,1.15c1.35-.07,2.28-1.46,2.28-1.46,0,0-.63-1.71-2.18-1.71ZM48.79,258c-1.27-.02-1.43-.34-1.43-.34,0,0,1.43-1.72,3.15.77,0,0-.45-.42-1.72-.43Z"/><text class="cls-6" transform="translate(30.41 183.97)"><tspan x="0" y="0">, </tspan><tspan class="cls-20" x="3.51" y="0">A</tspan><tspan x="8.86" y="0" xml:space="preserve">dd      or      or      or      or       </tspan><tspan class="cls-29" x="109.18" y="0">t</tspan><tspan class="cls-9" x="111.59" y="0">o </tspan><tspan class="cls-15" x="118.08" y="0">y</tspan><tspan x="122.06" y="0">ou </tspan><tspan x="0" y="9.6" xml:space="preserve">  mana pool.</tspan></text><path class="cls-27" d="M25.65,183.99c-1.35,0-2.45-1.1-2.45-2.45s1.1-2.45,2.45-2.45,2.45,1.1,2.45,2.45-1.1,2.45-2.45,2.45Z"/><path class="cls-4" d="M25.65,181.09c.25,0,.45.2.45.45s-.2.45-.45.45-.45-.2-.45-.45.2-.45.45-.45M25.65,177.09c-2.46,0-4.45,1.99-4.45,4.45s1.99,4.45,4.45,4.45,4.45-1.99,4.45-4.45-1.99-4.45-4.45-4.45h0Z"/><path class="cls-10" d="M28.59,181.7l-.2-2.55-.93.74c-.31-.36-.86-.96-1.4-1.26-2.31-.7-3.59,2.01-3.17,3.78.24.79,1.95,2.51,1.94,2.49l.79-.76c-.07,0-1.26-1.03-1.57-1.67-.3-.64-.47-1.8.64-2.75.94-.79,1.87.21,2.25.57l-.94.74,2.58.67Z"/><circle class="cls-27" cx="54.91" cy="181.47" r="2.45"/><path class="cls-4" d="M54.91,181.02c.25,0,.45.2.45.45s-.2.45-.45.45-.45-.2-.45-.45.2-.45.45-.45M54.91,177.02c-2.46,0-4.45,1.99-4.45,4.45s1.99,4.45,4.45,4.45,4.45-1.99,4.45-4.45-1.99-4.45-4.45-4.45h0Z"/><path class="cls-27" d="M73.92,184.1c-1.35,0-2.45-1.1-2.45-2.45s1.1-2.45,2.45-2.45,2.45,1.1,2.45,2.45-1.1,2.45-2.45,2.45Z"/><path class="cls-4" d="M73.92,181.2c.25,0,.45.2.45.45s-.2.45-.45.45-.45-.2-.45-.45.2-.45.45-.45M73.92,177.2c-2.46,0-4.45,1.99-4.45,4.45s1.99,4.45,4.45,4.45,4.45-1.99,4.45-4.45-1.99-4.45-4.45-4.45h0Z"/><path class="cls-27" d="M92.83,183.92c-1.35,0-2.45-1.1-2.45-2.45s1.1-2.45,2.45-2.45,2.45,1.1,2.45,2.45-1.1,2.45-2.45,2.45Z"/><path class="cls-4" d="M92.83,181.02c.25,0,.45.2.45.45s-.2.45-.45.45-.45-.2-.45-.45.2-.45.45-.45M92.83,177.02c-2.46,0-4.45,1.99-4.45,4.45s1.99,4.45,4.45,4.45,4.45-1.99,4.45-4.45-1.99-4.45-4.45-4.45h0Z"/><path class="cls-11" d="M57.22,181.42c0-1.16-.86-2.11-1.98-2.28v-.31h.93v-.67h-2.61v.67h1.01v.31c-1.12.16-1.98,1.12-1.98,2.28s.86,2.11,1.98,2.28v.33h-1.01v.67h2.61v-.67h-.93v-.33c1.12-.16,1.98-1.12,1.98-2.28ZM56.55,181.42c0,.79-.56,1.45-1.31,1.61v-3.22c.75.16,1.31.82,1.31,1.61ZM53.26,181.42c0-.79.56-1.45,1.31-1.61v3.22c-.75-.16-1.31-.82-1.31-1.61Z"/><text class="cls-5"><tspan x="20.58" y="232.06">I’m som</tspan><tspan class="cls-24" x="46.61" y="232.06">e</tspan><tspan x="50.92" y="232.06">thing </tspan><tspan class="cls-13" x="70.09" y="232.06">o</tspan><tspan class="cls-19" x="74.4" y="232.06">f a bnoc </tspan><tspan class="cls-17" x="104.68" y="232.06">m</tspan><tspan class="cls-28" x="110.71" y="232.06">y</tspan><tspan class="cls-9" x="114.71" y="232.06">self</tspan></text><path class="cls-27" d="M178.36,155.84c-2.17-2.18-5.69-2.2-7.88-.03-2.18,2.17-2.2,5.69-.03,7.88,2.17,2.18,5.69,2.2,7.88.03,2.18-2.17,2.2-5.69.03-7.88ZM173.73,157.22c.86-.85,1.73-1.36,1.96-1.13.23.23-.28,1.1-1.14,1.95-.86.85-1.73,1.36-1.96,1.13s.28-1.1,1.14-1.95ZM174.58,164.2c-1.19,0-2.51-.33-3.41-1.23-.87-.88-1.21-2.17-1.21-3.41,0-1.24.49-2.39,1.37-3.26l.84.84c-.81.8-1.25,1.86-1.26,3,0,.79.39,1.83.83,2.26.39.33,1.14.87,2.28.88,0,0,0,0,0,0,1.13,0,2.2-.43,3-1.23l.82.82c-.9.9-2.08,1.34-3.27,1.34ZM176.94,160.43c-.85.84-1.71,1.34-1.94,1.12-.22-.23.28-1.09,1.13-1.93.85-.84,1.71-1.34,1.94-1.12.22.23-.28,1.09-1.13,1.93Z"/><text class="cls-8" transform="translate(152.99 258.22) scale(.58)"><tspan x="0" y="0" xml:space="preserve">TM  </tspan></text><text class="cls-8" transform="translate(157.64 259.55)"><tspan class="cls-25" x="0" y="0">&amp; © Ti</tspan><tspan class="cls-14" x="11.33" y="0">m</tspan><tspan x="14.51" y="0">taim</tspan></text><circle class="cls-27" cx="112.51" cy="181.47" r="2.45"/><path class="cls-4" d="M112.51,181.02c.25,0,.45.2.45.45s-.2.45-.45.45-.45-.2-.45-.45.2-.45.45-.45M112.51,177.02c-2.46,0-4.45,1.99-4.45,4.45s1.99,4.45,4.45,4.45,4.45-1.99,4.45-4.45-1.99-4.45-4.45-4.45h0Z"/><circle class="cls-27" cx="132.54" cy="181.47" r="2.45"/><path class="cls-4" d="M132.54,181.02c.25,0,.45.2.45.45s-.2.45-.45.45-.45-.2-.45-.45.2-.45.45-.45M132.54,177.02c-2.46,0-4.45,1.99-4.45,4.45s1.99,4.45,4.45,4.45,4.45-1.99,4.45-4.45-1.99-4.45-4.45-4.45h0Z"/><path class="cls-21" d="M130.04,183.99c.61,0,1.21-.53,1.21-.53l-1.01-1.89-1.22,1.85s.41.57,1.03.57Z"/><path class="cls-21" d="M135.15,178.73h0s-.24-.41-.24-.41l-2.06,1.19v-.98h-.57v1.31l-2.29,1.32.24.41,2.06-1.19v3.82h.57v-4.15l2.29-1.32-1.22,1.84s.41.57,1.03.57,1.21-.53,1.21-.53l-1.01-1.89Z"/><path class="cls-1" d="M95.44,179.02c-4.88-.22-4.56,3.21-4.42,4.01l-.98.64.77.32.39-.69c2.25,1.55,3.72-1.28,3.12-2.1s1.12-2.19,1.12-2.19Z"/><path class="cls-23" d="M73.92,180.01c-.27-.41-2.99-1.6-3.01.23v3.81s.78-1.6,3-.13h0s0,0,0,0c0,0,0,0,0,0h0c2.23-1.48,3,.12,3,.12v-3.81c-.01-1.83-2.75-.63-3.01-.23Z"/><path class="cls-12" d="M113.15,178.52c-.11-.27-.36-.46-.67-.46s-.57.2-.67.47c-1.39.32-2.43,1.56-2.43,3.04,0,1.72,1.4,3.12,3.12,3.12s3.12-1.4,3.12-3.12c0-1.5-1.07-2.76-2.48-3.05ZM112.5,184.11c-1.4,0-2.53-1.14-2.53-2.53,0-1.17.81-2.16,1.89-2.44.12.22.35.37.62.37s.5-.16.62-.38c1.11.27,1.93,1.26,1.93,2.45,0,1.4-1.14,2.53-2.53,2.53Z"/><circle class="cls-12" cx="112.51" cy="181.47" r="1.33"/><path class="cls-16" d="M127.49,69.8l-11.53,4.92-8.84-9.6,1.16,12.71-12.19,5.65,12.86,2.67,1.67,13.03,6.5-11.19,12.71,2.5-7.68-8.51c-.31-.37-.65-.83-.65-1.34,0-1.23,6.43-10.42,5.99-10.85Z"/><path class="cls-16" d="M93.76,50.75c-10.75,5.5-19.12,16.62-20.04,28.9-2.62,35.29,39.4,52.63,62.8,27.06l3.66-4.85c-6.15,30.37-44.25,43.21-67.96,23.04-24.89-21.17-17.62-60.99,12.77-72.05l7.76-2.09h1Z"/><path class="cls-16" d="M127.49,69.8c.44.43-5.98,9.62-5.99,10.85,0,.5.34.96.65,1.34l7.68,8.51-12.71-2.5-6.5,11.19-1.67-13.03-12.86-2.67,12.19-5.65-1.16-12.71,8.84,9.6,11.53-4.92Z"/></g></svg>