<?xml version="1.0" encoding="UTF-8"?><svg id="Layer_2" xmlns="http://www.w3.org/2000/svg" viewBox="0 0 199.62 273.3"><defs><style>.cls-1{letter-spacing:-.02em;}.cls-2{letter-spacing:-.01em;}.cls-3{letter-spacing:-.02em;}.cls-4{letter-spacing:-.02em;}.cls-5{fill:none;stroke:#231f20;stroke-miterlimit:10;stroke-width:4px;}.cls-6{letter-spacing:-.01em;}.cls-7,.cls-8,.cls-9,.cls-10,.cls-11,.cls-12{fill:#231f20;}.cls-8{font-family:CreatoDisplay-Medium, 'Creato Display';font-size:10px;font-weight:500;}.cls-13{fill:#3687c8;}.cls-14{letter-spacing:-.06em;}.cls-15{letter-spacing:0em;}.cls-16{letter-spacing:.05em;}.cls-17{letter-spacing:.07em;}.cls-18{letter-spacing:-.03em;}.cls-19{letter-spacing:-.04em;}.cls-20{font-size:4px;}.cls-20,.cls-9,.cls-11,.cls-21{font-weight:700;}.cls-20,.cls-11,.cls-21{font-family:CreatoDisplay-Bold, 'Creato Display';}.cls-20,.cls-21,.cls-22{fill:#f4eddd;}.cls-23{letter-spacing:-.01em;}.cls-24{letter-spacing:-.03em;}.cls-25{letter-spacing:.02em;}.cls-26{letter-spacing:0em;}.cls-27{letter-spacing:.02em;}.cls-28{letter-spacing:-.02em;}.cls-9{font-family:CreatoDisplay-ExtraBold, 'Creato Display';}.cls-9,.cls-10,.cls-12{font-size:8px;}.cls-10{font-family:CreatoDisplay-Regular, 'Creato Display';}.cls-29{letter-spacing:0em;}.cls-11{font-size:14.01px;}.cls-30{letter-spacing:-.03em;}.cls-31{letter-spacing:0em;}.cls-32{letter-spacing:-.04em;}.cls-12{font-family:CreatoDisplay-Italic, 'Creato Display';font-style:italic;}.cls-33{letter-spacing:.03em;}.cls-21{font-size:7.79px;}.cls-34{letter-spacing:-.03em;}.cls-35{fill:#010101;}.cls-36{letter-spacing:-.01em;}.cls-37{letter-spacing:0em;}.cls-38{letter-spacing:-.11em;}.cls-39{letter-spacing:-.03em;}.cls-40{fill:#d75c7f;}.cls-41{fill:#ebcf5a;}.cls-42{letter-spacing:0em;}.cls-43{letter-spacing:.02em;}.cls-44{letter-spacing:.05em;}</style></defs><g id="Layer_1-2"><path class="cls-13" d="M12.74,2h174.13c5.93,0,10.74,4.81,10.74,10.74v247.82c0,5.93-4.81,10.74-10.74,10.74H12.74c-5.93,0-10.74-4.81-10.74-10.74V12.74C2,6.81,6.81,2,12.74,2Z"/><path class="cls-7" d="M186.87,4c4.82,0,8.74,3.92,8.74,8.74v247.82c0,4.82-3.92,8.74-8.74,8.74H12.74c-4.82,0-8.74-3.92-8.74-8.74V12.74c0-4.82,3.92-8.74,8.74-8.74h174.13M186.87,0H12.74C5.7,0,0,5.7,0,12.74v247.82c0,7.04,5.7,12.74,12.74,12.74h174.13c7.04,0,12.74-5.7,12.74-12.74V12.74c0-7.04-5.7-12.74-12.74-12.74h0Z"/><path class="cls-22" d="M24.53,12.26h151.06c5.93,0,10.74,4.81,10.74,10.74v212.45c0,5.93-4.81,10.74-10.74,10.74H24.53c-5.93,0-10.74-4.81-10.74-10.74V23.01c0-5.93,4.81-10.74,10.74-10.74Z"/><path class="cls-7" d="M175.6,14.26c4.82,0,8.74,3.92,8.74,8.74v212.45c0,4.82-3.92,8.74-8.74,8.74H24.53c-4.82,0-8.74-3.92-8.74-8.74V23.01c0-4.82,3.92-8.74,8.74-8.74h151.06M175.6,10.26H24.53c-7.04,0-12.74,5.7-12.74,12.74v212.45c0,7.04,5.7,12.74,12.74,12.74h151.06c7.04,0,12.74-5.7,12.74-12.74V23.01c0-7.04-5.7-12.74-12.74-12.74h0Z"/><line class="cls-5" x1="14.17" y1="35.92" x2="185.22" y2="35.92"/><line class="cls-5" x1="14.17" y1="150.71" x2="185.22" y2="150.71"/><line class="cls-5" x1="14.17" y1="168.52" x2="185.22" y2="168.52"/><text class="cls-11" transform="translate(20.31 29.47)"><tspan x="0" y="0">Re</tspan><tspan class="cls-42" x="17.17" y="0">s</tspan><tspan x="24.36" y="0">triction Enzyme</tspan></text><text class="cls-8" transform="translate(20.58 163.01)"><tspan x="0" y="0">C</tspan><tspan class="cls-3" x="7.26" y="0">r</tspan><tspan x="10.71" y="0">e</tspan><tspan class="cls-15" x="16.29" y="0">a</tspan><tspan x="21.59" y="0">tu</tspan><tspan class="cls-3" x="30.45" y="0">r</tspan><tspan x="33.89" y="0">e- Enzyme</tspan></text><text class="cls-20" transform="translate(21.09 255.09)"><tspan x="0" y="0">7</tspan><tspan class="cls-27" x="0" y="4.8">T</tspan><tspan class="cls-29" x="2.48" y="4.8">TM - EN</tspan></text><path class="cls-22" d="M43.05,253.67c0-.87.51-1.46,1.41-1.46.78,0,1.31.46,1.31,1.08h-.52c-.05-.36-.3-.64-.8-.64-.57,0-.87.36-.87,1.02s.3,1.02.87,1.02c.49,0,.75-.26.8-.66h.52c0,.63-.52,1.1-1.31,1.1-.9,0-1.41-.6-1.41-1.46Z"/><path class="cls-22" d="M49.06,258.98h.53c.04.38.22.55.66.55s.62-.18.62-.45c0-.2-.11-.32-.54-.39l-.36-.05c-.6-.08-.83-.29-.83-.76,0-.51.36-.88,1.1-.88s1.1.36,1.1.92h-.52c-.04-.34-.22-.51-.6-.51s-.55.18-.55.44c0,.2.09.3.47.35l.36.05c.58.08.9.3.9.8,0,.53-.38.89-1.18.89s-1.17-.35-1.17-.96Z"/><path class="cls-22" d="M51.73,260.31h.21c.24,0,.38-.12.38-.31,0-.06-.01-.13-.04-.2l-.74-1.97h.54l.54,1.66.54-1.66h.54l-.74,1.97c-.25.67-.52.88-1.02.88h-.2v-.37Z"/><path class="cls-22" d="M53.71,258.87c0-.64.36-1.07,1.02-1.07s1.03.44,1.03,1.05c0,.04,0,.08,0,.13h-1.53c.02.42.22.61.53.61.26,0,.42-.13.48-.34h.48c-.09.42-.4.69-.96.69-.67,0-1.05-.42-1.05-1.07ZM54.23,258.64h1.02c-.04-.33-.23-.49-.51-.49s-.46.16-.51.49Z"/><path class="cls-22" d="M55.98,258.87c0-.68.35-1.07.91-1.07.31,0,.52.13.64.35v-1.1h.52v2.85h-.49v-.35c-.11.24-.32.39-.66.39-.56,0-.91-.4-.91-1.07ZM57.53,258.87c0-.47-.21-.68-.52-.68s-.51.21-.51.68.21.68.51.68.52-.21.52-.68Z"/><path class="cls-22" d="M60.16,259.9v-2.4h-.86v-.44h2.28v.44h-.87v2.4h-.54Z"/><path class="cls-22" d="M61.44,259.31c0-.32.19-.57.71-.61l.42-.04c.21-.02.27-.08.27-.18,0-.2-.12-.32-.38-.32-.24,0-.37.1-.39.32h-.51c0-.42.26-.69.9-.69s.9.27.9.69v.88c0,.28.02.46.06.53h-.47c-.06-.08-.09-.16-.09-.32-.12.24-.32.36-.68.36-.48,0-.74-.24-.74-.62ZM62.84,259.04v-.14s-.13.07-.27.08l-.24.02c-.26.02-.36.13-.36.28,0,.18.12.31.38.31.32,0,.5-.24.5-.54Z"/><path class="cls-22" d="M63.69,257.26c0-.15.11-.27.3-.27s.29.12.29.27-.1.27-.29.27-.3-.12-.3-.27ZM63.73,259.9v-2.06h.52v2.06h-.52Z"/><path class="cls-22" d="M66.97,259.9v-1.28c0-.28-.09-.4-.29-.4-.22,0-.39.18-.39.52v1.17h-.5v-1.28c0-.28-.09-.4-.29-.4-.22,0-.39.18-.39.52v1.17h-.5v-2.06h.49v.33c.1-.22.28-.38.56-.38.3,0,.49.13.57.39.1-.24.31-.39.59-.39.42,0,.63.24.63.74v1.36h-.5Z"/><path class="cls-22" d="M67.77,258.87c0-.65.38-1.07,1.05-1.07s1.05.42,1.05,1.07-.38,1.07-1.05,1.07-1.05-.42-1.05-1.07ZM69.35,258.87c0-.46-.19-.68-.54-.68s-.53.22-.53.68.19.68.53.68.54-.22.54-.68Z"/><path class="cls-22" d="M70.09,258.87c0-.65.38-1.07,1.05-1.07s1.05.42,1.05,1.07-.38,1.07-1.05,1.07-1.05-.42-1.05-1.07ZM71.67,258.87c0-.46-.19-.68-.54-.68s-.53.22-.53.68.19.68.53.68.54-.22.54-.68Z"/><path class="cls-22" d="M72.48,259.9v-2.06h.49v.46c.11-.36.29-.49.58-.49.06,0,.14.02.19.03v.45h-.21c-.32,0-.53.23-.53.65v.96h-.52Z"/><path class="cls-22" d="M77.67,259.9v-2.35l-.82,2.35h-.46l-.83-2.35v2.35h-.52v-2.85h.85l.72,2.03.72-2.03h.86v2.85h-.52Z"/><path class="cls-22" d="M78.52,259.31c0-.32.19-.57.71-.61l.42-.04c.21-.02.27-.08.27-.18,0-.2-.12-.32-.38-.32-.24,0-.37.1-.39.32h-.51c0-.42.26-.69.9-.69s.9.27.9.69v.88c0,.28.02.46.06.53h-.47c-.06-.08-.09-.16-.09-.32-.12.24-.32.36-.68.36-.48,0-.74-.24-.74-.62ZM79.91,259.04v-.14s-.13.07-.27.08l-.24.02c-.26.02-.36.13-.36.28,0,.18.12.31.38.31.32,0,.5-.24.5-.54Z"/><path class="cls-22" d="M82.12,259.9v-1.26c0-.28-.1-.42-.35-.42-.27,0-.45.2-.45.53v1.15h-.52v-2.06h.49v.33c.11-.22.3-.38.63-.38.47,0,.71.24.71.74v1.36h-.52Z"/><path class="cls-22" d="M82.94,259.24h.5c.02.22.12.35.44.35s.42-.13.42-.28c0-.14-.11-.21-.29-.24l-.36-.05c-.48-.07-.66-.23-.66-.58s.25-.65.88-.65.88.28.88.66h-.5c-.02-.17-.08-.32-.39-.32-.26,0-.36.11-.36.27,0,.14.08.2.23.22l.35.05c.46.06.72.22.72.61,0,.37-.27.65-.94.65s-.93-.28-.93-.69Z"/><path class="cls-22" d="M85.03,258.87c0-.65.38-1.07,1.05-1.07s1.05.42,1.05,1.07-.38,1.07-1.05,1.07-1.05-.42-1.05-1.07ZM86.61,258.87c0-.46-.19-.68-.54-.68s-.53.22-.53.68.19.68.53.68.54-.22.54-.68Z"/><path class="cls-22" d="M87.35,258.87c0-.65.38-1.07,1.05-1.07s1.05.42,1.05,1.07-.38,1.07-1.05,1.07-1.05-.42-1.05-1.07ZM88.93,258.87c0-.46-.19-.68-.54-.68s-.53.22-.53.68.19.68.53.68.54-.22.54-.68Z"/><path class="cls-22" d="M89.74,259.9v-2.06h.49v.46c.11-.36.29-.49.58-.49.06,0,.14.02.19.03v.45h-.21c-.32,0-.53.23-.53.65v.96h-.52Z"/><text class="cls-20" transform="translate(153.06 258.21) scale(.58)"><tspan x="0" y="0" xml:space="preserve">TM  </tspan></text><text class="cls-20" transform="translate(157.72 259.55)"><tspan class="cls-29" x="0" y="0">&amp; © Ti</tspan><tspan class="cls-6" x="11.33" y="0">m</tspan><tspan x="14.52" y="0">taim</tspan></text><text class="cls-12" transform="translate(20.58 225.74)"><tspan x="0" y="0">G</tspan><tspan class="cls-4" x="5.87" y="0">G</tspan><tspan class="cls-19" x="11.57" y="0">T</tspan><tspan class="cls-4" x="15.89" y="0">C</tspan><tspan x="21.46" y="0">A[GA</tspan><tspan class="cls-38" x="40.83" y="0">A</tspan><tspan class="cls-43" x="45.46" y="0">T</tspan><tspan class="cls-19" x="50.23" y="0">T</tspan><tspan x="54.55" y="0">C]G</tspan><tspan class="cls-34" x="68.64" y="0">C</tspan><tspan class="cls-19" x="74.13" y="0">T</tspan><tspan x="78.44" y="0">GA</tspan><tspan class="cls-44" x="0" y="9.6">CC</tspan><tspan class="cls-33" x="12.21" y="9.6">G</tspan><tspan class="cls-44" x="18.29" y="9.6">T[</tspan><tspan class="cls-25" x="26.15" y="9.6">C</tspan><tspan class="cls-17" x="32.01" y="9.6">T</tspan><tspan class="cls-14" x="37.17" y="9.6">T</tspan><tspan class="cls-16" x="41.28" y="9.6">A</tspan><tspan class="cls-2" x="47.16" y="9.6">A</tspan><tspan class="cls-44" x="52.57" y="9.6">G]CG</tspan><tspan class="cls-2" x="74.02" y="9.6">A</tspan><tspan class="cls-25" x="79.43" y="9.6">C</tspan><tspan x="85.3" y="9.6">T</tspan></text><text class="cls-10" transform="translate(20.58 184.87)"><tspan x="0" y="0">Cle</tspan><tspan class="cls-28" x="11.64" y="0">a</tspan><tspan class="cls-34" x="15.67" y="0">v</tspan><tspan class="cls-31" x="19.66" y="0" xml:space="preserve">e           </tspan></text><text class="cls-10" transform="translate(20.58 197.01)"><tspan x="0" y="0">When Re</tspan><tspan class="cls-36" x="32.25" y="0">s</tspan><tspan x="36.11" y="0">triction Enzyme e</tspan><tspan class="cls-36" x="95.85" y="0">n</tspan><tspan class="cls-39" x="99.99" y="0">t</tspan><tspan class="cls-31" x="102.41" y="0">e</tspan><tspan class="cls-26" x="106.8" y="0">r</tspan><tspan class="cls-31" x="109.6" y="0">s the </tspan><tspan x="0" y="9.6">b</tspan><tspan class="cls-37" x="4.57" y="9.6">a</tspan><tspan class="cls-31" x="8.72" y="9.6">ttl</tspan><tspan class="cls-1" x="15.53" y="9.6">e</tspan><tspan x="19.74" y="9.6">field de</tspan><tspan class="cls-23" x="45.29" y="9.6">s</tspan><tspan x="49.16" y="9.6">t</tspan><tspan class="cls-24" x="51.81" y="9.6">r</tspan><tspan class="cls-34" x="54.41" y="9.6">o</tspan><tspan x="58.66" y="9.6">y ta</tspan><tspan class="cls-18" x="71.76" y="9.6">r</tspan><tspan x="74.36" y="9.6">g</tspan><tspan class="cls-23" x="78.93" y="9.6">e</tspan><tspan x="83.25" y="9.6">t [</tspan><tspan class="cls-30" x="90.39" y="9.6">t</tspan><tspan x="92.81" y="9.6">o</tspan><tspan class="cls-32" x="97.3" y="9.6">k</tspan><tspan x="101.19" y="9.6">en] c</tspan><tspan class="cls-24" x="118.47" y="9.6">r</tspan><tspan class="cls-31" x="121.08" y="9.6">e</tspan><tspan class="cls-37" x="125.47" y="9.6">a</tspan><tspan x="129.62" y="9.6">tu</tspan><tspan class="cls-24" x="136.49" y="9.6">r</tspan><tspan class="cls-4" x="139.09" y="9.6">e</tspan><tspan x="143.33" y="9.6">.</tspan></text><path class="cls-35" d="M178.45,155.78c-2.17-2.19-5.69-2.2-7.88-.03-2.19,2.17-2.2,5.69-.03,7.88s5.69,2.2,7.88.03c2.19-2.17,2.2-5.69.03-7.88ZM173.81,157.16c.86-.85,1.73-1.36,1.96-1.13.23.23-.28,1.1-1.14,1.95-.86.85-1.73,1.36-1.96,1.13s.28-1.1,1.14-1.95ZM174.66,164.14c-1.19,0-2.51-.33-3.41-1.23-.87-.88-1.21-2.17-1.21-3.41,0-1.24.49-2.4,1.37-3.27l.84.84c-.81.8-1.25,1.86-1.26,3,0,.79.39,1.83.83,2.27.39.33,1.14.87,2.28.88,0,0,0,0,0,0,1.13,0,2.2-.43,3-1.23l.82.82c-.9.9-2.09,1.34-3.27,1.34ZM177.03,160.38c-.85.84-1.72,1.34-1.94,1.12-.22-.23.28-1.09,1.13-1.93.85-.84,1.72-1.34,1.94-1.12.22.23-.28,1.09-1.13,1.93Z"/><path class="cls-22" d="M45.68,256.75c-1.55,0-1.82,1.29-1.82,1.29v-1.12h-.99v.2l.07,2.81h.89l.07-1.16s.33,1.22,1.68,1.16c1.35-.07,2.28-1.46,2.28-1.46,0,0-.63-1.71-2.18-1.71ZM45.98,258c-1.27-.02-1.43-.34-1.43-.34,0,0,1.43-1.72,3.15.77,0,0-.45-.42-1.72-.43Z"/><path class="cls-35" d="M173.83,29.15c-2.58,0-4.68-2.1-4.68-4.68s2.1-4.68,4.68-4.68,4.68,2.1,4.68,4.68-2.1,4.68-4.68,4.68Z"/><path class="cls-7" d="M173.83,21.79c1.48,0,2.68,1.2,2.68,2.68s-1.2,2.68-2.68,2.68-2.68-1.2-2.68-2.68,1.2-2.68,2.68-2.68M173.83,17.79c-3.69,0-6.68,2.99-6.68,6.68s2.99,6.68,6.68,6.68,6.68-2.99,6.68-6.68-2.99-6.68-6.68-6.68h0Z"/><path class="cls-13" d="M174.78,20.05c-.16-.4-.54-.69-1-.69s-.85.3-1.01.71c-2.08.48-3.65,2.34-3.65,4.56,0,2.58,2.1,4.69,4.69,4.69s4.69-2.1,4.69-4.69c0-2.25-1.6-4.14-3.72-4.58ZM173.81,28.43c-2.1,0-3.8-1.7-3.8-3.8,0-1.76,1.21-3.23,2.84-3.66.19.32.52.55.92.55s.75-.24.94-.57c1.66.41,2.9,1.9,2.9,3.68,0,2.1-1.7,3.8-3.8,3.8Z"/><circle class="cls-13" cx="173.83" cy="24.47" r="1.99"/><path class="cls-35" d="M159.37,29.15c-2.58,0-4.68-2.1-4.68-4.68s2.1-4.68,4.68-4.68,4.68,2.1,4.68,4.68-2.1,4.68-4.68,4.68Z"/><path class="cls-7" d="M159.37,21.79c1.48,0,2.68,1.2,2.68,2.68s-1.2,2.68-2.68,2.68-2.68-1.2-2.68-2.68,1.2-2.68,2.68-2.68M159.37,17.79c-3.69,0-6.68,2.99-6.68,6.68s2.99,6.68,6.68,6.68,6.68-2.99,6.68-6.68-2.99-6.68-6.68-6.68h0Z"/><path class="cls-13" d="M160.31,20.05c-.16-.4-.54-.69-1-.69s-.85.3-1.01.71c-2.08.48-3.65,2.34-3.65,4.56,0,2.58,2.1,4.69,4.69,4.69s4.69-2.1,4.69-4.69c0-2.25-1.6-4.14-3.72-4.58ZM159.35,28.43c-2.1,0-3.8-1.7-3.8-3.8,0-1.76,1.21-3.23,2.84-3.66.19.32.52.55.92.55s.75-.24.94-.57c1.66.41,2.9,1.9,2.9,3.68,0,2.1-1.7,3.8-3.8,3.8Z"/><circle class="cls-13" cx="159.37" cy="24.47" r="1.99"/><path class="cls-35" d="M50.53,184.99c-1.35,0-2.45-1.1-2.45-2.45s1.1-2.45,2.45-2.45,2.45,1.1,2.45,2.45-1.1,2.45-2.45,2.45Z"/><path class="cls-7" d="M50.53,182.09c.25,0,.45.2.45.45s-.2.45-.45.45-.45-.2-.45-.45.2-.45.45-.45M50.53,178.09c-2.46,0-4.45,1.99-4.45,4.45s1.99,4.45,4.45,4.45,4.45-1.99,4.45-4.45-1.99-4.45-4.45-4.45h0Z"/><text class="cls-21" transform="translate(48.28 185.08) scale(1.2 1)"><tspan x="0" y="0">1</tspan></text><path class="cls-35" d="M60.37,184.98c-1.35,0-2.45-1.1-2.45-2.45s1.1-2.45,2.45-2.45,2.45,1.1,2.45,2.45-1.1,2.45-2.45,2.45Z"/><path class="cls-7" d="M60.37,182.07c.25,0,.45.2.45.45s-.2.45-.45.45-.45-.2-.45-.45.2-.45.45-.45M60.37,178.07c-2.46,0-4.45,1.99-4.45,4.45s1.99,4.45,4.45,4.45,4.45-1.99,4.45-4.45-1.99-4.45-4.45-4.45h0Z"/><path class="cls-13" d="M61.01,179.58c-.11-.27-.36-.46-.67-.46s-.57.2-.67.47c-1.39.32-2.43,1.56-2.43,3.04,0,1.72,1.4,3.12,3.12,3.12s3.13-1.4,3.13-3.12c0-1.5-1.07-2.76-2.48-3.06ZM60.36,185.17c-1.4,0-2.53-1.14-2.53-2.53,0-1.17.81-2.16,1.89-2.44.12.22.35.37.62.37s.5-.16.62-.38c1.11.27,1.93,1.26,1.93,2.45,0,1.4-1.14,2.53-2.53,2.53Z"/><circle class="cls-13" cx="60.37" cy="182.53" r="1.33"/><rect class="cls-22" x="152.41" y="239.15" width="31.76" height="14.04" rx="6.67" ry="6.67"/><path class="cls-35" d="M177.76,254.9h-18.93c-4.4,0-7.97-3.92-7.97-8.73s3.58-8.73,7.97-8.73h18.93c4.4,0,7.97,3.92,7.97,8.73s-3.58,8.73-7.97,8.73ZM158.83,240.86c-2.68,0-4.85,2.38-4.85,5.31s2.18,5.31,4.85,5.31h18.93c2.68,0,4.85-2.38,4.85-5.31s-2.18-5.31-4.85-5.31h-18.93Z"/><text class="cls-9" transform="translate(161.99 248.62)"><tspan x="0" y="0">2/2</tspan></text><path class="cls-40" d="M144.73,62.29c-1.13-1.19-1.74-1.2-3-.1-.38.33-.83.6-1.19.95-.84.84-1.45.58-2.21-.2-4.2-4.27-8.46-8.49-12.69-12.73q-2.02-2.02-.09-4.2c1.13-1.28,1.1-1.93-.17-3.09-.86-.79-1.63-.67-2.71.45-2.83,2.94-4.15,6.52-4.06,10.53.06,2.9.5,5.79.77,8.72-1.62-.26-3.36-.59-5.12-.8-3.51-.42-7-.31-10.21,1.34-6.17,3.18-8.89,8.4-8.56,15.23.12,2.41.56,4.8.87,7.31l5.77,5.77c2.89.29,5.62.76,8.36.77,9.44.03,16.17-7.19,15.57-16.6-.16-2.48-.57-4.95-.84-7.23,3.09.25,6.17.69,9.25.69,3.92,0,7.38-1.45,10.16-4.3.92-.94.93-1.66.11-2.52ZM109.57,88.36c-2.68-.38-5.36-.83-8.03-1.31-.3-.05-.72-.36-.79-.62-.8-3.3-1.58-6.61-1.34-10.05.01-.16.07-.32.16-.69,4.21,4.21,8.27,8.27,12.58,12.58-1.03.04-1.83.19-2.58.08ZM120.4,83.15c-1,1.08-2.05,2.12-3.07,3.18-.64.66-1.12.43-1.69-.16-2.32-2.37-4.68-4.7-7.02-7.04-2.34-2.34-4.67-4.7-7.04-7.02-.59-.57-.81-1.06-.16-1.69,1.06-1.03,2.1-2.08,3.18-3.08.6-.56,1.13-.4,1.72.2,4.6,4.65,9.23,9.28,13.88,13.88.6.59.76,1.11.2,1.72ZM122.04,77.75l-11.93-11.93c.02-.1.04-.2.05-.3,1.54.11,3.08.15,4.61.37,1.72.24,3.42.62,5.12,1,.34.08.83.41.88.68.51,3.13.94,6.28,1.38,9.43.03.19-.06.4-.11.75ZM134.69,65.3c-1.61-.1-3.24-.11-4.84-.33-1.72-.23-3.41-.63-5.1-1.02-.34-.08-.82-.41-.89-.7-.81-3.33-1.59-6.68-1.27-10.43,4.17,4.17,8.17,8.17,12.16,12.16-.02.11-.04.21-.05.32Z"/><rect class="cls-40" x="83.83" y="76.24" width="3" height="6.35" transform="translate(-31.24 79.54) rotate(-43)"/><rect class="cls-40" x="87.59" y="76" width="6.35" height="3" transform="translate(10.12 165.48) rotate(-87.99)"/><rect class="cls-40" x="81.71" y="81.87" width="3" height="6.35" transform="translate(-4.69 165.24) rotate(-88)"/><path class="cls-41" d="M113.82,56.58c-14.17,0-26.54,7.66-33.22,19.06l33.44,19.31-33.55,19.37c6.66,11.5,19.08,19.24,33.32,19.24,21.26,0,38.49-17.23,38.49-38.49s-17.23-38.49-38.49-38.49Z"/><path class="cls-40" d="M47.9,120.55c1.13,1.19,1.74,1.2,3,.1.38-.33.83-.6,1.19-.95.84-.84,1.45-.58,2.21.2,4.2,4.27,8.46,8.49,12.69,12.73q2.02,2.02.09,4.2c-1.13,1.28-1.1,1.93.17,3.09.86.79,1.63.67,2.71-.45,2.83-2.94,4.15-6.52,4.06-10.53-.06-2.9-.5-5.79-.77-8.72,1.62.26,3.36.59,5.12.8,3.51.42,7,.31,10.21-1.34,6.17-3.18,8.89-8.4,8.56-15.23-.12-2.41-.56-4.8-.87-7.31l-5.77-5.77c-2.89-.29-5.62-.76-8.36-.77-9.44-.03-16.17,7.19-15.57,16.6.16,2.48.57,4.95.84,7.23-3.09-.25-6.17-.69-9.25-.69-3.92,0-7.38,1.45-10.16,4.3-.92.94-.93,1.66-.11,2.52ZM83.06,94.48c2.68.38,5.36.83,8.03,1.31.3.05.72.36.79.62.8,3.3,1.58,6.61,1.34,10.05-.01.16-.07.32-.16.69-4.21-4.21-8.27-8.27-12.58-12.58,1.03-.04,1.83-.19,2.58-.08ZM72.23,99.69c1-1.08,2.05-2.12,3.07-3.18.64-.66,1.12-.43,1.69.16,2.32,2.37,4.68,4.7,7.02,7.04,2.34,2.34,4.67,4.7,7.04,7.02.59.57.81,1.06.16,1.69-1.06,1.03-2.1,2.08-3.18,3.08-.6.56-1.13.4-1.72-.2-4.6-4.65-9.23-9.28-13.88-13.88-.6-.59-.76-1.11-.2-1.72ZM70.58,105.09l11.93,11.93c-.02.1-.04.2-.05.3-1.54-.11-3.08-.15-4.61-.37-1.72-.24-3.42-.62-5.12-1-.34-.08-.83-.41-.88-.68-.51-3.13-.94-6.28-1.38-9.43-.03-.19.06-.4.11-.75ZM57.94,117.54c1.61.1,3.24.11,4.84.33,1.72.23,3.41.63,5.1,1.02.34.08.82.41.89.7.81,3.33,1.59,6.68,1.27,10.43-4.17-4.17-8.17-8.17-12.16-12.16.02-.11.04-.21.05-.32Z"/><rect class="cls-40" x="104.98" y="97.8" width="3" height="6.35" transform="translate(-40.26 99.74) rotate(-43)"/><rect class="cls-40" x="97.88" y="101.39" width="6.35" height="3" transform="translate(-5.32 200.27) rotate(-87.99)"/><rect class="cls-40" x="107.1" y="92.17" width="3" height="6.35" transform="translate(9.52 200.55) rotate(-88)"/></g></svg>