<?xml version="1.0" encoding="UTF-8"?><svg id="Layer_2" xmlns="http://www.w3.org/2000/svg" viewBox="0 0 199.68 273.17"><defs><style>.cls-1{fill:none;stroke:#231f20;stroke-miterlimit:10;stroke-width:4px;}.cls-2{font-size:14px;}.cls-2,.cls-3,.cls-4,.cls-5,.cls-6{fill:#231f20;}.cls-2,.cls-7{font-family:CreatoDisplay-Bold, 'Creato Display';font-weight:700;}.cls-8{letter-spacing:0em;}.cls-9{letter-spacing:-.03em;}.cls-7{font-size:4px;}.cls-7,.cls-10{fill:#f4eddd;}.cls-11{fill:#e95242;}.cls-12{fill:#3687c8;}.cls-13{letter-spacing:-.02em;}.cls-14{letter-spacing:-.02em;}.cls-15{fill:#fff;}.cls-16{fill:#d94b27;}.cls-17{fill:#2c292a;}.cls-18{letter-spacing:-.04em;}.cls-19{letter-spacing:0em;}.cls-20{letter-spacing:0em;}.cls-21{letter-spacing:-.03em;}.cls-22,.cls-4{font-family:CreatoDisplay-Regular, 'Creato Display';}.cls-23{font-family:CreatoDisplay-Italic, 'Creato Display';font-style:italic;}.cls-24{letter-spacing:-.02em;}.cls-25{letter-spacing:0em;}.cls-26{letter-spacing:0em;}.cls-27{letter-spacing:0em;}.cls-28{letter-spacing:-.03em;}.cls-4,.cls-5{font-size:8px;}.cls-29{letter-spacing:-.02em;}.cls-30{fill:#a686bd;}.cls-31{letter-spacing:-.02em;}.cls-32{letter-spacing:0em;}.cls-33{fill:#a89a2f;}.cls-34{letter-spacing:0em;}.cls-35{letter-spacing:.02em;}.cls-36{fill:#010101;}.cls-37{letter-spacing:-.03em;}.cls-38{letter-spacing:-.03em;}.cls-39{letter-spacing:-.03em;}.cls-40{letter-spacing:-.03em;}.cls-41{letter-spacing:0em;}.cls-6{font-family:CreatoDisplay-Medium, 'Creato Display';font-size:10px;font-weight:500;}.cls-42{letter-spacing:-.02em;}.cls-43{fill:#beb16a;}.cls-44{letter-spacing:0em;}</style></defs><g id="Layer_1-2"><path class="cls-30" d="M12.74,2h174.03c5.93,0,10.74,4.81,10.74,10.74v247.69c0,5.93-4.81,10.74-10.74,10.74H12.74c-5.93,0-10.74-4.81-10.74-10.74V12.74C2,6.81,6.81,2,12.74,2Z"/><path class="cls-3" d="M186.78,4c4.82,0,8.74,3.92,8.74,8.74v247.69c0,4.82-3.92,8.74-8.74,8.74H12.74c-4.82,0-8.74-3.92-8.74-8.74V12.74c0-4.82,3.92-8.74,8.74-8.74h174.03M186.78,0H12.74C5.7,0,0,5.7,0,12.74v247.69c0,7.04,5.7,12.74,12.74,12.74h174.03c7.04,0,12.74-5.7,12.74-12.74V12.74c0-7.04-5.7-12.74-12.74-12.74h0Z"/><path class="cls-11" d="M8.66,271.17c-3.61,0-6.66-4.92-6.66-10.74V12.74C2,6.92,5.05,2,8.66,2h57.16v269.17H8.66Z"/><path class="cls-3" d="M63.82,4v265.17H8.66c-2.2,0-4.66-3.74-4.66-8.74V12.74c0-5,2.46-8.74,4.66-8.74h55.16M67.82,0H8.66C3.88,0,0,5.7,0,12.74v247.69c0,7.04,3.88,12.74,8.66,12.74h59.16V0h0Z"/><path class="cls-12" d="M133.86,271.17V2h57.16c3.61,0,6.66,4.92,6.66,10.74v247.69c0,5.82-3.05,10.74-6.66,10.74h-57.16Z"/><path class="cls-3" d="M191.02,4c2.2,0,4.66,3.74,4.66,8.74v247.69c0,5-2.46,8.74-4.66,8.74h-55.16V4h55.16M191.02,0h-59.16v273.17h59.16c4.78,0,8.66-5.7,8.66-12.74V12.74c0-7.04-3.88-12.74-8.66-12.74h0Z"/><path class="cls-10" d="M24.53,12.26h150.98c5.93,0,10.74,4.81,10.74,10.74v212.33c0,5.93-4.81,10.74-10.74,10.74H24.52c-5.93,0-10.74-4.81-10.74-10.74V23c0-5.93,4.81-10.74,10.74-10.74Z"/><path class="cls-3" d="M175.5,14.26c4.82,0,8.74,3.92,8.74,8.74v212.33c0,4.82-3.92,8.74-8.74,8.74H24.53c-4.82,0-8.74-3.92-8.74-8.74V23c0-4.82,3.92-8.74,8.74-8.74h150.98M175.5,10.26H24.53c-7.04,0-12.74,5.7-12.74,12.74v212.33c0,7.04,5.7,12.74,12.74,12.74h150.98c7.04,0,12.74-5.7,12.74-12.74V23c0-7.04-5.7-12.74-12.74-12.74h0Z"/><line class="cls-1" x1="14.16" y1="35.9" x2="185.13" y2="35.9"/><line class="cls-1" x1="14.16" y1="150.64" x2="185.13" y2="150.64"/><line class="cls-1" x1="14.16" y1="168.44" x2="185.13" y2="168.44"/><text class="cls-2" transform="translate(20.3 29.45)"><tspan x="0" y="0">Uni</tspan><tspan class="cls-39" x="20.64" y="0">v</tspan><tspan x="27.94" y="0">e</tspan><tspan class="cls-44" x="35.88" y="0">r</tspan><tspan class="cls-25" x="41.19" y="0">sity </tspan><tspan class="cls-31" x="67.87" y="0">o</tspan><tspan x="75.74" y="0">f N</tspan><tspan class="cls-13" x="94.23" y="0">S</tspan><tspan x="102.88" y="0">W</tspan></text><text class="cls-6" transform="translate(20.57 162.93)"><tspan class="cls-26" x="0" y="0">L</tspan><tspan x="5.42" y="0">and- Uni</tspan><tspan class="cls-37" x="42.44" y="0">v</tspan><tspan x="47.54" y="0">e</tspan><tspan class="cls-41" x="53.12" y="0">r</tspan><tspan x="56.76" y="0">sity</tspan></text><text class="cls-7" transform="translate(21.08 254.97)"><tspan x="0" y="0">17</tspan><tspan class="cls-35" x="0" y="4.8">T</tspan><tspan x="2.48" y="4.8">TM - EN</tspan></text><path class="cls-10" d="M43.03,253.55c0-.87.51-1.46,1.41-1.46.78,0,1.31.46,1.31,1.08h-.52c-.05-.36-.3-.64-.8-.64-.57,0-.87.36-.87,1.02s.29,1.02.87,1.02c.49,0,.75-.26.8-.66h.52c0,.63-.52,1.1-1.31,1.1-.9,0-1.41-.6-1.41-1.46Z"/><path class="cls-10" d="M49.03,258.85h.53c.04.38.21.55.66.55s.62-.18.62-.45c0-.2-.11-.32-.54-.39l-.36-.05c-.6-.08-.83-.29-.83-.76,0-.51.37-.88,1.1-.88s1.1.36,1.1.92h-.52c-.04-.34-.22-.51-.6-.51s-.55.18-.55.44c0,.2.09.3.47.35l.37.05c.58.08.9.3.9.8,0,.53-.38.89-1.18.89s-1.17-.35-1.17-.96Z"/><path class="cls-10" d="M51.71,260.18h.21c.24,0,.38-.12.38-.31,0-.06-.01-.13-.04-.2l-.73-1.97h.54l.54,1.66.54-1.66h.54l-.74,1.97c-.25.67-.52.88-1.02.88h-.2v-.37Z"/><path class="cls-10" d="M53.69,258.74c0-.64.36-1.07,1.02-1.07s1.03.44,1.03,1.05c0,.04,0,.08,0,.13h-1.53c.02.42.21.61.53.61.26,0,.42-.13.48-.34h.48c-.09.42-.4.69-.96.69-.67,0-1.05-.42-1.05-1.07ZM54.2,258.51h1.02c-.04-.33-.23-.49-.51-.49s-.46.16-.51.49Z"/><path class="cls-10" d="M55.96,258.74c0-.68.35-1.07.91-1.07.31,0,.52.13.64.35v-1.1h.52v2.85h-.49v-.35c-.11.24-.32.39-.66.39-.55,0-.91-.4-.91-1.07ZM57.5,258.74c0-.47-.21-.68-.52-.68s-.51.21-.51.68.21.68.51.68.52-.21.52-.68Z"/><path class="cls-10" d="M60.13,259.77v-2.4h-.87v-.44h2.28v.44h-.87v2.4h-.54Z"/><path class="cls-10" d="M61.41,259.18c0-.32.19-.57.71-.61l.42-.04c.21-.02.27-.08.27-.18,0-.2-.12-.32-.38-.32-.24,0-.37.1-.39.32h-.51c0-.42.26-.69.9-.69s.9.27.9.69v.88c0,.28.03.46.06.53h-.47c-.06-.08-.09-.16-.09-.32-.12.24-.32.36-.68.36-.48,0-.74-.24-.74-.62ZM62.81,258.91v-.14s-.13.07-.27.08l-.24.02c-.26.02-.36.13-.36.28,0,.18.12.31.38.31.32,0,.5-.24.5-.54Z"/><path class="cls-10" d="M63.66,257.13c0-.15.11-.27.3-.27s.3.12.3.27-.1.27-.3.27-.3-.12-.3-.27ZM63.7,259.77v-2.06h.52v2.06h-.52Z"/><path class="cls-10" d="M66.94,259.77v-1.28c0-.28-.09-.4-.29-.4-.21,0-.39.18-.39.52v1.17h-.5v-1.28c0-.28-.09-.4-.29-.4-.21,0-.39.18-.39.52v1.17h-.5v-2.06h.49v.34c.1-.22.28-.38.56-.38.3,0,.49.13.57.39.1-.24.31-.39.59-.39.42,0,.63.24.63.74v1.36h-.49Z"/><path class="cls-10" d="M67.73,258.74c0-.65.38-1.07,1.05-1.07s1.05.42,1.05,1.07-.38,1.07-1.05,1.07-1.05-.42-1.05-1.07ZM69.32,258.74c0-.46-.19-.68-.54-.68s-.53.22-.53.68.19.68.53.68.54-.22.54-.68Z"/><path class="cls-10" d="M70.05,258.74c0-.65.38-1.07,1.05-1.07s1.05.42,1.05,1.07-.38,1.07-1.05,1.07-1.05-.42-1.05-1.07ZM71.63,258.74c0-.46-.19-.68-.54-.68s-.53.22-.53.68.19.68.53.68.54-.22.54-.68Z"/><path class="cls-10" d="M72.45,259.77v-2.06h.49v.46c.11-.36.29-.49.58-.49.06,0,.14.02.19.03v.45h-.21c-.32,0-.53.23-.53.65v.96h-.52Z"/><path class="cls-10" d="M77.63,259.77v-2.35l-.82,2.35h-.46l-.83-2.35v2.35h-.52v-2.85h.85l.72,2.03.72-2.03h.86v2.85h-.52Z"/><path class="cls-10" d="M78.48,259.18c0-.32.19-.57.71-.61l.42-.04c.21-.02.27-.08.27-.18,0-.2-.12-.32-.38-.32-.24,0-.37.1-.39.32h-.51c0-.42.26-.69.9-.69s.9.27.9.69v.88c0,.28.02.46.06.53h-.47c-.06-.08-.09-.16-.09-.32-.12.24-.32.36-.68.36-.48,0-.74-.24-.74-.62ZM79.87,258.91v-.14s-.13.07-.27.08l-.24.02c-.26.02-.36.13-.36.28,0,.18.12.31.38.31.32,0,.5-.24.5-.54Z"/><path class="cls-10" d="M82.08,259.77v-1.26c0-.28-.1-.42-.35-.42-.27,0-.45.2-.45.53v1.15h-.52v-2.06h.49v.34c.11-.22.29-.38.63-.38.47,0,.71.24.71.74v1.36h-.52Z"/><path class="cls-10" d="M82.9,259.12h.5c.03.22.12.35.45.35s.41-.13.41-.28c0-.14-.11-.21-.29-.24l-.36-.05c-.48-.07-.66-.23-.66-.58s.25-.65.88-.65.88.28.88.66h-.5c-.02-.17-.08-.32-.39-.32-.26,0-.36.11-.36.27,0,.14.08.2.23.22l.35.05c.46.06.72.22.72.61,0,.37-.27.65-.94.65s-.93-.28-.93-.69Z"/><path class="cls-10" d="M84.99,258.74c0-.65.38-1.07,1.05-1.07s1.05.42,1.05,1.07-.38,1.07-1.05,1.07-1.05-.42-1.05-1.07ZM86.57,258.74c0-.46-.19-.68-.54-.68s-.53.22-.53.68.19.68.53.68.54-.22.54-.68Z"/><path class="cls-10" d="M87.3,258.74c0-.65.38-1.07,1.05-1.07s1.05.42,1.05,1.07-.38,1.07-1.05,1.07-1.05-.42-1.05-1.07ZM88.89,258.74c0-.46-.19-.68-.54-.68s-.53.22-.53.68.19.68.53.68.54-.22.54-.68Z"/><path class="cls-10" d="M89.7,259.77v-2.06h.49v.46c.11-.36.29-.49.58-.49.06,0,.14.02.19.03v.45h-.21c-.32,0-.53.23-.53.65v.96h-.52Z"/><path class="cls-10" d="M45.65,256.62c-1.55,0-1.81,1.29-1.81,1.29v-1.12h-.99v.2l.07,2.8h.89l.07-1.15s.33,1.22,1.68,1.15c1.35-.07,2.28-1.46,2.28-1.46,0,0-.63-1.71-2.18-1.71ZM45.95,257.87c-1.27-.02-1.43-.34-1.43-.34,0,0,1.43-1.72,3.15.77,0,0-.45-.42-1.72-.43Z"/><text class="cls-4" transform="translate(30.41 183.83)"><tspan x="0" y="0">, </tspan><tspan class="cls-29" x="3.51" y="0">A</tspan><tspan x="8.86" y="0" xml:space="preserve">dd      or      or      </tspan><tspan class="cls-40" x="68.58" y="0">t</tspan><tspan class="cls-8" x="71" y="0">o </tspan><tspan class="cls-21" x="77.49" y="0">y</tspan><tspan x="81.47" y="0">our mana pool.</tspan></text><path class="cls-36" d="M25.65,183.85c-1.35,0-2.45-1.1-2.45-2.45s1.1-2.45,2.45-2.45,2.45,1.1,2.45,2.45-1.1,2.45-2.45,2.45Z"/><path class="cls-3" d="M25.65,180.95c.25,0,.45.2.45.45s-.2.45-.45.45-.45-.2-.45-.45.2-.45.45-.45M25.65,176.95c-2.46,0-4.45,1.99-4.45,4.45s1.99,4.45,4.45,4.45,4.45-1.99,4.45-4.45-1.99-4.45-4.45-4.45h0Z"/><path class="cls-10" d="M28.59,181.57l-.2-2.55-.93.74c-.31-.36-.86-.96-1.4-1.26-2.31-.7-3.59,2.01-3.17,3.78.24.79,1.95,2.51,1.94,2.49l.79-.76c-.07,0-1.26-1.03-1.57-1.67-.3-.64-.47-1.8.64-2.75.94-.79,1.87.21,2.25.57l-.94.74,2.58.67Z"/><path class="cls-36" d="M54.91,183.78c-1.35,0-2.45-1.1-2.45-2.45s1.1-2.45,2.45-2.45,2.45,1.1,2.45,2.45-1.1,2.45-2.45,2.45Z"/><path class="cls-3" d="M54.91,180.88c.25,0,.45.2.45.45s-.2.45-.45.45-.45-.2-.45-.45.2-.45.45-.45M54.91,176.88c-2.46,0-4.45,1.99-4.45,4.45s1.99,4.45,4.45,4.45,4.45-1.99,4.45-4.45-1.99-4.45-4.45-4.45h0Z"/><path class="cls-36" d="M73.82,183.78c-1.35,0-2.45-1.1-2.45-2.45s1.1-2.45,2.45-2.45,2.45,1.1,2.45,2.45-1.1,2.45-2.45,2.45Z"/><path class="cls-3" d="M73.82,180.88c.25,0,.45.2.45.45s-.2.45-.45.45-.45-.2-.45-.45.2-.45.45-.45M73.82,176.88c-2.46,0-4.45,1.99-4.45,4.45s1.99,4.45,4.45,4.45,4.45-1.99,4.45-4.45-1.99-4.45-4.45-4.45h0Z"/><path class="cls-36" d="M92.83,183.78c-1.35,0-2.45-1.1-2.45-2.45s1.1-2.45,2.45-2.45,2.45,1.1,2.45,2.45-1.1,2.45-2.45,2.45Z"/><path class="cls-3" d="M92.83,180.88c.25,0,.45.2.45.45s-.2.45-.45.45-.45-.2-.45-.45.2-.45.45-.45M92.83,176.88c-2.46,0-4.45,1.99-4.45,4.45s1.99,4.45,4.45,4.45,4.45-1.99,4.45-4.45-1.99-4.45-4.45-4.45h0Z"/><path class="cls-12" d="M93.46,178.39c-.11-.27-.36-.46-.67-.46s-.57.2-.67.47c-1.39.32-2.43,1.56-2.43,3.04,0,1.72,1.4,3.12,3.12,3.12s3.12-1.4,3.12-3.12c0-1.5-1.07-2.76-2.48-3.05ZM92.82,183.98c-1.4,0-2.53-1.14-2.53-2.53,0-1.17.81-2.16,1.89-2.44.12.22.35.37.62.37s.5-.16.62-.38c1.11.27,1.93,1.26,1.93,2.45,0,1.4-1.14,2.53-2.53,2.53Z"/><circle class="cls-12" cx="92.83" cy="181.33" r="1.33"/><path class="cls-11" d="M57.22,181.29c0-1.16-.86-2.11-1.98-2.28v-.31h.93v-.67h-2.61v.67h1.01v.31c-1.12.16-1.98,1.12-1.98,2.28s.86,2.11,1.98,2.28v.33h-1.01v.67h2.61v-.67h-.93v-.33c1.12-.16,1.98-1.12,1.98-2.28ZM56.55,181.29c0,.79-.56,1.45-1.31,1.61v-3.22c.75.16,1.31.82,1.31,1.61ZM53.26,181.29c0-.79.56-1.45,1.31-1.61v3.22c-.75-.16-1.31-.82-1.31-1.61Z"/><text class="cls-5" transform="translate(20.58 203.12)"><tspan class="cls-22"><tspan x="0" y="0">On </tspan><tspan class="cls-21" x="12.17" y="0">y</tspan><tspan class="cls-8" x="16.15" y="0">our sixth </tspan><tspan class="cls-21" x="48.06" y="0">y</tspan><tspan x="52.05" y="0">ear </tspan><tspan class="cls-14" x="65.47" y="0">o</tspan><tspan class="cls-27" x="69.78" y="0">f tapping this </tspan><tspan class="cls-20" x="117.02" y="0">L</tspan><tspan class="cls-27" x="121.25" y="0">and, c</tspan><tspan class="cls-28" x="141.96" y="0">r</tspan><tspan x="144.56" y="0">e</tspan><tspan class="cls-32" x="148.95" y="0">a</tspan><tspan class="cls-40" x="153.1" y="0">t</tspan><tspan x="155.51" y="0">e </tspan></tspan><tspan class="cls-22"><tspan x="0" y="9.6">an arti</tspan><tspan class="cls-42" x="21.64" y="9.6">f</tspan><tspan x="24.08" y="9.6">act </tspan><tspan class="cls-40" x="37.13" y="9.6">t</tspan><tspan class="cls-8" x="39.54" y="9.6">o</tspan><tspan class="cls-18" x="44.03" y="9.6">k</tspan><tspan x="47.92" y="9.6">en called “Piece </tspan><tspan class="cls-14" x="105.33" y="9.6">o</tspan><tspan class="cls-27" x="109.63" y="9.6">f </tspan><tspan class="cls-9" x="114.23" y="9.6">P</tspan><tspan x="119.02" y="9.6">aper”.</tspan></tspan><tspan class="cls-23"><tspan x="0" y="28.8">I’m som</tspan><tspan class="cls-32" x="26.02" y="28.8">e</tspan><tspan x="30.34" y="28.8">thing </tspan><tspan class="cls-14" x="49.51" y="28.8">o</tspan><tspan class="cls-27" x="53.82" y="28.8">f a bnoc </tspan><tspan class="cls-24" x="84.1" y="28.8">m</tspan><tspan class="cls-38" x="90.13" y="28.8">y</tspan><tspan class="cls-8" x="94.13" y="28.8">self</tspan></tspan></text><path class="cls-36" d="M178.36,155.7c-2.17-2.18-5.69-2.2-7.88-.03-2.18,2.17-2.2,5.69-.03,7.88,2.17,2.18,5.69,2.2,7.88.03,2.18-2.17,2.2-5.69.03-7.88ZM173.73,157.08c.86-.85,1.73-1.36,1.96-1.13.23.23-.28,1.1-1.14,1.95-.86.85-1.73,1.36-1.96,1.13s.28-1.1,1.14-1.95ZM174.58,164.06c-1.19,0-2.51-.33-3.41-1.23-.87-.88-1.21-2.17-1.21-3.41,0-1.24.49-2.39,1.37-3.26l.84.84c-.81.8-1.25,1.86-1.26,3,0,.79.39,1.83.83,2.26.39.33,1.14.87,2.28.88,0,0,0,0,0,0,1.13,0,2.2-.43,3-1.23l.82.82c-.9.9-2.08,1.34-3.27,1.34ZM176.94,160.3c-.85.84-1.71,1.34-1.94,1.12-.22-.23.28-1.09,1.13-1.93.85-.84,1.71-1.34,1.94-1.12.22.23-.28,1.09-1.13,1.93Z"/><text class="cls-7" transform="translate(152.99 258.09) scale(.58)"><tspan x="0" y="0" xml:space="preserve">TM  </tspan></text><text class="cls-7" transform="translate(157.64 259.42)"><tspan class="cls-34" x="0" y="0">&amp; © Ti</tspan><tspan class="cls-19" x="11.33" y="0">m</tspan><tspan x="14.51" y="0">taim</tspan></text><path class="cls-30" d="M71.32,183.86c.61,0,1.21-.53,1.21-.53l-1.01-1.89-1.22,1.85s.41.57,1.03.57Z"/><path class="cls-30" d="M76.44,178.6h0s-.24-.41-.24-.41l-2.06,1.19v-.98h-.57v1.31l-2.29,1.32.24.41,2.06-1.19v3.82h.57v-4.15l2.29-1.32-1.22,1.84s.41.57,1.03.57,1.21-.53,1.21-.53l-1.01-1.89Z"/><path class="cls-17" d="M129.7,45.58v61.11c-.3,2.63-1.83,4.47-4.13,5.56l-25.75,12.19-26.17-12.52c-2.18-1.04-3.46-3.05-3.67-5.46l-.05-44.11-.14-16.78h59.91ZM91.88,49.47l.25.28c-.7.1-1.37.07-2.26.02v7.91c3.89,1.22,5.34-3.5,9.95.24,4.68-3.67,5.72.75,9.95-.16l.04-8.02c-1.15.14-2.07.13-2.95-.21v-.27c.95.16,2.03.41,2.94.1.13-.04-.03-.68-.11-.59-.61.71-2.85-.17-3.73-.58-2.07-.98-4.31-.85-6.18.58-4.58-3.28-6.91,1.14-9.75.08-.19-.07-.23.69.07.66.68-.07,1.28.09,1.77-.04ZM111.61,57.35c.3-.58,1.15-.57,1.36-1.14-.83-.32-1.46-.74-1.51-1.44-.15-1.79,1.92-1.73,1.41-2.07-.08-.05-.17-.27-.26-.29-2.13-.61-.49-2.78-1.44-2.8-.29,0-.67-.04-.68.38l-.07,8.47h-21.23s-.05-8.94-.05-8.94c-2.16-.12.35,2.24-2.03,2.89-.15.04-.36.3-.32.4.18.5,1.46.19,1.47,1.73,0,1.66-1.83,1.3-1.44,1.92.22.35,1.28.48,1.31.93l.15,2.11h23.17c.27-.67-.2-1.44.16-2.14ZM71.35,80.96v25.18c0,2.07,1.27,3.8,3.17,4.69l14.2,6.67,3.74,1.92c1.4.72,2.77,1.24,4.21,1.96,3.24,1.61,2.54,1.85,5.9.24l4-1.92c1.47-.71,2.86-1.47,4.41-2.19l14.2-6.62c2.02-.94,3.19-2.93,3.15-5.13-.03-1.83.11-3.52-.08-5.41,0-.03-.03-.11-.03-.25.09.03.25-.08.25-.27v-19.09c0-.19-.05-.33-.18-.29l.06-18.16-17.39.03-22.22-.02-17.42-.03.02,18.68Z"/><path class="cls-17" d="M129.91,125.29c0,1.05-.55,1.74-1.37,2.1l-16.49,7.31-.08,3.76c-7.84,2.85-16.36,2.87-24.25,0l-.18-3.8-16.36-7.23c-.87-.38-1.39-1.06-1.39-2.01v-10.11c0-.57.66-1.76,1.53-1.36l22.37,10.29.02,5.81c3.97.82,8.07.77,12.16.07l.09-5.85,21.59-9.99c.57-.26,1.03-.46,1.61-.19.34.16.74.66.74,1.27l.02,9.95ZM87.87,128.65c1.33-1.67,3.13-2.78,4.48-4.17l-19.87-9.17c-.56-.26-1.32-.79-1.89-.36l-.07,10.44c0,.47.36,1.02.81,1.22l16.16,7.12c.5-1.82-.37-3.59.39-5.07ZM128.28,126.64c.54-.24.85-.84.85-1.29l-.11-10.29c0-.63-1.14-.08-1.47.06l-20.21,9.35,4.59,4.2.11,5.14,16.23-7.17ZM92.9,129.83c.07-1.77.13-2.98-.05-4.59-1.48,1.07-2.67,2.23-4.05,3.53,1.46.54,2.6.88,4.1,1.05ZM110.85,128.75l-4.1-3.6c-.08,1.7-.12,3.15.02,4.74,1.48-.3,2.72-.45,4.07-1.14ZM111.29,137.87v-8.33c-7.51,2.48-15.33,2.45-22.86,0v8.35c7.5,2.55,15.35,2.56,22.86-.02Z"/><path class="cls-16" d="M110.96,62.33l-.05,18.58,17.32.03v19.15c0,.14.03.21.03.25l-16.92-.08c.36-.29.41-.79.49-1.28.57.11.37.69.49,1.15,1.84-.56-.34-.31,2.41-1.37-.16.06,1.06-2.46,1.1-2.51l.44-.57c.12-.15-.27-.43-.34-.71-.18-.72.13-1.52-.42-2.08-.57.18-1.22.79-1.68.48-1.85-1.25-1.29.12-2.64-.08-.81-.12-.59-1.61-1.21-2.21-.47-.45-1.07-.65-1.36-1.25.81-.26,1.6-.05,2.37-.12,1.65-.15,2.66-1.26,2.75-2.83.05-.83,1.42-.12,1.16-3.24-.55.31-.77.53-1.03.55-.43.04-.36-.7-.6-.82-.69-.33-1.44-.28-1.76-1.21-.28.35-.24.61-.4.73-.23.17-.61-.32-.82-.23-.6.27-1.2.65-1.66.07-.07-.64.69-.81.74-1.61-.78.12-1.3.14-1.87-.26-.32-.06-.8.36-1.05.55-1.5.13-1.6-1.14-2.77-1.42-.42.51-1,.67-1.72.89.36.42,1.18.22,1.16.78-.02.68-1.94,1.51-2,1.49-.83-.22.19-1.87-.52-2.03-.61-.14-1.18-.34-1.75-.51-.61-.18-1.35.39-2,.07-.54-.26-.96-.76-1.59-.69-.46.05-.92.44-1.38.71-.25-.01-.5,0-.75.04-.15.02-.3,0-.45,0-.36-.12-.33.25,0,.23.09.36-.55.52-.61.83l-.98,5.04c-1.09-1.16-1.08-2.79-.59-4.24-.04-.51-.97-1.22-1.51-1.19-.41.03-.4.8-.76.8l-2.02-.02c.08.52.64.49.87,1.06-.37.27-.63-.13-1.03-.13-.11.62-.15,1.13.33,1.47.33.24.74.47,1.36.57-.19.19-.49.31-.5.56-.02.32.36.52.79.7.05.42-.4.54-.55.83-1.16.14.31,1.35-.51,2.4,1.57.17,0,1.89,1.53,2.18-.38.59-.92.43-.62.7.8.71,1.34-.63,3.14,1.04-.26.49-.28,1.11-.39,1.74-.16.83-.9.88-1.52.96-.76.1-.91-.58-1.49-.97-.66-.45-2.25-.08-2.3.67.19.32,1.42.49.87,1.02-.26.25-.76.24-.96.45-.21.22-.34.86-.03.88.58-.04,1.12-.39,1.43.23-.28.54-.85.57-1.15,1.01,1.15.77,2.58.34,3.38-.45.17.32.24.65.47.63.86-.07.93-2.09,1.52-1.86,1.29.5,1.9.2,2.9-.37,1.33-.76,2.51-1.71,3.1-3.05.85-.9,2.34-.75,3.37-1.34.03,1.25.76,1.67,1.81,1.69.61,0,1.38-.3,1.88.41-.77,1.14-2.46.75-3.38-.1-.97-.9-2.36-1.45-3.44-.52-.1.11.08.67.21.7l.53.11c.29.12.27.44-.08.38-.59-.1-1.45.31-1.1,1.02.11.23,1.04-.04,1.08.35-.04.42-.29.88-.62,1.39l2.36.26c.19.02.36-.33.52-.39-.32.11,2.04.67,2.03.67.68.12,1.4.15,1.88-.35.16.35.4.29.64.13s.49-.22.69-.43c.07,0,.14.04.22.04.5,0,1,.21,1.59.03-.17-.41-.41-.71-.37-1.03.08-.71,1.16-.76.91-1.65-.13-.48-1.65-1.04-.77-1.81,2.73,2.39,3.29.52,4.84,1.54.36.24.25.74,0,1.03-.16.18-.44.31-.78.25-.1-.19-.04-.64-.31-.76.11.05-2.89-.32-2.65.96.36.21,1.13.08,1.15.65-.65.33-1.5,1.11-1.08,1.81.42.12,1.05-.5,1.65-.09-.25.22-.77.75-.45,1.05.6.3,1.29-.11,1.84-.18v17.19c-1.53.72-2.93,1.48-4.4,2.19l-4,1.92c-3.36,1.61-2.66,1.37-5.9-.24-1.45-.72-2.81-1.24-4.21-1.96l-3.74-1.92.03-17.15-17.4-.02v-19.37l17.4-.02v-18.63s22.22.02,22.22.02ZM99.83,73.04c.43-.51.39-1.08.86-1.47.57.13.93.5,1.51.46l-.46-1.55,1.72-.71c-.66-.36-1.28-.37-1.76-.79.12-.58.48-.89.52-1.54-.62.05-.97.41-1.53.52-.42-.39-.47-.96-.82-1.46-.47.36-.42,1.01-.83,1.48l-1.54-.55.44,1.61-1.66.72,1.64.69c.05.51-.33.84-.47,1.53.59.12.97-.31,1.57-.41l.82,1.47ZM77.48,93.92l.85-1.47c.58.11.95.48,1.52.46l-.47-1.55,1.72-.72c-.66-.36-1.27-.37-1.75-.78.14-.58.5-.9.52-1.55-.66.07-1.03.51-1.63.49-.34-.51-.39-1.04-.75-1.44l-.8,1.49-1.54-.54.45,1.62-1.66.72,1.69.71c0,.5-.4.83-.5,1.53.57.11.95-.33,1.56-.42l.81,1.47ZM122.27,93.92c.49-.48.44-1.46.86-1.37l1.58.34c-.07-.63-.81-1.33-.38-1.54l1.44-.71c-.6-.39-1.16-.34-1.59-.8.09-.59.46-.95.48-1.52l-1.6.49c-.39-.46-.43-.99-.74-1.5-.48.4-.35,1.16-.85,1.41-.46.24-.94-.43-1.59-.42.02.57.41.94.51,1.53-.39.44-.97.38-1.56.79.47.42,1.12.34,1.57.85-.13.58-.49.94-.56,1.52l1.66-.52.74,1.45ZM99.79,113.54c.35-.47.37-1.08.84-1.5.62.11.98.49,1.57.47l-.51-1.54,1.5-.74-1.53-.8c.1-.59.56-.95.41-1.52l-1.54.52c-.33-.55-.37-1.09-.78-1.49-.36.31-.29,1.1-.75,1.29-.61.26-1.15-.33-1.71-.52.12.65.51,1.06.57,1.77l-1.51.76c.33.39,1.1.23,1.39.72s-.38,1.04-.41,1.61l1.67-.52.79,1.49Z"/><polygon class="cls-15" points="88.74 62.31 88.74 80.94 71.35 80.96 71.33 62.28 88.74 62.31"/><polygon class="cls-15" points="128.29 80.45 128.22 80.95 110.91 80.91 110.96 62.33 128.35 62.3 128.29 80.45"/><path class="cls-15" d="M88.72,117.5l-14.2-6.67c-1.9-.89-3.17-2.62-3.17-4.69v-5.81s17.4.02,17.4.02l-.03,17.15Z"/><path class="cls-15" d="M128.25,100.35c.19,1.89.05,3.59.08,5.41.04,2.2-1.13,4.19-3.15,5.13l-14.2,6.62v-17.19c.1-.01.23-.06.34-.06l16.92.08Z"/><path class="cls-15" d="M102.93,48.53h.49c.33,0,.65.02.98.03h.25c.63.51,1.47.69,2.21.98.88.34,1.8.35,2.95.21l-.04,8.02c-4.23.91-5.27-3.5-9.95.16-4.61-3.75-6.06.98-9.95-.24v-7.91c.89.05,1.57.09,2.26-.02,1.95-.29,3.71-2.76,7.75.05,1-.71,1.99-1.28,3.05-1.28ZM92.35,52.6c.23-.41.51-.19.8-.41-.22-.5-.68-.51-1.1-.4-.33.09-.53.54-.33.95.12.25.49.33.92.5-.04.46-.73.18-.96.34-.1.49.58.64,1.01.53.3-.08.57-.35.54-.78-.03-.38-.41-.49-.88-.75ZM94.37,53.06c-.12-.83.92-.72,1.45-.73-.16-.81-1.17-.63-1.6-.3-.55.43-.54,1.31-.1,1.76s1.39.65,1.77-.16c-.48-.17-1.41.14-1.52-.58ZM96.77,54.35c.46-1.06.41-1.87.02-2.83-.42.96-.39,1.89-.02,2.83ZM98.61,53.22c.33-.14.48-.12.55-.2.14-.15.11-.37-.27-.3-.68-.03-.55-.64.29-.54.12-.59-.66-.43-1.05-.37-.48.07-.47,2.24.01,2.28.39.04,1.11.18,1.05-.33-.02-.16-.46-.06-.57-.08-.12-.02-.34-.33-.01-.47ZM101.85,54.23c.24-.93.29-1.73-.05-2.55-.6.44-.14.94-.47,1.3-.46-.52-.44-1.1-1.16-1.24-.19.82-.23,1.6.01,2.42.53-.28.3-.73.46-1.14.45.3.36.92,1.21,1.21ZM103.71,53.6c-.23-.84.05-1.29.48-1.69-.62-.2-1.12-.24-1.66.06.81.27.7.99.62,1.81-.02.62.63.54.55-.18ZM105.12,54.35c.46-1.06.41-1.87.02-2.83-.42.96-.39,1.89-.02,2.83ZM108.03,54.12c-.21-.9-.32-1.85-1.11-2.45-.52.86-.82,1.61-.9,2.46.5-.1.66-.4.96-.43.33-.03.41.32,1.04.42Z"/><path class="cls-33" d="M111.61,57.35c-.36.7.1,1.47-.16,2.13h-23.17s-.15-2.1-.15-2.1c-.03-.44-1.09-.57-1.31-.93-.39-.62,1.45-.25,1.44-1.92,0-1.54-1.29-1.23-1.47-1.73-.04-.11.18-.36.32-.4,2.38-.65-.13-3.01,2.03-2.89l.05,8.93h21.23s.07-8.46.07-8.46c0-.42.39-.39.68-.38.95.02-.68,2.19,1.44,2.8.09.03.18.24.26.29.51.34-1.56.28-1.41,2.07.06.7.68,1.11,1.51,1.44-.21.57-1.06.55-1.36,1.14Z"/><path class="cls-16" d="M106.86,49.27c.06-.14-2.35-1.34-2.21-.7h-.25c.07-.37-.01-.54-.36-.55-.42,0-.74.02-.62.51h-.49c0-.09.05-.32-.06-.5-1.16.07-2.06.7-3.08,1.35-3.15-2.73-6.26-.35-7.91.09-.49.13-1.09-.03-1.77.04-.31.03-.27-.73-.07-.66,2.84,1.06,5.17-3.36,9.75-.08,1.87-1.43,4.12-1.56,6.18-.58.88.42,3.12,1.3,3.73.58.08-.09.24.55.11.59-.91.31-1.99.07-2.94-.1Z"/><path class="cls-17" d="M128.22,100.1v-19.15l.07-.49c.13-.04.18.1.18.29v19.09c0,.19-.16.3-.25.27Z"/><path class="cls-17" d="M102.93,48.53c-1.06,0-2.05.57-3.05,1.28-4.04-2.81-5.8-.34-7.75-.05l-.25-.28c1.65-.44,4.76-2.82,7.91-.09,1.02-.65,1.92-1.28,3.08-1.35.1.17.06.41.06.5Z"/><path class="cls-17" d="M106.86,49.27v.27c-.74-.29-1.58-.47-2.21-.96-.14-.64,2.27.56,2.21.7Z"/><path class="cls-15" d="M87.87,128.65c-.76,1.48.12,3.25-.39,5.07l-16.16-7.12c-.45-.2-.81-.75-.81-1.22l.07-10.44c.57-.43,1.33.1,1.89.36l19.87,9.17c-1.36,1.39-3.16,2.49-4.48,4.17ZM73.25,121.21c.3-.47.65-.7,1.04-.64.59.09.71,1.12.96.85.06-.06.27-.29.18-.48-.41-.82-1.46-.96-2.1-.68-.84.37-1.17,1.24-.95,2s.94,1.3,1.79,1.18c.24-.03.38-.24.39-.38.07-.6-1,.27-1.45-.45-.21-.34-.17-.92.14-1.41ZM76.03,121.62c-.91.41-1.17,1.53-.82,2.24.44.91,1.52,1.09,2.18.79.98-.45,1.2-1.54.87-2.29-.37-.83-1.4-1.12-2.23-.75ZM79.79,125.52c.09.66.06,1.15.75,1.06-.45-1.06.28-1.68.61-2.54.27-.69-1.36-1.58-1.84-1.26-.45.84-.77,1.95-1.37,2.62.22.24.64.5.81.45.19-.06.26-1.07.5-1.14.18-.05.45.11.47.27l.07.53ZM81.94,126.77c-.17-.62.55-1.14.56-1.65.34-.35.65,0,1.22-.27-.45-.51-.97-.68-1.52-.82-.35,1.05-.69,1.96-1.41,2.79.54.38.99.59,1.57.72.88.2,1.64-.23,1.91-1,.22-.64.16-1.51-.76-1.81.21.94.27,1.39-.08,1.91-.28.42-1.28.86-1.49.12ZM86.06,127.31c-.31-.21-.52-.29-.48-.48.06-.27.27-.72.54-.56.76.42.46.82.78.84s.41-.68.3-.74c-.61-.37-1.21-.63-1.95-.86-.3,1.13-.75,1.96-1.36,2.83.76.38,1.4.96,2.12.85.25-.04.4-.46.32-.63s-1.02.31-1.31-.13c-.17-.26-.04-.61.12-.73.44-.33,1.79.35.91-.39Z"/><path class="cls-15" d="M111.29,137.87c-7.51,2.58-15.36,2.57-22.85.02v-8.35c7.52,2.45,15.34,2.48,22.84,0v8.33ZM92.16,136.41c0,.26.92.4.91.15-.07-1.17.15-2.09.55-2.99-.73-.41-1.22-.03-1.54.61-.12.25-.36.45-.57.29-.13-.09-.17-.94-.4-1.3-.11-.17-.81-.36-.85-.13-.38,2.58-1.16,3.41.12,3.07.07-.59-.18-1.19.24-1.67.43.49.19,1.06.71,1.42.49-.34.56-.83,1.01-1.09.35.53-.18,1.01-.18,1.62ZM108.37,133.58c.42.99.47,1.79.49,2.7.26.07.73.03.94-.2-.22-.88-.79-1.81-.42-2.62.44.16.73.3.81.06.42-1.35-2.9,0-3.78.18-.48.1-1.01-.32-1.47.1.4.97.44,1.98.45,3.05.78-.06,1.62.02,2.2-.39.2-.14.08-.7-.1-.75-.2-.06-.68.95-1.26.54-.15-.11-.18-.39-.2-.67-.01-.21.24-.33.61-.38.4-.08.46-.37.01-.38-.37,0-.7.03-.78-.21-.52-1.59,1.75.44,2.49-1.03ZM96.7,136.99l-1.15-3.43c-.43.14-2.03,3.11-2.01,3.13.09.06.5.28.61.11.33-.49.29-.92.82-.9,1.42.06.01,1.44,1.73,1.09ZM99.83,137.31c.12-1.25.36-2.3.04-3.33-.73.58.03,1.19-.44,1.81-.78-.49-1.08-2.43-2.15-1.79.31,1.02.15,2.15-.16,3.02.36.14.68.17.93-.05-.24-.58-.47-1.1-.04-1.7.82.68.73,1.58,1.81,2.04ZM100.21,134.04c1.31.4-.1,2.99,1.63,3.11.67.05,1.47-.09,1.56-.95.08-.78-.09-1.48.2-2.3-.2-.14-.71-.17-.85.07.26.73.5,1.64.14,2.39-.15.33-.54.32-.79.29-.85-.11-.57-2.09-.54-2.72l-1.34.1Z"/><path class="cls-33" d="M110.85,128.75c-1.35.7-2.59.84-4.07,1.14-.14-1.6-.1-3.04-.02-4.74l4.1,3.6Z"/><path class="cls-33" d="M92.9,129.83c-1.5-.17-2.64-.51-4.1-1.05,1.38-1.3,2.57-2.46,4.05-3.53.18,1.61.12,2.82.05,4.59Z"/><path class="cls-33" d="M122.27,93.92l-.74-1.45-1.66.52c.07-.59.42-.94.56-1.52-.45-.51-1.1-.43-1.57-.85.59-.41,1.16-.36,1.56-.79-.1-.59-.5-.96-.51-1.53.65,0,1.13.66,1.59.42.5-.25.38-1.02.85-1.41.32.51.35,1.04.74,1.5l1.6-.49c-.02.57-.4.93-.48,1.52.42.45.98.4,1.59.8l-1.44.71c-.43.21.31.92.38,1.54l-1.58-.34c-.42-.09-.37.89-.86,1.37Z"/><path class="cls-33" d="M99.79,113.54l-.79-1.49-1.67.52c.03-.57.71-1.1.41-1.61s-1.06-.33-1.39-.72l1.51-.76c-.05-.7-.45-1.12-.57-1.77.56.19,1.1.78,1.71.52.47-.2.39-.98.75-1.29.41.4.45.93.78,1.49l1.54-.52c.15.57-.31.93-.41,1.52l1.53.8-1.5.74.51,1.54c-.59.03-.94-.35-1.57-.47-.47.42-.5,1.04-.84,1.5Z"/><path class="cls-33" d="M99.83,73.04l-.82-1.47c-.6.1-.98.53-1.57.41.14-.69.52-1.02.47-1.53l-1.64-.69,1.66-.72-.44-1.61,1.54.55c.42-.47.37-1.12.83-1.48.36.5.41,1.07.82,1.46.56-.11.92-.47,1.53-.52-.05.65-.4.96-.52,1.54.48.42,1.1.43,1.76.79l-1.72.71.46,1.55c-.58.04-.94-.33-1.51-.46-.47.39-.43.96-.86,1.47Z"/><path class="cls-33" d="M77.48,93.92l-.81-1.47c-.61.09-.98.53-1.56.42.1-.69.49-1.03.5-1.53l-1.69-.71,1.66-.72-.45-1.62,1.54.54.8-1.49c.36.4.41.93.75,1.44.6.03.97-.41,1.63-.49-.02.65-.37.97-.52,1.55.48.41,1.09.42,1.75.78l-1.72.72.47,1.55c-.57.02-.94-.35-1.52-.46l-.85,1.47Z"/><path class="cls-17" d="M98.71,95.13c.17.2.55.25.7.56.44.89-1.36-.18-1.09.87.08.31.87.02.96.46.07.32-.25.32-.52.43-.46.18-.25.6.05.8.72.49.95-1.17,2.48-.79.56.14.74.8.75,1.39,0,.09-.04.18-.04.28.01,0-2.35-.56-2.03-.67-.16.06-.33.41-.52.39l-2.36-.26c.33-.51.58-.97.62-1.39-.04-.39-.96-.12-1.08-.35-.35-.7.5-1.11,1.1-1.02.34.06.36-.26.08-.38-.03-.24-.08-.57.29-.46.14.04.39.15.62.15Z"/><path class="cls-17" d="M106.44,81.42l-.03.27c-.62-.18-1.16.41-1.75.61-.04-.78,0-1.33-.53-1.63-.26,1.09-.92,1.87-2,2.42s-1.51,2.26-.46,3.04c1.24.92,3.23.54,4.18-.45-1.27.12-3.55,1.14-4.03-.55-.16-.56.02-1.13.53-1.55s1.02-.6,1.57-.51,1.82,1.3,2.42,1.89c-.02-.37.45-2.39.38-2.32.27-.25.63-.19.91-.18.06.07.1.16.15.24-.61.17-.62,1.69-.68,1.66.18.08.33.08.47.1l.09.27c.17.2.09.33-.02.4-.27.17-.55.02-.85.08l-.54.1c-.14.03-.18.17-.04.32.23.25.3.01.58-.03,1.32-.23,4.99-1.42,5.83.49.38.85.08,1.43-.59,2-.09-.5.48-1.11.15-1.66-.49-.81-1.7-.98-2.61-.77l-5.75,1.32c-1.04.24-2.01.07-2.81-.66-.16.57-.22,1.74.25,1.89.9.28,1.97-.26,2.79-.47,2.96-.77,2.56,1.61,7.98.35-.99.84-2.27.94-3.73,1.07.83.27,1.74.19,2.62.11,1.63-.15,2.31-1.55,2.45-2.94.26-.2.8-.33.91-.54.18-.33.32-.77,0-1.1-.19.29-.42.86-.7.62-.29-.26.05-.98-.34-1.03-.22-.03-.38.21-.48.24-.22.06-.19-.77-.67-.97-.27-.11-.33.25-.47.62-.36-.1-.44-.53-.82-.77-.1.18-.07.4-.15.72-.42-.22-.72-.59-1.32-.69.08.37.41.62.13.83-.27-.19-.47-.42-.76-.47-.24-.04-.32.34-.57.63-.02-.08.01-.19-.02-.26-.22-.56-.12-1.01.34-1.4.06,0,.12.04.19,0,.46.58,1.06.2,1.66-.07.2-.09.59.4.82.23.16-.12.12-.38.4-.73.31.93,1.07.88,1.76,1.21.24.12.18.86.6.82.26-.02.49-.24,1.03-.55.26,3.12-1.11,2.41-1.16,3.24-.1,1.57-1.1,2.68-2.75,2.83-.77.07-1.56-.14-2.37.12.29.6.9.8,1.36,1.25.62.6.4,2.09,1.21,2.21,1.35.2.79-1.18,2.64.08.46.31,1.12-.3,1.68-.48.54.56.23,1.36.42,2.08.07.28.45.56.34.71l-.44.57s-1.26,2.57-1.1,2.51c-2.75,1.06-.56.81-2.41,1.37-.13-.46.08-1.04-.49-1.15-.08.49-.13.99-.49,1.28-.12,0-.24.05-.36.06-.55.06-1.25.47-1.84.18-.31-.3.21-.83.45-1.05-.61-.41-1.23.21-1.65.09-.43-.7.43-1.48,1.08-1.81-.01-.56-.79-.43-1.15-.65-.24-1.28,2.76-.91,2.65-.96.28.12.22.57.31.76l-.42-.25c-.26-.15-.47-.12-.56.02-.36.57.94,1.4-.16,1.41-.56,0-.57.68,0,.63.32-.03.5-.08.67-.07.15,0,.28.19.13.4-.13.18-.27.34-.28.47,0,.25.24.37.46.39.24.03.44-.14.44-.5.03-1.81,2.41-.38,3.15-.83-.3-.4-.84-.32-1.02-.78.26-.1.39-.1.61-.15.07-.02.05-.12-.03-.18-.15-.1-.31-.11-.31-.24.42-.16.66.08,1-.16l-1.02-.57c.69-.19,1.25.11,1.76-.44l-1.74-.2c.19-.21.31-.26.38-.36.09-.12-.08-.23-.36-.46.48-.02.96.03,1.44-.41-.29-.26-.59,0-.98-.14.1-.4.5-.35.71-.76-3.1-.13-.54-.54-3.65.15-1.24-.39-1.04-2.09-2.02-2.77-2.6-1.81-1.89-3.58-4.26-2.95-1.04.27-1.92.54-2.78.94-.8.38-1.96.58-2.7.45l-.59-.1c-.37-.06.1.82-1.31.91.07.44.18.81,0,1.11-.24.4-.71.58-1.12.75-.08.14.1.54-.17.59-.31.06-.65-.09-.76.07l-.41.59c-.35-.19-.51-.57-.74-.64-.4-.13-.56.32-.74.61-.17-.12-.27-.2-.32-.29-.11-.22-.23-.1-.25,0-.06.22-.01.47-.05.64-2.06.75-.56,2.63-3.08,3.04-2.4.38-2.24-2.2-2.86-.64-.12.31.46.15.54.63.1.62-.85.18-.84.74s.87.26,1.04.49c.36.46-.73.69-.28,1.06.22.18.48.43.71.14.2-.25.32-.55.54-.64.33-.13.74.32,1.05.29.28-.56.4-1.55,1.23-1.5.48.03.92.58,1.51.17-.22-.3-.74-.14-.75-.65.63,0,.99.33,1.41.1-.13-.28-.4-.29-.46-.6l1.28-.05c-.25-.35-.7-.39-.75-.91.7.24,1.32.49,1.94.02-.7-.22-1.13-.35-1.46-.8.63.04,1.22.25,1.97.21-.34-.28-.89-.41-.79-.93.53.12.99.27,1.42.09-.26-.3-.55-.39-.66-.78,1.93.03,2.77-2.48,2.95-.57.72-.26,1.27-.65,1.65-1.17.56.29,1.02.32,1.58.15.87-.26,1.63-1.03,2.66-1.08s2.19,4.46,6.62,3.89c.49-.06,1.18.43,1.35.81.24.54.06,1.36-.44,1.79-.24.21-.45.27-.72.27s-.26-.25-.36-.45c.34.05.63-.07.78-.25.25-.29.37-.79,0-1.03-1.55-1.02-2.11.84-4.84-1.54-.88.77.64,1.33.77,1.81.25.89-.83.94-.91,1.65-.04.32.2.62.37,1.03-.59.19-1.09-.04-1.59-.03-.05-.16.06-.36-.13-.63-.24.14-.16.37-.09.59-.19.2-.46.26-.69.43s-.48.23-.64-.13c.1-.11.18-.34.25-.48.19-.35.33-.75.7-.95.12.44.38.24.38-.15.13-.09.34-.12.44-.24.37-.2.69.14.32.42-.26.11-.4.3-.34.4.09.17.41.07.65.36.23-.41.03-.83.09-1.25,1.84-1.39-1.25-.95-.54-2.74.25-.63-.11-1.72-.89-1.61-.56.08-1.02.03-1.47-.21l-1.48,1.16.19-1.01c-.54-.07-1.03.26-1.15.67-.17.54.31,1.03.93,1.06l1.93.1c.49.02.85.42.9.8.06.42-.29.78-.7.97-1.35.61-2.77.53-3.6-.6l.02-.32c.92.85,2.61,1.25,3.38.1-.5-.71-1.27-.4-1.88-.41-1.05-.02-1.78-.44-1.81-1.69-1.03.59-2.53.44-3.37,1.34-.58,1.34-1.76,2.29-3.1,3.05-1,.57-1.61.87-2.9.37-.59-.23-.66,1.8-1.52,1.86-.24.02-.3-.32-.47-.63-.79.79-2.23,1.22-3.38.45.3-.45.87-.47,1.15-1.01-.31-.62-.85-.27-1.43-.23-.31-.03-.18-.66.03-.88.19-.21.7-.2.96-.45.55-.54-.68-.7-.87-1.02.05-.75,1.64-1.13,2.3-.67.58.4.73,1.07,1.49.97.62-.08,1.37-.13,1.52-.96.12-.62.14-1.24.39-1.74-1.81-1.67-2.34-.33-3.14-1.04-.31-.27.24-.11.62-.7-1.52-.29.05-2.01-1.53-2.18.82-1.05-.65-2.27.51-2.4.11.59.59-.1,1.12.13-.08.35-.33.43-.56.74.31.27.72.26,1.1-.31.05.76.1,1.62-.65,2.23.34.22.54-.12.62-.01.18.25-.01.52-.17.82.23.26.49-.08.82.08-.2.58-.58.78-.63,1.31,1.82-.64,1.3,1.17,2.71.12-.39-.29-.79-.12-1.15-.31.17-.37.38-.57.37-.73-.01-.35-.5-.29-.79-.44.08-.41.45-.49.75-.8-.24-.48.2-.93.25-1.3.26-1.89-3.17-.89-1.27-6.33-.77-.43-.74.35-1.01.74-.28-.1-.5-.48-.66-.5s-.44.14-.48.32c-.05.21.18.42.39.72-.14.48-.79.13-1.05.67.44.37.82.17,1.06.3.46.25.01.74.06,1.1.04.32.52.55.41.83-.15.4-.51.6-1.24.61.15-.28.61-.41.55-.83-.42-.18-.81-.38-.79-.7.02-.26.31-.37.5-.56-.62-.1-1.03-.34-1.36-.57-.48-.34-.44-.85-.33-1.47.4,0,.65.4,1.03.13-.23-.57-.78-.54-.87-1.06l2.02.02c.36,0,.35-.77.76-.8.54-.04,1.48.67,1.51,1.19-.49,1.45-.49,3.07.59,4.24l.98-5.04c.06-.31.7-.47.61-.83-.02-.07,0-.16,0-.23.15.01.3.02.45,0,.13.16.28.36.21.53-.08.19-.57.41-.47.64.73.35.94-.68,1.01-1.21.46-.27.91-.66,1.38-.71.63-.07,1.04.43,1.59.69.65.31,1.39-.25,2-.07.57.16,1.14.37,1.75.51.7.16-.32,1.81.52,2.03.07.02,1.98-.82,2-1.49.02-.56-.8-.36-1.16-.78.73-.22,1.3-.38,1.72-.89,1.18.28,1.27,1.55,2.77,1.42ZM96.53,81.95c.14-.98-.39-1.03-.84-1.31-.11.65.22,1.45.84,1.31ZM99.63,83.13c.23-.6.83-.99.55-1.38-.47-.66-1.42-.21-2.08-.05-.13-.38.32-.4.42-.73-.89-.24-1.65.39-1.66,1.24,0,.39.58-.13.73-.17.33.09.41.83.89.77.31-.04.58-.23.81-.08.16.11.27.29.33.41ZM95.08,82.66c-.04.15-.01.32-.06.47-.24-.12-.57-.05-.65.28l-.31,1.2c-.09.37-.1.59.4,1,.16-.12.17-.34.19-.53l.63-.74c.03.46,0,1.1.54,1.19.38.06.93.41,1.39.19.65-.3.66-1.19.6-1.76,0-.09.02-.22.04-.31.3-.29-.09-.6-.32-.7-.29-.12-.75-.03-.96.19-.63-.65-1.49-1.14-2.55-.81.25.58.74.25,1.07.31ZM105.61,85.03c-1.22-.89-1.64-2.05-2.84-1.15-.39.29-.68,1.15-.07,1.5.94.54,2.12.03,2.91-.35ZM92.89,86.39c-.01.82-.47,1.53-.74,2.4.3-.06.48-.24.71-.19-.16.83-1.08,1.13-1.31,1.92.48-.01.9-.35,1.32-.21-.32.49-.56.98-1.19,1.33.57.08,1.02-.25,1.43-.13.14.04.36.37.58.21.19-.14.15-.53.32-.7.15.49.21,1.02.49,1.51.05-1.13-.18-2.09.47-2.99.13.98-.21,1.75.21,2.47.24-.27.12-.56.29-.63.16-.07.29.15.57.11-.36-.69-.31-1.37-.21-2.13l.32-2.07c.32-.02-.24,3.29.5,3.14.19-.04.59-3.22-.12-3.82-.36.45-.65.72-1,.75-.03-.52.33-.83.8-1.17-.57-.21-.96-.09-1.18-.52-.17.37-.4.38-.49.53-.13.22.14.56.31.74-.07.18-.12.21-.17.26-.16.16-.1.24-.02.3.18.15.36-.01.75-.14-.06.29.05.7-.36.76-.57.08-.76-.16-1.02-.74-1.18.14-.25,1.35-1.3,2.95-.17-.71.45-1.25-.02-1.71.49-2.59,1.78-1.37,1.33-2.36-.07-.16-.29-.5-.57-.34-.25.13-.35.43-.72.5.1-.49.42-.63.73-1.06-.34-.48-.5.15-1.06.14.11-.75.76-.77,1.02-1.51-.87.18-1.76.8-1.91,1.77.47.09.55-.41,1.09-.42-.01.68-.55.74-.65,1.26.4.02.56-.14.77-.18ZM98.8,86.86c.51.86.54,1.28,1.19,1.42-.33-.67-.84-1.38-.45-2.02.45.54.02,1.19.73,1.36-.15-2.55.23-2.67-.95-3.09-.23-.08-.87.18-.87.46,0,.8-.42,1.48-1.43,1.51.44.88.13,1.81.62,2.94.81-.88-.06-1.81.16-2.94.65.68.27,1.67,1.17,2.07-.03-.76-.51-1.22-.18-1.71ZM88.93,92.36c0-.07-.05-.12-.12-.12s-.12.05-.12.12.05.12.12.12.12-.05.12-.12Z"/><path class="cls-17" d="M108.62,82.74c-.06.04-.13,0-.19,0-.2.02-.45-.1-.64-.05-.05-.08-.09-.16-.15-.24,1.54-1.34-.75.27-1.24-.76l.03-.27c.25-.19.73-.61,1.05-.55.57.39,1.09.37,1.87.26-.06.8-.81.97-.74,1.61Z"/><path class="cls-17" d="M100.5,95.14l-.02.32c-.54-.21-1.08-.77-1.53-.68-.13.02-.17.25-.24.34-.23,0-.48-.1-.62-.15-.37-.12-.32.22-.29.46l-.53-.11c-.13-.03-.31-.59-.21-.7,1.08-.94,2.47-.38,3.44.52Z"/><path class="cls-17" d="M104.12,98.3c-.07.13-.16.37-.25.48-.49.5-1.2.47-1.88.35,0-.09.04-.18.04-.28.53-.15.54-.74.79-1.2.08.43-.17.8.3,1,.24-.68.42-1.17,1-1.5-.07.48-.12.81,0,1.16Z"/><path class="cls-17" d="M93.86,80.72c-.07.53-.29,1.55-1.01,1.21-.1-.24.39-.45.47-.64.07-.17-.08-.37-.21-.53.25-.03.5-.05.75-.04Z"/><path class="cls-17" d="M105.41,98.51c-.07,0-.14-.03-.22-.04-.07-.22-.15-.46.09-.59.19.27.07.48.13.63Z"/><path class="cls-17" d="M92.66,80.99c-.33.02-.36-.35,0-.23,0,.07-.02.16,0,.23Z"/><path class="cls-17" d="M101.85,54.23c-.85-.3-.76-.91-1.21-1.21-.16.41.07.87-.46,1.14-.24-.82-.2-1.6-.01-2.42.72.13.71.72,1.16,1.24.33-.36-.13-.86.47-1.3.35.82.29,1.62.05,2.55Z"/><path class="cls-17" d="M108.03,54.12c-.63-.11-.71-.46-1.04-.42-.3.03-.46.33-.96.43.07-.85.37-1.59.9-2.46.78.6.9,1.55,1.11,2.45Z"/><path class="cls-17" d="M94.37,53.06c.1.72,1.03.4,1.52.58-.38.81-1.34.6-1.77.16s-.45-1.33.1-1.76c.43-.34,1.44-.51,1.6.3-.53,0-1.57-.1-1.45.73Z"/><path class="cls-17" d="M92.35,52.6c.47.27.85.38.88.75.03.43-.24.7-.54.78-.43.11-1.11-.04-1.01-.53.23-.16.91.12.96-.34-.43-.17-.81-.25-.92-.5-.19-.41,0-.86.33-.95.42-.12.88-.1,1.1.4-.28.22-.56,0-.8.41Z"/><path class="cls-17" d="M98.61,53.22c-.33.14-.11.45.01.47.11.02.55-.07.57.08.05.51-.66.37-1.05.33-.49-.05-.49-2.22-.01-2.28.39-.06,1.17-.22,1.05.37-.84-.1-.97.51-.29.54.39-.07.41.15.27.3-.07.08-.22.06-.55.2Z"/><path class="cls-17" d="M103.71,53.6c.08.72-.57.8-.55.18.08-.82.19-1.54-.62-1.81.54-.3,1.04-.26,1.66-.06-.44.4-.72.85-.48,1.69Z"/><path class="cls-17" d="M105.12,54.35c-.37-.94-.4-1.87.02-2.83.39.95.43,1.77-.02,2.83Z"/><path class="cls-17" d="M96.77,54.35c-.37-.94-.4-1.87.02-2.83.39.95.43,1.77-.02,2.83Z"/><path class="cls-17" d="M104.4,48.56c-.33-.01-.65-.03-.98-.03-.12-.49.19-.52.62-.51.35,0,.43.18.36.54Z"/><path class="cls-17" d="M122.45,122.22c-.18-.15-.4.39-.45.48-.09.16-.28-.15-.64-.27l.85,3.03c-1.02-.16-1.58-.85-2.51-1.21-.03.67.37,1.2.96,1.63-.31.34-.59.42-.98.48.05-1.14-.46-2.05-1.16-2.88.89-.87,1.81.64,2.83.71-.12-.7-.45-1.09-.98-1.56l2.9-1.46.84-.08c.65-.51,1.4-1.23,2.27-1.07.22.04.25.43.24.55-.04.42-.62-.22-1.11.03-.25.12-.32.46-.15.67s.46.25.81.11c.38-.14.56.07.21.29-.33.19-.6.37-.54.61.07.28.27.65.55.63.6-.04.98-1.78,1.18-.6.14.82-.96.93-2.02,1.37-.3-1-.55-1.87-1.14-2.57-.31.28-.26.54-.33.63-.09.11-.67-.15-.7,0-.05.89.68,1.66,1.04,2.42-.02.24-.55.41-.83.38-.34-.73-.36-1.69-1.13-2.33Z"/><path class="cls-17" d="M113.65,127.61c-.89.97,1.62,1.21-.3,1.69-.21-.91-.56-1.97-1.27-2.8.06-.27.49-.39.78-.37.38.02.64.37,1,.67l.32.26c.53.44,0-.9.23-1.62.07-.22.38-.38.81-.42.29,1,.66,1.92,1.32,2.76-.21.27-.46.37-.87.43-.19-.61-.31-1.21-.77-1.76l-.25,1.63c-.14.17-.49-.1-1-.46ZM113.49,127.48c0-.07-.05-.12-.12-.12s-.12.05-.12.12.05.12.12.12.12-.05.12-.12Z"/><path class="cls-17" d="M117.78,126.7c.64.26.86-.66,1.04-.81.15-.13.55.27.39.57-.36.65-1.29.78-2.05,1.09-.26-1.09-.68-1.91-1.26-2.89.74-.31,1.91-1.3,2.24-.57s-.71.14-1.19.49c-.15.11-.05.45.06.63.3.51,1.86-.68,1.02.36-.27.14-.6.3-.58.45.04.3.17.61.35.68Z"/><path class="cls-17" d="M79.79,125.52l-.07-.53c-.02-.16-.29-.33-.47-.27-.24.07-.31,1.08-.5,1.14-.17.06-.59-.21-.81-.45.6-.67.92-1.78,1.37-2.62.47-.32,2.1.56,1.84,1.26-.33.86-1.06,1.47-.61,2.54-.68.08-.66-.4-.75-1.06Z"/><path class="cls-17" d="M76.03,121.62c.83-.37,1.86-.08,2.23.75.33.75.11,1.83-.87,2.29-.65.3-1.74.11-2.18-.79-.34-.71-.08-1.84.82-2.24ZM77.68,122.96c.04-.58-.15-1-.65-1.06-.4-.05-.77.19-1.03.66-.3.55-.45,1.44.27,1.72.79.31,1.37-.58,1.41-1.32Z"/><path class="cls-17" d="M81.94,126.77c.2.74,1.21.3,1.49-.12.35-.52.29-.97.08-1.91.92.3.98,1.17.76,1.81-.27.77-1.02,1.2-1.91,1-.57-.13-1.02-.34-1.57-.72.72-.83,1.06-1.74,1.41-2.79.54.14,1.07.3,1.52.82-.58.27-.88-.08-1.22.27,0,.51-.73,1.03-.56,1.65Z"/><path class="cls-17" d="M86.06,127.31c.87.74-.47.07-.91.39-.17.12-.3.47-.12.73.29.44,1.23-.04,1.31.13s-.07.59-.32.63c-.72.11-1.36-.47-2.12-.85.61-.88,1.06-1.7,1.36-2.83.74.24,1.34.5,1.95.86.11.07.02.77-.3.74s-.02-.42-.78-.84c-.27-.15-.48.3-.54.56-.04.18.17.27.48.48Z"/><path class="cls-17" d="M73.25,121.21c-.31.49-.35,1.07-.14,1.41.44.72,1.51-.15,1.45.45-.01.14-.15.35-.39.38-.85.12-1.58-.42-1.79-1.18s.11-1.63.95-2c.64-.29,1.69-.15,2.1.68.1.19-.12.42-.18.48-.25.27-.37-.77-.96-.85-.39-.06-.75.17-1.04.64Z"/><path class="cls-17" d="M108.37,133.58c-.74,1.47-3.01-.56-2.49,1.03.08.24.41.22.78.21.44.01.39.31-.01.38-.37.05-.62.17-.61.38.02.28.05.57.2.67.58.4,1.07-.6,1.26-.54.17.05.3.61.1.75-.58.4-1.42.33-2.2.39,0-1.07-.05-2.08-.45-3.05.45-.42.98,0,1.47-.1.87-.18,4.2-1.53,3.78-.18-.08.25-.38.1-.81-.06-.36.81.2,1.74.42,2.62-.21.24-.68.28-.94.2-.01-.91-.07-1.72-.49-2.7Z"/><path class="cls-17" d="M92.16,136.41c0-.61.53-1.09.18-1.62-.46.25-.52.74-1.01,1.09-.52-.36-.28-.93-.71-1.42-.42.48-.18,1.08-.24,1.67-1.28.33-.5-.49-.12-3.07.03-.23.73-.04.85.13.24.36.28,1.21.4,1.3.21.15.44-.05.57-.29.32-.64.81-1.02,1.54-.61-.4.89-.61,1.82-.55,2.99.01.26-.91.11-.91-.15Z"/><path class="cls-17" d="M99.83,137.31c-1.08-.46-.99-1.37-1.81-2.04-.43.6-.2,1.12.04,1.7-.25.22-.58.19-.93.05.31-.88.46-2,.16-3.02,1.08-.64,1.37,1.31,2.15,1.79.47-.62-.29-1.23.44-1.81.31,1.03.07,2.08-.04,3.33Z"/><path class="cls-17" d="M96.7,136.99c-1.71.35-.31-1.03-1.73-1.09-.53-.02-.48.41-.82.9-.12.17-.53-.05-.61-.11-.03-.02,1.58-2.99,2.01-3.13l1.15,3.43Z"/><path class="cls-17" d="M100.21,134.04l1.34-.1c-.02.63-.3,2.61.54,2.72.25.03.63.04.79-.29.36-.76.12-1.67-.14-2.39.15-.24.65-.21.85-.07-.29.81-.12,1.52-.2,2.3-.09.86-.89,1-1.56.95-1.73-.13-.32-2.71-1.63-3.11Z"/><path class="cls-43" d="M111.03,93.85l-.03.61c-4.42.57-5.58-3.94-6.62-3.89s-1.79.83-2.66,1.08c-.13-.43.21-.74.53-1.09.47-.52.09-1.13-.29-1.49.85-.41,1.74-.67,2.78-.94,2.37-.62,1.66,1.14,4.26,2.95.98.68.78,2.38,2.02,2.77Z"/><path class="cls-43" d="M106.37,96.88c-.12-.07-.25-.14-.42-.18-.18-.04-.21.15-.3.26-.11.12-.32.15-.44.24-.13-.43-.38-.22-.38.15-.37.2-.51.6-.7.95-.13-.34-.07-.67,0-1.16-.58.34-.76.82-1,1.5-.47-.2-.22-.57-.3-1-.25.46-.26,1.05-.79,1.2-.01-.59-.19-1.24-.75-1.39-1.53-.39-1.76,1.27-2.48.79-.29-.2-.51-.62-.05-.8.27-.11.59-.11.52-.43-.09-.45-.89-.15-.96-.46-.26-1.05,1.53.02,1.09-.87-.15-.3-.53-.36-.7-.56.07-.1.12-.32.24-.34.45-.09.99.47,1.53.68.83,1.14,2.26,1.21,3.6.6.41-.19.76-.54.7-.97-.05-.38-.41-.78-.9-.8l-1.93-.1c-.62-.03-1.1-.52-.93-1.06.13-.41.61-.74,1.15-.67l-.19,1.01,1.48-1.16c.46.24.91.29,1.47.21.78-.11,1.14.97.89,1.61-.72,1.8,2.38,1.35.54,2.74Z"/><path class="cls-16" d="M112.04,88.08c-5.41,1.26-5.01-1.12-7.98-.35-.82.21-1.89.75-2.79.47-.47-.15-.41-1.32-.25-1.89.8.73,1.76.9,2.81.66l5.75-1.32c.9-.21,2.12-.04,2.61.77.33.55-.24,1.16-.15,1.66Z"/><path class="cls-33" d="M87.45,87.28c.73,0,1.09-.21,1.24-.61.11-.29-.36-.52-.41-.83-.05-.36.39-.86-.06-1.1-.24-.13-.62.06-1.06-.3.27-.55.91-.19,1.05-.67-.21-.3-.44-.51-.39-.72.04-.18.33-.34.48-.32s.38.4.66.5c.27-.39.25-1.17,1.01-.74-1.89,5.44,1.53,4.44,1.27,6.33-.05.37-.49.81-.25,1.3-.31.32-.67.4-.75.8.29.15.78.09.79.44,0,.16-.21.36-.37.73.36.18.76.01,1.15.31-1.41,1.06-.89-.76-2.71-.12.05-.53.43-.73.63-1.31-.34-.16-.59.18-.82-.08.15-.3.35-.57.17-.82-.08-.11-.28.23-.62.01.74-.61.69-1.47.65-2.23-.38.57-.79.57-1.1.31.24-.31.48-.39.56-.74-.53-.23-1.01.46-1.12-.13Z"/><path class="cls-33" d="M110.82,96.88c.1.19.1.44.36.45s.48-.06.72-.27c.49-.43.68-1.25.44-1.79-.17-.38-.86-.88-1.35-.81l.03-.61c3.11-.69.55-.28,3.65-.15-.21.42-.61.37-.71.76.39.13.69-.12.98.14-.47.44-.96.39-1.44.41.29.22.45.33.36.46-.07.1-.19.15-.38.36l1.74.2c-.52.55-1.08.25-1.76.44l1.02.57c-.34.24-.58,0-1,.16,0,.13.17.15.31.24.08.06.1.16.03.18-.22.05-.35.04-.61.15.18.46.72.37,1.02.78-.74.44-3.12-.98-3.15.83,0,.36-.2.53-.44.5-.22-.02-.46-.15-.46-.39,0-.14.14-.29.28-.47.15-.2.02-.39-.13-.4-.17,0-.35.04-.67.07-.57.05-.55-.62,0-.63,1.1,0-.2-.84.16-1.41.09-.14.3-.17.56-.02l.42.25ZM113.74,94.57c0-.07-.05-.12-.12-.12s-.12.05-.12.12.05.12.12.12.12-.05.12-.12Z"/><path class="cls-33" d="M93.6,94.65c.33.45.76.58,1.46.8-.62.46-1.24.22-1.94-.02.05.53.5.57.75.91l-1.28.05c.06.32.33.32.46.6-.42.23-.78-.1-1.41-.1,0,.51.53.36.75.65-.6.41-1.03-.15-1.51-.17-.83-.05-.95.94-1.23,1.5-.32.02-.72-.42-1.05-.29-.22.09-.34.38-.54.64-.23.29-.49.04-.71-.14-.45-.36.64-.6.28-1.06-.17-.22-1.04.07-1.04-.49s.94-.12.84-.74c-.08-.48-.66-.32-.54-.63.62-1.56.45,1.02,2.86.64,2.52-.4,1.02-2.28,3.08-3.04.01.49.57.59.79.89Z"/><path class="cls-33" d="M112.04,88.08c.67-.57.97-1.15.59-2-.84-1.91-4.51-.71-5.83-.49v-.39c.31-.06.59.09.85-.08.11-.07.19-.2.02-.4.18-.05.32-.18.44-.32.25-.29.33-.68.57-.63.29.05.49.28.76.47.28-.21-.05-.46-.13-.83.6.1.9.47,1.32.69.08-.32.05-.54.15-.72.38.25.47.67.82.77.14-.37.19-.72.47-.62.49.19.45,1.02.67.97.1-.03.27-.26.48-.24.4.05.06.77.34,1.03.28.25.5-.33.7-.62.33.32.18.76,0,1.1-.11.2-.64.34-.91.54-.13,1.39-.82,2.79-2.45,2.94-.88.08-1.79.16-2.62-.11,1.46-.13,2.74-.23,3.73-1.07Z"/><path class="cls-43" d="M106.41,81.69c.49,1.02,2.78-.58,1.24.76-.29-.01-.64-.07-.91.18.07-.06-.4,1.96-.38,2.32-.59-.59-1.85-1.8-2.42-1.89s-1.09.11-1.57.51-.69.99-.53,1.55c.48,1.69,2.75.67,4.03.55-.95.99-2.94,1.37-4.18.45-1.05-.78-.59-2.49.46-3.04s1.74-1.33,2-2.42c.52.3.49.85.53,1.63.59-.2,1.13-.79,1.75-.61ZM106.16,83.4c0-.09-.07-.16-.16-.16s-.16.07-.16.16.07.16.16.16.16-.07.16-.16Z"/><path class="cls-43" d="M99.26,89.53c.31.68.17,1.61.88,1.98-.37.52-.93.91-1.65,1.17-.18-1.91-1.02.61-2.95.57.11.39.4.48.66.78-.43.18-.9.03-1.42-.09-.1.52.44.64.79.93-.75.03-1.34-.17-1.97-.21-.22-.3-.78-.41-.79-.89.03-.18-.02-.42.05-.64.03-.09.14-.21.25,0,.04.09.14.17.32.29.18-.29.33-.74.74-.61.23.07.39.45.74.64l.41-.59c.11-.16.45-.01.76-.07.27-.05.09-.45.17-.59.41-.17.88-.35,1.12-.75.18-.29.07-.66,0-1.11,1.41-.09.94-.97,1.31-.91l.59.1Z"/><path class="cls-43" d="M101.96,89.07c.38.36.77.97.29,1.49-.32.35-.66.66-.53,1.09-.56.16-1.02.14-1.58-.15-.71-.37-.57-1.3-.88-1.98.75.13,1.9-.07,2.7-.45Z"/><path class="cls-43" d="M98.8,86.86c-.33.49.16.95.18,1.71-.9-.4-.52-1.39-1.17-2.07-.22,1.13.65,2.05-.16,2.94-.48-1.13-.18-2.06-.62-2.94,1.01-.03,1.43-.71,1.43-1.51,0-.28.64-.54.87-.46,1.18.42.79.54.95,3.09-.71-.17-.28-.82-.73-1.36-.39.64.11,1.36.45,2.02-.64-.15-.67-.56-1.19-1.42ZM98.79,86.35c0-.09-.07-.16-.16-.16s-.16.07-.16.16.07.16.16.16.16-.07.16-.16Z"/><path class="cls-43" d="M94.02,91.01c-.14-.48.34-1.04-.07-1.74-.22.78-.7,1.45-.83,2.24-.42-.12-.86.21-1.43.13.63-.36.87-.85,1.19-1.33,1.06-1.6.12-2.81,1.3-2.95.27.58.45.82,1.02.74.41-.06.3-.47.36-.76.35-.03.65-.3,1-.75.7.6.31,3.78.12,3.82-.75.15-.18-3.16-.5-3.14l-.32,2.07c-.11.76-.16,1.44.21,2.13-.29.04-.42-.17-.57-.11-.17.08-.05.36-.29.63-.42-.72-.08-1.49-.21-2.47-.65.9-.42,1.86-.47,2.99-.28-.49-.35-1.02-.49-1.51Z"/><path class="cls-16" d="M105.61,85.03c-.79.38-1.97.89-2.91.35-.61-.35-.32-1.21.07-1.5,1.2-.9,1.62.26,2.84,1.15Z"/><path class="cls-33" d="M99.63,83.13c-.07-.12-.17-.3-.33-.41-.23-.15-.5.04-.81.08-.48.06-.56-.67-.89-.77-.15.04-.74.56-.73.17.01-.85.77-1.48,1.66-1.24-.1.33-.55.34-.42.73.65-.16,1.61-.61,2.08.05.28.39-.32.78-.55,1.38Z"/><path class="cls-17" d="M96.41,83.31c.44.22.86.46,1.43.36-.01.08-.05.22-.04.31-.43-.13-.45.61-.72.71-.59.21-.39-.62-.71-.79-.09.73.15,1.44-.56,1.65-.54-.09-.51-.73-.54-1.19.08-.1.2-.19.2-.35-.34-.04-.64-.11-.64-.42,0-.14.13-.3.19-.46.05-.15.02-.32.06-.47.32.49.9.44,1.33.65Z"/><path class="cls-43" d="M97.8,83.98c.06.57.05,1.46-.6,1.76-.46.21-1.01-.13-1.39-.19.71-.21.47-.92.56-1.65.32.18.12,1,.71.79.27-.1.29-.84.72-.71Z"/><path class="cls-43" d="M92.86,88.6c-.23-.06-.42.13-.71.19.28-.87.73-1.58.74-2.4.37-.07.48-.36.72-.5.29-.16.5.18.57.34.45,1-.84-.23-1.33,2.36Z"/><path class="cls-17" d="M95.56,87.34c-.38.13-.57.3-.75.14-.07-.06-.14-.14.02-.3.05-.05.1-.08.17-.26-.17-.18-.44-.52-.31-.74.09-.15.32-.16.49-.53.22.42.61.31,1.18.52-.47.33-.83.65-.8,1.17Z"/><path class="cls-33" d="M95.01,83.13c-.05.16-.19.32-.19.46,0,.31.3.37.64.42,0,.16-.12.25-.2.35l-.63.74c-.1-.25-.33-.4-.59-.48l.31-1.2c.08-.33.41-.4.65-.28Z"/><path class="cls-16" d="M108.43,82.74c-.47.38-.57.84-.34,1.4-.18.09-.34.2-.51.32-.14-.02-.29-.02-.47-.1.06.03.07-1.49.68-1.66.19-.05.44.07.64.05Z"/><path class="cls-33" d="M92.87,90.3c-.42-.14-.84.2-1.32.21.23-.79,1.15-1.09,1.31-1.92.47.46-.15,1,.02,1.71Z"/><path class="cls-17" d="M94.02,91.01c-.17.17-.13.56-.32.7-.22.17-.44-.16-.58-.21.13-.79.62-1.45.83-2.24.41.7-.07,1.26.07,1.74Z"/><path class="cls-33" d="M96.55,83.16c0,.1-.02.21-.15.15-.43-.21-1.02-.16-1.33-.65-.33-.06-.82.27-1.07-.31,1.06-.32,1.93.16,2.55.81Z"/><path class="cls-33" d="M92.89,86.39c-.21.04-.38.2-.77.18.1-.52.64-.58.65-1.26-.55.01-.63.51-1.09.42.16-.98,1.04-1.59,1.91-1.77-.27.75-.91.77-1.02,1.51.55,0,.72-.62,1.06-.14-.31.43-.63.57-.73,1.06Z"/><path class="cls-43" d="M97.84,83.67c-.57.1-.99-.14-1.43-.36.12.06.15-.05.15-.15.21-.22.67-.32.96-.19.23.1.62.41.32.7Z"/><path class="cls-33" d="M96.53,81.95c-.62.14-.94-.66-.84-1.31.45.28.98.33.84,1.31Z"/><path class="cls-17" d="M94.64,85.09c-.02.19-.04.4-.19.53-.49-.42-.49-.64-.4-1,.25.07.49.22.59.48Z"/><path class="cls-17" d="M106.8,85.2v.39c-.28.05-.34.28-.58.03-.15-.15-.1-.29.04-.32l.54-.1Z"/><path class="cls-17" d="M108.11,84.4c-.12.14-.25.27-.44.32l-.09-.27c.16-.12.33-.22.51-.32.03.08,0,.18.02.26Z"/><circle class="cls-33" cx="88.81" cy="92.36" r=".12"/><path class="cls-17" d="M106.37,96.88c-.07.42.13.84-.09,1.25-.24-.29-.55-.19-.65-.36-.05-.1.08-.29.34-.4.37-.28.05-.62-.32-.42.1-.11.12-.3.3-.26.16.04.3.11.42.18Z"/><path class="cls-17" d="M105.2,97.19c0,.39-.25.6-.38.15,0-.38.24-.58.38-.15Z"/><path class="cls-15" d="M128.28,126.64l-16.23,7.17-.11-5.14-4.59-4.2,20.21-9.35c.32-.15,1.46-.69,1.47-.06l.11,10.29c0,.45-.31,1.05-.85,1.29ZM122.45,122.22c.78.63.8,1.6,1.13,2.33.28.02.8-.14.83-.38-.36-.77-1.09-1.53-1.04-2.42.03-.14.61.12.7,0,.07-.08.02-.34.33-.63.59.7.85,1.57,1.14,2.57,1.07-.45,2.17-.56,2.02-1.37-.21-1.17-.59.56-1.18.6-.28.02-.48-.35-.55-.63-.06-.24.21-.42.54-.61.35-.22.17-.43-.21-.29-.35.14-.64.09-.81-.11s-.1-.54.15-.67c.49-.25,1.07.39,1.11-.03.01-.12-.03-.51-.24-.55-.88-.16-1.62.56-2.27,1.07l-.84.08-2.9,1.46c.53.47.86.85.98,1.56-1.02-.08-1.94-1.58-2.83-.71.7.83,1.21,1.74,1.16,2.88.39-.06.68-.13.98-.48-.59-.43-.99-.96-.96-1.63.94.35,1.49,1.05,2.51,1.21l-.85-3.03c.36.12.56.43.64.27.05-.09.27-.63.45-.48ZM117.78,126.7c-.19-.08-.31-.38-.35-.68-.02-.15.31-.31.58-.45.84-1.04-.72.15-1.02-.36-.1-.18-.21-.52-.06-.63.49-.35,1.51.22,1.19-.49s-1.49.26-2.24.57c.58.98,1,1.8,1.26,2.89.76-.31,1.69-.44,2.05-1.09.17-.3-.24-.69-.39-.57-.18.15-.4,1.07-1.04.81ZM113.47,127.46c.51.36,1.04.79,1.18.61l.25-1.63c.46.55.58,1.16.77,1.76.41-.06.67-.16.87-.43-.66-.83-1.02-1.75-1.32-2.76-.43.04-.74.2-.81.42-.23.72.3,2.06-.23,1.62l-.32-.26c-.36-.3-.62-.66-1-.67-.29-.01-.72.1-.78.37.71.83,1.07,1.89,1.27,2.8,1.92-.48-.76-.87.13-1.84Z"/><circle class="cls-15" cx="113.37" cy="127.48" r=".12"/><path class="cls-15" d="M77.68,122.96c-.05.74-.62,1.62-1.41,1.32-.73-.28-.57-1.18-.27-1.72.26-.47.63-.71,1.03-.66.5.07.69.48.65,1.06Z"/><circle class="cls-17" cx="113.61" cy="94.57" r=".12"/><circle class="cls-17" cx="106" cy="83.4" r=".16"/><circle class="cls-17" cx="98.63" cy="86.35" r=".16"/><path class="cls-3" d="M140.95,133.3h.21c.27,0,.49-.16.7-.53l-.58-2.69h.41l.43,2.21,1.21-2.21h.44l-1.5,2.64c-.39.68-.68.88-1.14.88h-.23l.05-.3Z"/><path class="cls-3" d="M143.66,131.63c0-.88.48-1.6,1.39-1.6.74,0,1.03.54,1.03,1.05,0,.14-.02.27-.04.34h-1.97c-.01.08-.01.16-.01.23,0,.49.26.75.68.75.39,0,.68-.21.83-.54h.37c-.17.51-.57.83-1.23.83s-1.06-.41-1.06-1.05ZM144.12,131.14h1.56s0-.06,0-.1c0-.44-.24-.73-.65-.73-.44,0-.8.27-.91.83Z"/><path class="cls-3" d="M146.29,131.97s0-.08.01-.12h.37c0,.37.19.54.62.54.46,0,.71-.19.71-.51,0-.22-.14-.32-.41-.36l-.41-.06c-.38-.05-.63-.23-.63-.62,0-.54.44-.82,1.08-.82.51,0,.89.19.89.67,0,.03,0,.07,0,.11h-.37c0-.3-.1-.5-.55-.5-.37,0-.63.14-.63.5,0,.22.13.29.33.32l.42.06c.44.06.71.25.71.66,0,.48-.4.82-1.16.82-.66,0-.97-.29-.97-.71Z"/><path class="cls-3" d="M149.94,132.62l.44-2.55h.41l-.44,2.55h-.41ZM150.47,129.37c0-.15.1-.26.29-.26.15,0,.23.08.23.19,0,.15-.1.26-.29.26-.14,0-.23-.08-.23-.19Z"/><path class="cls-3" d="M153.81,132.62l.29-1.63c.01-.06.02-.13.02-.19,0-.26-.11-.44-.4-.44-.34,0-.64.28-.72.79l-.26,1.48h-.39l.28-1.63c.02-.07.02-.14.02-.19,0-.25-.11-.44-.39-.44-.34,0-.63.28-.72.79l-.26,1.48h-.4l.44-2.55h.39l-.07.41c.15-.27.43-.46.73-.46.4,0,.61.2.67.51.18-.34.46-.51.79-.51.43,0,.69.26.69.69,0,.07,0,.14-.02.22l-.3,1.69h-.39Z"/><path class="cls-3" d="M156.27,132.22c0-.06,0-.12.02-.19l.29-1.66h-.44l.05-.3h.44l.13-.77h.41l-.14.77h.61l-.05.3h-.61l-.3,1.67s0,.08,0,.11c0,.16.1.2.32.2h.25s-.05.28-.05.28c-.1,0-.22.02-.31.02-.42,0-.63-.1-.63-.43Z"/><path class="cls-3" d="M157.56,131.63c0-.94.53-1.6,1.42-1.6.67,0,1.06.4,1.06,1.05,0,.94-.53,1.6-1.43,1.6-.66,0-1.06-.4-1.06-1.05ZM159.64,131.09c0-.48-.25-.75-.67-.75-.63,0-.99.55-.99,1.27,0,.48.25.75.67.75.63,0,.99-.55.99-1.27Z"/><path class="cls-3" d="M160.33,131.63c0-.94.53-1.6,1.42-1.6.67,0,1.06.4,1.06,1.05,0,.94-.53,1.6-1.43,1.6-.66,0-1.06-.4-1.06-1.05ZM162.41,131.09c0-.48-.25-.75-.67-.75-.63,0-.99.55-.99,1.27,0,.48.25.75.67.75.63,0,.99-.55.99-1.27Z"/><path class="cls-3" d="M164.24,132.62l.62-3.52h.41l-.62,3.52h-.41Z"/><path class="cls-3" d="M165.2,131.98c0-.49.29-.74.89-.79l.62-.05c.29-.02.47-.1.47-.39,0-.27-.21-.43-.56-.43-.4,0-.64.17-.69.53h-.4c.04-.52.41-.83,1.12-.83.56,0,.93.24.93.7,0,.05,0,.11-.01.16l-.19,1.08c-.04.21-.06.38-.06.49,0,.07,0,.13.02.16h-.36c-.04-.06-.05-.14-.05-.22,0-.06,0-.13.02-.21-.19.31-.48.47-.92.47-.48,0-.82-.25-.82-.69ZM167.04,131.56l.05-.3c-.07.08-.22.12-.43.14l-.49.04c-.38.03-.55.2-.55.5,0,.27.2.44.53.44.49,0,.82-.35.9-.83Z"/><path class="cls-3" d="M167.65,132.62l.05-.28,1.76-1.97h-1.36l.05-.3h1.85l-.04.28-1.76,1.97h1.46l-.05.3h-1.95Z"/><path class="cls-3" d="M169.92,133.3h.21c.27,0,.49-.16.7-.53l-.58-2.69h.41l.43,2.21,1.21-2.21h.44l-1.5,2.64c-.39.68-.68.88-1.14.88h-.23l.05-.3Z"/><path class="cls-3" d="M141.34,138.16c0-.06,0-.12.02-.19l.29-1.66h-.44l.05-.3h.44l.13-.77h.41l-.14.77h.61l-.05.3h-.61l-.3,1.67s0,.08,0,.11c0,.16.1.2.32.2h.25s-.05.28-.05.28c-.1,0-.22.02-.31.02-.42,0-.63-.1-.63-.43Z"/><path class="cls-3" d="M142.63,137.56c0-.94.53-1.6,1.42-1.6.67,0,1.06.4,1.06,1.05,0,.94-.53,1.6-1.43,1.6-.66,0-1.06-.4-1.06-1.05ZM144.7,137.03c0-.48-.25-.75-.67-.75-.63,0-.99.55-.99,1.27,0,.48.25.75.67.75.63,0,.99-.55.99-1.27Z"/><path class="cls-3" d="M146.54,138.56l.44-2.55h.39l-.09.54c.2-.43.46-.57.81-.57.07,0,.2.01.27.02l-.06.36h-.28c-.42-.01-.74.29-.85.91l-.22,1.29h-.41Z"/><path class="cls-3" d="M148.25,137.56c0-.88.48-1.6,1.39-1.6.74,0,1.03.54,1.03,1.05,0,.14-.02.27-.04.34h-1.97c-.01.08-.01.16-.01.23,0,.49.26.75.68.75.39,0,.68-.21.83-.54h.37c-.17.51-.57.83-1.23.83s-1.06-.41-1.06-1.05ZM148.71,137.07h1.56s0-.06,0-.1c0-.44-.24-.73-.65-.73-.44,0-.8.27-.91.83Z"/><path class="cls-3" d="M150.96,137.56c0-.89.47-1.6,1.31-1.6.44,0,.73.21.83.59l.27-1.51h.41l-.62,3.52h-.39l.08-.45c-.18.3-.49.5-.91.5-.64,0-.97-.44-.97-1.05ZM152.99,137.03c0-.48-.24-.75-.65-.75-.61,0-.97.55-.97,1.27,0,.48.24.75.65.75.61,0,.97-.55.97-1.27Z"/><path class="cls-3" d="M153.68,138.56l.44-2.55h.39l-.09.54c.2-.43.46-.57.81-.57.07,0,.2.01.27.02l-.06.36h-.28c-.42-.01-.74.29-.85.91l-.22,1.29h-.41Z"/><path class="cls-3" d="M155.32,137.92c0-.49.29-.74.89-.79l.62-.05c.29-.02.47-.1.47-.39,0-.27-.21-.43-.56-.43-.4,0-.64.17-.69.53h-.4c.04-.52.41-.83,1.12-.83.56,0,.93.24.93.7,0,.05,0,.11-.01.16l-.19,1.08c-.04.21-.06.38-.06.49,0,.07,0,.13.02.16h-.36c-.04-.06-.05-.14-.05-.22,0-.06,0-.13.02-.21-.19.31-.48.47-.92.47-.48,0-.82-.25-.82-.69ZM157.16,137.5l.05-.3c-.07.08-.22.12-.43.14l-.49.04c-.38.03-.55.2-.55.5,0,.27.2.44.53.44.49,0,.82-.35.9-.83Z"/><path class="cls-3" d="M160.18,138.56l-.25-2.02-.95,2.02h-.44l-.47-2.55h.42l.36,2.09.98-2.09h.38l.25,2.09,1.09-2.09h.43l-1.36,2.55h-.43Z"/><path class="cls-3" d="M163.39,138.16c0-.06,0-.12.02-.19l.29-1.66h-.44l.05-.3h.44l.13-.77h.41l-.14.77h.61l-.05.3h-.61l-.3,1.67s0,.08,0,.11c0,.16.1.2.32.2h.25s-.05.28-.05.28c-.1,0-.22.02-.31.02-.42,0-.63-.1-.63-.43Z"/><path class="cls-3" d="M166.4,138.56l.29-1.62c0-.07.02-.13.02-.19,0-.3-.17-.46-.49-.46-.4,0-.74.29-.83.81l-.25,1.46h-.41l.62-3.52h.41l-.24,1.35c.18-.27.48-.44.82-.44.49,0,.8.24.8.7,0,.06,0,.14-.02.22l-.3,1.69h-.41Z"/><path class="cls-3" d="M167.33,138.56l.44-2.55h.41l-.44,2.55h-.41ZM167.86,135.31c0-.15.1-.26.29-.26.15,0,.23.08.23.19,0,.15-.1.26-.29.26-.14,0-.23-.08-.23-.19Z"/><path class="cls-3" d="M168.29,137.9s0-.08.01-.12h.37c0,.37.19.54.62.54.46,0,.71-.19.71-.51,0-.22-.14-.32-.41-.36l-.41-.06c-.38-.05-.63-.23-.63-.62,0-.54.44-.82,1.08-.82.51,0,.89.19.89.67,0,.03,0,.07,0,.11h-.37c0-.3-.1-.5-.55-.5-.37,0-.63.14-.63.5,0,.22.13.29.33.32l.42.06c.44.06.71.25.71.66,0,.48-.4.82-1.16.82-.66,0-.97-.29-.97-.71Z"/></g></svg>