<?xml version="1.0" encoding="UTF-8"?><svg id="Layer_2" xmlns="http://www.w3.org/2000/svg" viewBox="0 0 199.52 273.17"><defs><style>.cls-1,.cls-2{letter-spacing:0em;}.cls-3{letter-spacing:-.03em;}.cls-4,.cls-2,.cls-5,.cls-6,.cls-7,.cls-8,.cls-9{font-family:CreatoDisplay-Italic, 'Creato Display';font-style:italic;}.cls-4,.cls-10{letter-spacing:-.02em;}.cls-11{fill:none;stroke:#231f20;stroke-miterlimit:10;stroke-width:4px;}.cls-12{font-size:14px;}.cls-12,.cls-13,.cls-14,.cls-15,.cls-16{fill:#231f20;}.cls-12,.cls-15,.cls-17{font-family:CreatoDisplay-Bold, 'Creato Display';font-weight:700;}.cls-5,.cls-18{letter-spacing:0em;}.cls-6{letter-spacing:-.04em;}.cls-19,.cls-9{letter-spacing:-.03em;}.cls-20{letter-spacing:-.01em;}.cls-21{letter-spacing:0em;}.cls-22{letter-spacing:-.02em;}.cls-23{letter-spacing:-.03em;}.cls-24{letter-spacing:0em;}.cls-25{letter-spacing:-.04em;}.cls-7,.cls-26{letter-spacing:-.01em;}.cls-27{letter-spacing:-.01em;}.cls-28{font-family:CreatoDisplay-Regular, 'Creato Display';}.cls-29{letter-spacing:-.02em;}.cls-14{font-size:6px;}.cls-15{font-size:4px;}.cls-30{letter-spacing:0em;}.cls-31{letter-spacing:-.02em;}.cls-32{letter-spacing:-.03em;}.cls-33{fill:#a686bd;}.cls-34{letter-spacing:-.02em;}.cls-17{font-size:11.69px;}.cls-17,.cls-35{fill:#f4eddd;}.cls-36{letter-spacing:0em;}.cls-37{letter-spacing:0em;}.cls-38{letter-spacing:.02em;}.cls-39{fill:#010101;}.cls-40{letter-spacing:-.03em;}.cls-41{letter-spacing:-.04em;}.cls-42{letter-spacing:-.03em;}.cls-16{font-family:CreatoDisplay-Medium, 'Creato Display';font-size:10px;font-weight:500;}.cls-43{letter-spacing:-.03em;}.cls-44{fill:#ab3443;}.cls-45{letter-spacing:-.03em;}</style></defs><g id="Layer_1-2"><path class="cls-33" d="M12.74,2h174.03c5.93,0,10.74,4.81,10.74,10.74v247.68c0,5.93-4.81,10.74-10.74,10.74H12.74c-5.93,0-10.74-4.81-10.74-10.74V12.74C2,6.81,6.81,2,12.74,2Z"/><path class="cls-13" d="M186.78,4c4.82,0,8.74,3.92,8.74,8.74v247.69c0,4.82-3.92,8.74-8.74,8.74H12.74c-4.82,0-8.74-3.92-8.74-8.74V12.74c0-4.82,3.92-8.74,8.74-8.74h174.03M186.78,0H12.74C5.7,0,0,5.7,0,12.74v247.69c0,7.04,5.7,12.74,12.74,12.74h174.03c7.04,0,12.74-5.7,12.74-12.74V12.74c0-7.04-5.7-12.74-12.74-12.74h0Z"/><path class="cls-35" d="M24.42,246.14c-5.92,0-10.74-4.82-10.74-10.74V23.07c0-5.92,4.82-10.74,10.74-10.74h150.98c5.92,0,10.74,4.82,10.74,10.74v12.9H13.69v114.73h172.46v84.7c0,5.92-4.82,10.74-10.74,10.74H24.42Z"/><path class="cls-13" d="M175.4,14.33c4.82,0,8.74,3.92,8.74,8.74v10.9H15.68v-10.9c0-4.82,3.92-8.74,8.74-8.74h150.98M184.14,152.7v82.7c0,4.82-3.92,8.74-8.74,8.74H24.42c-4.82,0-8.74-3.92-8.74-8.74v-82.7h168.46M175.4,10.33H24.42c-7.04,0-12.74,5.7-12.74,12.74v212.33c0,7.04,5.7,12.74,12.74,12.74h150.98c7.04,0,12.74-5.7,12.74-12.74V23.07c0-7.04-5.7-12.74-12.74-12.74h0ZM15.69,148.7V37.97h168.5v110.73H15.69Z"/><rect class="cls-44" x="15.69" y="37.97" width="168.5" height="110.73"/><line class="cls-11" x1="14.06" y1="35.97" x2="185.03" y2="35.97"/><line class="cls-11" x1="14.06" y1="150.71" x2="185.03" y2="150.71"/><line class="cls-11" x1="14.06" y1="168.51" x2="185.03" y2="168.51"/><text class="cls-12" transform="translate(20.2 29.52)"><tspan x="0" y="0">Thu</tspan><tspan class="cls-27" x="23.84" y="0">c</tspan><tspan class="cls-40" x="31.29" y="0">y</tspan><tspan x="38.6" y="0">cides’ </tspan><tspan class="cls-25" x="79.49" y="0">T</tspan><tspan class="cls-22" x="87.26" y="0">r</tspan><tspan x="92.26" y="0">ap</tspan></text><text class="cls-16" transform="translate(21.28 163)"><tspan x="0" y="0">Encha</tspan><tspan class="cls-20" x="27.46" y="0">n</tspan><tspan x="32.76" y="0">tme</tspan><tspan class="cls-36" x="49.71" y="0">n</tspan><tspan class="cls-21" x="55.01" y="0">t</tspan></text><text class="cls-15" transform="translate(20.98 255.04)"><tspan x="0" y="0">20</tspan><tspan class="cls-38" x="0" y="4.8">T</tspan><tspan x="2.48" y="4.8">TM - EN</tspan></text><path class="cls-13" d="M44.8,253.7c.31.07.47.28.47.6v.45c0,.12.02.22.04.29h-.52c-.04-.08-.06-.16-.06-.29v-.43c0-.35-.21-.44-.49-.44h-.65v1.15h-.54v-2.85h1.32c.61,0,.94.32.94.81,0,.36-.18.6-.51.7ZM44.3,252.6h-.72v.88h.72c.32,0,.46-.17.46-.44s-.14-.44-.46-.44Z"/><path class="cls-13" d="M48.93,258.92h.53c.04.38.22.55.66.55s.62-.18.62-.45c0-.2-.11-.32-.54-.39l-.36-.05c-.6-.08-.83-.29-.83-.76,0-.51.36-.88,1.1-.88s1.1.36,1.1.92h-.52c-.04-.34-.22-.51-.6-.51s-.55.18-.55.44c0,.2.09.3.47.35l.36.05c.58.08.9.3.9.8,0,.53-.38.89-1.18.89s-1.17-.35-1.17-.96Z"/><path class="cls-13" d="M51.61,260.25h.21c.24,0,.38-.12.38-.31,0-.06-.01-.13-.04-.2l-.74-1.97h.54l.54,1.66.54-1.66h.54l-.74,1.97c-.25.67-.52.88-1.02.88h-.2v-.37Z"/><path class="cls-13" d="M53.59,258.8c0-.64.36-1.07,1.02-1.07s1.03.44,1.03,1.05c0,.04,0,.08,0,.13h-1.53c.02.42.22.61.53.61.26,0,.42-.13.48-.34h.48c-.09.42-.4.69-.96.69-.67,0-1.05-.42-1.05-1.07ZM54.1,258.58h1.02c-.04-.33-.23-.49-.51-.49s-.46.16-.51.49Z"/><path class="cls-13" d="M55.85,258.8c0-.68.35-1.07.91-1.07.31,0,.52.13.64.35v-1.1h.52v2.85h-.49v-.35c-.11.24-.32.39-.66.39-.56,0-.91-.4-.91-1.07ZM57.4,258.8c0-.47-.21-.68-.52-.68s-.51.21-.51.68.21.68.51.68.52-.21.52-.68Z"/><path class="cls-13" d="M60.03,259.84v-2.4h-.86v-.44h2.28v.44h-.87v2.4h-.54Z"/><path class="cls-13" d="M61.31,259.25c0-.32.19-.57.71-.61l.42-.04c.21-.02.27-.08.27-.18,0-.2-.12-.32-.38-.32-.24,0-.37.1-.39.32h-.51c0-.42.26-.69.9-.69s.9.27.9.69v.88c0,.28.02.46.06.53h-.47c-.06-.08-.09-.16-.09-.32-.12.24-.32.36-.68.36-.48,0-.74-.24-.74-.62ZM62.7,258.98v-.14s-.13.07-.27.08l-.24.02c-.26.02-.36.13-.36.28,0,.18.12.31.38.31.32,0,.5-.24.5-.54Z"/><path class="cls-13" d="M63.56,257.2c0-.15.11-.27.3-.27s.3.12.3.27-.1.27-.3.27-.3-.12-.3-.27ZM63.6,259.84v-2.06h.52v2.06h-.52Z"/><path class="cls-13" d="M66.84,259.84v-1.28c0-.28-.09-.4-.29-.4-.22,0-.39.18-.39.52v1.17h-.5v-1.28c0-.28-.09-.4-.29-.4-.22,0-.39.18-.39.52v1.17h-.5v-2.06h.49v.34c.1-.22.28-.38.56-.38.3,0,.49.13.57.39.1-.24.31-.39.59-.39.42,0,.63.24.63.74v1.36h-.5Z"/><path class="cls-13" d="M67.63,258.8c0-.65.38-1.07,1.05-1.07s1.05.42,1.05,1.07-.38,1.07-1.05,1.07-1.05-.42-1.05-1.07ZM69.22,258.8c0-.46-.19-.68-.54-.68s-.53.22-.53.68.19.68.53.68.54-.22.54-.68Z"/><path class="cls-13" d="M69.95,258.8c0-.65.38-1.07,1.05-1.07s1.05.42,1.05,1.07-.38,1.07-1.05,1.07-1.05-.42-1.05-1.07ZM71.53,258.8c0-.46-.19-.68-.54-.68s-.53.22-.53.68.19.68.53.68.54-.22.54-.68Z"/><path class="cls-13" d="M72.34,259.84v-2.06h.49v.46c.11-.36.29-.49.58-.49.06,0,.14.02.19.03v.45h-.21c-.32,0-.53.23-.53.65v.96h-.52Z"/><path class="cls-13" d="M77.53,259.84v-2.35l-.82,2.35h-.46l-.83-2.35v2.35h-.52v-2.85h.85l.72,2.03.72-2.03h.86v2.85h-.52Z"/><path class="cls-13" d="M78.38,259.25c0-.32.19-.57.71-.61l.42-.04c.21-.02.27-.08.27-.18,0-.2-.12-.32-.38-.32-.24,0-.37.1-.39.32h-.51c0-.42.26-.69.9-.69s.9.27.9.69v.88c0,.28.02.46.06.53h-.47c-.06-.08-.09-.16-.09-.32-.12.24-.32.36-.68.36-.48,0-.74-.24-.74-.62ZM79.77,258.98v-.14s-.13.07-.27.08l-.24.02c-.26.02-.36.13-.36.28,0,.18.12.31.38.31.32,0,.5-.24.5-.54Z"/><path class="cls-13" d="M81.98,259.84v-1.26c0-.28-.1-.42-.35-.42-.27,0-.45.2-.45.53v1.15h-.52v-2.06h.49v.34c.11-.22.3-.38.63-.38.47,0,.71.24.71.74v1.36h-.52Z"/><path class="cls-13" d="M82.79,259.18h.5c.02.22.12.35.44.35s.42-.13.42-.28c0-.14-.11-.21-.29-.24l-.36-.05c-.48-.07-.66-.23-.66-.58s.25-.65.88-.65.88.28.88.66h-.5c-.02-.17-.08-.32-.39-.32-.26,0-.36.11-.36.27,0,.14.08.2.23.22l.35.05c.46.06.72.22.72.61,0,.37-.27.65-.94.65s-.93-.28-.93-.69Z"/><path class="cls-13" d="M84.88,258.8c0-.65.38-1.07,1.05-1.07s1.05.42,1.05,1.07-.38,1.07-1.05,1.07-1.05-.42-1.05-1.07ZM86.47,258.8c0-.46-.19-.68-.54-.68s-.53.22-.53.68.19.68.53.68.54-.22.54-.68Z"/><path class="cls-13" d="M87.2,258.8c0-.65.38-1.07,1.05-1.07s1.05.42,1.05,1.07-.38,1.07-1.05,1.07-1.05-.42-1.05-1.07ZM88.78,258.8c0-.46-.19-.68-.54-.68s-.53.22-.53.68.19.68.53.68.54-.22.54-.68Z"/><path class="cls-13" d="M89.6,259.84v-2.06h.49v.46c.11-.36.29-.49.58-.49.06,0,.14.02.19.03v.45h-.21c-.32,0-.53.23-.53.65v.96h-.52Z"/><text class="cls-15" transform="translate(152.89 258.15) scale(.58)"><tspan x="0" y="0" xml:space="preserve">TM  </tspan></text><text class="cls-15" transform="translate(157.54 259.49)"><tspan class="cls-37" x="0" y="0">&amp; © Ti</tspan><tspan class="cls-24" x="11.33" y="0">m</tspan><tspan x="14.51" y="0">taim</tspan></text><text class="cls-14" transform="translate(21.03 184.05)"><tspan class="cls-28"><tspan x="0" y="0">When</tspan><tspan class="cls-19" x="15.55" y="0">ev</tspan><tspan x="21.65" y="0">er an oppone</tspan><tspan class="cls-18" x="56.43" y="0">n</tspan><tspan class="cls-1" x="59.54" y="0">t gains li</tspan><tspan class="cls-3" x="80.65" y="0">f</tspan><tspan class="cls-31" x="82.4" y="0">e</tspan><tspan class="cls-30" x="85.57" y="0">, ta</tspan><tspan class="cls-32" x="93.36" y="0">r</tspan><tspan x="95.31" y="0">g</tspan><tspan class="cls-18" x="98.74" y="0">e</tspan><tspan x="101.97" y="0">t oppone</tspan><tspan class="cls-26" x="125.5" y="0">n</tspan><tspan x="128.61" y="0">t loses 1 </tspan></tspan><tspan class="cls-28"><tspan x="0" y="7.2">li</tspan><tspan class="cls-3" x="2.27" y="7.2">f</tspan><tspan class="cls-10" x="4.02" y="7.2">e</tspan><tspan x="7.19" y="7.2">. When</tspan><tspan class="cls-19" x="25.37" y="7.2">ev</tspan><tspan x="31.48" y="7.2">er an oppone</tspan><tspan class="cls-18" x="66.26" y="7.2">n</tspan><tspan class="cls-1" x="69.37" y="7.2">t d</tspan><tspan class="cls-29" x="76.28" y="7.2">r</tspan><tspan class="cls-31" x="78.24" y="7.2">a</tspan><tspan class="cls-42" x="81.29" y="7.2">w</tspan><tspan x="86.02" y="7.2">s their second ca</tspan><tspan class="cls-32" x="130.81" y="7.2">r</tspan><tspan x="132.76" y="7.2">d each </tspan></tspan><tspan class="cls-28"><tspan x="0" y="14.4">turn, ta</tspan><tspan class="cls-32" x="18.22" y="14.4">r</tspan><tspan x="20.17" y="14.4">g</tspan><tspan class="cls-18" x="23.59" y="14.4">e</tspan><tspan class="cls-1" x="26.83" y="14.4">t oppone</tspan><tspan class="cls-18" x="50.36" y="14.4">n</tspan><tspan x="53.47" y="14.4">t disca</tspan><tspan class="cls-32" x="70.77" y="14.4">r</tspan><tspan x="72.72" y="14.4">ds a ca</tspan><tspan class="cls-32" x="91.57" y="14.4">r</tspan><tspan x="93.52" y="14.4">d. When</tspan><tspan class="cls-43" x="115.13" y="14.4">ev</tspan><tspan x="121.23" y="14.4">er an </tspan></tspan><tspan class="cls-28"><tspan x="0" y="21.6">oppone</tspan><tspan class="cls-18" x="20.05" y="21.6">n</tspan><tspan class="cls-1" x="23.15" y="21.6">t m</tspan><tspan class="cls-19" x="31.31" y="21.6">ov</tspan><tspan x="37.48" y="21.6">es </tspan><tspan class="cls-23" x="45.23" y="21.6">t</tspan><tspan x="47.05" y="21.6">o comb</tspan><tspan class="cls-26" x="66.5" y="21.6">a</tspan><tspan x="69.61" y="21.6">t, goad ta</tspan><tspan class="cls-32" x="94.27" y="21.6">r</tspan><tspan x="96.22" y="21.6">g</tspan><tspan class="cls-18" x="99.65" y="21.6">e</tspan><tspan class="cls-1" x="102.88" y="21.6">t c</tspan><tspan class="cls-32" x="109.5" y="21.6">r</tspan><tspan x="111.45" y="21.6">e</tspan><tspan class="cls-18" x="114.74" y="21.6">a</tspan><tspan x="117.85" y="21.6">tu</tspan><tspan class="cls-45" x="123.01" y="21.6">r</tspan><tspan class="cls-10" x="124.96" y="21.6">e</tspan><tspan x="128.13" y="21.6">.</tspan></tspan><tspan class="cls-8"><tspan x="0" y="43.2">It </tspan><tspan class="cls-19" x="4.71" y="43.2">w</tspan><tspan x="9.43" y="43.2">as the rise </tspan><tspan class="cls-34" x="37.99" y="43.2">o</tspan><tspan x="41.22" y="43.2">f </tspan><tspan class="cls-41" x="44.67" y="43.2">A</tspan><tspan x="48.56" y="43.2">thens and the </tspan><tspan class="cls-3" x="85.84" y="43.2">f</tspan><tspan x="87.59" y="43.2">ear th</tspan><tspan class="cls-18" x="102.82" y="43.2">a</tspan><tspan class="cls-1" x="105.92" y="43.2">t this </tspan></tspan><tspan class="cls-8" x="0" y="50.4">in</tspan><tspan class="cls-5" x="4.3" y="50.4">s</tspan><tspan class="cls-2" x="7.2" y="50.4">tilled in Sparta th</tspan><tspan class="cls-7" x="50.83" y="50.4">a</tspan><tspan class="cls-8" x="53.93" y="50.4">t made </tspan><tspan class="cls-9" x="73.48" y="50.4">w</tspan><tspan class="cls-8" x="78.19" y="50.4">ar in</tspan><tspan class="cls-6" x="89.27" y="50.4">e</tspan><tspan class="cls-8" x="92.31" y="50.4">vitabl</tspan><tspan class="cls-4" x="106.33" y="50.4">e</tspan><tspan class="cls-8" x="109.5" y="50.4">.</tspan><tspan class="cls-28" x="110.63" y="50.4"> </tspan></text><path class="cls-39" d="M178.26,155.77c-2.17-2.18-5.69-2.2-7.88-.03-2.18,2.17-2.2,5.69-.03,7.88,2.17,2.18,5.69,2.2,7.88.03,2.18-2.17,2.2-5.69.03-7.88ZM173.63,157.15c.86-.85,1.73-1.36,1.96-1.13.23.23-.28,1.1-1.14,1.95-.86.85-1.73,1.36-1.96,1.13s.28-1.1,1.14-1.95ZM174.48,164.13c-1.19,0-2.51-.33-3.41-1.23-.87-.88-1.21-2.17-1.21-3.41,0-1.24.49-2.39,1.37-3.26l.84.84c-.81.8-1.25,1.86-1.26,3,0,.79.39,1.83.83,2.26.39.33,1.14.87,2.28.88,0,0,0,0,0,0,1.13,0,2.2-.43,3-1.23l.82.82c-.9.9-2.08,1.34-3.27,1.34ZM176.84,160.37c-.85.84-1.71,1.34-1.94,1.12-.22-.23.28-1.09,1.13-1.93.85-.84,1.71-1.34,1.94-1.12.22.23-.28,1.09-1.13,1.93Z"/><path class="cls-13" d="M45.55,256.69c-1.55,0-1.81,1.29-1.81,1.29v-1.12h-.99v.2l.07,2.8h.89l.07-1.15s.33,1.22,1.68,1.15c1.35-.07,2.28-1.46,2.28-1.46,0,0-.63-1.71-2.18-1.71ZM45.85,257.94c-1.27-.02-1.43-.34-1.43-.34,0,0,1.43-1.72,3.15.77,0,0-.45-.42-1.72-.43Z"/><path class="cls-39" d="M173.7,29.2c-2.58,0-4.67-2.1-4.67-4.67s2.1-4.67,4.67-4.67,4.67,2.1,4.67,4.67-2.1,4.67-4.67,4.67Z"/><path class="cls-13" d="M173.7,21.85c1.47,0,2.67,1.2,2.67,2.67s-1.2,2.67-2.67,2.67-2.67-1.2-2.67-2.67,1.2-2.67,2.67-2.67M173.7,17.85c-3.69,0-6.67,2.99-6.67,6.67s2.99,6.67,6.67,6.67,6.67-2.99,6.67-6.67-2.99-6.67-6.67-6.67h0Z"/><path class="cls-39" d="M159.06,29.2c-2.58,0-4.67-2.1-4.67-4.67s2.1-4.67,4.67-4.67,4.67,2.1,4.67,4.67-2.1,4.67-4.67,4.67Z"/><path class="cls-13" d="M159.06,21.85c1.47,0,2.67,1.2,2.67,2.67s-1.2,2.67-2.67,2.67-2.67-1.2-2.67-2.67,1.2-2.67,2.67-2.67M159.06,17.85c-3.69,0-6.67,2.99-6.67,6.67s2.99,6.67,6.67,6.67,6.67-2.99,6.67-6.67-2.99-6.67-6.67-6.67h0Z"/><text class="cls-17" transform="translate(154.28 28.58) scale(1.2 1)"><tspan x="0" y="0">4</tspan></text><path class="cls-33" d="M170.12,28.43c.88,0,1.74-.77,1.74-.77l-1.46-2.72-1.76,2.66s.6.82,1.48.82Z"/><path class="cls-33" d="M177.49,20.85h0s-.34-.59-.34-.59l-2.96,1.71v-1.41h-.82v1.89l-3.3,1.91.34.59,2.96-1.71v5.5h.82v-5.98l3.3-1.9-1.75,2.66s.6.82,1.48.82,1.74-.77,1.74-.77l-1.46-2.71Z"/><path class="cls-39" d="M64.16,67.67l-7.65-3.29-2.05.05-.21-.62,2.1-.31,3.44-2.46,2.98-.21s-.92-3.49-3.23-6.83c-2.31-3.34-10.25-3.97-10.25-3.97,0,0-9.81-1.78-12.99,7.72-.09.28,27.75,11.7,27.75,11.7l.1-1.8Z"/><path class="cls-39" d="M62.1,61.91l-.05-.72h-.23c-1.95-.31-4.75,2.46-4.9,2.54l3.16,1.92.03-.46c-1.18-.56-1.39-1.64-1.39-1.64.46-1.77,3.39-1.64,3.39-1.64Z"/><path class="cls-39" d="M61.46,65.15c.71,0,1.28-.57,1.28-1.28s-.57-1.28-1.28-1.28-1.28.57-1.28,1.28.57,1.28,1.28,1.28Z"/><path class="cls-39" d="M66.01,69.8v.59s1.86.89,2.54.85c.68-.04.27-1.28.27-1.28l-5.95-7.91-.29.44s1.64,1.68,1.69,3.3l-1.66-.07v.43s2.37.32,2.29,3.42h.69l-.05-.51s1.82-.36,2.23.72c0,0-.42.43-1.77.03Z"/><path class="cls-39" d="M48.29,49.25c10.63.31,11.86,4.41,11.86,4.41l2.52-3.08s-4.26-4.72-14.68-4.72-13.45,8.98-14.12,10.83l1.64.87s2.16-8.62,12.78-8.32Z"/><path class="cls-39" d="M33.25,59.52c-.35,3.89.77,8.47.77,8.47l3.59-.15c-2.67-2.16-2.46-7.24-2.46-7.24l-1.9-1.08Z"/><path class="cls-39" d="M62.88,50.38l.83-.58c-.15-.22-3.9-5.4-16.13-5.2-12.38.21-14.79,11.69-14.81,11.8l1,.2c.02-.11,2.26-10.79,13.83-10.99,11.62-.19,15.25,4.71,15.28,4.76Z"/><path class="cls-39" d="M31.99,59.1c-.06.74-.59,7.33.88,9.34l.82-.6c-1.06-1.45-.86-6.74-.69-8.66l-1.01-.09Z"/><path class="cls-39" d="M27.09,56.84l1.27,22.89,1.16.24.48-8.76,2.29-2.53c-1.4-2.87-.79-9.89-.79-9.89l-4.41-1.95Z"/><path class="cls-39" d="M42.87,44.77c8.97-2.46,17.83,2.19,17.83,2.19,0,0,2.51,1.69,3.24,2.67l2.87-2.3,1.76.74.72-.79s-6.52-5.94-11.17-7.17c0,0-29.26-9.5-31.09,13.59l5,2.31s1.87-8.78,10.84-11.24Z"/><path class="cls-39" d="M64.41,72.33l-28.35-11.43s-.15,6.31,5.18,9.09l.15,3.49-.98,1.33-4.31.51v.98l13.5-1.49.1-3.03.56.15v3.08l16.19,8.54-2.05-11.22Z"/><polygon class="cls-39" points="92.34 81.41 14.2 49.45 13.82 50.39 91.95 82.35 92.34 81.41"/><path class="cls-39" d="M42.36,76.74h-3.54c-2.52,3.85-6.52,3.8-6.52,3.8,6.83.62,10.06-3.8,10.06-3.8Z"/><path class="cls-39" d="M31.92,90.67l.92-.03s5.59-5.93,8.01-8.11c2.41-2.18,4.34-6.2,4.34-6.2l-2.46.18c.49,3.58-10.7,13.44-10.7,13.44l-.1.72Z"/><path class="cls-39" d="M33.08,88.25s8.25-8.49,8.35-9.68c0,0-3.83,3.49-9.92,3.29.31,2.42.75,4.67,1.57,6.4Z"/><path class="cls-39" d="M13.41,84.14l7.08,2.84c.34-.82,2.91-.86,2.91-.86,4.52-.34,7.31,3.56,7.31,3.56l-1.06-.07c-2.26-3.94-8.52-2.19-8.52-2.19l11.7,5.17-.07-1.23-.24.38s-1.33.38-1.33-1.13,1.61-2.05,1.61-2.05c-1.54-.92-1.92-7.46-1.92-7.46h-.68s-5.06,6.16-10.36,4.69c-5.3-1.47-5.34-3.49-5.34-3.49l-1.09,1.85Z"/><path class="cls-39" d="M21.28,79.11c-2.77.07-5.51-.03-6.5,1.51v1.23s2.43,3.11,5.92,3.46c3.49.34,8.9-4.17,8.9-4.17,0,0-1.54.58-3.39-.41-1.85-.99-2.16-1.68-4.93-1.61Z"/><path class="cls-39" d="M58.59,82.71l-5.75-3.73-2.43-3.05-3.66.07-1.71,2.7c3.01,5.99,13.55,4,13.55,4Z"/><path class="cls-39" d="M68.91,86.61c-5.2-.41-8.01-3.63-8.01-3.63,0,0-3.83,2.05-9.58.96-5.75-1.09-6.91-4.31-6.91-4.31l-10.67,10.89.26,2-.51.36,3.83,1.44c1.51-1.78,2.81-1.37,5.89-1.16,3.08.21,4.45,5.88,4.45,5.88l2.41,1.08c-.1-2.41,3-3.39,3-3.39l-.03.8c-2.4-.27-2.4,2.57-2.4,2.57l3.15,1.37s1.85-4.72,6.16-3.29c4.31,1.44,4.45,6.71,4.45,6.71l10.06,3.7-1.71-6.98c1.37-8.42-3.83-14.99-3.83-14.99Z"/><path class="cls-39" d="M27.94,93.15l-10.78-4.41-3.76,2.98,1.81,2.67c7.39,1.54,12.73-1.23,12.73-1.23Z"/><polygon class="cls-39" points="16.2 88.38 14.42 87.65 14.42 89.84 16.2 88.38"/><path class="cls-39" d="M42.66,99.02l2.43,1.64,16.94,6.06.82,1.92c6.23,4.52,24.57,7.87,24.57,7.87l-16.84-8.97-10.88-2.87-45.28-19.36v1.51l28.24,12.21Z"/><path class="cls-39" d="M42.38,93.91c-3.56-.75-4.65.92-4.65.92l9,3.76s-.79-3.94-4.35-4.69Z"/><path class="cls-39" d="M63.38,104.53s.41-4.11-3.9-5.13c-4.31-1.03-5.24,2.46-5.24,2.46l2.67.82s-.41-3.03,2.57-1.85c2.98,1.18,1.95,3.44,1.95,3.44l1.95.26Z"/><path class="cls-39" d="M57.58,102.94l3.18,1.08s.1-1.75-1.33-2.1c-1.44-.36-1.85,1.03-1.85,1.03Z"/><path class="cls-39" d="M58.86,107.94c1.61.38,2.4-.86,2.4-.86l-3.9-1.06s-.1,1.54,1.51,1.92Z"/><path class="cls-39" d="M53.52,104.58c-.06,2.81,1.88,5.4,5.22,6.84,3.34,1.44,6.09-.86,6.09-.86-1.71-.44-3.23-2.34-3.23-2.34,0,0-1.39,1.08-3.06.74s-2.07-3.45-2.07-3.45l-2.94-.92Z"/><path class="cls-39" d="M65.97,111.08l-1.03-.07c-1.54,1.68-4.28,1.68-4.28,1.68-6.71.44-8.21-8.11-8.21-8.11l-1.68-.75-.99,27.97-.89-.27c.68-1.71.68-28.27.68-28.27l-2.12-.89s.68,3.7-4.24,4.86c-4.93,1.16-8.14-3.15-8.14-3.15l5.2,28.54-2.33,2.33,23.08,5.1-2-2.62,6.95-26.35ZM41.07,134.38l-.44-.68,1.71-.99.31,1.13-1.57.55ZM45.98,122.06c-3.39,4.41-4.98,4.11-4.98,4.11l.05-.82s5.68-3.94,6.31-9.03c.63-5.1.39-6.78.39-6.78l.59-.05s1.02,8.16-2.37,12.58ZM54.39,135.14l.41-.59s1.26,1.46,2.44,1.46l.03.8s-2.03.28-2.87-1.67ZM57.95,129.84s-7.1-3.87-6.84-20.51l.86.14c-.22.3-.62,15.01,6.09,19.51l-.11.87Z"/><path class="cls-39" d="M32.98,95.64s1.33,8.83,5.3,10.16c3.97,1.33,7.08-.86,7.08-.86,0,0,1.54-1.06,1.27-2.81l-2.53-1.27s.55,2.46-1.2,2.77c-1.75.31-4.82.62-6.23-2.74s-.72-4.04-.72-4.04l-2.98-1.23Z"/><path class="cls-39" d="M36.68,97.35s.31,5.78,3.46,5.99c3.15.21,3.11-1.2,3.11-1.2,0,0,.86-2.12-2.12-3.05l-1.4-.51-.14,1.23-.72-.24.1-1.33-2.29-.89Z"/><path class="cls-39" d="M33.56,100.88s.62,21.04,2.87,23.92l1.64-1.13-4.52-22.79Z"/><path class="cls-39" d="M39.36,131.28l-.75-6.84c-.92-.03-3.63,2.26-3.63,2.26l2.5,5.1,1.88-.51Z"/><polygon class="cls-39" points="39.5 132.55 39.64 131.73 37.96 132.24 38.2 133.09 39.5 132.55"/><polygon class="cls-39" points="60.96 141.75 62.73 141.2 38.37 135.73 38.44 136.62 60.96 141.75"/><path class="cls-39" d="M38.92,137.48c1.37,1.86,2.67,6.97,3.68,12.05h19.25c-1.8-4.1-3.76-8.02-3.76-8.02l-19.16-4.04Z"/><path class="cls-39" d="M29.87,149.53h11.8c-7.66-34.61-27.11-54.21-27.11-54.21l-.14.64v18.94l15.45,34.63Z"/><polygon class="cls-39" points="26.5 149.53 27.95 149.53 27.66 148.94 26.12 145.04 14.42 116.52 14.42 120.26 26.5 149.53"/><polygon class="cls-39" points="15.14 123.43 14.42 121.59 14.42 122.41 15.14 123.43"/><path class="cls-39" d="M20.85,149.53h5.17l-10.26-24.51c-.4-.04-.86-.36-1.34-.83v11.15c2.13,4.86,4.26,9.66,6.43,14.19Z"/><path class="cls-39" d="M18.96,149.53h.71c-1.89-4.12-3.68-8.39-5.25-12.34v2.76c1.43,3.2,2.99,6.46,4.54,9.58Z"/><path class="cls-39" d="M77.53,124.06c-.77.21-6.11-.51-6.42-10.57l-4.67-2.1s1.28,3.49,3.13,4.36c1.85.87,2.62,7.08,2.62,7.08,0,0-.1,4.11-2.72,4l-.41-.67s2.46-.51,2.26-3.9c-.21-3.39-2.46-5.59-3.08-6.36-.62-.77-1.64-1.95-2.26-3.54l-1.03,7.13,3.85,8.37s7.13.56,8.73-3.8Z"/><path class="cls-39" d="M72.15,113.74s.1,6.98,2.41,8.78c0,0,1.64,1.13,2.98.56,0,0,.21-4.77-1.54-8.11l-3.85-1.23Z"/><path class="cls-39" d="M74.45,128.05c-2.19,1.03-5,.82-5,.82l-.34,1.51s2.12-.27,2.4,1.85c.27,2.12,5.34,9.03,5.34,9.03.82-2.46,7.19-4.52,7.19-4.52-.55-2.94-6.02-11.36-6.02-11.36,0,0-1.37,1.64-3.56,2.67Z"/><path class="cls-39" d="M79.35,140.2l-2.36,1.85c2.13,1.45,4.72,4.62,6.78,7.49h5.93c-.28-.21-.44-.35-.44-.35-5.24.26-9.91-8.98-9.91-8.98Z"/><path class="cls-39" d="M80.03,139.61c.77,3.44,8.11,10.11,8.67,8.62.56-1.49-4.31-10.47-4.31-10.47l-4.36,1.85Z"/><path class="cls-39" d="M79.18,145.82c-3.32-2.7-8.83-13.76-8.83-13.76l-2.22-1.59.07-2.53c-2.74-1.51-3.56-7.6-3.56-7.6l-4.93,16.7,5.24,5.2-2.74.89-1.78-1.09,2.25,7.49h20.13c-1.13-1.34-2.41-2.71-3.63-3.71Z"/><path class="cls-39" d="M113.9,131.61s-8.21,6.84-17.11-7.46c-8.9-14.3,1.61-19.44,1.61-19.44-14.51-23.2-30.85-22.07-30.85-22.07l.82,2.41c7.55,6.01,5.18,16.78,5.18,16.78l1.93,7.32,13.29,7.63-.41.89-11.39-2.6c1.92,1.92,1.8,10.23,1.8,10.23,2,1.39,11.33,22.17,11.33,22.17l.98,2.05h24.06c1.33-9.5-1.24-17.92-1.24-17.92Z"/><polygon class="cls-39" points="93.16 81.75 92.85 82.67 93.62 83.08 93.77 81.9 93.16 81.75"/><path class="cls-39" d="M94.75,83.5l22.25,10.15s-8.08-2.19-10.4-3.9c0,0,.14,5.89,26.55,11.63,0,0-20.77-13.84-24.11-13.48l-.31.67s6.52,2.05,8.57,4.31l-22.28-10.33-.28.95Z"/><polygon class="cls-39" points="90.5 85.06 95.08 88.86 98.47 86.26 92.41 83.45 90.5 85.06"/><path class="cls-39" d="M163.47,98.49c-7.25-11.5-14.65-20.39-28.61-24.09-13.96-3.7-30.83.51-39.37,7.17l6.06,3.03s10.51-7.68,26.52-5.22c16.01,2.46,24.23,13,24.23,13,0,0,11.05,13.59,9.31,28.37s-9.14,24.06-9.14,24.06c0,0-1.94,2.16-4.67,4.72h7.79c5.6-6.72,8.62-13.33,9.09-14.66.72-2.05,6.06-24.88-1.2-36.38Z"/><path class="cls-39" d="M149.93,146.82c11.4-13.65,10.88-29.67,10.88-29.67,0,0-.51-16.84-12.35-27.79-11.84-10.95-27.24-9.6-27.24-9.6,0,0-16.41,1.56-19.28,5.41l3.95,2.1s6.78-2.09,22.86,10.37l6.16,4.45s-17.93-2.4-24.09-7.25c0,0-5.61-3.49-5.41-5.41l-5.92-2.84-3.49,3.13s6.38,6.74,9.46,11.94c0,0,4.89,11.13,6.05,11.72l-1.21-.18s-10.48-25.06-28.86-32.96c0,0-10.98-3.64-14.73-2.87l.77,3.8s17.9,2.1,27.96,17.4c10.06,15.3,9.55,17.14,9.55,17.14l.98.39,3.42-2.29s1.4.1,1.4.21-.48.75-.48.75c0,0-4.45,1.47-4.38,2.4l-1.71-1.2-4.21-8.86s-8.79,1.69.14,17.09c0,0,6.44,8.9,11.78,3.75,0,0-1.08-4.9-4.57-8.94l-.15-.98s4.49-.43,5.44-2.15c0,0,5.87,7.19,7.58,16.97.97,5.54.78,12.05.43,16.67h26.7c.9-.84,1.76-1.73,2.58-2.71Z"/><path class="cls-39" d="M112.63,116.79c-1.23,1.69-3.95,1.69-3.95,1.69,4.93,5.41,7.49,19.64,7.9,28.13.05.96.01,1.93-.08,2.92h3.78c2.13-18.25-7.65-32.74-7.65-32.74Z"/><path class="cls-39" d="M106.79,69.99l13.85-2.43c-.51-.59-.61-1.27-.51-2.01l-13.35,2.86s-2.16-5.65-28.03,5.95c0,0,26.73.58,28.03-4.38Z"/><path class="cls-39" d="M122.19,67.6s-.08-.78-.46-.89,0-1.71,0-1.71c0,0-.24-.32-.49-.06,0,0-1.12.89-.46,2.09.65,1.21,1.41.56,1.41.56Z"/><path class="cls-39" d="M122.64,66.94l20.27-3.38.98-2.1-21.55,3.87s-.64.98.31,1.62Z"/><path class="cls-39" d="M145.05,51.52s5.95-6.36,16.97-4.38c11.02,1.98,12.93,9.44,12.93,9.44,0,0,1.4,10.47-2.02,13.35,0,0,2.43,2.16,3.15,5.44.72,3.29,1.23,9.44,3.59,10.47,0,0-3.08-14.68-.82-21.87,0,0,1.9-15.6-7.48-20.05-9.38-4.45-24.26-1.54-29.62,3.49,0,0-.41,1.03.21,1.57.62.55,2.4.55,3.08,2.53Z"/><path class="cls-39" d="M174.27,56.65c-.22-.77-8.05-16.58-28.9-4.72l1.61,3.23s5.65-3.9,14.27-1.75c8.62,2.16,8.93,7.85,8.93,7.85,0,0,.1,5.24-1.85,8.16,0,0,4.23.19,4.12.15s3.49-4.35,1.81-12.93Z"/><path class="cls-39" d="M172.24,82.91l2.23,1.06s-.82-.53-2.23-1.06Z"/><path class="cls-39" d="M155.29,81.92c6.19-2.53,6.83.55,6.83.55,4.3-1.19,7.93-.37,10.12.44l-2.16-1.03s-2.02-1.57-6.67-1.88-6.96-2.74-6.96-2.74l-.62-.07s.03,2.57-3.29,2.98c-3.32.41-4.17-1.81-4.17-1.81,0,0,2.98-.72,6.16-1.39s3.08-4.06,3.08-4.06l1.13-.36-2.05,4.31c2.67,1.64,6.93,2.26,6.93,2.26-.82-.56-.05-4.88-.05-4.88l4.36-5.65s5.44-9.34-4.41-13.76c-9.86-4.41-15.71,1.35-15.71,1.35l-3.29,5.83s3.05-1.28,3.85-.21c.8,1.08,3.64,2.43,3.64,2.43h1.88s-.07.51-.14.62c-.07.1-2.5.21-2.5.21-1.57,2.67-7.39,2.12-7.39,2.12l-3.08,8.28c12.59,5.2,20.6,18.14,20.6,18.14l-.72-10.57s-1.13.58-4.35.65c-3.22.07-1.03-1.78-1.03-1.78Z"/><path class="cls-39" d="M140.19,70.49l2.16-.31.86-3.7s1.03-.68,1.33-.03c.31.65,3.97.48,4.45-.27.48-.75,1.95-1.33,1.95-1.33l-.14-.44c-.62.24-1.61-.82-1.61-.82-1.71-2.4-4.86-.55-4.86-.55l-6.33,9.38s.21,1.3,1.16.75,1.51.14,1.51.14l.38.17.82-2.5-1.23.07s-.86,1.27-1.13.68.68-1.23.68-1.23ZM146.4,63.27c.71,0,1.28.57,1.28,1.28s-.57,1.28-1.28,1.28-1.28-.57-1.28-1.28.57-1.28,1.28-1.28Z"/><path class="cls-39" d="M170.39,97.18l.46.41s6.83-10.98,6.42-12.68c0,0-1.85.36-3.85-.26s-2.52-2.16-6.06-2.26c-3.54-.1-5.22,1.09-5.22,1.09l-.27,10.93s4.57,6.76,4.98,13.02l3.39-9.19-.51-1.9,6.52-10.83s-.51,3.08-2.05,4.72c-1.54,1.64-3.8,6.93-3.8,6.93Z"/><path class="cls-39" d="M164.95,136.31s-3.82,8.09-7.71,13.22h12.17c.82-4.3,1.22-11.36-4.45-13.22Z"/><path class="cls-39" d="M98.12,122.59c-6.36-14.92.75-16.07.75-16.07l-.21-1.1s-2.53,1.97-2.94,2.38c-.41.41-4.04,8.21,2.94,18.07,6.98,9.86,14.85,5,14.85,5l-1.16-2.26c-7.87,6.43-14.24-6.02-14.24-6.02Z"/><path class="cls-39" d="M165.22,134.67l11.43,9.65,2.19-1.98-12.32-13.48s-.41,4.31-1.3,5.82Z"/><path class="cls-39" d="M174.05,97.75s5.31,2.69,11.42,3.02v-5.97c-3.5-.07-7.58.57-11.42,2.95Z"/><path class="cls-39" d="M177.76,86.15l-5.8,10.42s1.47.63,1.68.5c.2-.13,3.3-3.22,11.83-2.94v-1.84c-2.97-.47-5.97-2.08-7.71-6.14Z"/><path class="cls-39" d="M170.96,81.72s5.34,0,5.77-.87l-1.15-4.34s-8.55.85-10.11,2.82c0,0,3.62.49,5.49,2.39Z"/><polygon class="cls-39" points="178.73 76.22 179.24 79.92 180.27 78.86 185.47 77.69 185.47 76.47 180 77.32 178.73 76.22"/><path class="cls-39" d="M180.03,85.86v.79l-1.66-.7s2.89,5.6,7.1,5.87v-5.62c-1.42-.35-3.22-.54-5.44-.34Z"/><path class="cls-39" d="M167.54,123.29c.31,1.23-.44,5-.44,5l7.67,7.6,10.71-13.99v-20.61c-.84-.08-1.37-.16-1.37-.16-6.98,5.75-16.56,22.17-16.56,22.17Z"/><path class="cls-39" d="M174.76,135.88l-.07.58,1.44,1.71,9.34-12.27v-2.65c-4.49,5.81-9.12,11.55-10.71,12.63Z"/><polygon class="cls-39" points="169.63 139.51 170.04 140.91 170.96 139.99 169.63 139.51"/><polygon class="cls-39" points="172.3 141.39 171.13 140.61 170.43 141.27 170.35 141.36 170.79 143.34 172.3 141.39"/><path class="cls-39" d="M173.02,142.18l-2.05,1.92c.45,1.37.06,3.64-.38,5.43h1.84l4.42-4.51-3.83-2.84Z"/><path class="cls-39" d="M176.25,138.43l.16.19,2.72,3.37s3.09-3.78,6.35-7.93v-6.92c-3.61,4.84-8.58,11.32-9.22,11.29Z"/><path class="cls-39" d="M175.63,149.53c2.74-3.33,6.45-8.12,9.84-12.63v-1.79c-4.32,5.28-9.38,11.09-12.41,14.42h2.57Z"/></g></svg>