<?xml version="1.0" encoding="UTF-8"?><svg id="Layer_2" xmlns="http://www.w3.org/2000/svg" viewBox="0 0 199.52 273.17"><defs><style>.cls-1{fill:none;stroke:#231f20;stroke-width:4px;}.cls-1,.cls-2,.cls-3,.cls-4{stroke-miterlimit:10;}.cls-5{font-size:14px;}.cls-5,.cls-6,.cls-7,.cls-8,.cls-9{fill:#231f20;}.cls-5,.cls-10{font-family:CreatoDisplay-Bold, 'Creato Display';font-weight:700;}.cls-11{letter-spacing:0em;}.cls-12{letter-spacing:-.03em;}.cls-10{font-size:4px;}.cls-10,.cls-13{fill:#f4eddd;}.cls-14{fill:#e95242;}.cls-15{letter-spacing:-.04em;}.cls-16{letter-spacing:0em;}.cls-17{fill:#e65544;}.cls-18{letter-spacing:-.03em;}.cls-2{fill:#3a88c6;}.cls-2,.cls-3,.cls-4{stroke:#f4eddd;}.cls-19{letter-spacing:-.01em;}.cls-20{letter-spacing:-.02em;}.cls-21{letter-spacing:-.03em;}.cls-22{letter-spacing:0em;}.cls-23{letter-spacing:0em;}.cls-7{font-family:CreatoDisplay-Italic, 'Creato Display';font-style:italic;}.cls-7,.cls-8{font-size:8px;}.cls-24{letter-spacing:-.03em;}.cls-8{font-family:CreatoDisplay-Regular, 'Creato Display';}.cls-3{fill:#7bc062;}.cls-25{fill:#a686bd;}.cls-4{fill:#ede983;}.cls-26{letter-spacing:0em;}.cls-27{letter-spacing:0em;}.cls-28{letter-spacing:.02em;}.cls-29{fill:#010101;}.cls-30{letter-spacing:-.09em;}.cls-31{letter-spacing:-.03em;}.cls-32{letter-spacing:-.02em;}.cls-33{letter-spacing:-.04em;}.cls-34{letter-spacing:-.01em;}.cls-35{letter-spacing:-.02em;}.cls-9{font-family:CreatoDisplay-Medium, 'Creato Display';font-size:10px;font-weight:500;}.cls-36{letter-spacing:-.02em;}</style></defs><g id="Layer_1-2"><path class="cls-14" d="M12.74,2h174.03c5.93,0,10.74,4.81,10.74,10.74v247.68c0,5.93-4.81,10.74-10.74,10.74H12.74c-5.93,0-10.74-4.81-10.74-10.74V12.74C2,6.81,6.81,2,12.74,2Z"/><path class="cls-6" d="M186.78,4c4.82,0,8.74,3.92,8.74,8.74v247.69c0,4.82-3.92,8.74-8.74,8.74H12.74c-4.82,0-8.74-3.92-8.74-8.74V12.74c0-4.82,3.92-8.74,8.74-8.74h174.03M186.78,0H12.74C5.7,0,0,5.7,0,12.74v247.69c0,7.04,5.7,12.74,12.74,12.74h174.03c7.04,0,12.74-5.7,12.74-12.74V12.74c0-7.04-5.7-12.74-12.74-12.74h0Z"/><rect class="cls-13" x="13.78" y="12.26" width="172.46" height="233.81" rx="10.74" ry="10.74"/><path class="cls-6" d="M175.5,14.26c4.82,0,8.74,3.92,8.74,8.74v212.33c0,4.82-3.92,8.74-8.74,8.74H24.53c-4.82,0-8.74-3.92-8.74-8.74V23c0-4.82,3.92-8.74,8.74-8.74h150.98M175.5,10.26H24.53c-7.04,0-12.74,5.7-12.74,12.74v212.33c0,7.04,5.7,12.74,12.74,12.74h150.98c7.04,0,12.74-5.7,12.74-12.74V23c0-7.04-5.7-12.74-12.74-12.74h0Z"/><line class="cls-1" x1="14.16" y1="35.9" x2="185.13" y2="35.9"/><line class="cls-1" x1="14.16" y1="150.64" x2="185.13" y2="150.64"/><line class="cls-1" x1="14.16" y1="168.44" x2="185.13" y2="168.44"/><text class="cls-5" transform="translate(20.3 29.45)"><tspan x="0" y="0">Qualia</tspan></text><text class="cls-9" transform="translate(20.57 162.93)"><tspan x="0" y="0">So</tspan><tspan class="cls-35" x="12" y="0">r</tspan><tspan class="cls-22" x="15.44" y="0">cery</tspan></text><text class="cls-10" transform="translate(21.08 254.97)"><tspan x="0" y="0">5</tspan><tspan class="cls-28" x="0" y="4.8">T</tspan><tspan x="2.48" y="4.8">TM - EN</tspan></text><path class="cls-13" d="M43.03,253.55c0-.87.51-1.46,1.41-1.46.78,0,1.31.46,1.31,1.08h-.52c-.05-.36-.3-.64-.8-.64-.57,0-.87.36-.87,1.02s.3,1.02.87,1.02c.49,0,.75-.26.8-.66h.52c0,.63-.52,1.1-1.31,1.1-.9,0-1.41-.6-1.41-1.46Z"/><path class="cls-13" d="M49.03,258.85h.53c.04.38.22.55.66.55s.62-.18.62-.45c0-.2-.11-.32-.54-.39l-.36-.05c-.6-.08-.83-.29-.83-.76,0-.51.36-.88,1.1-.88s1.1.36,1.1.92h-.52c-.04-.34-.22-.51-.6-.51s-.55.18-.55.44c0,.2.09.3.47.35l.36.05c.58.08.9.3.9.8,0,.53-.38.89-1.18.89s-1.17-.35-1.17-.96Z"/><path class="cls-13" d="M51.71,260.18h.21c.24,0,.38-.12.38-.31,0-.06-.01-.13-.04-.2l-.74-1.97h.54l.54,1.66.54-1.66h.54l-.74,1.97c-.25.67-.52.88-1.02.88h-.2v-.37Z"/><path class="cls-13" d="M53.69,258.74c0-.64.36-1.07,1.02-1.07s1.03.44,1.03,1.05c0,.04,0,.08,0,.13h-1.53c.02.42.22.61.53.61.26,0,.42-.13.48-.34h.48c-.09.42-.4.69-.96.69-.67,0-1.05-.42-1.05-1.07ZM54.2,258.51h1.02c-.04-.33-.23-.49-.51-.49s-.46.16-.51.49Z"/><path class="cls-13" d="M55.96,258.74c0-.68.35-1.07.91-1.07.31,0,.52.13.64.35v-1.1h.52v2.85h-.49v-.35c-.11.24-.32.39-.66.39-.56,0-.91-.4-.91-1.07ZM57.5,258.74c0-.47-.21-.68-.52-.68s-.51.21-.51.68.21.68.51.68.52-.21.52-.68Z"/><path class="cls-13" d="M60.13,259.77v-2.4h-.86v-.44h2.28v.44h-.87v2.4h-.54Z"/><path class="cls-13" d="M61.41,259.18c0-.32.19-.57.71-.61l.42-.04c.21-.02.27-.08.27-.18,0-.2-.12-.32-.38-.32-.24,0-.37.1-.39.32h-.51c0-.42.26-.69.9-.69s.9.27.9.69v.88c0,.28.02.46.06.53h-.47c-.06-.08-.09-.16-.09-.32-.12.24-.32.36-.68.36-.48,0-.74-.24-.74-.62ZM62.81,258.91v-.14s-.13.07-.27.08l-.24.02c-.26.02-.36.13-.36.28,0,.18.12.31.38.31.32,0,.5-.24.5-.54Z"/><path class="cls-13" d="M63.66,257.13c0-.15.11-.27.3-.27s.3.12.3.27-.1.27-.3.27-.3-.12-.3-.27ZM63.7,259.77v-2.06h.52v2.06h-.52Z"/><path class="cls-13" d="M66.94,259.77v-1.28c0-.28-.09-.4-.29-.4-.22,0-.39.18-.39.52v1.17h-.5v-1.28c0-.28-.09-.4-.29-.4-.22,0-.39.18-.39.52v1.17h-.5v-2.06h.49v.34c.1-.22.28-.38.56-.38.3,0,.49.13.57.39.1-.24.31-.39.59-.39.42,0,.63.24.63.74v1.36h-.5Z"/><path class="cls-13" d="M67.74,258.74c0-.65.38-1.07,1.05-1.07s1.05.42,1.05,1.07-.38,1.07-1.05,1.07-1.05-.42-1.05-1.07ZM69.32,258.74c0-.46-.19-.68-.54-.68s-.53.22-.53.68.19.68.53.68.54-.22.54-.68Z"/><path class="cls-13" d="M70.05,258.74c0-.65.38-1.07,1.05-1.07s1.05.42,1.05,1.07-.38,1.07-1.05,1.07-1.05-.42-1.05-1.07ZM71.63,258.74c0-.46-.19-.68-.54-.68s-.53.22-.53.68.19.68.53.68.54-.22.54-.68Z"/><path class="cls-13" d="M72.45,259.77v-2.06h.49v.46c.11-.36.29-.49.58-.49.06,0,.14.02.19.03v.45h-.21c-.32,0-.53.23-.53.65v.96h-.52Z"/><path class="cls-13" d="M77.63,259.77v-2.35l-.82,2.35h-.46l-.83-2.35v2.35h-.52v-2.85h.85l.72,2.03.72-2.03h.86v2.85h-.52Z"/><path class="cls-13" d="M78.48,259.18c0-.32.19-.57.71-.61l.42-.04c.21-.02.27-.08.27-.18,0-.2-.12-.32-.38-.32-.24,0-.37.1-.39.32h-.51c0-.42.26-.69.9-.69s.9.27.9.69v.88c0,.28.02.46.06.53h-.47c-.06-.08-.09-.16-.09-.32-.12.24-.32.36-.68.36-.48,0-.74-.24-.74-.62ZM79.87,258.91v-.14s-.13.07-.27.08l-.24.02c-.26.02-.36.13-.36.28,0,.18.12.31.38.31.32,0,.5-.24.5-.54Z"/><path class="cls-13" d="M82.08,259.77v-1.26c0-.28-.1-.42-.35-.42-.27,0-.45.2-.45.53v1.15h-.52v-2.06h.49v.34c.11-.22.3-.38.63-.38.47,0,.71.24.71.74v1.36h-.52Z"/><path class="cls-13" d="M82.9,259.12h.5c.02.22.12.35.44.35s.42-.13.42-.28c0-.14-.11-.21-.29-.24l-.36-.05c-.48-.07-.66-.23-.66-.58s.25-.65.88-.65.88.28.88.66h-.5c-.02-.17-.08-.32-.39-.32-.26,0-.36.11-.36.27,0,.14.08.2.23.22l.35.05c.46.06.72.22.72.61,0,.37-.27.65-.94.65s-.93-.28-.93-.69Z"/><path class="cls-13" d="M84.99,258.74c0-.65.38-1.07,1.05-1.07s1.05.42,1.05,1.07-.38,1.07-1.05,1.07-1.05-.42-1.05-1.07ZM86.57,258.74c0-.46-.19-.68-.54-.68s-.53.22-.53.68.19.68.53.68.54-.22.54-.68Z"/><path class="cls-13" d="M87.3,258.74c0-.65.38-1.07,1.05-1.07s1.05.42,1.05,1.07-.38,1.07-1.05,1.07-1.05-.42-1.05-1.07ZM88.89,258.74c0-.46-.19-.68-.54-.68s-.53.22-.53.68.19.68.53.68.54-.22.54-.68Z"/><path class="cls-13" d="M89.7,259.77v-2.06h.49v.46c.11-.36.29-.49.58-.49.06,0,.14.02.19.03v.45h-.21c-.32,0-.53.23-.53.65v.96h-.52Z"/><text class="cls-10" transform="translate(151.91 258.29) scale(.58)"><tspan x="0" y="0" xml:space="preserve">TM  </tspan></text><text class="cls-10" transform="translate(156.56 259.62)"><tspan class="cls-27" x="0" y="0">&amp; © Ti</tspan><tspan class="cls-16" x="11.33" y="0">m</tspan><tspan x="14.51" y="0">taim</tspan></text><path class="cls-29" d="M178.36,155.7c-2.17-2.18-5.69-2.2-7.88-.03-2.18,2.17-2.2,5.69-.03,7.88s5.69,2.2,7.88.03c2.18-2.17,2.2-5.69.03-7.88ZM173.73,157.08c.86-.85,1.73-1.36,1.96-1.13.23.23-.28,1.1-1.14,1.95-.86.85-1.73,1.36-1.96,1.13s.28-1.1,1.14-1.95ZM174.58,164.06c-1.19,0-2.51-.33-3.41-1.23-.87-.88-1.21-2.17-1.21-3.41,0-1.24.49-2.39,1.37-3.26l.84.84c-.81.8-1.25,1.86-1.26,3,0,.79.39,1.83.83,2.26.39.33,1.14.87,2.28.88,0,0,0,0,0,0,1.13,0,2.2-.43,3-1.23l.82.82c-.9.9-2.08,1.34-3.27,1.34ZM176.94,160.3c-.85.84-1.71,1.34-1.94,1.12-.22-.23.28-1.09,1.13-1.93.85-.84,1.71-1.34,1.94-1.12.22.23-.28,1.09-1.13,1.93Z"/><path class="cls-13" d="M45.65,256.62c-1.55,0-1.81,1.29-1.81,1.29v-1.12h-.99v.2l.07,2.8h.89l.07-1.15s.33,1.22,1.68,1.15c1.35-.07,2.28-1.46,2.28-1.46,0,0-.63-1.71-2.18-1.71ZM45.95,257.87c-1.27-.02-1.43-.34-1.43-.34,0,0,1.43-1.72,3.15.77,0,0-.45-.42-1.72-.43Z"/><path class="cls-29" d="M173.27,29.02c-2.58,0-4.67-2.1-4.67-4.67s2.1-4.67,4.67-4.67,4.67,2.1,4.67,4.67-2.1,4.67-4.67,4.67Z"/><path class="cls-6" d="M173.27,21.67c1.47,0,2.67,1.2,2.67,2.67s-1.2,2.67-2.67,2.67-2.67-1.2-2.67-2.67,1.2-2.67,2.67-2.67M173.27,17.67c-3.69,0-6.67,2.99-6.67,6.67s2.99,6.67,6.67,6.67,6.67-2.99,6.67-6.67-2.99-6.67-6.67-6.67h0Z"/><path class="cls-14" d="M176.72,24.22c0-1.73-1.29-3.16-2.95-3.4v-.47h1.39v-1h-3.9v1h1.51v.47c-1.67.24-2.95,1.67-2.95,3.4s1.29,3.16,2.95,3.4v.5h-1.51v1h3.9v-1h-1.39v-.5c1.67-.24,2.95-1.67,2.95-3.4ZM175.72,24.22c0,1.18-.84,2.17-1.95,2.4v-4.8c1.11.23,1.95,1.22,1.95,2.4ZM170.81,24.22c0-1.18.84-2.17,1.95-2.4v4.8c-1.11-.23-1.95-1.22-1.95-2.4Z"/><path class="cls-29" d="M158.97,29.02c-2.58,0-4.67-2.1-4.67-4.67s2.1-4.67,4.67-4.67,4.67,2.1,4.67,4.67-2.1,4.67-4.67,4.67Z"/><path class="cls-6" d="M158.97,21.67c1.47,0,2.67,1.2,2.67,2.67s-1.2,2.67-2.67,2.67-2.67-1.2-2.67-2.67,1.2-2.67,2.67-2.67M158.97,17.67c-3.69,0-6.67,2.99-6.67,6.67s2.99,6.67,6.67,6.67,6.67-2.99,6.67-6.67-2.99-6.67-6.67-6.67h0Z"/><path class="cls-14" d="M162.43,24.22c0-1.73-1.29-3.16-2.95-3.4v-.47h1.39v-1h-3.9v1h1.51v.47c-1.67.24-2.95,1.67-2.95,3.4s1.29,3.16,2.95,3.4v.5h-1.51v1h3.9v-1h-1.39v-.5c1.67-.24,2.95-1.67,2.95-3.4ZM161.43,24.22c0,1.18-.84,2.17-1.95,2.4v-4.8c1.11.23,1.95,1.22,1.95,2.4ZM156.52,24.22c0-1.18.84-2.17,1.95-2.4v4.8c-1.11-.23-1.95-1.22-1.95-2.4Z"/><text class="cls-8" transform="translate(20.17 183.97)"><tspan x="0" y="0">As </tspan><tspan class="cls-12" x="11.45" y="0">y</tspan><tspan x="15.43" y="0">ou ca</tspan><tspan class="cls-34" x="34.54" y="0">s</tspan><tspan x="38.41" y="0">t Qualia name a colour.</tspan><tspan x="0" y="9.6"></tspan><tspan class="cls-30" x="0" y="19.2">T</tspan><tspan class="cls-23" x="3.93" y="19.2">a</tspan><tspan class="cls-21" x="8.15" y="19.2">r</tspan><tspan x="10.75" y="19.2">g</tspan><tspan class="cls-34" x="15.32" y="19.2">e</tspan><tspan x="19.63" y="19.2">t oppone</tspan><tspan class="cls-26" x="51.01" y="19.2">n</tspan><tspan x="55.15" y="19.2">t mu</tspan><tspan class="cls-19" x="70.25" y="19.2">s</tspan><tspan class="cls-23" x="74.11" y="19.2">t describe the </tspan><tspan class="cls-12" x="124.38" y="19.2">w</tspan><tspan class="cls-32" x="130.67" y="19.2">a</tspan><tspan class="cls-23" x="134.7" y="19.2">y th</tspan><tspan class="cls-12" x="147.8" y="19.2">e</tspan><tspan class="cls-23" x="151.95" y="19.2">y </tspan><tspan x="0" y="28.8">pe</tspan><tspan class="cls-24" x="8.96" y="28.8">r</tspan><tspan x="11.56" y="28.8">ci</tspan><tspan class="cls-18" x="17.25" y="28.8">ev</tspan><tspan x="25.38" y="28.8">e and </tspan><tspan class="cls-15" x="46.79" y="28.8">e</tspan><tspan class="cls-11" x="50.86" y="28.8">xperience chosen colour. Th</tspan><tspan class="cls-18" x="148.89" y="28.8">e</tspan><tspan x="153.04" y="28.8">y </tspan><tspan x="0" y="38.4">m</tspan><tspan class="cls-20" x="6.22" y="38.4">a</tspan><tspan class="cls-23" x="10.26" y="38.4">y </tspan><tspan class="cls-33" x="16.48" y="38.4">e</tspan><tspan x="20.55" y="38.4">xp</tspan><tspan class="cls-24" x="29.18" y="38.4">r</tspan><tspan x="31.78" y="38.4">ess this in a</tspan><tspan class="cls-20" x="72.35" y="38.4">n</tspan><tspan class="cls-23" x="76.38" y="38.4">y </tspan><tspan class="cls-12" x="82.61" y="38.4">w</tspan><tspan class="cls-32" x="88.9" y="38.4">a</tspan><tspan class="cls-23" x="92.93" y="38.4">y th</tspan><tspan class="cls-12" x="106.02" y="38.4">e</tspan><tspan class="cls-23" x="110.18" y="38.4">y choos</tspan><tspan class="cls-36" x="137.72" y="38.4">e</tspan><tspan x="141.95" y="38.4">.</tspan></text><text class="cls-7" transform="translate(20.58 235.74)"><tspan x="0" y="0">Wh</tspan><tspan class="cls-34" x="12.11" y="0">a</tspan><tspan class="cls-23" x="16.26" y="0">t is it li</tspan><tspan class="cls-33" x="37.54" y="0">k</tspan><tspan x="41.43" y="0">e </tspan><tspan class="cls-31" x="47.82" y="0">t</tspan><tspan x="50.24" y="0">o be a b</tspan><tspan class="cls-34" x="78.48" y="0">a</tspan><tspan class="cls-23" x="82.62" y="0">t?</tspan></text><circle class="cls-17" cx="49.53" cy="93.53" r="19.97"/><circle class="cls-4" cx="74.33" cy="93.53" r="19.97"/><circle class="cls-25" cx="148.73" cy="93.53" r="19.97"/><circle class="cls-2" cx="123.93" cy="93.53" r="19.97"/><circle class="cls-3" cx="99.13" cy="93.53" r="19.97"/></g></svg>