<?xml version="1.0" encoding="UTF-8"?><svg id="Layer_2" xmlns="http://www.w3.org/2000/svg" viewBox="0 0 199.52 273.17"><defs><style>.cls-1,.cls-2,.cls-3{fill:none;}.cls-1,.cls-2,.cls-3,.cls-4{stroke-miterlimit:10;}.cls-1,.cls-3,.cls-4{stroke:#f0dda0;}.cls-5{letter-spacing:-.02em;}.cls-6{fill:#4d3b1d;}.cls-7{letter-spacing:-.02em;}.cls-8{fill:#e5bc5f;}.cls-9{letter-spacing:-.02em;}.cls-10{fill:#ab855b;}.cls-2{stroke:#231f20;stroke-width:4px;}.cls-11{font-size:14px;}.cls-11,.cls-12,.cls-13,.cls-14,.cls-15,.cls-16{fill:#231f20;}.cls-11,.cls-13,.cls-17{font-family:CreatoDisplay-Bold, 'Creato Display';}.cls-11,.cls-13,.cls-17,.cls-16{font-weight:700;}.cls-18{letter-spacing:0em;}.cls-19{letter-spacing:-.02em;}.cls-20{letter-spacing:-.02em;}.cls-21{fill:#957143;}.cls-22{letter-spacing:0em;}.cls-23{fill:#b69b51;}.cls-24{fill:#e1d7cb;}.cls-25{letter-spacing:-.01em;}.cls-26{fill:#f6e2cb;}.cls-27{fill:#fffce0;}.cls-13{font-size:4px;}.cls-14{font-family:CreatoDisplay-Regular, 'Creato Display';font-size:7px;}.cls-28,.cls-4{fill:#f0dda0;}.cls-29{letter-spacing:0em;}.cls-30{letter-spacing:-.05em;}.cls-31{letter-spacing:-.04em;}.cls-32{letter-spacing:-.02em;}.cls-33{letter-spacing:0em;}.cls-34{fill:#1c140e;}.cls-15{font-family:CreatoDisplay-Medium, 'Creato Display';font-weight:500;}.cls-15,.cls-16{font-size:8px;}.cls-3,.cls-4{stroke-width:2px;}.cls-35{letter-spacing:-.03em;}.cls-17{font-size:11.69px;}.cls-17,.cls-36{fill:#f4eddd;}.cls-37{fill:#f6f083;}.cls-38{fill:#d5c9bd;}.cls-39{letter-spacing:0em;}.cls-40{letter-spacing:.02em;}.cls-41{fill:#010101;}.cls-42{fill:#6e572a;}.cls-43{fill:#7c552c;}.cls-44{letter-spacing:-.03em;}.cls-45{letter-spacing:-.14em;}.cls-16{font-family:CreatoDisplay-ExtraBold, 'Creato Display';}.cls-46{letter-spacing:-.03em;}.cls-47{letter-spacing:-.01em;}.cls-48{letter-spacing:-.02em;}.cls-49{letter-spacing:-.03em;}</style></defs><g id="Layer_1-2"><path class="cls-37" d="M12.74,2h174.03c5.93,0,10.74,4.81,10.74,10.74v247.69c0,5.93-4.81,10.74-10.74,10.74H12.74c-5.93,0-10.74-4.81-10.74-10.74V12.74C2,6.81,6.81,2,12.74,2Z"/><path class="cls-12" d="M186.78,4c4.82,0,8.74,3.92,8.74,8.74v247.69c0,4.82-3.92,8.74-8.74,8.74H12.74c-4.82,0-8.74-3.92-8.74-8.74V12.74c0-4.82,3.92-8.74,8.74-8.74h174.03M186.78,0H12.74C5.7,0,0,5.7,0,12.74v247.69c0,7.04,5.7,12.74,12.74,12.74h174.03c7.04,0,12.74-5.7,12.74-12.74V12.74c0-7.04-5.7-12.74-12.74-12.74h0Z"/><path class="cls-43" d="M15.22,34.71v114.57h170.2V35.11s-169.63-.4-170.2-.4Z"/><polyline class="cls-21" points="95.31 34.81 100.11 47.87 111.09 35.01 95.26 35.01"/><path class="cls-26" d="M106.77,35.28l-.57,4.08s-19.74,16.62-18.7,68.42l1.93,20.18s-10.69,21.52-10.69,21.67,27.31,0,27.31,0l23.75-114.38-23.03.02Z"/><path class="cls-38" d="M95.31,34.81l4.95,12.27s-8.51,13.55-6.83,27.01-10.49,24.29-10.49,24.29l-10.39-63.22,22.76-.35Z"/><path class="cls-34" d="M88.39,101.1l2.97,25.68-5.64,22.71-40.66.15s-8.01-13.36-7.12-15.88,50.46-32.65,50.46-32.65Z"/><path class="cls-6" d="M87.6,103.9s-6.16,12.32-.3,19.74l-2.82,1.48s-6.53-10.98,0-21l-22.63,45.12h-14.4l23.45-55.65,16.7,10.31Z"/><polygon class="cls-34" points="57.85 109.74 80.46 115.16 77.45 119.31 56.66 112.86 57.85 109.74"/><polygon class="cls-34" points="57.85 123.19 80.46 128.61 77.45 132.76 56.66 126.31 57.85 123.19"/><polygon class="cls-34" points="51.23 129.82 73.83 135.24 70.82 139.39 50.03 132.94 51.23 129.82"/><polygon class="cls-34" points="48.53 137.65 71.13 143.07 68.13 147.22 47.33 140.77 48.53 137.65"/><polygon class="cls-34" points="46.63 145.92 61.86 149.24 46.82 149.3 45.43 149.04 46.63 145.92"/><path class="cls-34" d="M124.81,35.35s-16.03,59.96-22.36,69.85c-6.33,9.89-6.83,18.9-6.83,18.9,0,0,.3,4.9,4.21,5.69,0,0-2.72,1.29-.54,2.82,2.18,1.53,4.98,3.6,4.98,3.6l-1.27,13.55,62.43.1s4.45-2.08,4.75-7.02c.3-4.95-.1-5.54-.1-5.54,0,0,3.17-6.23,3.96-12.76,0,0,1.14-8.86.25-13.16s7.27-34.73,7.27-34.73c0,0,2.97-36.95-1.48-41.11l-55.26-.19Z"/><path class="cls-26" d="M48.62,35.6s-8.19,22.68-7.89,28.72c0,0-14.54,18.4-11.72,28.05,0,0-8.26,4.16-11.82,18.01l-.2,14.45,44.38-3.31,17.61-86.2-30.35.3Z"/><path class="cls-34" d="M19.61,108.05c.76,2.32,5.94-2.37,5.94-2.37,0,0,2.97-1.88,7.32-2.47l17.02-6.83,12.37,1.09,10.78-3.36,18.45-58.57-40.07-.15s-8.61,20.04-7.87,22.56l4.16-2.97c-.94-.48-19.89,29.83-18.7,37.4,0,0,2.82-3.2,7.27-3.6,0,0-18.43,13.89-16.67,19.28Z"/><path class="cls-34" d="M38.08,124.02s-.1-31.66,18.01-26.62c18.11,5.05,7.92,30.18,7.92,30.18l-27.31,16.23-19.19-11.48s-3.86-24.14,12.57-27.41c0,0-8.66,7.32-8.56,14.15,0,0,5.44-11.23,10.24-12.91,0,0-5.05,9.89-4.21,14.69,0,0,5.74-12.52,8.71-12.12,0,0-.99,12.66,1.83,15.29Z"/><path class="cls-24" d="M53.79,99.34l-4.11-.64s-5.79,1.43-6.58,10.49c-.79,9.05,5.64,21.07,5.64,21.07l-.79,3.71,2.57.89.74-7.32-3.19-7.42,5.71-20.78Z"/><path class="cls-24" d="M51.05,126.47l2.82-2.23.69-3.41h5.29s-5.49,7.32-7.72,7.22l.54,6.04s-1.63.1-1.63-.05v-7.57Z"/><path class="cls-10" d="M48.99,100.06s1.56.11,3.01-.22,4.04-2.56,6.46-2.97,11.87-2.08,11.87-2.08l-.26,9.91s.3,1.82,5.05,2.91c4.75,1.09,13.95,1.68,13.95,1.68,0,0,4.45,2.77-.1,4.45-4.55,1.68-15.43.99-15.43.99,0,0,7.01,2.2,8.35,4.65,1.34,2.45.56,4.53.56,4.53,0,0-1.26,1.22-3.6.89l-2.75,1.56-12.21.52-15.81-6.75s-6.55-16.08.92-20.06Z"/><ellipse class="cls-3" cx="67.86" cy="61.57" rx="18.82" ry="19.53" transform="translate(-1.14 1.28) rotate(-1.07)"/><ellipse class="cls-42" cx="68.6" cy="61.57" rx="18.82" ry="19.53" transform="translate(-1.14 1.3) rotate(-1.07)"/><polygon class="cls-8" points="82.73 61.26 82.93 68.97 76.14 68.93 76.18 62.48 82.73 61.26"/><path class="cls-28" d="M73.52,83.95l-3.41-.94s1.29-13.11,14.84-13.51l2.45-.88s-15.85-3.9-20.8,5.1c-4.95,9,.82,18.7.82,18.7,0,0,4.86,6.83,11.76,6.2,6.9-.63-5.66-14.67-5.66-14.67Z"/><path class="cls-23" d="M73.52,83.95l-3.41-.94c-.19-.08,1.53-13.48,14.45-13.51l-11.03,14.45Z"/><polygon class="cls-42" points="117.68 111.98 113.08 149.67 124.36 149.82 130.59 111.38 117.68 111.98"/><path class="cls-4" d="M90.36,102.75c-8.84,0-16.12-7.37-16.3-16.57-.17-9.3,6.99-17.01,15.96-17.18.1,0,.2,0,.3,0,8.84,0,16.12,7.37,16.3,16.57.08,4.5-1.53,8.77-4.54,12.02-3.01,3.25-7.07,5.08-11.42,5.16-.1,0-.2,0-.3,0ZM90.32,69.65c-.09,0-.19,0-.29,0-8.61.16-15.48,7.57-15.32,16.51.17,8.84,7.15,15.93,15.64,15.93.09,0,.19,0,.29,0,4.17-.08,8.06-1.84,10.95-4.95,2.9-3.12,4.45-7.22,4.36-11.56-.17-8.84-7.15-15.93-15.64-15.93Z"/><path class="cls-23" d="M95.7,70.38c-1.71-.61-3.55-.93-5.47-.89-8.77.16-15.74,7.67-15.57,16.76.14,7.44,5.02,13.64,11.59,15.56l18.95,6.8,5.18-34.07-14.68-4.16Z"/><path class="cls-27" d="M94.89,70.1c-.33-.1-.66-.2-1-.28l-.09-.03s0,0,0,0c-1.12-.27-2.29-.41-3.48-.41-.09,0-.19,0-.29,0-8.42.16-15.24,7.22-15.39,15.88.61,6.78,17.44,7.3,17.99,7.32-.1-.69-.16-1.4-.18-2.12-.13-6.93,3.89-12.93,9.68-15.46-.35-.42-.72-.81-1.1-1.19,1.2-.33,2.45-.52,3.74-.54.38,0,.75,0,1.12.02l.05-.06-11.06-3.13Z"/><path class="cls-4" d="M106.78,109.1c-9.31,0-16.98-7.76-17.17-17.45-.18-9.8,7.36-17.92,16.81-18.1.1,0,.21,0,.31,0,9.31,0,16.98,7.76,17.17,17.45.09,4.75-1.61,9.24-4.78,12.66-3.18,3.42-7.45,5.35-12.03,5.44-.1,0-.21,0-.31,0ZM106.75,74.24c-.1,0-.2,0-.3,0-9.07.17-16.31,7.97-16.13,17.39.17,9.31,7.54,16.78,16.47,16.78.1,0,.2,0,.3,0,4.39-.08,8.49-1.94,11.54-5.22,3.05-3.29,4.68-7.61,4.6-12.17-.17-9.31-7.54-16.78-16.47-16.78Z"/><path class="cls-23" d="M112.41,75c-1.8-.65-3.74-.98-5.76-.94-9.24.17-16.58,8.08-16.4,17.66.15,7.84,5.29,14.37,12.21,16.39l19.96,7.17,5.46-35.89-15.47-4.38Z"/><path class="cls-27" d="M111.55,74.71c-.35-.11-.7-.21-1.05-.3l-.1-.03s0,0,0,0c-1.18-.28-2.41-.43-3.67-.43-.1,0-.2,0-.3,0-8.87.17-16.06,7.61-16.21,16.73.64,7.15,18.37,7.69,18.95,7.71-.1-.73-.17-1.48-.18-2.23-.14-7.3,4.09-13.62,10.2-16.29-.37-.44-.75-.85-1.16-1.25,1.26-.34,2.58-.55,3.94-.57.4,0,.79,0,1.18.03l.06-.06-11.65-3.3Z"/><path class="cls-28" d="M122.27,114.76c-9.87,0-18-8.23-18.19-18.5-.19-10.39,7.8-18.99,17.82-19.18.11,0,.22,0,.33,0,9.87,0,18,8.23,18.19,18.5.09,5.03-1.71,9.79-5.07,13.42-3.37,3.63-7.89,5.67-12.75,5.76-.11,0-.22,0-.33,0ZM122.23,77.81c-.11,0-.21,0-.32,0-9.62.18-17.29,8.45-17.1,18.43.18,9.87,7.99,17.78,17.46,17.78.11,0,.21,0,.32,0,4.66-.09,9-2.05,12.23-5.53,3.23-3.48,4.96-8.06,4.87-12.9-.18-9.87-7.99-17.78-17.46-17.78Z"/><path class="cls-23" d="M128.23,78.62c-1.91-.68-3.97-1.04-6.11-1-9.79.18-17.57,8.56-17.38,18.72.16,8.31,5.6,15.23,12.94,17.37l21.15,7.6,5.79-38.04-16.39-4.64Z"/><path class="cls-27" d="M127.33,78.31c-.37-.12-.74-.22-1.11-.32l-.11-.03s0,0,0,0c-1.25-.3-2.55-.46-3.89-.46-.11,0-.21,0-.32,0-9.4.18-17.01,8.08-17.17,17.75.68,7.57,19.46,8.14,20.07,8.15-.11-.77-.18-1.56-.2-2.37-.15-7.73,4.34-14.43,10.81-17.26-.39-.46-.8-.91-1.23-1.33,1.34-.36,2.73-.58,4.18-.61.42,0,.84,0,1.25.03l.06-.07-12.35-3.5Z"/><ellipse class="cls-1" cx="132.73" cy="99.24" rx="18.28" ry="18.96" transform="translate(-1.84 2.51) rotate(-1.07)"/><path class="cls-23" d="M138.88,81.47c-1.96-.7-4.07-1.07-6.27-1.02-10.04.19-18.03,8.79-17.83,19.21.16,8.53,5.75,15.62,13.28,17.82l20.51,7.21,7.13-38.44-16.82-4.76Z"/><path class="cls-27" d="M135.86,106.15c-.2-10.78,8.06-19.68,18.45-19.88.45,0,.89,0,1.33.03l.06-.07-16.82-4.76c-1.96-.7-4.07-1.07-6.27-1.02-10.04.19-18.03,8.79-17.83,19.21.16,8.39,20.62,9,21.28,9.02-.12-.82-.19-1.66-.21-2.52Z"/><path class="cls-27" d="M69.17,61.12s3.71-1.93,8.21-.89l5.34,1.04-6.38,1.37-7.17-1.51Z"/><ellipse class="cls-8" cx="154.68" cy="105.8" rx="18.82" ry="19.53" transform="translate(-1.96 2.92) rotate(-1.07)"/><circle class="cls-12" cx="154.68" cy="105.8" r="4.15"/><path class="cls-24" d="M104.65,118.59s0,.07,0,.2c.04,1.24.27,7.8.59,7.66.35-.15,2.67-1.19,2.67-1.19l-2.97,2.37s1.39,1.14,1.63,1.24,8.36-5.79,8.86-11.28,0-4.5,0-4.5"/><path class="cls-23" d="M76.15,65.49c-.19-.96-.07-3.98,4.23-3.98,3.31,0,3.26,2.77,3.06,4.05-.08.54-.31,1.05-.69,1.44-.53.53-1.49,1.11-3.11.98-2.89-.22-3.3-1.52-3.49-2.49Z"/><path class="cls-28" d="M167.99,91.48c-1.93-1.93-4.18-3.38-6.61-4.33v-8.26h-11.43v7.62c-8.44,2.21-14.64,10.23-14.46,19.64.1,5.31,2.19,10.27,5.88,13.95,3.61,3.61,8.33,5.58,13.33,5.58.12,0,.24,0,.36,0,10.58-.2,19.02-9.28,18.81-20.25-.1-5.31-2.19-10.27-5.88-13.95ZM155.04,124.95c-4.91.1-9.6-1.81-13.15-5.36-3.56-3.55-5.57-8.33-5.66-13.45-.2-10.56,7.92-19.31,18.1-19.5.11,0,.23,0,.34,0,4.8,0,9.34,1.9,12.81,5.36,3.56,3.55,5.57,8.33,5.66,13.45.2,10.56-7.92,19.31-18.1,19.5Z"/><polygon class="cls-23" points="149.95 78.9 147.18 77.85 147.18 85.79 149.95 86.51 149.95 78.9"/><polygon class="cls-27" points="147.18 77.85 156.77 77.74 161.37 78.9 149.95 78.9 147.18 77.85"/><path class="cls-21" d="M84.11,91.07l.15,7.42,4.25,10.83,11.13,9.84,1.58-.49,1.58,1.14,2.97-1.14,14.25-4.16-6.58-2.33-12.84-5.27-4.38-8.16s-2.52-1.13-3.56.13l-1.35-8.68s-3.12-2.19-4.16.19l-.11.43s-2.03-1.14-2.94.25Z"/><path class="cls-8" d="M78.17,66.01c-.19-.96-.07-3.98,4.23-3.98,3.31,0,3.26,2.77,3.06,4.05-.08.54-.31,1.05-.69,1.44-.53.53-1.49,1.11-3.11.98-2.89-.22-3.3-1.52-3.49-2.49Z"/><polygon class="cls-23" points="76.14 68.03 69.07 66.91 69.17 61.12 76.34 62.63 76.14 68.03"/><polygon class="cls-34" points="115.56 120.98 131.44 120.98 130.1 123.95 115.26 123.06 115.56 120.98"/><polygon class="cls-34" points="113.48 129.23 129.36 129.23 128.02 132.2 113.18 131.3 113.48 129.23"/><polygon class="cls-34" points="111.99 137.47 127.87 137.47 126.54 140.44 111.7 139.55 111.99 137.47"/><polygon class="cls-34" points="111.2 145.72 127.08 145.72 125.75 148.69 110.91 147.8 111.2 145.72"/><path class="cls-36" d="M24.42,246.14c-5.92,0-10.74-4.82-10.74-10.74v-84.68h172.45V35.95H13.68v-12.88c0-5.92,4.82-10.74,10.74-10.74h150.98c5.92,0,10.74,4.82,10.74,10.74v212.33c0,5.92-4.82,10.74-10.74,10.74H24.42Z"/><path class="cls-12" d="M175.4,14.33c4.82,0,8.74,3.92,8.74,8.74v10.88H15.68v-10.88c0-4.82,3.92-8.74,8.74-8.74h150.98M184.14,152.71v82.68c0,4.82-3.92,8.74-8.74,8.74H24.42c-4.82,0-8.74-3.92-8.74-8.74v-82.68h168.46M175.4,10.33H24.42c-7.04,0-12.74,5.7-12.74,12.74v212.33c0,7.04,5.7,12.74,12.74,12.74h150.98c7.04,0,12.74-5.7,12.74-12.74V23.07c0-7.04-5.7-12.74-12.74-12.74h0ZM15.63,148.71V37.95h168.51v110.76H15.63Z"/><line class="cls-2" x1="14.06" y1="35.97" x2="185.03" y2="35.97"/><line class="cls-2" x1="14.06" y1="150.71" x2="185.03" y2="150.71"/><line class="cls-2" x1="14.06" y1="168.51" x2="185.03" y2="168.51"/><text class="cls-11" transform="translate(20.2 29.52)"><tspan x="0" y="0">P</tspan><tspan class="cls-31" x="9.09" y="0">O</tspan><tspan x="19.12" y="0">V Gun</tspan></text><text class="cls-15" transform="translate(20.47 163)"><tspan x="0" y="0">Arti</tspan><tspan class="cls-48" x="12.94" y="0">f</tspan><tspan class="cls-18" x="15.49" y="0">act- Equipme</tspan><tspan class="cls-25" x="62.49" y="0">n</tspan><tspan class="cls-33" x="66.73" y="0">t</tspan></text><text class="cls-13" transform="translate(20.98 255.04)"><tspan x="0" y="0">15</tspan><tspan class="cls-40" x="0" y="4.8">T</tspan><tspan x="2.48" y="4.8">TM - EN</tspan></text><path class="cls-12" d="M42.93,253.61c0-.87.51-1.46,1.41-1.46.78,0,1.31.46,1.31,1.08h-.52c-.05-.36-.3-.64-.8-.64-.57,0-.87.36-.87,1.02s.3,1.02.87,1.02c.49,0,.75-.26.8-.66h.52c0,.63-.52,1.1-1.31,1.1-.9,0-1.41-.6-1.41-1.46Z"/><path class="cls-12" d="M48.93,258.92h.53c.04.38.22.55.66.55s.62-.18.62-.45c0-.2-.11-.32-.54-.39l-.36-.05c-.6-.08-.83-.29-.83-.76,0-.51.36-.88,1.1-.88s1.1.36,1.1.92h-.52c-.04-.34-.22-.51-.6-.51s-.55.18-.55.44c0,.2.09.3.47.35l.36.05c.58.08.9.3.9.8,0,.53-.38.89-1.18.89s-1.18-.35-1.18-.96Z"/><path class="cls-12" d="M51.61,260.25h.21c.24,0,.38-.12.38-.31,0-.06-.01-.13-.04-.2l-.74-1.97h.54l.54,1.66.54-1.66h.54l-.73,1.97c-.25.67-.52.88-1.02.88h-.21v-.37Z"/><path class="cls-12" d="M53.59,258.8c0-.64.36-1.07,1.02-1.07s1.03.44,1.03,1.05c0,.04,0,.08,0,.13h-1.53c.02.42.22.61.53.61.26,0,.42-.13.48-.34h.48c-.09.42-.4.69-.96.69-.67,0-1.05-.42-1.05-1.07ZM54.1,258.58h1.02c-.04-.33-.23-.49-.51-.49s-.46.16-.51.49Z"/><path class="cls-12" d="M55.85,258.8c0-.68.35-1.07.91-1.07.31,0,.52.13.63.35v-1.1h.52v2.85h-.49v-.35c-.11.24-.31.39-.66.39-.56,0-.91-.4-.91-1.07ZM57.4,258.8c0-.47-.21-.68-.52-.68s-.51.21-.51.68.21.68.51.68.52-.21.52-.68Z"/><path class="cls-12" d="M60.03,259.84v-2.4h-.86v-.44h2.28v.44h-.87v2.4h-.54Z"/><path class="cls-12" d="M61.31,259.25c0-.32.19-.57.71-.61l.42-.04c.21-.02.27-.08.27-.18,0-.2-.12-.32-.38-.32-.24,0-.37.1-.39.32h-.51c0-.42.26-.69.9-.69s.9.27.9.69v.88c0,.28.02.46.06.53h-.47c-.06-.08-.09-.16-.09-.32-.12.24-.32.36-.68.36-.48,0-.74-.24-.74-.62ZM62.71,258.98v-.14s-.13.07-.27.08l-.24.02c-.26.02-.36.13-.36.28,0,.18.12.31.38.31.32,0,.5-.24.5-.54Z"/><path class="cls-12" d="M63.56,257.2c0-.15.11-.27.3-.27s.29.12.29.27-.1.27-.29.27-.3-.12-.3-.27ZM63.6,259.84v-2.06h.52v2.06h-.52Z"/><path class="cls-12" d="M66.84,259.84v-1.28c0-.28-.09-.4-.29-.4-.22,0-.39.18-.39.52v1.17h-.5v-1.28c0-.28-.09-.4-.29-.4-.22,0-.39.18-.39.52v1.17h-.5v-2.06h.49v.34c.1-.22.28-.38.56-.38s.49.13.57.39c.11-.24.31-.39.59-.39.42,0,.63.24.63.74v1.36h-.5Z"/><path class="cls-12" d="M67.63,258.8c0-.65.38-1.07,1.05-1.07s1.05.42,1.05,1.07-.38,1.07-1.05,1.07-1.05-.42-1.05-1.07ZM69.22,258.8c0-.46-.19-.68-.54-.68s-.53.22-.53.68.19.68.53.68.54-.22.54-.68Z"/><path class="cls-12" d="M69.95,258.8c0-.65.38-1.07,1.05-1.07s1.05.42,1.05,1.07-.38,1.07-1.05,1.07-1.05-.42-1.05-1.07ZM71.53,258.8c0-.46-.19-.68-.54-.68s-.53.22-.53.68.19.68.53.68.54-.22.54-.68Z"/><path class="cls-12" d="M72.35,259.84v-2.06h.49v.46c.11-.36.29-.49.57-.49.06,0,.14.02.19.03v.45h-.21c-.32,0-.53.23-.53.65v.96h-.52Z"/><path class="cls-12" d="M77.53,259.84v-2.35l-.82,2.35h-.46l-.83-2.35v2.35h-.52v-2.85h.85l.72,2.03.72-2.03h.86v2.85h-.52Z"/><path class="cls-12" d="M78.38,259.25c0-.32.19-.57.71-.61l.42-.04c.21-.02.27-.08.27-.18,0-.2-.12-.32-.38-.32-.24,0-.37.1-.39.32h-.51c0-.42.26-.69.9-.69s.9.27.9.69v.88c0,.28.03.46.06.53h-.47c-.06-.08-.09-.16-.09-.32-.12.24-.32.36-.68.36-.48,0-.74-.24-.74-.62ZM79.77,258.98v-.14s-.13.07-.27.08l-.24.02c-.26.02-.36.13-.36.28,0,.18.12.31.38.31.32,0,.5-.24.5-.54Z"/><path class="cls-12" d="M81.98,259.84v-1.26c0-.28-.1-.42-.35-.42-.27,0-.45.2-.45.53v1.15h-.52v-2.06h.49v.34c.11-.22.3-.38.63-.38.47,0,.71.24.71.74v1.36h-.52Z"/><path class="cls-12" d="M82.79,259.18h.5c.02.22.12.35.44.35s.42-.13.42-.28c0-.14-.11-.21-.29-.24l-.36-.05c-.47-.07-.66-.23-.66-.58s.25-.65.88-.65.88.28.88.66h-.5c-.02-.17-.08-.32-.39-.32-.26,0-.36.11-.36.27,0,.14.08.2.23.22l.35.05c.46.06.72.22.72.61,0,.37-.27.65-.94.65s-.94-.28-.94-.69Z"/><path class="cls-12" d="M84.88,258.8c0-.65.38-1.07,1.05-1.07s1.05.42,1.05,1.07-.38,1.07-1.05,1.07-1.05-.42-1.05-1.07ZM86.47,258.8c0-.46-.19-.68-.54-.68s-.53.22-.53.68.19.68.53.68.54-.22.54-.68Z"/><path class="cls-12" d="M87.2,258.8c0-.65.38-1.07,1.05-1.07s1.05.42,1.05,1.07-.38,1.07-1.05,1.07-1.05-.42-1.05-1.07ZM88.79,258.8c0-.46-.19-.68-.54-.68s-.53.22-.53.68.19.68.53.68.54-.22.54-.68Z"/><path class="cls-12" d="M89.6,259.84v-2.06h.49v.46c.11-.36.29-.49.57-.49.06,0,.14.02.19.03v.45h-.21c-.32,0-.53.23-.53.65v.96h-.52Z"/><text class="cls-13" transform="translate(152.89 258.15) scale(.58)"><tspan x="0" y="0" xml:space="preserve">TM  </tspan></text><text class="cls-13" transform="translate(157.54 259.49)"><tspan class="cls-39" x="0" y="0">&amp; © Ti</tspan><tspan class="cls-22" x="11.33" y="0">m</tspan><tspan x="14.51" y="0">taim</tspan></text><path class="cls-12" d="M23.87,227l-2.06-4.2-.74,4.2h-.58l.88-4.99h.67l2.07,4.2.73-4.2h.58l-.88,4.99h-.67Z"/><path class="cls-12" d="M25.47,225.58c0-1.33.76-2.27,2.02-2.27.95,0,1.51.57,1.51,1.48,0,1.33-.76,2.27-2.02,2.27-.94,0-1.5-.57-1.5-1.48ZM28.41,224.82c0-.68-.35-1.06-.95-1.06-.89,0-1.41.78-1.41,1.79,0,.68.35,1.06.95,1.06.89,0,1.41-.78,1.41-1.79Z"/><path class="cls-12" d="M29.62,226.43c0-.08,0-.17.03-.27l.41-2.35h-.62l.07-.42h.62l.19-1.09h.58l-.2,1.09h.87l-.07.42h-.87l-.42,2.37c-.02.06-.02.11-.02.15,0,.22.14.28.46.28h.36s-.07.39-.07.39c-.15.01-.31.04-.44.04-.59,0-.89-.15-.89-.6Z"/><path class="cls-12" d="M33.68,226.43c0-.08,0-.17.03-.27l.41-2.35h-.62l.07-.42h.62l.19-1.09h.58l-.2,1.09h.87l-.07.42h-.87l-.42,2.37c-.02.06-.02.11-.02.15,0,.22.14.28.46.28h.36s-.07.39-.07.39c-.15.01-.31.04-.44.04-.59,0-.89-.15-.89-.6Z"/><path class="cls-12" d="M35.51,225.58c0-1.33.76-2.27,2.02-2.27.95,0,1.51.57,1.51,1.48,0,1.33-.76,2.27-2.02,2.27-.94,0-1.5-.57-1.5-1.48ZM38.45,224.82c0-.68-.35-1.06-.95-1.06-.89,0-1.41.78-1.41,1.79,0,.68.35,1.06.95,1.06.89,0,1.41-.78,1.41-1.79Z"/><path class="cls-12" d="M41.73,226.19l-.14.81h-.55l.88-4.99h.58l-.36,1.98c.24-.39.67-.67,1.27-.67.9,0,1.37.62,1.37,1.48,0,1.26-.67,2.27-1.86,2.27-.65,0-1.04-.3-1.19-.88ZM44.2,224.82c0-.68-.34-1.06-.92-1.06-.87,0-1.37.78-1.37,1.79,0,.68.34,1.06.92,1.06.87,0,1.37-.78,1.37-1.79Z"/><path class="cls-12" d="M45.18,225.58c0-1.25.69-2.27,1.97-2.27,1.05,0,1.46.77,1.46,1.48,0,.2-.03.38-.05.48h-2.79c-.02.12-.02.22-.02.32,0,.69.37,1.06.97,1.06.56,0,.97-.3,1.18-.76h.53c-.24.72-.81,1.17-1.74,1.17s-1.5-.58-1.5-1.48ZM45.83,224.89h2.21s0-.09,0-.14c0-.63-.34-1.03-.92-1.03-.62,0-1.13.39-1.3,1.17Z"/><path class="cls-12" d="M50.78,225.58c0-1.33.73-2.27,1.97-2.27.95,0,1.42.6,1.42,1.19,0,.05,0,.1-.01.17h-.53c0-.45-.29-.91-.92-.91-.86,0-1.36.78-1.36,1.79,0,.68.35,1.06.91,1.06.62,0,1.05-.34,1.23-.94h.53c-.13.78-.71,1.39-1.79,1.39-.9,0-1.46-.57-1.46-1.48Z"/><path class="cls-12" d="M54.43,225.58c0-1.33.76-2.27,2.02-2.27.95,0,1.51.57,1.51,1.48,0,1.33-.76,2.27-2.02,2.27-.94,0-1.5-.57-1.5-1.48ZM57.37,224.82c0-.68-.35-1.06-.95-1.06-.89,0-1.41.78-1.41,1.79,0,.68.35,1.06.95,1.06.89,0,1.41-.78,1.41-1.79Z"/><path class="cls-12" d="M60.58,227l.41-2.3c.01-.1.02-.18.02-.27,0-.43-.25-.65-.69-.65-.56,0-1.04.41-1.17,1.15l-.36,2.07h-.58l.63-3.61h.55l-.1.58c.28-.41.71-.65,1.2-.65.7,0,1.13.34,1.13.99,0,.09,0,.2-.03.31l-.42,2.39h-.58Z"/><path class="cls-12" d="M62.15,227l.56-3.19h-.62l.07-.42h.62l.08-.45c.11-.64.37-.96,1.05-.96.15,0,.42.02.56.03l-.06.41h-.41c-.38-.01-.5.15-.55.5l-.08.46h.86l-.07.42h-.87l-.56,3.19h-.58Z"/><path class="cls-12" d="M64.29,226.08c0-.09,0-.2.03-.31l.42-2.39h.58l-.41,2.3c-.01.1-.02.18-.02.27,0,.43.24.65.69.65.56,0,1.05-.41,1.18-1.15l.35-2.07h.58l-.63,3.61h-.55l.11-.58c-.28.41-.71.65-1.2.65-.7,0-1.13-.34-1.13-.99Z"/><path class="cls-12" d="M67.84,226.06c0-.06,0-.11.01-.17h.53c0,.52.27.77.88.77.65,0,1.01-.27,1.01-.72,0-.31-.2-.45-.58-.5l-.58-.09c-.54-.08-.9-.33-.9-.88,0-.77.62-1.16,1.53-1.16.73,0,1.27.27,1.27.95,0,.05,0,.1,0,.16h-.53c0-.42-.14-.71-.78-.71-.52,0-.9.2-.9.71,0,.31.19.41.47.46l.59.09c.62.09,1,.36,1,.94,0,.69-.57,1.16-1.64,1.16-.94,0-1.37-.41-1.37-1Z"/><path class="cls-12" d="M71.4,225.58c0-1.25.69-2.27,1.97-2.27,1.05,0,1.46.77,1.46,1.48,0,.2-.03.38-.06.48h-2.79c-.02.12-.02.22-.02.32,0,.69.36,1.06.97,1.06.56,0,.96-.3,1.18-.76h.53c-.24.72-.81,1.17-1.74,1.17s-1.5-.58-1.5-1.48ZM72.06,224.89h2.21s0-.09,0-.14c0-.63-.34-1.03-.92-1.03-.62,0-1.13.39-1.29,1.17Z"/><path class="cls-12" d="M75.25,225.58c0-1.26.66-2.27,1.86-2.27.63,0,1.03.29,1.17.84l.38-2.14h.58l-.88,4.99h-.55l.11-.64c-.25.43-.7.71-1.29.71-.9,0-1.37-.62-1.37-1.48ZM78.12,224.82c0-.68-.34-1.06-.92-1.06-.87,0-1.37.78-1.37,1.79,0,.68.34,1.06.92,1.06.87,0,1.37-.78,1.37-1.79Z"/><path class="cls-12" d="M84.2,227l-.35-2.86-1.35,2.86h-.63l-.67-3.61h.59l.51,2.96,1.39-2.96h.53l.35,2.96,1.55-2.96h.62l-1.93,3.61h-.61Z"/><path class="cls-12" d="M86.56,227l.63-3.61h.58l-.63,3.61h-.58ZM87.3,222.39c0-.21.14-.37.41-.37.21,0,.33.12.33.27,0,.22-.15.37-.41.37-.2,0-.32-.12-.32-.27Z"/><path class="cls-12" d="M88.32,226.43c0-.08,0-.17.03-.27l.41-2.35h-.62l.07-.42h.62l.19-1.09h.58l-.2,1.09h.87l-.07.42h-.87l-.42,2.37c-.02.06-.02.11-.02.15,0,.22.14.28.46.28h.36s-.07.39-.07.39c-.15.01-.31.04-.44.04-.59,0-.89-.15-.89-.6Z"/><path class="cls-12" d="M92.57,227l.41-2.3c.01-.1.02-.18.02-.27,0-.43-.25-.65-.69-.65-.56,0-1.04.41-1.17,1.15l-.36,2.07h-.58l.88-4.99h.58l-.34,1.92c.26-.38.68-.62,1.16-.62.7,0,1.13.34,1.13.99,0,.09,0,.2-.03.31l-.42,2.39h-.58Z"/><path class="cls-12" d="M96.08,226.43c0-.08,0-.17.03-.27l.41-2.35h-.62l.07-.42h.62l.19-1.09h.58l-.2,1.09h.87l-.07.42h-.87l-.42,2.37c-.01.06-.01.11-.01.15,0,.22.14.28.46.28h.36s-.07.39-.07.39c-.15.01-.31.04-.44.04-.59,0-.89-.15-.89-.6Z"/><path class="cls-12" d="M100.34,227l.41-2.3c.01-.1.02-.18.02-.27,0-.43-.24-.65-.69-.65-.56,0-1.04.41-1.17,1.15l-.36,2.07h-.58l.88-4.99h.58l-.34,1.92c.26-.38.68-.62,1.16-.62.7,0,1.13.34,1.13.99,0,.09,0,.2-.03.31l-.42,2.39h-.58Z"/><path class="cls-12" d="M101.81,225.58c0-1.25.69-2.27,1.97-2.27,1.05,0,1.46.77,1.46,1.48,0,.2-.03.38-.05.48h-2.79c-.02.12-.02.22-.02.32,0,.69.37,1.06.97,1.06.56,0,.97-.3,1.18-.76h.53c-.24.72-.81,1.17-1.74,1.17s-1.5-.58-1.5-1.48ZM102.46,224.89h2.21s0-.09,0-.14c0-.63-.34-1.03-.92-1.03-.62,0-1.13.39-1.3,1.17Z"/><path class="cls-12" d="M108.6,227l.79-4.49h-1.58l.08-.5h3.78l-.08.5h-1.59l-.79,4.49h-.6Z"/><path class="cls-12" d="M110.93,225.58c0-1.33.76-2.27,2.02-2.27.95,0,1.51.57,1.51,1.48,0,1.33-.76,2.27-2.02,2.27-.94,0-1.5-.57-1.5-1.48ZM113.87,224.82c0-.68-.35-1.06-.95-1.06-.89,0-1.41.78-1.41,1.79,0,.68.35,1.06.95,1.06.89,0,1.41-.78,1.41-1.79Z"/><path class="cls-12" d="M115.07,226.43c0-.08,0-.17.03-.27l.41-2.35h-.62l.07-.42h.62l.19-1.09h.58l-.2,1.09h.87l-.07.42h-.87l-.42,2.37c-.02.06-.02.11-.02.15,0,.22.14.28.46.28h.36s-.07.39-.07.39c-.15.01-.31.04-.44.04-.59,0-.89-.15-.89-.6Z"/><path class="cls-12" d="M116.99,226.09c0-.7.41-1.04,1.25-1.12l.88-.07c.41-.04.67-.14.67-.55,0-.39-.3-.62-.79-.62-.57,0-.9.25-.98.75h-.56c.05-.74.57-1.17,1.58-1.17.79,0,1.32.34,1.32.99,0,.08,0,.16-.01.23l-.27,1.53c-.06.3-.08.53-.08.69,0,.1.01.18.04.23h-.51c-.06-.08-.08-.2-.08-.31,0-.08,0-.18.03-.29-.27.43-.69.67-1.31.67-.69,0-1.16-.36-1.16-.98ZM119.59,225.49l.07-.43c-.1.12-.31.18-.62.2l-.7.06c-.54.04-.78.29-.78.71,0,.38.29.62.75.62.7,0,1.16-.49,1.28-1.17Z"/><path class="cls-12" d="M120.65,227l.88-4.99h.58l-.88,4.99h-.58Z"/><path class="cls-12" d="M126.27,225.06h-1.56l-.34,1.93h-.6l.88-4.99h1.99c.91,0,1.51.43,1.51,1.28,0,1.07-.63,1.77-1.88,1.77ZM126.49,222.47h-1.32l-.38,2.13h1.46c.84,0,1.29-.46,1.29-1.27,0-.59-.36-.86-1.05-.86Z"/><path class="cls-12" d="M128.13,225.58c0-1.25.69-2.27,1.97-2.27,1.05,0,1.46.77,1.46,1.48,0,.2-.03.38-.05.48h-2.79c-.02.12-.02.22-.02.32,0,.69.37,1.06.97,1.06.56,0,.97-.3,1.18-.76h.53c-.24.72-.81,1.17-1.74,1.17s-1.5-.58-1.5-1.48ZM128.78,224.89h2.21s0-.09,0-.14c0-.63-.34-1.03-.92-1.03-.62,0-1.13.39-1.3,1.17Z"/><path class="cls-12" d="M131.83,227l.63-3.61h.55l-.13.77c.29-.61.66-.81,1.14-.81.1,0,.29.01.39.04l-.08.5h-.4c-.6-.01-1.04.41-1.2,1.29l-.31,1.82h-.58Z"/><path class="cls-12" d="M134.31,226.06c0-.06,0-.11.01-.17h.53c0,.52.27.77.88.77.65,0,1.01-.27,1.01-.72,0-.31-.2-.45-.58-.5l-.58-.09c-.54-.08-.9-.33-.9-.88,0-.77.62-1.16,1.53-1.16.73,0,1.27.27,1.27.95,0,.05,0,.1,0,.16h-.53c0-.42-.14-.71-.78-.71-.52,0-.9.2-.9.71,0,.31.19.41.47.46l.59.09c.62.09,1,.36,1,.94,0,.69-.57,1.16-1.64,1.16-.94,0-1.37-.41-1.37-1Z"/><path class="cls-12" d="M138.44,226.23l-.38,2.14h-.58l.88-4.99h.55l-.11.64c.25-.43.7-.71,1.29-.71.9,0,1.37.62,1.37,1.48,0,1.26-.67,2.27-1.86,2.27-.63,0-1.03-.29-1.17-.84ZM140.88,224.82c0-.68-.34-1.06-.92-1.06-.87,0-1.37.78-1.37,1.79,0,.68.34,1.06.92,1.06.87,0,1.37-.78,1.37-1.79Z"/><path class="cls-12" d="M141.87,225.58c0-1.25.69-2.27,1.97-2.27,1.05,0,1.46.77,1.46,1.48,0,.2-.03.38-.05.48h-2.79c-.02.12-.02.22-.02.32,0,.69.37,1.06.97,1.06.56,0,.97-.3,1.18-.76h.53c-.24.72-.81,1.17-1.74,1.17s-1.5-.58-1.5-1.48ZM142.52,224.89h2.21s0-.09,0-.14c0-.63-.34-1.03-.92-1.03-.62,0-1.13.39-1.3,1.17Z"/><path class="cls-12" d="M145.71,225.58c0-1.33.73-2.27,1.97-2.27.95,0,1.42.6,1.42,1.19,0,.05,0,.1-.01.17h-.53c0-.45-.29-.91-.92-.91-.86,0-1.36.78-1.36,1.79,0,.68.35,1.06.91,1.06.62,0,1.05-.34,1.23-.94h.53c-.13.78-.71,1.39-1.79,1.39-.9,0-1.46-.57-1.46-1.48Z"/><path class="cls-12" d="M149.65,226.43c0-.08,0-.17.03-.27l.41-2.35h-.62l.07-.42h.62l.19-1.09h.58l-.2,1.09h.87l-.07.42h-.87l-.42,2.37c-.02.06-.02.11-.02.15,0,.22.14.28.46.28h.36s-.07.39-.07.39c-.15.01-.31.04-.44.04-.59,0-.89-.15-.89-.6Z"/><path class="cls-12" d="M151.53,227l.63-3.61h.58l-.63,3.61h-.58ZM152.28,222.39c0-.21.14-.37.41-.37.21,0,.33.12.33.27,0,.22-.15.37-.41.37-.2,0-.32-.12-.32-.27Z"/><path class="cls-12" d="M153.98,227l-.78-3.61h.58l.61,3.09,1.7-3.09h.63l-2.04,3.61h-.7Z"/><path class="cls-12" d="M156.57,225.58c0-1.25.69-2.27,1.97-2.27,1.05,0,1.46.77,1.46,1.48,0,.2-.03.38-.05.48h-2.79c-.02.12-.02.22-.02.32,0,.69.37,1.06.97,1.06.56,0,.97-.3,1.18-.76h.53c-.24.72-.81,1.17-1.74,1.17s-1.5-.58-1.5-1.48ZM157.22,224.89h2.21s0-.09,0-.14c0-.63-.34-1.03-.92-1.03-.62,0-1.13.39-1.3,1.17Z"/><path class="cls-12" d="M22.12,235.4l-1.08-4.99h.62l.9,4.36,2.44-4.36h.68l-2.83,4.99h-.73Z"/><path class="cls-12" d="M24.76,233.98c0-1.33.76-2.27,2.02-2.27.95,0,1.51.57,1.51,1.48,0,1.33-.76,2.27-2.02,2.27-.94,0-1.5-.57-1.5-1.48ZM27.7,233.22c0-.68-.35-1.06-.95-1.06-.89,0-1.41.78-1.41,1.79,0,.68.35,1.06.95,1.06.89,0,1.41-.78,1.41-1.79Z"/><path class="cls-12" d="M28.54,235.4l.63-3.61h.55l-.13.77c.29-.61.66-.81,1.14-.81.1,0,.29.01.39.04l-.08.5h-.4c-.6-.01-1.04.41-1.2,1.29l-.31,1.82h-.58Z"/><path class="cls-12" d="M31.43,234.83c0-.08,0-.17.03-.27l.41-2.35h-.62l.07-.42h.62l.19-1.09h.58l-.2,1.09h.87l-.07.42h-.87l-.42,2.37c-.02.06-.02.11-.02.15,0,.22.14.28.46.28h.36s-.07.39-.07.39c-.15.01-.31.04-.44.04-.59,0-.89-.15-.89-.6Z"/><path class="cls-12" d="M33.26,233.98c0-1.25.69-2.27,1.97-2.27,1.05,0,1.46.77,1.46,1.48,0,.2-.03.38-.05.48h-2.79c-.02.12-.02.22-.02.32,0,.69.37,1.06.97,1.06.56,0,.97-.3,1.18-.76h.53c-.24.72-.81,1.17-1.74,1.17s-1.5-.58-1.5-1.48ZM33.91,233.29h2.21s0-.09,0-.14c0-.63-.34-1.03-.92-1.03-.62,0-1.13.39-1.3,1.17Z"/><path class="cls-12" d="M39.16,235.4l-.8-1.41-1.29,1.41h-.68l1.68-1.87-.98-1.74h.61l.74,1.32,1.2-1.32h.68l-1.59,1.74,1.03,1.87h-.61Z"/><path class="cls-12" d="M40.18,235.15c0-.22.15-.39.43-.39.22,0,.34.13.34.29,0,.22-.15.39-.43.39-.21,0-.34-.13-.34-.29Z"/><text class="cls-14" transform="translate(21.03 184.05)"><tspan x="0" y="0">When equipped c</tspan><tspan class="cls-46" x="53.98" y="0">r</tspan><tspan x="56.26" y="0">e</tspan><tspan class="cls-47" x="60.1" y="0">a</tspan><tspan x="63.73" y="0">tu</tspan><tspan class="cls-35" x="69.74" y="0">r</tspan><tspan x="72.02" y="0">e </tspan><tspan class="cls-47" x="77.61" y="0">a</tspan><tspan x="81.23" y="0">ttac</tspan><tspan class="cls-32" x="93.22" y="0">k</tspan><tspan x="96.76" y="0">s, d</tspan><tspan class="cls-9" x="107.28" y="0">e</tspan><tspan class="cls-49" x="110.96" y="0">f</tspan><tspan x="113.01" y="0">ending pl</tspan><tspan class="cls-19" x="140.63" y="0">a</tspan><tspan class="cls-44" x="144.16" y="0">y</tspan><tspan x="147.64" y="0">er </tspan><tspan class="cls-46" x="0" y="8.4">r</tspan><tspan class="cls-44" x="2.28" y="8.4">ev</tspan><tspan x="9.39" y="8.4">eals their hand. </tspan><tspan class="cls-45" x="57" y="8.4">Y</tspan><tspan x="60.68" y="8.4">ou d</tspan><tspan class="cls-20" x="74.05" y="8.4">r</tspan><tspan class="cls-7" x="76.33" y="8.4">a</tspan><tspan x="79.89" y="8.4">w a ca</tspan><tspan class="cls-46" x="100.15" y="8.4">r</tspan><tspan x="102.42" y="8.4">d and d</tspan><tspan class="cls-9" x="125.31" y="8.4">e</tspan><tspan class="cls-49" x="128.99" y="8.4">f</tspan><tspan x="131.03" y="8.4">ending </tspan><tspan x="0" y="16.8">pl</tspan><tspan class="cls-19" x="5.32" y="16.8">a</tspan><tspan class="cls-44" x="8.85" y="16.8">y</tspan><tspan x="12.33" y="16.8">er gains co</tspan><tspan class="cls-47" x="45.88" y="16.8">n</tspan><tspan class="cls-29" x="49.5" y="16.8">t</tspan><tspan class="cls-46" x="51.82" y="16.8">r</tspan><tspan x="54.1" y="16.8">ol </tspan><tspan class="cls-5" x="61.1" y="16.8">o</tspan><tspan x="64.86" y="16.8">f P</tspan><tspan class="cls-30" x="73.29" y="16.8">O</tspan><tspan class="cls-29" x="78.16" y="16.8">V Gun.</tspan></text><path class="cls-41" d="M178.26,155.77c-2.17-2.18-5.69-2.2-7.88-.03-2.18,2.17-2.2,5.69-.03,7.88,2.17,2.18,5.69,2.2,7.88.03,2.18-2.17,2.2-5.69.03-7.88ZM173.63,157.15c.86-.85,1.73-1.36,1.96-1.13.23.23-.28,1.1-1.14,1.95-.86.85-1.73,1.36-1.96,1.13s.28-1.1,1.14-1.95ZM174.48,164.13c-1.19,0-2.51-.33-3.41-1.23-.87-.88-1.21-2.17-1.21-3.41,0-1.24.49-2.39,1.37-3.26l.84.84c-.81.8-1.25,1.86-1.26,3,0,.79.39,1.83.83,2.26.39.33,1.14.87,2.28.88,0,0,0,0,0,0,1.13,0,2.2-.43,3-1.23l.82.82c-.9.9-2.08,1.34-3.27,1.34ZM176.84,160.37c-.85.84-1.71,1.34-1.94,1.12-.22-.23.28-1.09,1.13-1.93.85-.84,1.71-1.34,1.94-1.12.22.23-.28,1.09-1.13,1.93Z"/><path class="cls-12" d="M45.55,256.69c-1.55,0-1.81,1.29-1.81,1.29v-1.12h-.99v.2l.07,2.8h.89l.07-1.15s.33,1.22,1.68,1.15c1.35-.07,2.28-1.46,2.28-1.46,0,0-.63-1.71-2.18-1.71ZM45.85,257.94c-1.27-.02-1.43-.34-1.43-.34,0,0,1.43-1.72,3.15.77,0,0-.45-.42-1.72-.43Z"/><path class="cls-41" d="M173.7,29.2c-2.58,0-4.67-2.1-4.67-4.67s2.1-4.67,4.67-4.67,4.67,2.1,4.67,4.67-2.1,4.67-4.67,4.67Z"/><path class="cls-12" d="M173.7,21.85c1.47,0,2.67,1.2,2.67,2.67s-1.2,2.67-2.67,2.67-2.67-1.2-2.67-2.67,1.2-2.67,2.67-2.67M173.7,17.85c-3.69,0-6.67,2.99-6.67,6.67s2.99,6.67,6.67,6.67,6.67-2.99,6.67-6.67-2.99-6.67-6.67-6.67h0Z"/><path class="cls-37" d="M173.69,21.66c-.41-.63-4.64-2.48-4.66.36v5.91s1.2-2.48,4.65-.2h0s0,0,0,0c0,0,0,0,0,0h0c3.45-2.29,4.65.19,4.65.19v-5.91c-.02-2.84-4.26-.98-4.66-.35Z"/><path class="cls-41" d="M44.29,215.09c-1.7,0-3.08-1.38-3.08-3.08s1.38-3.08,3.08-3.08,3.08,1.38,3.08,3.08-1.38,3.08-3.08,3.08Z"/><path class="cls-12" d="M44.29,210.93c.6,0,1.08.48,1.08,1.08s-.48,1.08-1.08,1.08-1.08-.48-1.08-1.08.48-1.08,1.08-1.08M44.29,206.93c-2.81,0-5.08,2.27-5.08,5.08s2.27,5.08,5.08,5.08,5.08-2.27,5.08-5.08-2.27-5.08-5.08-5.08h0Z"/><path class="cls-37" d="M44.29,209.83c-.31-.48-3.53-1.89-3.55.27v4.5s.92-1.89,3.54-.15h0s0,0,0,0c0,0,0,0,0,0h0c2.63-1.74,3.54.15,3.54.15v-4.5c-.02-2.16-3.24-.74-3.55-.27Z"/><rect class="cls-36" x="153.07" y="239" width="31.74" height="14.04" rx="6.67" ry="6.67"/><path class="cls-41" d="M178.4,254.74h-18.92c-4.39,0-7.97-3.91-7.97-8.72s3.58-8.73,7.97-8.73h18.92c4.39,0,7.97,3.91,7.97,8.72s-3.58,8.73-7.97,8.73ZM159.48,240.71c-2.68,0-4.85,2.38-4.85,5.31s2.18,5.31,4.85,5.31h18.92c2.68,0,4.85-2.38,4.85-5.31s-2.18-5.31-4.85-5.31h-18.92Z"/><text class="cls-16" transform="translate(162.32 248.56)"><tspan x="0" y="0">2/3</tspan></text><path class="cls-41" d="M159.06,29.2c-2.58,0-4.67-2.1-4.67-4.67s2.1-4.67,4.67-4.67,4.67,2.1,4.67,4.67-2.1,4.67-4.67,4.67Z"/><path class="cls-12" d="M159.06,21.85c1.47,0,2.67,1.2,2.67,2.67s-1.2,2.67-2.67,2.67-2.67-1.2-2.67-2.67,1.2-2.67,2.67-2.67M159.06,17.85c-3.69,0-6.67,2.99-6.67,6.67s2.99,6.67,6.67,6.67,6.67-2.99,6.67-6.67-2.99-6.67-6.67-6.67h0Z"/><text class="cls-17" transform="translate(155.86 28.58) scale(1.2 1)"><tspan x="0" y="0">1</tspan></text><text class="cls-14" transform="translate(20.84 214.01)"><tspan x="0" y="0">Equip </tspan></text></g></svg>