<?xml version="1.0" encoding="UTF-8"?><svg id="Layer_2" xmlns="http://www.w3.org/2000/svg" viewBox="0 0 199.52 273.17"><defs><style>.cls-1{letter-spacing:-.02em;}.cls-2{fill:none;stroke:#231f20;stroke-miterlimit:10;stroke-width:4px;}.cls-3{letter-spacing:0em;}.cls-4{letter-spacing:-.03em;}.cls-5{fill:#7f8080;}.cls-6,.cls-7,.cls-8,.cls-9,.cls-10{fill:#231f20;}.cls-11{font-size:4px;}.cls-11,.cls-9,.cls-12{font-family:CreatoDisplay-Bold, 'Creato Display';font-weight:700;}.cls-11,.cls-12,.cls-13{fill:#f4eddd;}.cls-14{letter-spacing:0em;}.cls-15{letter-spacing:0em;}.cls-16{letter-spacing:-.06em;}.cls-17{letter-spacing:-.01em;}.cls-18{letter-spacing:-.03em;}.cls-19{letter-spacing:-.02em;}.cls-20{fill:#a59b9e;}.cls-21{letter-spacing:0em;}.cls-7{font-family:CreatoDisplay-Italic, 'Creato Display';font-style:italic;}.cls-7,.cls-8{font-size:8px;}.cls-22{letter-spacing:-.03em;}.cls-8{font-family:CreatoDisplay-Regular, 'Creato Display';}.cls-23{letter-spacing:-.02em;}.cls-9{font-size:11px;}.cls-12{font-size:11.69px;}.cls-24{letter-spacing:0em;}.cls-25{letter-spacing:-.02em;}.cls-26{letter-spacing:0em;}.cls-27{letter-spacing:.02em;}.cls-28{fill:#010101;}.cls-29{letter-spacing:-.03em;}.cls-30{letter-spacing:-.01em;}.cls-31{letter-spacing:-.04em;}.cls-32{letter-spacing:-.03em;}.cls-10{font-family:CreatoDisplay-Medium, 'Creato Display';font-size:10px;font-weight:500;}.cls-33{letter-spacing:-.02em;}.cls-34{letter-spacing:0em;}</style></defs><g id="Layer_1-2"><path class="cls-5" d="M12.74,2h174.03c5.93,0,10.74,4.81,10.74,10.74v247.69c0,5.93-4.81,10.74-10.74,10.74H12.74c-5.93,0-10.74-4.81-10.74-10.74V12.74C2,6.81,6.81,2,12.74,2Z"/><path class="cls-6" d="M186.78,4c4.82,0,8.74,3.92,8.74,8.74v247.69c0,4.82-3.92,8.74-8.74,8.74H12.74c-4.82,0-8.74-3.92-8.74-8.74V12.74c0-4.82,3.92-8.74,8.74-8.74h174.03M186.78,0H12.74C5.7,0,0,5.7,0,12.74v247.69c0,7.04,5.7,12.74,12.74,12.74h174.03c7.04,0,12.74-5.7,12.74-12.74V12.74c0-7.04-5.7-12.74-12.74-12.74h0Z"/><path class="cls-13" d="M24.53,12.26h150.98c5.93,0,10.74,4.81,10.74,10.74v212.33c0,5.93-4.81,10.74-10.74,10.74H24.52c-5.93,0-10.74-4.81-10.74-10.74V23c0-5.93,4.81-10.74,10.74-10.74Z"/><path class="cls-6" d="M175.5,14.26c4.82,0,8.74,3.92,8.74,8.74v212.33c0,4.82-3.92,8.74-8.74,8.74H24.53c-4.82,0-8.74-3.92-8.74-8.74V23c0-4.82,3.92-8.74,8.74-8.74h150.98M175.5,10.26H24.53c-7.04,0-12.74,5.7-12.74,12.74v212.33c0,7.04,5.7,12.74,12.74,12.74h150.98c7.04,0,12.74-5.7,12.74-12.74V23c0-7.04-5.7-12.74-12.74-12.74h0Z"/><line class="cls-2" x1="14.16" y1="35.9" x2="185.13" y2="35.9"/><line class="cls-2" x1="14.16" y1="150.64" x2="185.13" y2="150.64"/><line class="cls-2" x1="14.16" y1="168.44" x2="185.13" y2="168.44"/><text class="cls-9" transform="translate(20.3 29.45)"><tspan x="0" y="0">Piece </tspan><tspan class="cls-1" x="30.82" y="0">o</tspan><tspan x="37" y="0">f </tspan><tspan class="cls-18" x="43.62" y="0">P</tspan><tspan x="50.43" y="0">aper</tspan></text><text class="cls-10" transform="translate(20.57 162.93)"><tspan x="0" y="0">Arti</tspan><tspan class="cls-23" x="16.17" y="0">f</tspan><tspan x="19.36" y="0">act- Bachelor</tspan><tspan class="cls-16" x="79.46" y="0">’</tspan><tspan x="80.92" y="0">s Deg</tspan><tspan class="cls-25" x="106.97" y="0">r</tspan><tspan class="cls-14" x="110.41" y="0">ee</tspan></text><text class="cls-11" transform="translate(21.08 254.97)"><tspan x="0" y="0">18</tspan><tspan class="cls-27" x="0" y="4.8">T</tspan><tspan x="2.48" y="4.8">TM - EN</tspan></text><path class="cls-13" d="M43.03,253.55c0-.87.51-1.46,1.41-1.46.78,0,1.31.46,1.31,1.08h-.52c-.05-.36-.3-.64-.8-.64-.57,0-.87.36-.87,1.02s.3,1.02.87,1.02c.49,0,.75-.26.8-.66h.52c0,.63-.52,1.1-1.31,1.1-.9,0-1.41-.6-1.41-1.46Z"/><path class="cls-13" d="M49.03,258.85h.53c.04.38.22.55.66.55s.62-.18.62-.45c0-.2-.11-.32-.54-.39l-.36-.05c-.6-.08-.83-.29-.83-.76,0-.51.36-.88,1.1-.88s1.1.36,1.1.92h-.52c-.04-.34-.22-.51-.6-.51s-.55.18-.55.44c0,.2.09.3.47.35l.36.05c.58.08.9.3.9.8,0,.53-.38.89-1.18.89s-1.17-.35-1.17-.96Z"/><path class="cls-13" d="M51.71,260.18h.21c.24,0,.38-.12.38-.31,0-.06-.01-.13-.04-.2l-.74-1.97h.54l.54,1.66.54-1.66h.54l-.74,1.97c-.25.67-.52.88-1.02.88h-.2v-.37Z"/><path class="cls-13" d="M53.69,258.74c0-.64.36-1.07,1.02-1.07s1.03.44,1.03,1.05c0,.04,0,.08,0,.13h-1.53c.02.42.22.61.53.61.26,0,.42-.13.48-.34h.48c-.09.42-.4.69-.96.69-.67,0-1.05-.42-1.05-1.07ZM54.2,258.51h1.02c-.04-.33-.23-.49-.51-.49s-.46.16-.51.49Z"/><path class="cls-13" d="M55.96,258.74c0-.68.35-1.07.91-1.07.31,0,.52.13.64.35v-1.1h.52v2.85h-.49v-.35c-.11.24-.32.39-.66.39-.56,0-.91-.4-.91-1.07ZM57.5,258.74c0-.47-.21-.68-.52-.68s-.51.21-.51.68.21.68.51.68.52-.21.52-.68Z"/><path class="cls-13" d="M60.13,259.77v-2.4h-.86v-.44h2.28v.44h-.87v2.4h-.54Z"/><path class="cls-13" d="M61.41,259.18c0-.32.19-.57.71-.61l.42-.04c.21-.02.27-.08.27-.18,0-.2-.12-.32-.38-.32-.24,0-.37.1-.39.32h-.51c0-.42.26-.69.9-.69s.9.27.9.69v.88c0,.28.02.46.06.53h-.47c-.06-.08-.09-.16-.09-.32-.12.24-.32.36-.68.36-.48,0-.74-.24-.74-.62ZM62.81,258.91v-.14s-.13.07-.27.08l-.24.02c-.26.02-.36.13-.36.28,0,.18.12.31.38.31.32,0,.5-.24.5-.54Z"/><path class="cls-13" d="M63.66,257.13c0-.15.11-.27.3-.27s.3.12.3.27-.1.27-.3.27-.3-.12-.3-.27ZM63.7,259.77v-2.06h.52v2.06h-.52Z"/><path class="cls-13" d="M66.94,259.77v-1.28c0-.28-.09-.4-.29-.4-.22,0-.39.18-.39.52v1.17h-.5v-1.28c0-.28-.09-.4-.29-.4-.22,0-.39.18-.39.52v1.17h-.5v-2.06h.49v.34c.1-.22.28-.38.56-.38.3,0,.49.13.57.39.1-.24.31-.39.59-.39.42,0,.63.24.63.74v1.36h-.5Z"/><path class="cls-13" d="M67.74,258.74c0-.65.38-1.07,1.05-1.07s1.05.42,1.05,1.07-.38,1.07-1.05,1.07-1.05-.42-1.05-1.07ZM69.32,258.74c0-.46-.19-.68-.54-.68s-.53.22-.53.68.19.68.53.68.54-.22.54-.68Z"/><path class="cls-13" d="M70.05,258.74c0-.65.38-1.07,1.05-1.07s1.05.42,1.05,1.07-.38,1.07-1.05,1.07-1.05-.42-1.05-1.07ZM71.63,258.74c0-.46-.19-.68-.54-.68s-.53.22-.53.68.19.68.53.68.54-.22.54-.68Z"/><path class="cls-13" d="M72.45,259.77v-2.06h.49v.46c.11-.36.29-.49.58-.49.06,0,.14.02.19.03v.45h-.21c-.32,0-.53.23-.53.65v.96h-.52Z"/><path class="cls-13" d="M77.63,259.77v-2.35l-.82,2.35h-.46l-.83-2.35v2.35h-.52v-2.85h.85l.72,2.03.72-2.03h.86v2.85h-.52Z"/><path class="cls-13" d="M78.48,259.18c0-.32.19-.57.71-.61l.42-.04c.21-.02.27-.08.27-.18,0-.2-.12-.32-.38-.32-.24,0-.37.1-.39.32h-.51c0-.42.26-.69.9-.69s.9.27.9.69v.88c0,.28.02.46.06.53h-.47c-.06-.08-.09-.16-.09-.32-.12.24-.32.36-.68.36-.48,0-.74-.24-.74-.62ZM79.87,258.91v-.14s-.13.07-.27.08l-.24.02c-.26.02-.36.13-.36.28,0,.18.12.31.38.31.32,0,.5-.24.5-.54Z"/><path class="cls-13" d="M82.08,259.77v-1.26c0-.28-.1-.42-.35-.42-.27,0-.45.2-.45.53v1.15h-.52v-2.06h.49v.34c.11-.22.3-.38.63-.38.47,0,.71.24.71.74v1.36h-.52Z"/><path class="cls-13" d="M82.89,259.12h.5c.02.22.12.35.44.35s.42-.13.42-.28c0-.14-.11-.21-.29-.24l-.36-.05c-.48-.07-.66-.23-.66-.58s.25-.65.88-.65.88.28.88.66h-.5c-.02-.17-.08-.32-.39-.32-.26,0-.36.11-.36.27,0,.14.08.2.23.22l.35.05c.46.06.72.22.72.61,0,.37-.27.65-.94.65s-.93-.28-.93-.69Z"/><path class="cls-13" d="M84.99,258.74c0-.65.38-1.07,1.05-1.07s1.05.42,1.05,1.07-.38,1.07-1.05,1.07-1.05-.42-1.05-1.07ZM86.57,258.74c0-.46-.19-.68-.54-.68s-.53.22-.53.68.19.68.53.68.54-.22.54-.68Z"/><path class="cls-13" d="M87.3,258.74c0-.65.38-1.07,1.05-1.07s1.05.42,1.05,1.07-.38,1.07-1.05,1.07-1.05-.42-1.05-1.07ZM88.89,258.74c0-.46-.19-.68-.54-.68s-.53.22-.53.68.19.68.53.68.54-.22.54-.68Z"/><path class="cls-13" d="M89.7,259.77v-2.06h.49v.46c.11-.36.29-.49.58-.49.06,0,.14.02.19.03v.45h-.21c-.32,0-.53.23-.53.65v.96h-.52Z"/><text class="cls-11" transform="translate(152.99 258.09) scale(.58)"><tspan x="0" y="0" xml:space="preserve">TM  </tspan></text><text class="cls-11" transform="translate(157.64 259.42)"><tspan class="cls-26" x="0" y="0">&amp; © Ti</tspan><tspan class="cls-15" x="11.33" y="0">m</tspan><tspan x="14.51" y="0">taim</tspan></text><text class="cls-7" transform="translate(20.83 216.21)"><tspan x="0" y="0">The d</tspan><tspan class="cls-19" x="19.8" y="0">a</tspan><tspan x="23.83" y="0">y the design indu</tspan><tspan class="cls-30" x="83.06" y="0">s</tspan><tspan class="cls-3" x="86.92" y="0">try decided on </tspan><tspan class="cls-23" x="139.49" y="0">A</tspan><tspan x="144.83" y="0">dobe</tspan><tspan class="cls-29" x="0" y="9.6">t</tspan><tspan x="2.42" y="9.6">o be its </tspan><tspan class="cls-30" x="29.97" y="9.6">s</tspan><tspan class="cls-3" x="33.83" y="9.6">tanda</tspan><tspan class="cls-22" x="53.72" y="9.6">r</tspan><tspan class="cls-3" x="56.32" y="9.6">d all </tspan><tspan class="cls-30" x="72.14" y="9.6">s</tspan><tspan class="cls-3" x="76" y="9.6">tude</tspan><tspan class="cls-30" x="91.83" y="9.6">n</tspan><tspan class="cls-21" x="95.98" y="9.6">ts, junio</tspan><tspan class="cls-34" x="122.04" y="9.6">r</tspan><tspan x="124.83" y="9.6">s, and </tspan><tspan x="0" y="19.2">am</tspan><tspan class="cls-30" x="10.45" y="19.2">a</tspan><tspan class="cls-32" x="14.59" y="19.2">t</tspan><tspan class="cls-21" x="17.01" y="19.2">eu</tspan><tspan class="cls-34" x="25.62" y="19.2">r</tspan><tspan x="28.42" y="19.2">s wrung their collecti</tspan><tspan class="cls-33" x="100.71" y="19.2">v</tspan><tspan class="cls-21" x="104.79" y="19.2">e </tspan><tspan class="cls-4" x="111.18" y="19.2">w</tspan><tspan x="117.47" y="19.2">all</tspan><tspan class="cls-24" x="124.72" y="19.2">e</tspan><tspan class="cls-21" x="129.03" y="19.2">ts. </tspan></text><text class="cls-8" transform="translate(21.13 183.99)"><tspan x="0" y="0">As an additional co</tspan><tspan class="cls-30" x="66.04" y="0">s</tspan><tspan class="cls-21" x="69.9" y="0">t </tspan><tspan class="cls-29" x="74.55" y="0">t</tspan><tspan class="cls-3" x="76.97" y="0">o ca</tspan><tspan class="cls-17" x="91.86" y="0">s</tspan><tspan x="95.72" y="0">t this spell, p</tspan><tspan class="cls-19" x="138.7" y="0">a</tspan><tspan x="142.74" y="0">y</tspan><tspan x="0" y="9.6">$42, 168.26 </tspan><tspan class="cls-31" x="42.55" y="9.6">A</tspan><tspan x="47.76" y="9.6">U</tspan><tspan class="cls-4" x="53.18" y="9.6">D</tspan><tspan x="58.53" y="9.6">.</tspan></text><path class="cls-28" d="M178.36,155.7c-2.17-2.18-5.69-2.2-7.88-.03-2.18,2.17-2.2,5.69-.03,7.88,2.17,2.18,5.69,2.2,7.88.03,2.18-2.17,2.2-5.69.03-7.88ZM173.73,157.08c.86-.85,1.73-1.36,1.96-1.13.23.23-.28,1.1-1.14,1.95-.86.85-1.73,1.36-1.96,1.13s.28-1.1,1.14-1.95ZM174.58,164.06c-1.19,0-2.51-.33-3.41-1.23-.87-.88-1.21-2.17-1.21-3.41,0-1.24.49-2.39,1.37-3.26l.84.84c-.81.8-1.25,1.86-1.26,3,0,.79.39,1.83.83,2.26.39.33,1.14.87,2.28.88,0,0,0,0,0,0,1.13,0,2.2-.43,3-1.23l.82.82c-.9.9-2.08,1.34-3.27,1.34ZM176.94,160.3c-.85.84-1.71,1.34-1.94,1.12-.22-.23.28-1.09,1.13-1.93.85-.84,1.71-1.34,1.94-1.12.22.23-.28,1.09-1.13,1.93Z"/><path class="cls-13" d="M45.65,256.62c-1.55,0-1.81,1.29-1.81,1.29v-1.12h-.99v.2l.07,2.8h.89l.07-1.15s.33,1.22,1.68,1.15c1.35-.07,2.28-1.46,2.28-1.46,0,0-.63-1.71-2.18-1.71ZM45.95,257.87c-1.27-.02-1.43-.34-1.43-.34,0,0,1.43-1.72,3.15.77,0,0-.45-.42-1.72-.43Z"/><path class="cls-28" d="M174.12,17.78h0s-27,0-27,0h-32.01c-3.67.02-6.65,3-6.65,6.67s2.97,6.66,6.65,6.67v.05h59.01v-.05c3.67-.01,6.65-3,6.65-6.67s-2.97-6.66-6.65-6.67Z"/><text class="cls-12" transform="translate(111.99 28.51) scale(1.2 1)"><tspan x="0" y="0">42, 168.28</tspan></text><path class="cls-6" d="M139.66,62.55s23.83,9.91.37,25.82l-32.09-14.29,27.24-12.67,4.49,1.15Z"/><path class="cls-20" d="M94.39,49.23l45.57,13.48s-.23.02-.64.07c-4.43.58-30.42,5.66-27.95,44.15,2.7,42.07-40.72,29.39-40.72,29.39l-24.81-24.81s34.25,3.78,32.09-24c-2.16-27.78,16.45-38.29,16.45-38.29Z"/><path class="cls-28" d="M90.4,53.61l-1.64,2.45c-.37.55.34,1.13.86.86,1.75-.93,3.42-1.98,5.01-3.16l-.76-.98c-1.72,1.61-2.98,3.53-3.8,5.73-.15.39.23.78.6.79,2.6.05,5.07-.45,7.46-1.46l-.76-.98c-.73.86-1.46,1.71-2.19,2.57-.32.38-.14,1.1.44,1.07,1.86-.12,3.58-.62,5.19-1.56.7-.4.07-1.47-.63-1.08-1.25.69-2.21,1.67-2.87,2.95-.22.42.05.94.54.94,2.62.03,5.05-.92,6.99-2.69l-.88-.88c-.62.58-1.11,1.21-1.52,1.95-.17.31-.04.86.37.92,1.93.26,3.71-.04,5.41-.99l-.63-1.08c-1.21.83-2.7,2.1-3.12,3.57-.39,1.38.75,2.12,1.95,2.31,3.27.52,6.69-.98,8.78-3.47.4-.48.03-1.18-.61-1.04-1.45.31-2.77.97-3.88,1.95-.82.72-2.4,2.37-2.06,3.6.32,1.16,2.08,1.3,3.05,1.2,1.71-.16,3.25-1.12,4.64-2.06l-.76-.98c-.5.41-.77.85-.95,1.47-.1.35.12.65.44.77.8.31,1.51.33,2.35.14l-.77-.44c.1.73.54,1.16,1.26,1.3.79.14,1.12-1.06.33-1.21l-.39-.42c-.05-.34-.48-.51-.77-.44-.63.15-1.1.09-1.68-.14l.44.77c.09-.41.3-.71.63-.92.55-.45-.17-1.38-.76-.98-.86.58-1.75,1.17-2.73,1.54-.74.29-3.33.96-2.8-.6.6-1.78,3.08-2.99,4.75-3.35l-.61-1.04c-1.38,1.64-3.26,2.76-5.39,3.09-.64.1-3.29.46-3.25-.72.04-1.01,1.81-2.32,2.54-2.82.66-.45.08-1.48-.63-1.08-1.38.77-2.88,1.08-4.45.87l.37.92c.36-.65.79-1.19,1.33-1.7.59-.55-.29-1.43-.88-.88-1.7,1.55-3.8,2.34-6.1,2.32l.54.94c.57-1.1,1.34-1.9,2.42-2.5l-.63-1.08c-1.42.82-2.92,1.28-4.56,1.38l.44,1.07c.73-.86,1.46-1.71,2.19-2.57.48-.56-.11-1.26-.76-.98-2.18.92-4.47,1.34-6.83,1.29l.6.79c.75-2,1.92-3.72,3.48-5.18.51-.47-.18-1.41-.76-.98-1.59,1.18-3.26,2.23-5.01,3.16l.86.86,1.64-2.45c.45-.67-.63-1.3-1.08-.63h0Z"/><path class="cls-28" d="M88.22,61.49c-.27.66-.49,1.44-.11,2.11.32.56.91.85,1.53.93,1.52.21,3.03-.51,4.37-1.12l-.86-.86c-.54,1.13-1.07,2.27-1.61,3.4-.23.49.15,1.04.71.92.94-.21,1.88-.42,2.82-.63l-.77-.44c.11.34.07.61-.14.9-.29.43.11.9.54.94.95.09,1.9.08,2.85-.05.34-.04.62-.26.62-.62,0-.3-.29-.67-.62-.62-.95.12-1.9.14-2.85.05l.54.94c.38-.55.47-1.24.26-1.87-.11-.33-.42-.51-.77-.44-.94.21-1.88.42-2.82.63l.71.92c.54-1.13,1.07-2.27,1.61-3.4.28-.58-.28-1.12-.86-.86-.97.44-2,.92-3.09.98-.32.02-.79.03-1.03-.24-.29-.32.03-.92.16-1.25s-.14-.68-.44-.77c-.36-.1-.64.13-.77.44h0Z"/><path class="cls-28" d="M98.98,67.03c2.26.8,4.67,1.18,7.07,1.12.8-.02.81-1.27,0-1.25-2.3.06-4.57-.3-6.73-1.07-.76-.27-1.09.94-.33,1.21h0Z"/><path class="cls-28" d="M107.49,67.28c-.18.47-.52,1.04-.55,1.55-.04.58.37.87.85,1.09s1,.4,1.54.48c.24.04.48.07.72.08.16,0,.48-.05.62.05.1.07.18.27.25.36.13.19.27.36.46.49.38.27.84.32,1.29.29s.85-.09,1.28.02c.46.12.85.36,1.18.71.55.59,1.44-.3.88-.88-.52-.55-1.22-.95-1.97-1.08-.38-.07-.75-.07-1.13-.03-.27.02-.64.11-.86-.09-.24-.22-.34-.55-.6-.76-.31-.26-.67-.31-1.06-.32s-.8-.04-1.19-.15c-.2-.05-.4-.11-.59-.19-.08-.03-.16-.06-.23-.1-.06-.03-.12-.06-.19-.09-.08-.05-.08-.04-.01.03v.33c.08-.49.36-1,.54-1.46.12-.31-.13-.69-.44-.77-.35-.1-.65.12-.77.44h0Z"/><path class="cls-28" d="M86.32,66.89c-1.02.58-1.83,1.45-2.28,2.53-.21.49-.4,1.04-.13,1.54.25.47.78.63,1.29.67,1.36.1,2.82-.16,4.16-.4,1.46-.26,2.9-.66,4.29-1.16l-.61-.16c-.07-.09-.02,0-.06.08-.05.1-.07.22-.1.32-.06.21-.12.43-.12.65,0,.44.21.87.53,1.16.82.76,1.9.56,2.92.67.8.09.79-1.16,0-1.25-.49-.05-2.12.19-2.2-.58-.03-.31.2-.66.23-.97.03-.39-.08-.67-.32-.97-.13-.16-.42-.23-.61-.16-2.01.73-4.1,1.23-6.22,1.42-.52.05-1.04.08-1.56.1-.09,0-.5.05-.55-.05,0-.02.21-.47.24-.52.37-.79.97-1.41,1.73-1.84.7-.4.07-1.48-.63-1.08h0Z"/><path class="cls-28" d="M99.87,72.94c.78.68,1.71,1.17,2.73,1.36.53.1,1.07.11,1.58.31.41.16.76.43,1.05.76.22.25.66.23.88,0,.25-.25.22-.63,0-.88-.33-.37-.73-.69-1.18-.9-.53-.26-1.06-.35-1.64-.43-.94-.13-1.82-.47-2.55-1.1-.25-.22-.63-.25-.88,0-.23.23-.26.66,0,.88h0Z"/><path class="cls-28" d="M82.93,74.35l2.44,1.05c.16.07.31.11.48.06.14-.04.3-.15.37-.29.14-.27.1-.72-.22-.86l-2.44-1.05c-.16-.07-.31-.11-.48-.06-.14.04-.3.15-.37.29-.14.27-.1.72.22.86h0Z"/><path class="cls-28" d="M86.58,75.41l.82.39c.07.05.15.07.23.07.08.02.17.01.25-.01.08-.02.15-.06.21-.11.07-.04.12-.1.16-.18.08-.15.12-.32.06-.48-.05-.15-.14-.3-.29-.37l-.82-.39c-.07-.05-.15-.07-.23-.07-.08-.02-.17-.01-.25.01-.08.02-.15.06-.21.11-.07.04-.12.1-.16.18-.08.15-.12.32-.06.48.05.15.14.3.29.37h0Z"/><path class="cls-28" d="M92.03,76.83c1.1.28,2.21.57,3.31.84.51.12,1.02.23,1.54.3s1.08.05,1.61.15c1.66.33,2.75,1.89,4.43,2.23.79.16,1.12-1.04.33-1.21-1.66-.34-2.75-1.89-4.43-2.23-.51-.1-1.03-.11-1.55-.15-.54-.05-1.07-.16-1.6-.29-1.11-.27-2.21-.56-3.31-.84-.78-.2-1.11,1.01-.33,1.21h0Z"/><path class="cls-28" d="M80.81,79.58c-.01.92.51,1.8,1.42,2.1.57.19.94-.02,1.49-.07.9-.07.97.33,1.19,1.07.25.8.68,1.75,1.62,1.87.39.05.74-.07,1.05-.29.47-.34.56-.86,1.11-.48.83.57,1.51.9,2.56.85.49-.02.98-.1,1.46-.2.57-.12,1.37-.48,1.95-.33.51.14,1.06.76,1.5,1.05.54.35,1.12.64,1.71.89,1.1.46,2.25.71,3.44.8.8.07.8-1.18,0-1.25-1.18-.1-2.33-.39-3.4-.89-.94-.45-1.69-1.25-2.61-1.68-1.84-.86-3.94,1.28-5.73-.13-.56-.44-1.03-.94-1.8-.53-.32.17-.47.51-.75.71-.61.42-.79-.33-.95-.85-.21-.7-.44-1.47-1.16-1.82-.88-.42-2.9.75-2.87-.83.01-.8-1.24-.8-1.25,0h0Z"/><path class="cls-28" d="M105.94,88.52c.36.31.75.58,1.19.77.48.21.97.34,1.49.41.15.02.34-.08.44-.18.11-.11.19-.29.18-.44s-.06-.33-.18-.44c-.13-.12-.27-.16-.44-.18-.02,0-.05,0-.07,0l.17.02c-.2-.03-.39-.07-.58-.12-.1-.03-.19-.06-.28-.09-.04-.02-.09-.04-.14-.05.09.04.11.05.05.02-.02,0-.03-.02-.05-.02-.17-.08-.34-.17-.5-.27-.08-.05-.16-.11-.24-.17-.05-.04-.04-.03.04.03-.02-.02-.04-.03-.06-.05-.04-.03-.08-.06-.11-.1-.25-.22-.65-.26-.88,0-.22.24-.26.65,0,.88h0Z"/><path class="cls-28" d="M79.81,87.93c1.21.52,2.43.25,3.7.35,1.09.08,2.1.63,2.84,1.42.55.59,1.43-.3.88-.88-.82-.88-1.94-1.51-3.14-1.71-.62-.1-1.23-.09-1.86-.07-.59.02-1.24.06-1.8-.18-.31-.13-.67-.09-.86.22-.15.26-.09.72.22.86h0Z"/><path class="cls-28" d="M93.04,91.52c.22,0,.44,0,.66.01.06,0,.13.01.19.02.13.01-.12-.02.02,0,.11.02.22.04.32.06.22.05.43.11.64.18.04.02.09.03.13.05.03.01.23.07.07.03.1.03.2.09.3.14.29.15.69.09.86-.22.15-.29.09-.7-.22-.86-.91-.47-1.93-.7-2.96-.66-.33.01-.64.28-.62.62.01.33.28.64.62.62h0Z"/><path class="cls-28" d="M79.84,94.48c-.84.63-1.36,1.54-1.42,2.6-.03.53.06,1.17.55,1.47.42.25.98.2,1.43.08.8-.2,1.48-.78,2.29-.92.23-.04.45.02.63.21.19.2.35.55.49.85.36.79.79,1.54,1.76,1.6.8.05.8-1.2,0-1.25-.11,0,0,.02-.08-.02.09.04-.04-.02-.06-.04.08.06-.03-.03-.05-.05-.06-.06-.01,0-.08-.09-.17-.25-.29-.53-.42-.81-.27-.59-.61-1.19-1.23-1.47-.75-.35-1.53-.1-2.24.22-.31.14-.61.31-.93.43-.05.02-.88.22-.86.18,0,0,.08.06.07.07.02.04.03.04,0-.02,0-.02,0-.03-.01-.05,0-.11-.01-.23,0-.35,0-.2.05-.4.12-.59.12-.37.37-.74.69-.98.27-.2.41-.54.22-.86-.16-.27-.58-.43-.86-.22h0Z"/><path class="cls-28" d="M89.81,100.19l2.66,2.24c.42.35.83.71,1.26,1.05s.96.66,1.54.6c.34-.04.62-.26.62-.62,0-.31-.29-.66-.62-.62s-.64-.21-.93-.45c-.41-.34-.81-.68-1.22-1.02l-2.44-2.05c-.26-.22-.63-.25-.88,0-.22.22-.26.67,0,.88h0Z"/><path class="cls-28" d="M99.35,103.41c3.14.78,6.19,1.88,9.09,3.32.72.36,1.35-.72.63-1.08-3-1.48-6.14-2.64-9.39-3.44-.78-.19-1.11,1.01-.33,1.21h0Z"/><path class="cls-28" d="M78.74,101.59c1.19.78,2.57.95,3.9,1.36,1.46.45,2.73,1.33,4.09,2,2.79,1.39,5.8,2.26,8.78,3.12.77.22,1.11-.98.33-1.21-2.98-.85-5.99-1.71-8.76-3.13-1.28-.66-2.49-1.45-3.86-1.91-1.29-.44-2.68-.55-3.85-1.31-.68-.44-1.3.64-.63,1.08h0Z"/><path class="cls-28" d="M97.73,109.23c.45.75,1.12,1.31,1.94,1.63.41.16.86.25,1.3.26.31,0,.82-.15,1.03.14.25.35.41.75.7,1.09s.6.6.93.85c.69.51,1.47.88,2.25,1.24.31.14.67.09.86-.22.16-.27.08-.71-.22-.86-.73-.33-1.46-.67-2.11-1.14-.3-.21-.59-.47-.82-.76-.27-.33-.39-.73-.65-1.06-.61-.76-1.49-.43-2.31-.57-.75-.13-1.41-.59-1.8-1.24-.42-.69-1.5-.06-1.08.63h0Z"/><path class="cls-28" d="M107.6,113.77c.8,0,.81-1.25,0-1.25s-.81,1.25,0,1.25h0Z"/><path class="cls-28" d="M75.6,106.31c2,1.45,3.78,3.23,5.24,5.22.2.27.54.41.86.22.27-.16.42-.58.22-.86-1.6-2.18-3.5-4.08-5.69-5.67-.27-.2-.7-.05-.86.22-.18.32-.05.66.22.86h0Z"/><path class="cls-28" d="M86.35,112.06c1.42,1.46,3.61,1.46,5.5,1.33.34-.02.62-.27.62-.62,0-.32-.29-.65-.62-.62-.83.06-1.76.1-2.53-.01-.82-.12-1.53-.38-2.08-.95s-1.44.31-.88.88h0Z"/><path class="cls-28" d="M92.63,112.88c.28.89,1.03,1.41,1.89,1.68s1.84.16,2.69.52c.45.19.66.53.9.92.25.42.53.79.92,1.09.81.63,1.81.85,2.82.69.79-.13.46-1.33-.33-1.21-.73.12-1.52-.18-2.01-.74-.28-.32-.44-.72-.69-1.05-.27-.35-.61-.62-1.01-.81-.75-.34-1.54-.35-2.34-.48-.59-.1-1.43-.3-1.63-.95-.24-.77-1.45-.44-1.21.33h0Z"/><path class="cls-28" d="M81.96,110.07c.11.03.22.06.32.11l-.15-.06c.18.08.34.17.5.29l-.13-.1c.15.12.29.25.41.4l-.1-.13c.06.08.12.16.17.25.08.14.22.25.37.29s.35.02.48-.06c.28-.18.4-.55.22-.86-.38-.65-1.03-1.15-1.77-1.34-.16-.04-.34-.02-.48.06-.13.08-.25.22-.29.37-.04.16-.03.34.06.48s.21.25.37.29h0Z"/><path class="cls-28" d="M70.91,112.83l10.24,4.76c.83.38,1.66.77,2.48,1.15.72.34,1.47.65,2.03,1.24.96,1.01,1.4,2.39,2.5,3.29.62.51,1.51-.37.88-.88-1.09-.89-1.54-2.28-2.5-3.29-1.14-1.2-2.99-1.76-4.46-2.44-3.52-1.64-7.04-3.27-10.55-4.91-.72-.34-1.36.74-.63,1.08h0Z"/><path class="cls-28" d="M68.48,114.84c1.92,2.98,4.56,5.46,7.71,7.11,1.75.92,3.65,1.49,5.44,2.32.83.39,1.65.83,2.38,1.39.35.27.68.56.98.88.11.11,1.06,1.16.92,1.32-.5.62.38,1.51.88.88,1.13-1.39-.91-3.2-1.94-4-1.65-1.28-3.61-2-5.54-2.76-4.01-1.59-7.4-4.12-9.76-7.77-.43-.67-1.52-.05-1.08.63h0Z"/><path class="cls-28" d="M58.54,114.3c.07.05.14.1.21.15.09.07-.04-.03.02.01.03.03.07.05.1.08.13.11.26.22.39.33.25.22.49.46.72.7s.45.5.65.76c-.05-.07-.02-.03.01.02.03.03.05.07.08.1.05.07.1.14.15.21.1.14.19.28.29.43.17.28.56.41.86.22s.41-.56.22-.86c-.81-1.27-1.84-2.36-3.06-3.25-.27-.19-.71-.05-.86.22-.17.32-.06.65.22.86h0Z"/></g></svg>