<?xml version="1.0" encoding="UTF-8"?><svg id="Layer_2" xmlns="http://www.w3.org/2000/svg" viewBox="0 0 199.52 273.17"><defs><style>.cls-1{fill:none;stroke:#231f20;stroke-miterlimit:10;stroke-width:4px;}.cls-2{font-size:14px;}.cls-2,.cls-3,.cls-4,.cls-5,.cls-6,.cls-7{fill:#231f20;}.cls-2,.cls-8,.cls-9{font-family:CreatoDisplay-Bold, 'Creato Display';}.cls-2,.cls-8,.cls-9,.cls-6{font-weight:700;}.cls-10{letter-spacing:0em;}.cls-3{font-family:CreatoDisplay-Italic, 'Creato Display';font-size:7px;font-style:italic;}.cls-11{fill:#995180;}.cls-12{letter-spacing:-.01em;}.cls-8{font-size:4px;}.cls-8,.cls-9,.cls-13{fill:#f4eddd;}.cls-14{fill:#e95242;}.cls-15{letter-spacing:-.09em;}.cls-16{fill:#967f9e;}.cls-17{letter-spacing:-.02em;}.cls-18{letter-spacing:-.02em;}.cls-19{letter-spacing:0em;}.cls-20{fill:#a69c7f;}.cls-21{fill:#e7a8cb;}.cls-22{fill:#b7c9e8;}.cls-23{letter-spacing:0em;}.cls-24{fill:#a96864;}.cls-25{fill:#6e54a3;}.cls-26{letter-spacing:-.02em;}.cls-27{fill:#fff;}.cls-27,.cls-28{opacity:.3;}.cls-29{fill:#bb759f;}.cls-30{letter-spacing:0em;}.cls-31{letter-spacing:-.02em;}.cls-28,.cls-32{fill:#58846e;}.cls-33{letter-spacing:-.07em;}.cls-34{letter-spacing:0em;}.cls-35{letter-spacing:0em;}.cls-36{letter-spacing:-.03em;}.cls-5{font-family:CreatoDisplay-Regular, 'Creato Display';}.cls-5,.cls-6{font-size:8px;}.cls-37{fill:#3e3e3e;}.cls-38{letter-spacing:-.03em;}.cls-9{font-size:11.69px;}.cls-39{letter-spacing:0em;}.cls-40{letter-spacing:-.02em;}.cls-41{letter-spacing:0em;}.cls-42{letter-spacing:.02em;}.cls-43{fill:#010101;}.cls-44{letter-spacing:-.09em;}.cls-45{letter-spacing:-.03em;}.cls-46{letter-spacing:0em;}.cls-47{letter-spacing:-.03em;}.cls-48{letter-spacing:-.01em;}.cls-49{letter-spacing:-.04em;}.cls-6{font-family:CreatoDisplay-ExtraBold, 'Creato Display';}.cls-50{letter-spacing:-.03em;}.cls-51{letter-spacing:-.03em;}.cls-52{fill:#375073;}.cls-7{font-family:CreatoDisplay-Medium, 'Creato Display';font-size:10px;font-weight:500;}.cls-53{letter-spacing:-.02em;}</style></defs><g id="Layer_1-2"><path class="cls-14" d="M12.74,2h174.03c5.93,0,10.74,4.81,10.74,10.74v247.69c0,5.93-4.81,10.74-10.74,10.74H12.74c-5.93,0-10.74-4.81-10.74-10.74V12.74C2,6.81,6.81,2,12.74,2Z"/><path class="cls-4" d="M186.78,4c4.82,0,8.74,3.92,8.74,8.74v247.69c0,4.82-3.92,8.74-8.74,8.74H12.74c-4.82,0-8.74-3.92-8.74-8.74V12.74c0-4.82,3.92-8.74,8.74-8.74h174.03M186.78,0H12.74C5.7,0,0,5.7,0,12.74v247.69c0,7.04,5.7,12.74,12.74,12.74h174.03c7.04,0,12.74-5.7,12.74-12.74V12.74c0-7.04-5.7-12.74-12.74-12.74h0Z"/><rect class="cls-13" x="13.78" y="12.26" width="172.46" height="233.81" rx="10.74" ry="10.74"/><path class="cls-4" d="M175.5,14.26c4.82,0,8.74,3.92,8.74,8.74v212.33c0,4.82-3.92,8.74-8.74,8.74H24.53c-4.82,0-8.74-3.92-8.74-8.74V23c0-4.82,3.92-8.74,8.74-8.74h150.98M175.5,10.26H24.53c-7.04,0-12.74,5.7-12.74,12.74v212.33c0,7.04,5.7,12.74,12.74,12.74h150.98c7.04,0,12.74-5.7,12.74-12.74V23c0-7.04-5.7-12.74-12.74-12.74h0Z"/><line class="cls-1" x1="14.16" y1="35.9" x2="185.13" y2="35.9"/><line class="cls-1" x1="14.16" y1="150.64" x2="185.13" y2="150.64"/><line class="cls-1" x1="14.16" y1="168.44" x2="185.13" y2="168.44"/><text class="cls-2" transform="translate(20.3 29.45)"><tspan x="0" y="0">B</tspan><tspan class="cls-17" x="9.51" y="0">r</tspan><tspan x="14.5" y="0">ain in a </tspan><tspan class="cls-15" x="62.16" y="0">V</tspan><tspan class="cls-19" x="70.91" y="0">a</tspan><tspan x="78.5" y="0">t</tspan></text><text class="cls-7" transform="translate(20.57 162.93)"><tspan x="0" y="0">C</tspan><tspan class="cls-40" x="7.26" y="0">r</tspan><tspan x="10.7" y="0">e</tspan><tspan class="cls-12" x="16.28" y="0">a</tspan><tspan x="21.58" y="0">tu</tspan><tspan class="cls-40" x="30.43" y="0">r</tspan><tspan x="33.87" y="0">e- B</tspan><tspan class="cls-18" x="52.22" y="0">r</tspan><tspan x="55.64" y="0">ain</tspan></text><text class="cls-5" transform="translate(20.57 183.97)"><tspan x="0" y="0">When B</tspan><tspan class="cls-26" x="28" y="0">r</tspan><tspan x="30.62" y="0">ain in a </tspan><tspan class="cls-44" x="56.54" y="0">V</tspan><tspan class="cls-48" x="61.3" y="0">a</tspan><tspan x="65.44" y="0">t is dealt damag</tspan><tspan class="cls-53" x="120.7" y="0">e</tspan><tspan x="124.93" y="0">,</tspan><tspan x="0" y="9.6">mill 2 ca</tspan><tspan class="cls-36" x="27.65" y="9.6">r</tspan><tspan class="cls-10" x="30.25" y="9.6">ds and </tspan><tspan class="cls-36" x="55.78" y="9.6">r</tspan><tspan x="58.38" y="9.6">egene</tspan><tspan class="cls-26" x="80.34" y="9.6">r</tspan><tspan class="cls-48" x="82.96" y="9.6">a</tspan><tspan class="cls-50" x="87.1" y="9.6">t</tspan><tspan class="cls-34" x="89.52" y="9.6">e it tapped with a</tspan><tspan class="cls-48" x="0" y="19.2">s</tspan><tspan x="3.86" y="19.2">tun cou</tspan><tspan class="cls-39" x="29.85" y="19.2">n</tspan><tspan class="cls-47" x="33.99" y="19.2">t</tspan><tspan x="36.41" y="19.2">er. </tspan></text><text class="cls-8" transform="translate(21.08 254.97)"><tspan x="0" y="0">2</tspan><tspan class="cls-42" x="0" y="4.8">T</tspan><tspan x="2.48" y="4.8">TM - EN</tspan></text><path class="cls-13" d="M43.1,253.89v-1.77h.54v1.72c0,.54.2.72.67.72s.68-.19.68-.72v-1.72h.54v1.77c0,.74-.4,1.12-1.22,1.12s-1.22-.38-1.22-1.12Z"/><path class="cls-13" d="M49.03,258.85h.53c.04.38.22.55.66.55s.62-.18.62-.45c0-.2-.11-.32-.54-.39l-.36-.05c-.6-.08-.83-.29-.83-.76,0-.51.36-.88,1.1-.88s1.1.36,1.1.92h-.52c-.04-.34-.22-.51-.6-.51s-.55.18-.55.44c0,.2.09.3.47.35l.36.05c.58.08.9.3.9.8,0,.53-.38.89-1.18.89s-1.17-.35-1.17-.96Z"/><path class="cls-13" d="M51.71,260.18h.21c.24,0,.38-.12.38-.31,0-.06-.01-.13-.04-.2l-.74-1.97h.54l.54,1.66.54-1.66h.54l-.74,1.97c-.25.67-.52.88-1.02.88h-.2v-.37Z"/><path class="cls-13" d="M53.69,258.74c0-.64.36-1.07,1.02-1.07s1.03.44,1.03,1.05c0,.04,0,.08,0,.13h-1.53c.02.42.22.61.53.61.26,0,.42-.13.48-.34h.48c-.09.42-.4.69-.96.69-.67,0-1.05-.42-1.05-1.07ZM54.2,258.51h1.02c-.04-.33-.23-.49-.51-.49s-.46.16-.51.49Z"/><path class="cls-13" d="M55.95,258.74c0-.68.35-1.07.91-1.07.31,0,.52.13.64.35v-1.1h.52v2.85h-.49v-.35c-.11.24-.32.39-.66.39-.56,0-.91-.4-.91-1.07ZM57.5,258.74c0-.47-.21-.68-.52-.68s-.51.21-.51.68.21.68.51.68.52-.21.52-.68Z"/><path class="cls-13" d="M60.13,259.77v-2.4h-.86v-.44h2.28v.44h-.87v2.4h-.54Z"/><path class="cls-13" d="M61.41,259.18c0-.32.19-.57.71-.61l.42-.04c.21-.02.27-.08.27-.18,0-.2-.12-.32-.38-.32-.24,0-.37.1-.39.32h-.51c0-.42.26-.69.9-.69s.9.27.9.69v.88c0,.28.02.46.06.53h-.47c-.06-.08-.09-.16-.09-.32-.12.24-.32.36-.68.36-.48,0-.74-.24-.74-.62ZM62.81,258.91v-.14s-.13.07-.27.08l-.24.02c-.26.02-.36.13-.36.28,0,.18.12.31.38.31.32,0,.5-.24.5-.54Z"/><path class="cls-13" d="M63.66,257.13c0-.15.11-.27.3-.27s.3.12.3.27-.1.27-.3.27-.3-.12-.3-.27ZM63.7,259.77v-2.06h.52v2.06h-.52Z"/><path class="cls-13" d="M66.94,259.77v-1.28c0-.28-.09-.4-.29-.4-.22,0-.39.18-.39.52v1.17h-.5v-1.28c0-.28-.09-.4-.29-.4-.22,0-.39.18-.39.52v1.17h-.5v-2.06h.49v.34c.1-.22.28-.38.56-.38.3,0,.49.13.57.39.1-.24.31-.39.59-.39.42,0,.63.24.63.74v1.36h-.5Z"/><path class="cls-13" d="M67.74,258.74c0-.65.38-1.07,1.05-1.07s1.05.42,1.05,1.07-.38,1.07-1.05,1.07-1.05-.42-1.05-1.07ZM69.32,258.74c0-.46-.19-.68-.54-.68s-.53.22-.53.68.19.68.53.68.54-.22.54-.68Z"/><path class="cls-13" d="M70.05,258.74c0-.65.38-1.07,1.05-1.07s1.05.42,1.05,1.07-.38,1.07-1.05,1.07-1.05-.42-1.05-1.07ZM71.63,258.74c0-.46-.19-.68-.54-.68s-.53.22-.53.68.19.68.53.68.54-.22.54-.68Z"/><path class="cls-13" d="M72.45,259.77v-2.06h.49v.46c.11-.36.29-.49.58-.49.06,0,.14.02.19.03v.45h-.21c-.32,0-.53.23-.53.65v.96h-.52Z"/><path class="cls-13" d="M77.63,259.77v-2.35l-.82,2.35h-.46l-.83-2.35v2.35h-.52v-2.85h.85l.72,2.03.72-2.03h.86v2.85h-.52Z"/><path class="cls-13" d="M78.48,259.18c0-.32.19-.57.71-.61l.42-.04c.21-.02.27-.08.27-.18,0-.2-.12-.32-.38-.32-.24,0-.37.1-.39.32h-.51c0-.42.26-.69.9-.69s.9.27.9.69v.88c0,.28.02.46.06.53h-.47c-.06-.08-.09-.16-.09-.32-.12.24-.32.36-.68.36-.48,0-.74-.24-.74-.62ZM79.87,258.91v-.14s-.13.07-.27.08l-.24.02c-.26.02-.36.13-.36.28,0,.18.12.31.38.31.32,0,.5-.24.5-.54Z"/><path class="cls-13" d="M82.08,259.77v-1.26c0-.28-.1-.42-.35-.42-.27,0-.45.2-.45.53v1.15h-.52v-2.06h.49v.34c.11-.22.3-.38.63-.38.47,0,.71.24.71.74v1.36h-.52Z"/><path class="cls-13" d="M82.89,259.12h.5c.02.22.12.35.44.35s.42-.13.42-.28c0-.14-.11-.21-.29-.24l-.36-.05c-.48-.07-.66-.23-.66-.58s.25-.65.88-.65.88.28.88.66h-.5c-.02-.17-.08-.32-.39-.32-.26,0-.36.11-.36.27,0,.14.08.2.23.22l.35.05c.46.06.72.22.72.61,0,.37-.27.65-.94.65s-.93-.28-.93-.69Z"/><path class="cls-13" d="M84.99,258.74c0-.65.38-1.07,1.05-1.07s1.05.42,1.05,1.07-.38,1.07-1.05,1.07-1.05-.42-1.05-1.07ZM86.57,258.74c0-.46-.19-.68-.54-.68s-.53.22-.53.68.19.68.53.68.54-.22.54-.68Z"/><path class="cls-13" d="M87.3,258.74c0-.65.38-1.07,1.05-1.07s1.05.42,1.05,1.07-.38,1.07-1.05,1.07-1.05-.42-1.05-1.07ZM88.89,258.74c0-.46-.19-.68-.54-.68s-.53.22-.53.68.19.68.53.68.54-.22.54-.68Z"/><path class="cls-13" d="M89.7,259.77v-2.06h.49v.46c.11-.36.29-.49.58-.49.06,0,.14.02.19.03v.45h-.21c-.32,0-.53.23-.53.65v.96h-.52Z"/><text class="cls-8" transform="translate(151.91 258.29) scale(.58)"><tspan x="0" y="0" xml:space="preserve">TM  </tspan></text><text class="cls-8" transform="translate(156.56 259.62)"><tspan class="cls-41" x="0" y="0">&amp; © Ti</tspan><tspan class="cls-23" x="11.33" y="0">m</tspan><tspan x="14.51" y="0">taim</tspan></text><path class="cls-43" d="M158.72,29.03c-2.58,0-4.67-2.1-4.67-4.67s2.1-4.67,4.67-4.67,4.67,2.1,4.67,4.67-2.1,4.67-4.67,4.67Z"/><path class="cls-4" d="M158.72,21.68c1.47,0,2.67,1.2,2.67,2.67s-1.2,2.67-2.67,2.67-2.67-1.2-2.67-2.67,1.2-2.67,2.67-2.67M158.72,17.68c-3.69,0-6.67,2.99-6.67,6.67s2.99,6.67,6.67,6.67,6.67-2.99,6.67-6.67-2.99-6.67-6.67-6.67h0Z"/><path class="cls-14" d="M162.17,24.22c0-1.73-1.29-3.16-2.95-3.4v-.47h1.39v-1h-3.9v1h1.51v.47c-1.67.24-2.95,1.67-2.95,3.4s1.29,3.16,2.95,3.4v.5h-1.51v1h3.9v-1h-1.39v-.5c1.67-.24,2.95-1.67,2.95-3.4ZM161.17,24.22c0,1.18-.84,2.17-1.95,2.4v-4.8c1.11.23,1.95,1.22,1.95,2.4ZM156.26,24.22c0-1.18.84-2.17,1.95-2.4v4.8c-1.11-.23-1.95-1.22-1.95-2.4Z"/><path class="cls-43" d="M143.35,29.03c-2.58,0-4.67-2.1-4.67-4.67s2.1-4.67,4.67-4.67,4.67,2.1,4.67,4.67-2.1,4.67-4.67,4.67Z"/><path class="cls-4" d="M143.35,21.68c1.47,0,2.67,1.2,2.67,2.67s-1.2,2.67-2.67,2.67-2.67-1.2-2.67-2.67,1.2-2.67,2.67-2.67M143.35,17.68c-3.69,0-6.67,2.99-6.67,6.67s2.99,6.67,6.67,6.67,6.67-2.99,6.67-6.67-2.99-6.67-6.67-6.67h0Z"/><path class="cls-43" d="M178.36,155.7c-2.17-2.18-5.69-2.2-7.88-.03-2.18,2.17-2.2,5.69-.03,7.88s5.69,2.2,7.88.03c2.18-2.17,2.2-5.69.03-7.88ZM173.73,157.08c.86-.85,1.73-1.36,1.96-1.13.23.23-.28,1.1-1.14,1.95-.86.85-1.73,1.36-1.96,1.13s.28-1.1,1.14-1.95ZM174.58,164.06c-1.19,0-2.51-.33-3.41-1.23-.87-.88-1.21-2.17-1.21-3.41,0-1.24.49-2.39,1.37-3.26l.84.84c-.81.8-1.25,1.86-1.26,3,0,.79.39,1.83.83,2.26.39.33,1.14.87,2.28.88,0,0,0,0,0,0,1.13,0,2.2-.43,3-1.23l.82.82c-.9.9-2.08,1.34-3.27,1.34ZM176.94,160.3c-.85.84-1.71,1.34-1.94,1.12-.22-.23.28-1.09,1.13-1.93.85-.84,1.71-1.34,1.94-1.12.22.23-.28,1.09-1.13,1.93Z"/><path class="cls-13" d="M45.65,256.62c-1.55,0-1.81,1.29-1.81,1.29v-1.12h-.99v.2l.07,2.8h.89l.07-1.15s.33,1.22,1.68,1.15c1.35-.07,2.28-1.46,2.28-1.46,0,0-.63-1.71-2.18-1.71ZM45.95,257.87c-1.27-.02-1.43-.34-1.43-.34,0,0,1.43-1.72,3.15.77,0,0-.45-.42-1.72-.43Z"/><rect class="cls-13" x="152.39" y="238.42" width="31.74" height="14.04" rx="6.67" ry="6.67"/><path class="cls-43" d="M177.72,254.16h-18.92c-4.39,0-7.97-3.91-7.97-8.72s3.58-8.73,7.97-8.73h18.92c4.39,0,7.97,3.91,7.97,8.72s-3.58,8.73-7.97,8.73ZM158.8,240.12c-2.68,0-4.85,2.38-4.85,5.31s2.18,5.31,4.85,5.31h18.92c2.68,0,4.85-2.38,4.85-5.31s-2.18-5.31-4.85-5.31h-18.92Z"/><text class="cls-6" transform="translate(162.06 247.88)"><tspan x="0" y="0">0/1</tspan></text><text class="cls-9" transform="translate(139.97 28.41) scale(1.2 1)"><tspan x="0" y="0">1</tspan></text><text class="cls-3" transform="translate(20.2 227.18)"><tspan x="0" y="0">Onc</tspan><tspan class="cls-31" x="12.55" y="0">e</tspan><tspan x="16.25" y="0">, Zhuang Zhou d</tspan><tspan class="cls-51" x="64.72" y="0">r</tspan><tspan x="67" y="0">eamed he </tspan><tspan class="cls-45" x="98.86" y="0">w</tspan><tspan x="104.36" y="0">as a but</tspan><tspan class="cls-38" x="128.72" y="0">t</tspan><tspan x="130.83" y="0">erfl</tspan><tspan class="cls-33" x="140.73" y="0">y</tspan><tspan x="143.93" y="0">, he </tspan><tspan x="0" y="8.4">did n</tspan><tspan class="cls-46" x="14.76" y="8.4">o</tspan><tspan class="cls-30" x="18.62" y="8.4">t kn</tspan><tspan class="cls-49" x="30.06" y="8.4">o</tspan><tspan class="cls-35" x="33.7" y="8.4">w he </tspan><tspan class="cls-45" x="50.45" y="8.4">w</tspan><tspan x="55.95" y="8.4">as Zhuang Zhou</tspan></text><path class="cls-43" d="M173.28,29.03c-2.58,0-4.67-2.1-4.67-4.67s2.1-4.67,4.67-4.67,4.67,2.1,4.67,4.67-2.1,4.67-4.67,4.67Z"/><path class="cls-4" d="M173.28,21.68c1.47,0,2.67,1.2,2.67,2.67s-1.2,2.67-2.67,2.67-2.67-1.2-2.67-2.67,1.2-2.67,2.67-2.67M173.28,17.68c-3.69,0-6.67,2.99-6.67,6.67s2.99,6.67,6.67,6.67,6.67-2.99,6.67-6.67-2.99-6.67-6.67-6.67h0Z"/><path class="cls-14" d="M176.73,24.22c0-1.73-1.29-3.16-2.95-3.4v-.47h1.39v-1h-3.9v1h1.51v.47c-1.67.24-2.95,1.67-2.95,3.4s1.29,3.16,2.95,3.4v.5h-1.51v1h3.9v-1h-1.39v-.5c1.67-.24,2.95-1.67,2.95-3.4ZM175.73,24.22c0,1.18-.84,2.17-1.95,2.4v-4.8c1.11.23,1.95,1.22,1.95,2.4ZM170.83,24.22c0-1.18.84-2.17,1.95-2.4v4.8c-1.11-.23-1.95-1.22-1.95-2.4Z"/><path class="cls-22" d="M48.91,49.66l11.84,6.83v72.42s1.27,12.75,39.76,12.75,40.11-13.13,40.11-13.13l-.85-70.83,12.48-7.74-103.35-.3Z"/><path class="cls-52" d="M4,137.75v-1.78c1.73-4.57,31.63-87.19,54.77-87.19s29.2,15,29.25,15.15l-.93.36c-.06-.14-5.91-14.51-28.32-14.51S4.42,136.64,4,137.75Z"/><path class="cls-16" d="M195.52,148.13c-.42-1.11-29.35-98.36-51.8-98.36s-28.26,14.37-28.32,14.51l-.93-.36c.06-.15,6.12-15.15,29.25-15.15s50.08,93.19,51.8,97.76v1.59Z"/><path class="cls-29" d="M97.4,58.1c1.2.11,2.14,1.07,2.22,2.28.16,2.59.38,5.49.5,8.09.3,6.7.14,11.34.98,12.3l-.9,4.97s1.13,9.71-1.58,10.84c0,0,2.01,2.86,1.41,6.98l1,4.22,1.61-3.11s-.5-6.83,2.01-7.63c0,0-2.91-2.21-2.51-6.02,0,0,.7-1.81.6-4.72s-.8-4.82-.8-4.82c0,0,0-3.61.8-4.32,0,0-.7-5.47-.2-7.58s-1.81-6.12-.9-9.24,5.32-2.21,5.32-2.21l6.17,1.36s4.92,1.61,5.42,4.62c0,0,11.24,6.63,12.05,13.15,0,0,4.22,4.72,3.51,9.54,0,0,1.41,3.71-.1,6.53,0,0,2.41,8.84-.8,8.03,0,0,.65,1.77-.45,2.77,0,0,.85,2.55-1.46,4.56,0,0-.7,4.35-4.32,5.01,0,0,2.11,8.23-8.73,9.59l-4.67-.48s-2.79,2.18-7.08,1.58l-1.96,2.26s-.2.43.6,2.03-1.71,1.91-1.71,1.91c0,0,2.91.9.8,2.01l-.3,1.1s-2.18-1.18-3.46-.99-.68.49-2.52.38-2.22-2.3-.41-2.67c0,0-1.47.15-1.58-1.17s1.51-1.32,1.39-2.11-2.03-2.15-2.03-2.15l-.15-.75s-4.67.08-7.78-1.53c0,0-3.51,2.71-11.24-1.41,0,0-4.32-5.32-2.01-7.53,0,0-3.59-1.33-3.66-5.1,0,0-3.31-.98-2.18-7.23,0,0-3.39-.08-1.51-7.98,0,0,.68-1.36.38-4.89-.3-3.54,4.97-18.75,15.59-24.32l.95-2.36s5.72-4.49,13.71-3.78Z"/><path class="cls-29" d="M104.95,103.67c-.3,0,3.16-19.58,2.64-19.73-.53-.15-5.57-5.95-5.57-5.95l-1.05,3.16-2.33,5.87-3.46,13.63,6.38,7.92s3.71-4.91,3.41-4.91Z"/><path class="cls-21" d="M74.15,113.76s-.07.07-.1.11l.38-.02s7.53,2.86,12.95,3.09c5.42.23,7.07-8.97,7.07-8.97,1.51.87,3.12,1.29,4.66,1.23,2.18.45,1.66-2.42,1.66-2.42h.05s-.76-3.21-.76-3.21c.6-4.12-1.41-6.98-1.41-6.98,2.71-1.13,1.58-10.84,1.58-10.84l.9-4.97c-.84-.95-.68-5.6-.98-12.3-.12-2.6-.34-5.5-.5-8.09-.07-1.2-1.01-2.17-2.22-2.28-7.99-.71-13.71,3.78-13.71,3.78l-.95,2.36c-10.62,5.57-15.89,20.78-15.59,24.32.3,3.54-.38,4.89-.38,4.89-1.88,7.91,1.51,7.98,1.51,7.98-1.13,6.25,2.18,7.23,2.18,7.23.08,3.77,3.66,5.1,3.66,5.1Z"/><path class="cls-21" d="M134.03,93.32c1.51-2.81.1-6.53.1-6.53.7-4.82-3.51-9.54-3.51-9.54-.8-6.53-12.05-13.15-12.05-13.15-.5-3.01-5.42-4.62-5.42-4.62l-6.17-1.36s-4.42-.9-5.32,2.21c-.9,3.11,1.41,7.13.9,9.24-.5,2.11.2,7.58.2,7.58-.8.7-.8,4.32-.8,4.32,0,0,.7,1.91.8,4.82s-.6,4.72-.6,4.72c-.4,3.82,2.51,6.02,2.51,6.02-2.51.8-2.01,7.63-2.01,7.63l-1.06,2.05.22-.02v1.15c0,.61.43,1.13,1.02,1.25,2.11.41,4.18-1.03,4.18-1.03l2.86,5.71c7.3,7.45,17.13-.09,17.13-.09,3.61-.65,4.32-5.01,4.32-5.01,2.31-2.01,1.46-4.56,1.46-4.56,1.1-1,.45-2.77.45-2.77,3.21.8.8-8.03.8-8.03Z"/><path class="cls-29" d="M105.7,62.81s2.18-1.51,2.86-1.81-.08-2.03,2.48-1.66c0,0-5.05-.23-5.35,3.46Z"/><path class="cls-29" d="M110.22,62.89s.15,4.07-1.51,4.67c0,0,2.26-1.2,4.67-.15,0,0-3.09-2.11-3.16-4.52Z"/><path class="cls-29" d="M115.79,62.13s.98,3.24.23,4.59c0,0,5.35,5.65,3.24,6.4,0,0-5.42.9-2.64,4.14,0,0,2.56-3.54,6.25-1.81,0,0-5.05-7.53-5.5-10.39l-1.58-2.94Z"/><path class="cls-29" d="M108.99,87.21s6.48-.45,6.93-7.38l6.63,6.48s-2.41-2.64-13.55.9Z"/><path class="cls-29" d="M122.54,86.3s2.26,2.03,2.41,3.39c0,0,1.91-3.02,3.58-4.08,0,0-3.2,1.67-5.99.69Z"/><path class="cls-29" d="M109.64,96.7s2.56,1.51,9.56-3.99c0,0-.15,6.48-9.56,3.99Z"/><path class="cls-29" d="M107.01,108.07s4.67-2.18,10.62-1.51l10.84-4.52s.9,3.16-15.59,7.53l-4.78.68-1.09-2.18Z"/><path class="cls-29" d="M120.92,109.8l4.02-.25s-4.32.9-2.16,2.06c0,0-1.91-.6-1.86-1.81Z"/><path class="cls-29" d="M122.48,114.87s-3.06-2.91-2.31.1c0,0,.4-1.51,2.31-.1Z"/><path class="cls-11" d="M105.42,120.24l1.88-.98s1.43,2.45,5.05.94l-2.45,4.1c-.38.18-3.02.27-3.39.08,0,0,.23-2.71-1.09-4.14Z"/><path class="cls-29" d="M95.82,62.81s-2.18-1.51-2.86-1.81.08-2.03-2.48-1.66c0,0,5.05-.23,5.35,3.46Z"/><path class="cls-29" d="M91.31,62.89s-.15,4.07,1.51,4.67c0,0-2.26-1.2-4.67-.15,0,0,3.09-2.11,3.16-4.52Z"/><path class="cls-29" d="M85.73,62.13s-.98,3.24-.23,4.59c0,0-5.35,5.65-3.24,6.4,0,0,5.42.9,2.64,4.14,0,0-2.56-3.54-6.25-1.81,0,0,5.05-7.53,5.5-10.39l1.58-2.94Z"/><path class="cls-29" d="M92.54,87.21s-6.48-.45-6.93-7.38l-6.63,6.48s2.41-2.64,13.55.9Z"/><path class="cls-29" d="M78.98,86.3s-2.26,2.03-2.41,3.39c0,0-1.91-3.02-3.58-4.08,0,0,3.2,1.67,5.99.69Z"/><path class="cls-29" d="M91.88,96.7s-2.56,1.51-9.56-3.99c0,0,.15,6.48,9.56,3.99Z"/><path class="cls-29" d="M94.47,108.02s-4.62-2.13-10.57-1.46l-10.84-4.52s-.9,3.16,15.59,7.53l5.19.78c.27-.8.49-1.58.64-2.33Z"/><path class="cls-29" d="M80.6,109.8l-4.02-.25s4.32.9,2.16,2.06c0,0,1.91-.6,1.86-1.81Z"/><path class="cls-29" d="M79.04,114.87s3.06-2.91,2.31.1c0,0-.4-1.51-2.31-.1Z"/><path class="cls-11" d="M96.14,120.24l-1.88-.98s-1.43,2.45-5.05.94l2.21,3.72c-.03.12,3.78.45,3.78.31,0,0-.38-2.56.94-3.99Z"/><line class="cls-29" x1="67.97" y1="101.23" x2="73.06" y2="102.04"/><path class="cls-28" d="M139.79,57.92c-.07,0-.13-.01-.2-.02-1.35,1.27-10.16,8.6-33.07,9.34-25.08.81-45.72-5.28-45.72-5.28l-.04,66.95s1.46,12.67,39.95,12.67,39.93-13.15,39.93-13.15l-.84-70.52Z"/><path class="cls-27" d="M64.4,120.89s-4.45,11.73,6.47,13.21c0,0-6.2-4.99-6.47-13.21Z"/><polygon class="cls-43" points="78.47 59.57 82.13 66.73 79.64 67.23 76.47 60.9 78.47 59.57"/><polygon class="cls-43" points="80.04 79.12 80.63 85.61 78.47 86.7 77.7 79.68 80.04 79.12"/><polygon class="cls-43" points="92.3 97.52 89.97 103.61 87.56 103.63 89.96 96.99 92.3 97.52"/><path class="cls-37" d="M4,98.17v-2.17l24.31-38.41c8.3-11.69,16.9-17.27,25.54-16.62,14.69,1.11,24.15,19.58,24.54,20.37l-.89.45c-.09-.19-9.6-18.75-23.73-19.82-8.28-.62-16.57,4.82-24.63,16.18L4,98.17Z"/><path class="cls-32" d="M78.24,79.69c-.18-.72-12.36-66.3-37.5-75.69h2.01c25.64,9.57,35.73,72.48,36.46,75.45l-.97.24Z"/><polygon class="cls-43" points="123.21 59.57 119.55 66.73 122.04 67.23 125.2 60.9 123.21 59.57"/><polygon class="cls-43" points="121.64 79.12 121.05 85.61 123.2 86.7 123.97 79.68 121.64 79.12"/><path class="cls-24" d="M195.52,94.69l-23.01-36.57c-8.05-11.34-16.33-16.78-24.62-16.16-14.13,1.07-23.63,19.63-23.73,19.82l-.89-.45c.39-.79,9.85-19.26,24.54-20.37,8.67-.65,17.24,4.93,25.53,16.6l22.16,35.03v2.1Z"/><path class="cls-25" d="M123.5,79.63l-.97-.24c.74-2.97,16.15-65.82,41.79-75.39h1.87c-25.15,9.38-42.51,74.91-42.69,75.63Z"/><path class="cls-20" d="M91.25,98.63l-.99-.16c.13-.84,15-78.26.36-94.48h1.17c14.95,16.58,0,91.17-.55,94.64Z"/><polygon class="cls-43" points="109.34 97.52 111.67 103.61 114.09 103.63 111.68 96.99 109.34 97.52"/><path class="cls-52" d="M110.39,98.63c-.55-3.47-15.02-78.06-.07-94.64h1.34c-14.64,16.21-.41,93.64-.28,94.48l-.99.16Z"/><path class="cls-27" d="M60.79,61.97s20.65,6.08,45.72,5.28,33.26-9.53,33.26-9.53c0,0-40.58-3.04-78.99,4.26Z"/></g></svg>