<?xml version="1.0" encoding="UTF-8"?><svg id="Layer_2" xmlns="http://www.w3.org/2000/svg" viewBox="0 0 203.52 277.17"><defs><style>.cls-1{letter-spacing:.01em;}.cls-2{fill:#5a433d;}.cls-3,.cls-4,.cls-5,.cls-6{stroke-miterlimit:10;}.cls-3,.cls-4,.cls-6{stroke-width:4px;}.cls-3,.cls-7,.cls-8{fill:#f4eddd;}.cls-3,.cls-6{stroke:#010101;}.cls-4,.cls-5{stroke:#231f20;}.cls-4,.cls-5,.cls-6{fill:none;}.cls-9{font-size:14px;}.cls-9,.cls-10,.cls-11,.cls-12,.cls-13,.cls-14{fill:#231f20;}.cls-9,.cls-11,.cls-7{font-family:CreatoDisplay-Bold, 'Creato Display';font-weight:700;}.cls-15{letter-spacing:0em;}.cls-16{letter-spacing:-.03em;}.cls-17{letter-spacing:-.01em;}.cls-18{letter-spacing:0em;}.cls-19{fill:#275235;}.cls-20{fill:#595a5a;}.cls-21{letter-spacing:-.03em;}.cls-22{letter-spacing:-.06em;}.cls-23{fill:#3b2e2c;}.cls-24{letter-spacing:0em;}.cls-25{fill:#100e0f;}.cls-26{fill:#020202;}.cls-27{fill:#d8bd91;}.cls-28{letter-spacing:-.01em;}.cls-29{letter-spacing:-.02em;}.cls-30{fill:#715e4f;}.cls-31{fill:#48362f;}.cls-32{letter-spacing:-.03em;}.cls-33{letter-spacing:-.03em;}.cls-11{font-size:4px;}.cls-34{fill:#71b086;}.cls-35{letter-spacing:-.02em;}.cls-36{fill:#caa778;}.cls-37{letter-spacing:0em;}.cls-12{font-family:CreatoDisplay-Italic, 'Creato Display';font-style:italic;}.cls-12,.cls-13{font-size:8px;}.cls-38{letter-spacing:-.03em;}.cls-13{font-family:CreatoDisplay-Regular, 'Creato Display';}.cls-39{letter-spacing:-.02em;}.cls-7{font-size:11.69px;}.cls-40{letter-spacing:0em;}.cls-41{fill:#f6f083;}.cls-42{letter-spacing:0em;}.cls-43{fill:#3b2a1f;}.cls-44{letter-spacing:0em;}.cls-45{fill:#a29ece;}.cls-46{letter-spacing:0em;}.cls-47{letter-spacing:.02em;}.cls-48{fill:#010101;}.cls-49{fill:#30261f;}.cls-50{letter-spacing:-.03em;}.cls-51{letter-spacing:-.03em;}.cls-52{letter-spacing:-.04em;}.cls-53{fill:#fbedce;}.cls-54{letter-spacing:-.01em;}.cls-55{fill:#262523;}.cls-56{letter-spacing:-.03em;}.cls-14{font-family:CreatoDisplay-Medium, 'Creato Display';font-size:10px;font-weight:500;}.cls-57{letter-spacing:-.02em;}.cls-58{letter-spacing:0em;}</style></defs><g id="Layer_1-2"><rect class="cls-45" x="103.46" y="39.96" width="82.68" height="188.24"/><polygon class="cls-43" points="197.23 131.85 197.31 106.83 190.55 263.67 46.85 228.02 70.24 147.08 197.23 131.85"/><path class="cls-26" d="M88.32,192.26s-19.69,34.47,66.59,45.55c64.1,8.23,19.4-89.1,36.75-99.39l-103.34,53.84Z"/><path class="cls-19" d="M73.91,129.91l113.44-.1,4.26-2.13,4.06,1.16,2.71-6.77,3.87,3.87-31.14,94.87s-96.32-26.4-103.58-38.88c-7.25-12.48,6.38-52.03,6.38-52.03Z"/><path class="cls-34" d="M83.99,130.61s-8.05,33.82-6.6,45.14c0,0,66.87,34.38,85.88,31.48,0,0,20.7-72.24,23.45-77.61l-102.73.99Z"/><path class="cls-48" d="M172.66,67.28l2.95-.12-.13,4.03s-3.67.02-3.78-.23.97-3.67.97-3.67Z"/><path class="cls-34" d="M172.94,67.3s6.69-.23,8.35,9.09c0,0,3.41,7.52,8.56,3.31s-.44-11.32-.44-11.32c0,0-6.82-9.79-19.87-9.94l-5.37,1.89,1.52,3.99,7.24,2.97Z"/><path class="cls-19" d="M181.29,70.06c-3.31-7.99-13.8-8.04-14.85-8.03l.92-2.85-3.19,1.16,1.52,3.99,7.1,3.01c7.91.76,8.1,8.91,8.49,9.05,0,0,.23,1.72,2.96,3.77,2.74,2.06,5.17-.14,5.17-.14,0,0-4.64-1.55-8.12-9.96Z"/><path class="cls-53" d="M172.43,70.85c2.25-4.57-2.65-6.38-2.65-6.38,2.57-1.67.4-3.59.4-3.59l-3.34,2.54,2.77,7.12,2.82.31Z"/><polygon class="cls-48" points="163 82.5 169.48 70.21 175.48 71.18 171.03 87.72 163 82.5"/><polyline class="cls-23" points="150.61 79.93 158.54 84.87 161.73 81.58 171.89 87.48 166.95 94.92 159.8 94.54 152.64 96.57 150.61 80.22"/><path class="cls-25" d="M139.68,138.27l-30.91,26.49-11.64-35.54-13.1.32s10.8,34.42,18.44,43.32l13.78,11.68,30.03-36.41-6.6-9.86Z"/><path class="cls-53" d="M157.24,47.26l1.02,4.35,3.63,2.18-1.31,3.19s1.74,6.09-.58,8.12-9.14,1.45-9.14,1.45l-1.74,2.76-5.95-4.35.87-11.61,13.2-6.09Z"/><path class="cls-31" d="M149.26,53.06l4.39,13.55s1.54-.02,1.89-.11l-4.68-14.19-1.6.76Z"/><path class="cls-2" d="M124.94,119.14l-4.58,9.01-4.57-.15-2.41,1.65s-.36-1.74-16.97-.58l12.75,36.83,30.17-25.24s-3.24-19.34-14.39-21.52Z"/><path class="cls-48" d="M137.51,50.88s-6.53,5.22,2.32,10.59l-.44,4.06,5.08.44s6.53-4.06,5.22-8.99-2.61-9.57-2.61-9.57l-9.57,3.48Z"/><path class="cls-48" d="M158.99,122.92l9.53,5.71s.34,5.56.19,5.42-13.64-6.77-13.64-6.77l3.92-4.35Z"/><polygon class="cls-26" points="155.72 192.86 170.85 176.8 158.69 169.74 148.76 186.17 140.28 191.81 152.81 209.72 159.5 210.93 161.44 207.21 155.04 194.22 155.72 192.86"/><path class="cls-55" d="M197.58,194.97c-8.95-6.68-19.33-23-24.36-61.82l-1.79.43s4.34,49.88,26.16,63.95v-2.56Z"/><polygon class="cls-20" points="148.75 186.17 155.72 192.86 155.18 193.92 148.19 186.55 148.75 186.17"/><path class="cls-30" d="M145.15,150.21l15.96,11.8-.87,3.29-2.66,2.01.29,3.41,10.47,8.63,3.77-.29,1.6-3.77s9.72-6.24,9.43-7.18c-.29-.94,2.54-13.35-18.13-26.33-20.67-12.98-19.85,8.44-19.85,8.44Z"/><path class="cls-49" d="M173.02,176.18c-.22-.07-6.75-7.91-6.75-7.91l6.53-8.2-13.78-14-1.09-4.79s-12.67,6.29-12.04,9.57l15.21,11.15-.89,3.17-2.64,2.12.29,3.41,10.47,8.63,3.87-.05,1.12-3.13h-.3Z"/><path class="cls-25" d="M127.27,115.76l-2.34,3.38s8.61,2.42,13.83,21.76l6.19,11.27s11.8-14.22,21.28-10.64l2.03-1.84-16.15-22.73-24.84-1.21Z"/><path class="cls-2" d="M159.94,116.34l-5.8-4.45-4.06-41.39c-5.22-8.51-15.09-5.61-15.09-5.61-11.7,15.18-12.48,25.63-12.48,25.63l4.16,17.77-1.16,3.84s7.76,5.51,17.12,3.26c.17-.04.32-.08.48-.12,3.49,11.94,8.61,12.34,12.19,12.47,5.22.19,4.64-11.41,4.64-11.41Z"/><path class="cls-23" d="M134.7,64.89c-3.05,4.32-5.67,8.36-7.3,11.75,0,0,10.86,6.96,16.17,2.13,0,0,6.96,2.51-.1,8.61-7.06,6.09-5.37,4.01-5.37,4.01,0,0-.48-6.67-2.9.77,0,0-8.7-7.45-3.97,1.84s5.32,16.92,5.32,16.92c0,0-3.41,4.21-11.05,1.21l1.76,3.63,16.3.99c-1.85-6.26-2.3-15.42-2.66-24.78,0,0,9.33-8.11,10.78-4.92l-1.33-16.41c.73-.47-8.08-9.77-15.67-5.75Z"/><path class="cls-53" d="M168.51,128.63l4.27-2.47s5.57-.37,4.46,5.57c-1.11,5.94-8.53,2.31-8.53,2.31l-.19-5.42Z"/><path class="cls-41" d="M14.74,273.17c-5.92,0-10.74-4.82-10.74-10.74V14.74c0-5.92,4.82-10.74,10.74-10.74h174.03c5.92,0,10.74,4.82,10.74,10.74v247.69c0,5.92-4.82,10.74-10.74,10.74H14.74ZM101.46,230.2h86.68V37.96h-86.68v192.24Z"/><path class="cls-10" d="M188.78,6c4.82,0,8.74,3.92,8.74,8.74v247.69c0,4.82-3.92,8.74-8.74,8.74H14.74c-4.82,0-8.74-3.92-8.74-8.74V14.74c0-4.82,3.92-8.74,8.74-8.74h174.03M99.46,232.2h90.68V35.96h-90.68v196.24M188.78,2H14.74C7.7,2,2,7.7,2,14.74v247.69c0,7.04,5.7,12.74,12.74,12.74h174.03c7.04,0,12.74-5.7,12.74-12.74V14.74c0-7.04-5.7-12.74-12.74-12.74h0ZM103.46,228.2V39.96h82.68v188.24h-82.68Z"/><path class="cls-8" d="M26.42,248.14c-5.92,0-10.74-4.82-10.74-10.74V25.07c0-5.92,4.82-10.74,10.74-10.74h150.98c5.92,0,10.74,4.82,10.74,10.74v212.33c0,5.92-4.82,10.74-10.74,10.74H26.42ZM101.46,230.2h86.68V37.96h-86.68v192.24Z"/><path class="cls-10" d="M177.4,16.33c4.82,0,8.74,3.92,8.74,8.74v10.89h-86.69v196.24h86.69v5.2c0,4.82-3.92,8.74-8.74,8.74H26.42c-4.82,0-8.74-3.92-8.74-8.74V25.07c0-4.82,3.92-8.74,8.74-8.74h150.98M177.4,12.33H26.42c-7.04,0-12.74,5.7-12.74,12.74v212.33c0,7.04,5.7,12.74,12.74,12.74h150.98c7.04,0,12.74-5.7,12.74-12.74V25.07c0-7.04-5.7-12.74-12.74-12.74h0ZM103.46,228.2V39.96h82.68v188.24h-82.68Z"/><line class="cls-4" x1="16.06" y1="37.97" x2="187.03" y2="37.97"/><line class="cls-5" x1="96.18" y1="89.74" x2="36.45" y2="89.74"/><text class="cls-9" transform="translate(22.2 31.52)"><tspan class="cls-35" x="0" y="0">Z</tspan><tspan x="7.94" y="0">u</tspan><tspan class="cls-52" x="15.67" y="0">k</tspan><tspan class="cls-42" x="22.97" y="0">o Alone</tspan></text><text class="cls-11" transform="translate(22.98 257.04)"><tspan x="0" y="0">16</tspan><tspan class="cls-47" x="0" y="4.8">T</tspan><tspan x="2.48" y="4.8">TM - EN</tspan></text><path class="cls-10" d="M47.67,257.04v-2.35l-.82,2.35h-.46l-.83-2.35v2.35h-.52v-2.85h.85l.72,2.03.72-2.03h.86v2.85h-.52Z"/><path class="cls-10" d="M50.93,260.92h.53c.04.38.22.55.66.55s.62-.18.62-.45c0-.2-.11-.32-.54-.39l-.36-.05c-.6-.08-.83-.29-.83-.76,0-.51.36-.88,1.1-.88s1.1.36,1.1.92h-.52c-.04-.34-.22-.51-.6-.51s-.55.18-.55.44c0,.2.09.3.47.35l.36.05c.58.08.9.3.9.8,0,.53-.38.89-1.18.89s-1.18-.35-1.18-.96Z"/><path class="cls-10" d="M53.61,262.25h.21c.24,0,.38-.12.38-.31,0-.06-.01-.13-.04-.2l-.74-1.97h.54l.54,1.66.54-1.66h.54l-.73,1.97c-.25.67-.52.88-1.02.88h-.21v-.37Z"/><path class="cls-10" d="M55.59,260.8c0-.64.36-1.07,1.02-1.07s1.03.44,1.03,1.05c0,.04,0,.08,0,.13h-1.53c.02.42.22.61.53.61.26,0,.42-.13.48-.34h.48c-.09.42-.4.69-.96.69-.67,0-1.05-.42-1.05-1.07ZM56.1,260.58h1.02c-.04-.33-.23-.49-.51-.49s-.46.16-.51.49Z"/><path class="cls-10" d="M57.85,260.8c0-.68.35-1.07.91-1.07.31,0,.52.13.63.35v-1.1h.52v2.85h-.49v-.35c-.11.24-.31.39-.66.39-.56,0-.91-.4-.91-1.07ZM59.4,260.8c0-.47-.21-.68-.52-.68s-.51.21-.51.68.21.68.51.68.52-.21.52-.68Z"/><path class="cls-10" d="M62.03,261.84v-2.4h-.86v-.44h2.28v.44h-.87v2.4h-.54Z"/><path class="cls-10" d="M63.31,261.25c0-.32.19-.57.71-.61l.42-.04c.21-.02.27-.08.27-.18,0-.2-.12-.32-.38-.32-.24,0-.37.1-.39.32h-.51c0-.42.26-.69.9-.69s.9.27.9.69v.88c0,.28.02.46.06.53h-.47c-.06-.08-.09-.16-.09-.32-.12.24-.32.36-.68.36-.48,0-.74-.24-.74-.62ZM64.71,260.98v-.14s-.13.07-.27.08l-.24.02c-.26.02-.36.13-.36.28,0,.18.12.31.38.31.32,0,.5-.24.5-.54Z"/><path class="cls-10" d="M65.56,259.2c0-.15.11-.27.3-.27s.29.12.29.27-.1.27-.29.27-.3-.12-.3-.27ZM65.6,261.84v-2.06h.52v2.06h-.52Z"/><path class="cls-10" d="M68.84,261.84v-1.28c0-.28-.09-.4-.29-.4-.22,0-.39.18-.39.52v1.17h-.5v-1.28c0-.28-.09-.4-.29-.4-.22,0-.39.18-.39.52v1.17h-.5v-2.06h.49v.34c.1-.22.28-.38.56-.38s.49.13.57.39c.11-.24.31-.39.59-.39.42,0,.63.24.63.74v1.36h-.5Z"/><path class="cls-10" d="M69.63,260.8c0-.65.38-1.07,1.05-1.07s1.05.42,1.05,1.07-.38,1.07-1.05,1.07-1.05-.42-1.05-1.07ZM71.22,260.8c0-.46-.19-.68-.54-.68s-.53.22-.53.68.19.68.53.68.54-.22.54-.68Z"/><path class="cls-10" d="M71.95,260.8c0-.65.38-1.07,1.05-1.07s1.05.42,1.05,1.07-.38,1.07-1.05,1.07-1.05-.42-1.05-1.07ZM73.53,260.8c0-.46-.19-.68-.54-.68s-.53.22-.53.68.19.68.53.68.54-.22.54-.68Z"/><path class="cls-10" d="M74.35,261.84v-2.06h.49v.46c.11-.36.29-.49.57-.49.06,0,.14.02.19.03v.45h-.21c-.32,0-.53.23-.53.65v.96h-.52Z"/><path class="cls-10" d="M79.53,261.84v-2.35l-.82,2.35h-.46l-.83-2.35v2.35h-.52v-2.85h.85l.72,2.03.72-2.03h.86v2.85h-.52Z"/><path class="cls-10" d="M80.38,261.25c0-.32.19-.57.71-.61l.42-.04c.21-.02.27-.08.27-.18,0-.2-.12-.32-.38-.32-.24,0-.37.1-.39.32h-.51c0-.42.26-.69.9-.69s.9.27.9.69v.88c0,.28.03.46.06.53h-.47c-.06-.08-.09-.16-.09-.32-.12.24-.32.36-.68.36-.48,0-.74-.24-.74-.62ZM81.77,260.98v-.14s-.13.07-.27.08l-.24.02c-.26.02-.36.13-.36.28,0,.18.12.31.38.31.32,0,.5-.24.5-.54Z"/><path class="cls-10" d="M83.98,261.84v-1.26c0-.28-.1-.42-.35-.42-.27,0-.45.2-.45.53v1.15h-.52v-2.06h.49v.34c.11-.22.3-.38.63-.38.47,0,.71.24.71.74v1.36h-.52Z"/><path class="cls-10" d="M84.79,261.18h.5c.02.22.12.35.44.35s.42-.13.42-.28c0-.14-.11-.21-.29-.24l-.36-.05c-.47-.07-.66-.23-.66-.58s.25-.65.88-.65.88.28.88.66h-.5c-.02-.17-.08-.32-.39-.32-.26,0-.36.11-.36.27,0,.14.08.2.23.22l.35.05c.46.06.72.22.72.61,0,.37-.27.65-.94.65s-.94-.28-.94-.69Z"/><path class="cls-10" d="M86.88,260.8c0-.65.38-1.07,1.05-1.07s1.05.42,1.05,1.07-.38,1.07-1.05,1.07-1.05-.42-1.05-1.07ZM88.47,260.8c0-.46-.19-.68-.54-.68s-.53.22-.53.68.19.68.53.68.54-.22.54-.68Z"/><path class="cls-10" d="M89.2,260.8c0-.65.38-1.07,1.05-1.07s1.05.42,1.05,1.07-.38,1.07-1.05,1.07-1.05-.42-1.05-1.07ZM90.79,260.8c0-.46-.19-.68-.54-.68s-.53.22-.53.68.19.68.53.68.54-.22.54-.68Z"/><path class="cls-10" d="M91.6,261.84v-2.06h.49v.46c.11-.36.29-.49.57-.49.06,0,.14.02.19.03v.45h-.21c-.32,0-.53.23-.53.65v.96h-.52Z"/><text class="cls-11" transform="translate(154.89 260.15) scale(.58)"><tspan x="0" y="0" xml:space="preserve">TM  </tspan></text><text class="cls-11" transform="translate(159.54 261.49)"><tspan class="cls-46" x="0" y="0">&amp; © Ti</tspan><tspan class="cls-24" x="11.33" y="0">m</tspan><tspan x="14.51" y="0">taim</tspan></text><line class="cls-4" x1="16.06" y1="230.19" x2="187.03" y2="230.19"/><text class="cls-14" transform="translate(22.47 242.49)"><tspan x="0" y="0">Encha</tspan><tspan class="cls-17" x="27.46" y="0">n</tspan><tspan x="32.76" y="0">tme</tspan><tspan class="cls-40" x="49.71" y="0">n</tspan><tspan class="cls-18" x="55.01" y="0">t- Saga</tspan></text><path class="cls-48" d="M180.26,235.26c-2.17-2.18-5.69-2.2-7.88-.03-2.18,2.17-2.2,5.69-.03,7.88s5.69,2.2,7.88.03c2.18-2.17,2.2-5.69.03-7.88ZM175.63,236.64c.86-.85,1.73-1.36,1.96-1.13.23.23-.28,1.1-1.14,1.95-.86.85-1.73,1.36-1.96,1.13s.28-1.1,1.14-1.95ZM176.48,243.62c-1.19,0-2.51-.33-3.41-1.23-.87-.88-1.21-2.17-1.21-3.41,0-1.24.49-2.39,1.37-3.26l.84.84c-.81.8-1.25,1.86-1.26,3,0,.79.39,1.83.83,2.26.39.33,1.14.87,2.28.88,0,0,0,0,0,0,1.13,0,2.2-.43,3-1.23l.82.82c-.9.9-2.08,1.34-3.27,1.34ZM178.84,239.85c-.85.84-1.71,1.34-1.94,1.12-.22-.23.28-1.09,1.13-1.93.85-.84,1.71-1.34,1.94-1.12.22.23-.28,1.09-1.13,1.93Z"/><path class="cls-10" d="M47.55,258.69c-1.55,0-1.81,1.29-1.81,1.29v-1.12h-.99v.2l.07,2.8h.89l.07-1.15s.33,1.22,1.68,1.15c1.35-.07,2.28-1.46,2.28-1.46,0,0-.63-1.71-2.18-1.71ZM47.85,259.94c-1.27-.02-1.43-.34-1.43-.34,0,0,1.43-1.72,3.15.77,0,0-.45-.42-1.72-.43Z"/><path class="cls-48" d="M175.7,31.2c-2.58,0-4.67-2.1-4.67-4.67s2.1-4.67,4.67-4.67,4.67,2.1,4.67,4.67-2.1,4.67-4.67,4.67Z"/><path class="cls-10" d="M175.7,23.85c1.47,0,2.67,1.2,2.67,2.67s-1.2,2.67-2.67,2.67-2.67-1.2-2.67-2.67,1.2-2.67,2.67-2.67M175.7,19.85c-3.69,0-6.67,2.99-6.67,6.67s2.99,6.67,6.67,6.67,6.67-2.99,6.67-6.67-2.99-6.67-6.67-6.67h0Z"/><path class="cls-41" d="M175.69,23.66c-.41-.63-4.64-2.48-4.66.36v5.91s1.2-2.48,4.65-.2h0s0,0,0,0c0,0,0,0,0,0h0c3.45-2.29,4.65.19,4.65.19v-5.91c-.02-2.84-4.26-.98-4.66-.35Z"/><line class="cls-6" x1="101.53" y1="37.97" x2="101.53" y2="230.96"/><circle class="cls-3" cx="20.54" cy="58.77" r="10.11"/><circle class="cls-3" cx="21.21" cy="106.34" r="10.11"/><circle class="cls-3" cx="21.21" cy="162.26" r="10.11"/><path class="cls-48" d="M159.96,31.01c-2.58,0-4.67-2.1-4.67-4.67s2.1-4.67,4.67-4.67,4.67,2.1,4.67,4.67-2.1,4.67-4.67,4.67Z"/><path class="cls-10" d="M159.96,23.66c1.47,0,2.67,1.2,2.67,2.67s-1.2,2.67-2.67,2.67-2.67-1.2-2.67-2.67,1.2-2.67,2.67-2.67M159.96,19.66c-3.69,0-6.67,2.99-6.67,6.67s2.99,6.67,6.67,6.67,6.67-2.99,6.67-6.67-2.99-6.67-6.67-6.67h0Z"/><text class="cls-7" transform="translate(155.64 30.39) scale(1.2 1)"><tspan x="0" y="0">3</tspan></text><path class="cls-48" d="M20.33,62.82v-5.97c-.38.28-1.4.41-1.92.41h-.41v-1.11c1.5-.07,2.32-.57,2.69-1.65h1.44v8.32h-1.81Z"/><path class="cls-48" d="M17.55,110.4v-.69c0-1.78.76-2.68,2.71-3.27l1.4-.42c1.04-.33,1.43-.81,1.43-1.48,0-.85-.71-1.34-1.75-1.34-1.16,0-1.76.54-1.9,1.68h-1.67c0-1.86,1.22-2.91,3.55-2.91s3.57,1.05,3.57,2.61c0,1.2-.85,2-2.42,2.47l-1.5.46c-1.06.33-1.57.84-1.62,1.68h5.54v1.23h-7.35Z"/><path class="cls-48" d="M17.38,163.32h1.67c.15,1.22.91,1.68,2.18,1.68s2.03-.55,2.03-1.36-.64-1.2-1.81-1.2h-1.19v-1.15h1.05c1.09,0,1.8-.33,1.8-1.11s-.77-1.29-1.9-1.29c-1.22,0-1.9.49-2.03,1.45h-1.67c0-1.62,1.3-2.68,3.69-2.68,2.25,0,3.71.98,3.71,2.37,0,1.05-.67,1.6-1.67,1.79,1.11.23,1.8.81,1.8,2.03,0,1.4-1.51,2.36-3.85,2.36s-3.83-.82-3.83-2.91Z"/><text class="cls-13" transform="translate(35.93 53.75)"><tspan x="0" y="0">C</tspan><tspan class="cls-38" x="5.73" y="0">r</tspan><tspan x="8.33" y="0">e</tspan><tspan class="cls-44" x="12.72" y="0">a</tspan><tspan class="cls-51" x="16.86" y="0">t</tspan><tspan x="19.28" y="0">e a 2/2</tspan><tspan x="0" y="9.6">O</tspan><tspan class="cls-28" x="5.94" y="9.6">s</tspan><tspan x="9.81" y="9.6">trich Ho</tspan><tspan class="cls-58" x="37.24" y="9.6">r</tspan><tspan x="40.03" y="9.6">se</tspan><tspan x="0" y="19.2">c</tspan><tspan class="cls-38" x="4.18" y="19.2">r</tspan><tspan x="6.78" y="19.2">e</tspan><tspan class="cls-44" x="11.17" y="19.2">a</tspan><tspan x="15.31" y="19.2">tu</tspan><tspan class="cls-38" x="22.18" y="19.2">r</tspan><tspan x="24.78" y="19.2">e </tspan><tspan class="cls-56" x="31.18" y="19.2">t</tspan><tspan x="33.59" y="19.2">o</tspan><tspan class="cls-52" x="38.08" y="19.2">k</tspan><tspan x="41.97" y="19.2">en</tspan><tspan x="0" y="28.8">a </tspan><tspan class="cls-33" x="6.22" y="28.8">f</tspan><tspan class="cls-15" x="8.56" y="28.8">ood </tspan><tspan class="cls-56" x="24.1" y="28.8">t</tspan><tspan x="26.52" y="28.8">o</tspan><tspan class="cls-52" x="31.01" y="28.8">k</tspan><tspan class="cls-37" x="34.9" y="28.8">en</tspan></text><text class="cls-13" transform="translate(35.93 101.86)"><tspan x="0" y="0">Sacrifice a </tspan><tspan class="cls-21" x="38.57" y="0">f</tspan><tspan x="40.9" y="0">ood</tspan><tspan class="cls-51" x="0" y="9.6">t</tspan><tspan x="2.42" y="9.6">o</tspan><tspan class="cls-52" x="6.9" y="9.6">k</tspan><tspan x="10.79" y="9.6">en, when </tspan><tspan class="cls-16" x="44.29" y="9.6">y</tspan><tspan x="48.27" y="9.6">ou </tspan><tspan x="0" y="19.2">do deal 3 </tspan><tspan x="0" y="28.8">damage </tspan><tspan class="cls-51" x="30.2" y="28.8">t</tspan><tspan class="cls-15" x="32.62" y="28.8">o ta</tspan><tspan class="cls-38" x="45.98" y="28.8">r</tspan><tspan class="cls-15" x="48.58" y="28.8">g</tspan><tspan class="cls-44" x="53.14" y="28.8">e</tspan><tspan x="57.46" y="28.8">t </tspan><tspan x="0" y="38.4">c</tspan><tspan class="cls-38" x="4.18" y="38.4">r</tspan><tspan x="6.78" y="38.4">e</tspan><tspan class="cls-44" x="11.17" y="38.4">a</tspan><tspan x="15.31" y="38.4">tu</tspan><tspan class="cls-38" x="22.18" y="38.4">r</tspan><tspan class="cls-39" x="24.78" y="38.4">e</tspan><tspan class="cls-37" x="29.02" y="38.4">.</tspan></text><line class="cls-5" x1="96.18" y1="145.66" x2="36.45" y2="145.66"/><text class="cls-13" transform="translate(35.93 157.78)"><tspan x="0" y="0">R</tspan><tspan class="cls-54" x="5.11" y="0">e</tspan><tspan x="9.42" y="0">turn ta</tspan><tspan class="cls-32" x="32.2" y="0">r</tspan><tspan x="34.8" y="0">g</tspan><tspan class="cls-54" x="39.37" y="0">e</tspan><tspan class="cls-37" x="43.68" y="0">t</tspan><tspan x="0" y="9.6">arti</tspan><tspan class="cls-57" x="11.19" y="9.6">f</tspan><tspan x="13.63" y="9.6">act </tspan><tspan class="cls-51" x="26.68" y="9.6">t</tspan><tspan x="29.1" y="9.6">o its </tspan><tspan class="cls-16" x="0" y="19.2">o</tspan><tspan class="cls-15" x="4.25" y="19.2">wner</tspan><tspan class="cls-22" x="22.2" y="19.2">’</tspan><tspan x="23.23" y="19.2">s hand.</tspan><tspan x="0" y="38.4">Exile this saga.</tspan></text><text class="cls-12" transform="translate(35.93 216.74)"><tspan class="cls-1" x="0" y="0">A</tspan><tspan x="5.58" y="0">zula al</tspan><tspan class="cls-16" x="26.86" y="0">w</tspan><tspan class="cls-29" x="33.15" y="0">a</tspan><tspan class="cls-50" x="37.18" y="0">y</tspan><tspan x="41.18" y="0">s lies.</tspan></text><path class="cls-27" d="M141.57,37.35l-15.09,24.37c16.64-3.48,30.5-11.21,41.78-22.88l-26.69-1.49Z"/><path class="cls-36" d="M141.57,37.35l-2.39,20.71s10.27-3.71,18.53-10.03l-16.14-10.68Z"/><path class="cls-27" d="M138.77,140.9s-42.96,34.28-41.32,39.41c1.64,5.13,45.29-32.21,45.29-32.21l-3.97-7.2Z"/><path class="cls-36" d="M97.45,180.31l43.38-35.66,1.91,3.45-22.69,18.56s-13.6,10.13-14.3,10.5-7.32,5.06-8.3,3.16Z"/><path class="cls-34" d="M189.41,68.39s-1.78-2.55-5.26-5.07v10.66h-3.48c.24.73.46,1.51.62,2.41,0,0,3.41,7.52,8.56,3.31,5.15-4.21-.44-11.31-.44-11.31Z"/><path class="cls-19" d="M183.22,73.94l-2.65-.09c.42,1.34.32,1.37.72,2.54s.23,1.72,2.96,3.77c2.74,2.06,5.17-.14,5.17-.14,0,0-3.15-1.08-6.19-6.08Z"/></g></svg>