<?xml version="1.0" encoding="UTF-8"?><svg id="Layer_2" xmlns="http://www.w3.org/2000/svg" viewBox="0 0 199.52 273.17"><defs><style>.cls-1{fill:#7ac360;}.cls-2{fill:#231f20;}.cls-3{fill:#e95242;}.cls-4{fill:#3687c8;}.cls-5{fill:#a686bd;}.cls-6{fill:#f6f083;}.cls-7{fill:#010101;}.cls-8{fill:#f4eddd;}</style></defs><g id="Layer_1-2"><path class="cls-8" d="M12.74,2h174.03c5.93,0,10.74,4.81,10.74,10.74v247.68c0,5.93-4.81,10.74-10.74,10.74H12.74c-5.93,0-10.74-4.81-10.74-10.74V12.74C2,6.81,6.81,2,12.74,2Z"/><path class="cls-2" d="M186.78,4c4.82,0,8.74,3.92,8.74,8.74v247.69c0,4.82-3.92,8.74-8.74,8.74H12.74c-4.82,0-8.74-3.92-8.74-8.74V12.74c0-4.82,3.92-8.74,8.74-8.74h174.03M186.78,0H12.74C5.7,0,0,5.7,0,12.74v247.69c0,7.04,5.7,12.74,12.74,12.74h174.03c7.04,0,12.74-5.7,12.74-12.74V12.74c0-7.04-5.7-12.74-12.74-12.74h0Z"/><path class="cls-2" d="M175.25,14.38c4.82,0,8.74,3.92,8.74,8.74v226.92c0,4.82-3.92,8.74-8.74,8.74H24.27c-4.82,0-8.74-3.92-8.74-8.74V23.12c0-4.82,3.92-8.74,8.74-8.74h150.98M175.25,10.38H24.27c-7.04,0-12.74,5.7-12.74,12.74v226.92c0,7.04,5.7,12.74,12.74,12.74h150.98c7.04,0,12.74-5.7,12.74-12.74V23.12c0-7.04-5.7-12.74-12.74-12.74h0Z"/><path class="cls-7" d="M26.83,27.57c-1.46,0-2.65-1.19-2.65-2.65s1.19-2.65,2.65-2.65,2.65,1.19,2.65,2.65-1.19,2.65-2.65,2.65Z"/><path class="cls-2" d="M26.83,24.27c.36,0,.65.29.65.65s-.29.65-.65.65-.65-.29-.65-.65.29-.65.65-.65M26.83,20.27c-2.57,0-4.65,2.08-4.65,4.65s2.08,4.65,4.65,4.65,4.65-2.08,4.65-4.65-2.08-4.65-4.65-4.65h0Z"/><path class="cls-7" d="M172.44,27.57c-1.46,0-2.65-1.19-2.65-2.65s1.19-2.65,2.65-2.65,2.65,1.19,2.65,2.65-1.19,2.65-2.65,2.65Z"/><path class="cls-2" d="M172.44,24.27c.36,0,.65.29.65.65s-.29.65-.65.65-.65-.29-.65-.65.29-.65.65-.65M172.44,20.27c-2.57,0-4.65,2.08-4.65,4.65s2.08,4.65,4.65,4.65,4.65-2.08,4.65-4.65-2.08-4.65-4.65-4.65h0Z"/><path class="cls-7" d="M26.83,251.66c-1.46,0-2.65-1.19-2.65-2.65s1.19-2.65,2.65-2.65,2.65,1.19,2.65,2.65-1.19,2.65-2.65,2.65Z"/><path class="cls-2" d="M26.83,248.36c.36,0,.65.29.65.65s-.29.65-.65.65-.65-.29-.65-.65.29-.65.65-.65M26.83,244.36c-2.57,0-4.65,2.08-4.65,4.65s2.08,4.65,4.65,4.65,4.65-2.08,4.65-4.65-2.08-4.65-4.65-4.65h0Z"/><path class="cls-7" d="M172.44,251.66c-1.46,0-2.65-1.19-2.65-2.65s1.19-2.65,2.65-2.65,2.65,1.19,2.65,2.65-1.19,2.65-2.65,2.65Z"/><path class="cls-2" d="M172.44,248.36c.36,0,.65.29.65.65s-.29.65-.65.65-.65-.29-.65-.65.29-.65.65-.65M172.44,244.36c-2.57,0-4.65,2.08-4.65,4.65s2.08,4.65,4.65,4.65,4.65-2.08,4.65-4.65-2.08-4.65-4.65-4.65h0Z"/><path class="cls-2" d="M33.37,87.96v-3.09h-3.09v-1.18s.02-.06.03-.09v1.16h3.09v3.09h1.81s-.02.07-.03.1h-1.8Z"/><path class="cls-8" d="M31.31,80.67h-1.05c-.34.94-.66,1.9-.98,2.85v2.34h3.09v3.09h3.54c.22-.71.44-1.41.67-2.1h-2.18v-3.09h-3.09v-3.09h0Z"/><path class="cls-2" d="M99.76,253.65c-21.03,0-40.72-12.35-55.42-34.76-14.45-22.03-22.41-51.26-22.41-82.3,0-15.9,2.05-31.23,6.1-45.64h2.28v3.09h3.1c-3.63,13.51-5.47,27.81-5.47,42.55,0,61.24,32.22,111.07,71.83,111.07s71.83-49.82,71.83-111.07c0-15.9-2.13-31.25-6.34-45.64h3.51v-3.02h1.85c4.64,15.29,6.99,31.64,6.99,48.65,0,31.05-7.96,60.28-22.41,82.3-14.71,22.42-34.39,34.76-55.42,34.76Z"/><path class="cls-8" d="M169.86,88.93c4.47,14.99,6.73,31,6.73,47.65,0,30.85-7.9,59.89-22.25,81.76-14.52,22.13-33.9,34.31-54.59,34.31s-40.07-12.19-54.59-34.31c-14.35-21.87-22.25-50.9-22.25-81.76,0-15.54,1.97-30.53,5.86-44.64h.52v3.09h2.8c-3.44,13.22-5.18,27.18-5.18,41.55,0,61.79,32.67,112.07,72.83,112.07s72.83-50.27,72.83-112.07c0-15.52-2.02-30.53-6.01-44.64h3.18v-3.02h.1M170.85,85.36v1.57h-3.09v3.02h-3.85c4.28,14.17,6.68,29.97,6.68,46.64,0,60.69-31.77,110.07-70.83,110.07S28.93,197.28,28.93,136.58c0-15.46,2.07-30.18,5.78-43.55h-3.41v-3.09h-3.09v-3.09h-.03c-4.75,15.38-7.26,32.27-7.26,49.73,0,31.24,8.02,60.66,22.57,82.85,14.9,22.71,34.88,35.22,56.26,35.22s41.36-12.51,56.26-35.22c14.56-22.19,22.57-51.61,22.57-82.85,0-18.03-2.69-35.45-7.74-51.23h0Z"/><path class="cls-2" d="M153.68,63.23c-13.67-24.02-33.18-37.71-53.92-37.71-13.16,0-26.02,5.56-37.22,16.08h-8.38c13.25-14.45,28.98-22.08,45.6-22.08,21.03,0,40.71,12.35,55.42,34.76,1.79,2.73,3.56,5.74,5.28,8.95h-6.78Z"/><path class="cls-8" d="M99.76,20.52c20.68,0,40.07,12.19,54.59,34.31,1.5,2.29,2.99,4.77,4.44,7.4h-4.52c-13.83-24.02-33.53-37.71-54.5-37.71-13.31,0-26.3,5.56-37.62,16.08h-5.67c12.72-13.15,27.61-20.08,43.29-20.08M99.76,18.52c-17.57,0-34.2,8.46-47.84,24.08h11.01c10.74-10.2,23.35-16.08,36.82-16.08,21.97,0,41.64,15.63,54.64,40.11v-2.4h7.71c-1.89-3.64-3.91-7.16-6.1-10.5-14.9-22.71-34.88-35.22-56.26-35.22h0Z"/><path class="cls-2" d="M71.56,55.95h10.26v-3.09h6.18v-3.09h3.09v-3.07h3.09v-4.08h-4.08v3.07h-3.17v3.09h-14.39v-3.09h-9.27v-3.09h-21.64v-3.09h-10.34v3.09h-6.11v3.02h-3.09v4.15h4.08v-3.09h6.18v-3.09h8.21v2.1h-6.18v3.09h-3.09v3.09h-3.09v3.09h-3.02v3.02h-3.09v10.34h3.09v5.19h-3.09v10.26h3.02v3.09h3.09v3.09h3.09v3.09h13.5v-3.09h6.11v-3.09h3.09v-3.09h3.09v-3.09h3.09v-6.18h3.09v-12.36h3.09v-6.18h3.09v-3.09h2.1v3.09ZM65.31,52.86v2.1h-3.09v3.09h-3.02v3.09h-3.09v6.18h-2.1v-3.09h-3.09v-3.09h-3.02v-2.1h3.02v-10.26h-3.02v-2.1h5.12v3.09h9.27v3.09h3.02ZM53.02,71.4v5.19h-2.1v-5.19h2.1ZM32.44,68.31v-3.09h6.18v-3.09h5.12v5.19h-6.18v3.09h-8.28v-2.1h3.17ZM46.84,70.34v6.26h-3.09v3.09h-3.09v3.09h-5.19v-3.09h-3.09v-5.19h6.26v-3.09h6.11v-3.09h3.09v-3.02h2.1v5.05h-3.09ZM35.46,52.86v-3.09h6.18v-3.09h2.1v3.09h3.09v8.28h-9.27v3.09h-6.18v3.09h-3.09v3.02h-2.1v-8.21h3.09v-3.09h3.09v-3.09h3.09ZM43.74,85.87v3.09h-11.38v-3.09h-3.09v-3.09h-3.09v-8.21h2.1v6.11h3.02v3.09h3.09v3.09h7.32v-3.09h3.09v-3.09h3.02v-3.02h2.1v5.12h-3.09v3.09h-3.09Z"/><rect class="cls-2" x="114.22" y="54.96" width="7.17" height="7.17"/><polygon class="cls-2" points="172.95 73.5 172.95 76.6 169.86 76.6 169.86 82.78 166.77 82.78 166.77 85.87 161.57 85.87 161.57 80.67 164.66 80.67 164.66 74.49 167.76 74.49 167.76 67.32 164.66 67.32 164.66 64.23 154.4 64.23 154.4 67.25 152.3 67.25 152.3 64.23 142.04 64.23 142.04 67.25 139.94 67.25 139.94 64.23 129.6 64.23 129.6 67.32 126.58 67.32 126.58 73.5 123.42 73.5 123.42 76.6 120.4 76.6 120.4 82.78 117.31 82.78 117.31 85.87 112.12 85.87 112.12 80.67 115.21 80.67 115.21 71.4 118.3 71.4 118.3 64.23 111.13 64.23 111.13 70.41 108.04 70.41 108.04 76.6 105.94 76.6 105.94 73.5 101.78 73.5 101.78 76.6 98.76 76.6 98.76 82.78 95.67 82.78 95.67 85.87 90.48 85.87 90.48 80.67 93.57 80.67 93.57 74.49 96.66 74.49 96.66 68.31 99.75 68.31 99.75 64.23 92.58 64.23 92.58 67.32 89.49 67.32 89.49 73.5 86.4 73.5 86.4 79.69 83.31 79.69 83.31 82.78 80.22 82.78 80.22 85.87 78.12 85.87 78.12 77.58 81.21 77.58 81.21 68.31 83.31 68.31 83.31 71.4 87.39 71.4 87.39 64.23 80.14 64.23 80.14 67.32 77.13 67.32 77.13 70.41 74.04 70.41 74.04 73.5 70.95 73.5 70.95 86.86 74.04 86.86 74.04 89.95 84.3 89.95 84.3 86.86 89.42 86.86 89.42 89.95 96.66 89.95 96.66 86.93 99.75 86.93 99.75 83.84 102.84 83.84 102.84 77.58 104.95 77.58 104.95 86.86 108.04 86.86 108.04 89.95 118.3 89.95 118.3 86.93 121.39 86.93 121.39 83.84 124.48 83.84 124.48 77.58 127.57 77.58 127.57 74.49 130.66 74.49 130.66 68.31 135.86 68.31 135.86 70.41 132.77 70.41 132.77 79.69 129.67 79.69 129.67 85.87 126.61 85.87 126.61 89.95 136.85 89.95 136.85 80.67 139.94 80.67 139.94 74.49 143.03 74.49 143.03 68.31 148.22 68.31 148.22 70.41 145.13 70.41 145.13 79.69 142.04 79.69 142.04 89.95 149.21 89.95 149.21 80.67 152.3 80.67 152.3 74.49 155.39 74.49 155.39 68.31 160.59 68.31 160.59 70.41 157.49 70.41 157.49 79.69 154.4 79.69 154.4 86.86 157.49 86.86 157.49 89.95 167.76 89.95 167.76 86.93 170.85 86.93 170.85 83.84 173.94 83.84 173.94 77.66 177.03 77.66 177.03 73.5 172.95 73.5"/><path class="cls-2" d="M48.59,109.74v-8.14h-2.96v-1.83h8.18v1.83h-2.97v8.14h-2.26Z"/><path class="cls-2" d="M59.13,109.74v-4.36c0-.84-.31-1.29-1.04-1.29-.81,0-1.34.57-1.34,1.61v4.03h-2.14v-9.97h2.14v3.67c.38-.63.98-1.06,2.03-1.06,1.65,0,2.49.84,2.49,2.59v4.78h-2.14Z"/><path class="cls-2" d="M62.22,106.13c0-2.23,1.32-3.75,3.7-3.75s3.7,1.54,3.7,3.7c0,.2-.01.35-.04.53h-5.21c.04,1.22.64,1.85,1.64,1.85.76,0,1.29-.39,1.48-1.04h1.98c-.31,1.5-1.44,2.47-3.46,2.47-2.42,0-3.78-1.5-3.78-3.75ZM64.37,105.23h3.11c-.15-.92-.69-1.43-1.55-1.43s-1.4.5-1.55,1.43Z"/><path class="cls-2" d="M78.27,109.74h-4.08v-9.97h4.08c3.32,0,5.06,1.83,5.06,4.99s-1.74,4.99-5.06,4.99ZM78.38,101.54h-1.93v6.44h1.93c1.79,0,2.69-1.08,2.69-3.22s-.9-3.22-2.69-3.22Z"/><path class="cls-2" d="M83.99,106.13c0-2.23,1.32-3.75,3.7-3.75s3.7,1.54,3.7,3.7c0,.2-.01.35-.04.53h-5.21c.04,1.22.64,1.85,1.64,1.85.76,0,1.29-.39,1.49-1.04h1.97c-.31,1.5-1.44,2.47-3.46,2.47-2.42,0-3.78-1.5-3.78-3.75ZM86.14,105.23h3.11c-.15-.92-.69-1.43-1.55-1.43s-1.4.5-1.55,1.43Z"/><path class="cls-2" d="M92.06,107.42h2.09c.08.7.42,1.08,1.37,1.08.9,0,1.26-.35,1.26-.8,0-.41-.34-.63-.91-.71l-1.15-.15c-1.82-.27-2.47-.87-2.47-2.13,0-1.33.98-2.33,3.24-2.33s3.24.99,3.24,2.35h-2.09c-.07-.53-.28-.97-1.18-.97-.77,0-1.06.31-1.06.76,0,.39.21.57.69.64l1.13.15c1.72.25,2.7.78,2.7,2.24,0,1.33-1.05,2.33-3.43,2.33s-3.43-.99-3.43-2.47Z"/><path class="cls-2" d="M99.73,100.53c0-.62.43-1.08,1.2-1.08s1.22.46,1.22,1.08-.43,1.08-1.22,1.08-1.2-.46-1.2-1.08ZM99.87,109.74v-7.23h2.14v7.23h-2.14Z"/><path class="cls-2" d="M102.96,105.92c0-2.13,1.25-3.54,3.19-3.54,1.18,0,1.82.52,2.2,1.26v-1.12h2.03v6.6c0,2.24-1.2,3.52-3.7,3.52-2.24,0-3.33-1.04-3.33-2.63h2.02c.11.83.56,1.25,1.43,1.25.92,0,1.44-.49,1.44-1.53v-1.34c-.39.69-1.05,1.09-2.09,1.09-1.95,0-3.19-1.41-3.19-3.54ZM108.24,105.92c0-1.36-.63-2.04-1.57-2.04s-1.57.69-1.57,2.04.63,2.05,1.57,2.05,1.57-.69,1.57-2.05Z"/><path class="cls-2" d="M116.14,109.74v-4.36c0-.84-.31-1.29-1.04-1.29-.81,0-1.34.57-1.34,1.61v4.03h-2.14v-7.23h2.03v1.09c.38-.7.99-1.23,2.14-1.23,1.65,0,2.49.84,2.49,2.59v4.78h-2.14Z"/><path class="cls-2" d="M119.23,106.13c0-2.23,1.32-3.75,3.7-3.75s3.7,1.54,3.7,3.7c0,.2-.01.35-.04.53h-5.21c.04,1.22.64,1.85,1.64,1.85.76,0,1.29-.39,1.48-1.04h1.98c-.31,1.5-1.44,2.47-3.46,2.47-2.42,0-3.78-1.5-3.78-3.75ZM121.37,105.23h3.11c-.15-.92-.69-1.43-1.55-1.43s-1.4.5-1.55,1.43Z"/><path class="cls-2" d="M132.1,109.74v-4.36c0-.84-.31-1.29-1.04-1.29-.81,0-1.34.57-1.34,1.61v4.03h-2.14v-7.23h2.03v1.09c.38-.7.99-1.23,2.14-1.23,1.65,0,2.49.84,2.49,2.59v4.78h-2.14Z"/><path class="cls-2" d="M135.33,100.53c0-.62.43-1.08,1.2-1.08s1.22.46,1.22,1.08-.43,1.08-1.22,1.08-1.2-.46-1.2-1.08ZM135.47,109.74v-7.23h2.14v7.23h-2.14Z"/><path class="cls-2" d="M143.37,109.74v-4.36c0-.84-.31-1.29-1.04-1.29-.81,0-1.34.57-1.34,1.61v4.03h-2.14v-7.23h2.03v1.09c.38-.7.99-1.23,2.14-1.23,1.65,0,2.49.84,2.49,2.59v4.78h-2.14Z"/><path class="cls-2" d="M146.46,105.92c0-2.13,1.25-3.54,3.19-3.54,1.18,0,1.82.52,2.2,1.26v-1.12h2.03v6.6c0,2.24-1.2,3.52-3.7,3.52-2.24,0-3.33-1.04-3.33-2.63h2.02c.11.83.56,1.25,1.43,1.25.92,0,1.44-.49,1.44-1.53v-1.34c-.39.69-1.05,1.09-2.09,1.09-1.95,0-3.19-1.41-3.19-3.54ZM151.74,105.92c0-1.36-.63-2.04-1.57-2.04s-1.57.69-1.57,2.04.63,2.05,1.57,2.05,1.57-.69,1.57-2.05Z"/><path class="cls-3" d="M71.87,225.12c-1.99,0-3.99-1.03-5.2-2.68-1.19-1.62-1.5-3.6-.87-5.58l9.16-29.18-24.92-17.73c-2.76-1.97-3.04-4.93-2.37-7.05.67-2.12,2.59-4.4,5.98-4.43l30.58-.31,9.16-29.18c1.03-3.27,3.79-4.43,6.04-4.43s4.93,1.13,6,4.31l9.74,28.99,30.58-.31c3.44,0,5.38,2.24,6.08,4.35.69,2.1.47,5.06-2.24,7.07l-24.56,18.22,9.74,28.99c.67,1.99.39,4-.8,5.65-1.21,1.69-3.21,2.73-5.23,2.73-1.29,0-2.52-.41-3.64-1.21l-24.92-17.73-24.56,18.22c-1.15.85-2.41,1.28-3.74,1.28Z"/><path class="cls-3" d="M99.43,126.55c.73,0,3.18.21,4.1,2.95l9.28,27.61.93,2.75,2.91-.03,29.13-.29h.05c2.89,0,3.87,2.28,4.1,2.97.23.7.8,3.1-1.53,4.83l-23.39,17.36-2.33,1.73.93,2.75,9.28,27.61c.59,1.75.04,3.06-.53,3.85-.84,1.17-2.22,1.9-3.6,1.9-.87,0-1.7-.28-2.49-.84l-23.73-16.88-2.37-1.68-2.33,1.73-23.39,17.36c-.8.59-1.65.89-2.55.89-1.37,0-2.74-.71-3.59-1.86-.57-.77-1.13-2.06-.58-3.8l8.72-27.79.87-2.77-2.37-1.68-23.73-16.88c-2.38-1.69-1.84-4.12-1.62-4.83.22-.7,1.17-3,4.09-3.03l29.13-.29,2.91-.03.87-2.77,8.72-27.79c.88-2.81,3.39-3.03,4.14-3.03M99.43,122.55c-3.37,0-6.73,1.95-7.95,5.84l-8.72,27.79-29.13.29c-8.07.08-11.32,10.44-4.75,15.12l23.73,16.88-8.72,27.79c-1.83,5.84,2.81,10.86,7.98,10.86,1.65,0,3.36-.51,4.93-1.68l23.39-17.36,23.73,16.88c1.54,1.1,3.2,1.58,4.8,1.58,5.24,0,9.89-5.17,7.92-11.02l-9.28-27.61,23.39-17.36c6.46-4.79,3.05-15.02-4.95-15.02-.03,0-.06,0-.09,0l-29.13.29-9.28-27.61c-1.27-3.79-4.58-5.68-7.89-5.68h0Z"/><path class="cls-8" d="M86.51,175.77h-2.45v3.61h-1.91v-9.97h4.36c2.21,0,3.59,1.13,3.59,3.18s-1.37,3.18-3.59,3.18ZM86.24,170.84h-2.18v3.5h2.18c1.26,0,1.95-.55,1.95-1.75s-.69-1.75-1.95-1.75Z"/><path class="cls-8" d="M91.13,179.38v-7.23h1.72v1.61c.38-1.27,1.01-1.71,2.02-1.71.2,0,.49.06.66.1v1.58h-.74c-1.11-.01-1.85.81-1.85,2.28v3.36h-1.81Z"/><path class="cls-8" d="M95.93,175.77c0-2.23,1.26-3.75,3.59-3.75s3.6,1.54,3.6,3.67c0,.15-.01.29-.03.46h-5.35c.06,1.47.76,2.14,1.86,2.14.9,0,1.49-.45,1.7-1.19h1.67c-.31,1.48-1.42,2.42-3.36,2.42-2.35,0-3.67-1.47-3.67-3.75ZM97.74,174.97h3.57c-.15-1.15-.8-1.72-1.79-1.72s-1.62.57-1.78,1.72Z"/><path class="cls-8" d="M103.87,177.1h1.75c.08.77.43,1.23,1.55,1.23s1.46-.45,1.46-.98c0-.49-.39-.74-1.01-.84l-1.25-.18c-1.67-.24-2.31-.8-2.31-2.03s.88-2.28,3.08-2.28,3.1.99,3.1,2.31h-1.75c-.07-.6-.29-1.12-1.36-1.12-.91,0-1.26.38-1.26.95,0,.48.28.69.8.76l1.23.18c1.6.22,2.54.76,2.54,2.14,0,1.29-.95,2.28-3.29,2.28s-3.28-.99-3.28-2.42Z"/><path class="cls-8" d="M111.19,177.1h1.75c.08.77.43,1.23,1.55,1.23s1.46-.45,1.46-.98c0-.49-.39-.74-1.01-.84l-1.25-.18c-1.67-.24-2.31-.8-2.31-2.03s.88-2.28,3.08-2.28,3.1.99,3.1,2.31h-1.75c-.07-.6-.29-1.12-1.36-1.12-.91,0-1.26.38-1.26.95,0,.48.28.69.8.76l1.23.18c1.6.22,2.54.76,2.54,2.14,0,1.29-.95,2.28-3.29,2.28s-3.28-.99-3.28-2.42Z"/><path class="cls-7" d="M99.32,136.11c-2.58,0-4.67-2.1-4.67-4.67s2.1-4.67,4.67-4.67,4.67,2.1,4.67,4.67-2.1,4.67-4.67,4.67Z"/><path class="cls-2" d="M99.32,128.76c1.47,0,2.67,1.2,2.67,2.67s-1.2,2.67-2.67,2.67-2.67-1.2-2.67-2.67,1.2-2.67,2.67-2.67M99.32,124.76c-3.69,0-6.67,2.99-6.67,6.67s2.99,6.67,6.67,6.67,6.67-2.99,6.67-6.67-2.99-6.67-6.67-6.67h0Z"/><path class="cls-3" d="M102.78,131.3c0-1.73-1.29-3.16-2.95-3.4v-.47h1.39v-1h-3.9v1h1.51v.47c-1.67.24-2.95,1.67-2.95,3.4s1.29,3.16,2.95,3.4v.5h-1.51v1h3.9v-1h-1.39v-.5c1.67-.24,2.95-1.67,2.95-3.4ZM101.78,131.3c0,1.18-.84,2.17-1.95,2.4v-4.8c1.11.23,1.95,1.22,1.95,2.4ZM96.87,131.3c0-1.18.84-2.17,1.95-2.4v4.8c-1.11-.23-1.95-1.22-1.95-2.4Z"/><circle class="cls-7" cx="128.36" cy="217.85" r="4.67"/><path class="cls-2" d="M128.36,215.18c1.47,0,2.67,1.2,2.67,2.67s-1.2,2.67-2.67,2.67-2.67-1.2-2.67-2.67,1.2-2.67,2.67-2.67M128.36,211.18c-3.69,0-6.67,2.99-6.67,6.67s2.99,6.67,6.67,6.67,6.67-2.99,6.67-6.67-2.99-6.67-6.67-6.67h0Z"/><path class="cls-4" d="M129.3,213.44c-.16-.4-.54-.69-1-.69s-.85.3-1.01.71c-2.08.48-3.64,2.33-3.64,4.56,0,2.58,2.1,4.68,4.68,4.68s4.69-2.1,4.69-4.68c0-2.25-1.6-4.14-3.72-4.58ZM128.34,221.82c-2.09,0-3.8-1.7-3.8-3.8,0-1.76,1.21-3.23,2.84-3.66.19.32.52.55.92.55s.75-.24.94-.57c1.66.41,2.9,1.9,2.9,3.68,0,2.09-1.7,3.8-3.8,3.8Z"/><circle class="cls-4" cx="128.36" cy="217.85" r="1.99"/><path class="cls-7" d="M144.86,168.55c-2.58,0-4.67-2.1-4.67-4.67s2.1-4.67,4.67-4.67,4.67,2.1,4.67,4.67-2.1,4.67-4.67,4.67Z"/><path class="cls-2" d="M144.86,161.2c1.47,0,2.67,1.2,2.67,2.67s-1.2,2.67-2.67,2.67-2.67-1.2-2.67-2.67,1.2-2.67,2.67-2.67M144.86,157.2c-3.69,0-6.67,2.99-6.67,6.67s2.99,6.67,6.67,6.67,6.67-2.99,6.67-6.67-2.99-6.67-6.67-6.67h0Z"/><path class="cls-1" d="M149.1,160.33c-7.28-.32-6.8,4.79-6.59,5.99l-1.46.95,1.15.48.58-1.03c3.36,2.31,5.56-1.91,4.65-3.13s1.68-3.26,1.68-3.26Z"/><path class="cls-7" d="M72.07,222.68c-2.58,0-4.67-2.1-4.67-4.67s2.1-4.67,4.67-4.67,4.67,2.1,4.67,4.67-2.1,4.67-4.67,4.67Z"/><path class="cls-2" d="M72.07,215.33c1.47,0,2.67,1.2,2.67,2.67s-1.2,2.67-2.67,2.67-2.67-1.2-2.67-2.67,1.2-2.67,2.67-2.67M72.07,211.33c-3.69,0-6.67,2.99-6.67,6.67s2.99,6.67,6.67,6.67,6.67-2.99,6.67-6.67-2.99-6.67-6.67-6.67h0Z"/><path class="cls-6" d="M72.07,215.14c-.41-.63-4.64-2.48-4.66.36v5.91s1.2-2.48,4.65-.2h0s0,0,0,0c0,0,0,0,0,0h0c3.45-2.29,4.65.19,4.65.19v-5.91c-.02-2.84-4.26-.98-4.66-.35Z"/><path class="cls-7" d="M54.36,169.52c-2.58,0-4.67-2.1-4.67-4.67s2.1-4.67,4.67-4.67,4.67,2.1,4.67,4.67-2.1,4.67-4.67,4.67Z"/><path class="cls-2" d="M54.36,162.18c1.47,0,2.67,1.2,2.67,2.67s-1.2,2.67-2.67,2.67-2.67-1.2-2.67-2.67,1.2-2.67,2.67-2.67M54.36,158.18c-3.69,0-6.67,2.99-6.67,6.67s2.99,6.67,6.67,6.67,6.67-2.99,6.67-6.67-2.99-6.67-6.67-6.67h0Z"/><path class="cls-5" d="M50.79,168.75c.88,0,1.74-.77,1.74-.77l-1.46-2.72-1.76,2.66s.6.82,1.48.82Z"/><path class="cls-5" d="M58.15,161.18h0s-.34-.59-.34-.59l-2.96,1.71v-1.41h-.82v1.89l-3.3,1.91.34.59,2.96-1.71v5.5h.82v-5.98l3.3-1.9-1.75,2.66s.6.82,1.48.82,1.74-.77,1.74-.77l-1.46-2.71Z"/></g></svg>
