<?xml version="1.0" encoding="UTF-8"?><svg id="Layer_2" xmlns="http://www.w3.org/2000/svg" viewBox="0 0 233.33 346.35"><defs><style>.cls-1{stroke-linecap:round;}.cls-1,.cls-2,.cls-3{fill:#f3eddd;}.cls-1,.cls-3{stroke:#231f20;stroke-miterlimit:10;stroke-width:4px;}.cls-4{fill:#231f20;}.cls-5{fill:#3687c8;}.cls-6{fill:#f6f082;}.cls-7{fill:#e75142;}.cls-8{fill:#7ac35f;}</style></defs><g id="Layer_1-2"><rect class="cls-3" x="19.05" y="38.61" width="194.97" height="268.58"/><path class="cls-4" d="M192.1,50.64c4.82,0,8.74,3.92,8.74,8.74v226.92c0,4.82-3.92,8.74-8.74,8.74H41.12c-4.82,0-8.74-3.92-8.74-8.74V59.38c0-4.82,3.92-8.74,8.74-8.74h150.98M192.1,46.64H41.12c-7.04,0-12.74,5.7-12.74,12.74v226.92c0,7.04,5.7,12.74,12.74,12.74h150.98c7.04,0,12.74-5.7,12.74-12.74V59.38c0-7.04-5.7-12.74-12.74-12.74h0Z"/><path d="M43.68,63.83c-1.46,0-2.65-1.19-2.65-2.65s1.19-2.65,2.65-2.65,2.65,1.19,2.65,2.65-1.19,2.65-2.65,2.65Z"/><path class="cls-4" d="M43.68,60.52c.36,0,.65.29.65.65s-.29.65-.65.65-.65-.29-.65-.65.29-.65.65-.65M43.68,56.52c-2.57,0-4.65,2.08-4.65,4.65s2.08,4.65,4.65,4.65,4.65-2.08,4.65-4.65-2.08-4.65-4.65-4.65h0Z"/><path d="M189.29,63.83c-1.46,0-2.65-1.19-2.65-2.65s1.19-2.65,2.65-2.65,2.65,1.19,2.65,2.65-1.19,2.65-2.65,2.65Z"/><path class="cls-4" d="M189.29,60.52c.36,0,.65.29.65.65s-.29.65-.65.65-.65-.29-.65-.65.29-.65.65-.65M189.29,56.52c-2.57,0-4.65,2.08-4.65,4.65s2.08,4.65,4.65,4.65,4.65-2.08,4.65-4.65-2.08-4.65-4.65-4.65h0Z"/><path d="M43.68,287.92c-1.46,0-2.65-1.19-2.65-2.65s1.19-2.65,2.65-2.65,2.65,1.19,2.65,2.65-1.19,2.65-2.65,2.65Z"/><path class="cls-4" d="M43.68,284.61c.36,0,.65.29.65.65s-.29.65-.65.65-.65-.29-.65-.65.29-.65.65-.65M43.68,280.61c-2.57,0-4.65,2.08-4.65,4.65s2.08,4.65,4.65,4.65,4.65-2.08,4.65-4.65-2.08-4.65-4.65-4.65h0Z"/><path d="M189.29,287.92c-1.46,0-2.65-1.19-2.65-2.65s1.19-2.65,2.65-2.65,2.65,1.19,2.65,2.65-1.19,2.65-2.65,2.65Z"/><path class="cls-4" d="M189.29,284.61c.36,0,.65.29.65.65s-.29.65-.65.65-.65-.29-.65-.65.29-.65.65-.65M189.29,280.61c-2.57,0-4.65,2.08-4.65,4.65s2.08,4.65,4.65,4.65,4.65-2.08,4.65-4.65-2.08-4.65-4.65-4.65h0Z"/><path class="cls-4" d="M50.22,124.21v-3.09h-3.09v-1.18s.02-.06.03-.09v1.16h3.09v3.09h1.81s-.02.07-.03.1h-1.8Z"/><path class="cls-2" d="M48.16,116.93h-1.05c-.34.94-.66,1.9-.98,2.85v2.34h3.09v3.09h3.54c.22-.71.44-1.41.67-2.1h-2.18v-3.09h-3.09v-3.09h0Z"/><path class="cls-4" d="M116.61,289.91c-21.03,0-40.72-12.35-55.42-34.76-14.45-22.03-22.41-51.26-22.41-82.3,0-15.9,2.05-31.23,6.1-45.64h2.28v3.09h3.1c-3.63,13.51-5.47,27.81-5.47,42.55,0,61.24,32.22,111.07,71.83,111.07s71.83-49.82,71.83-111.07c0-15.9-2.13-31.25-6.34-45.64h3.51v-3.02h1.85c4.64,15.29,6.99,31.64,6.99,48.65,0,31.05-7.96,60.28-22.41,82.3-14.71,22.42-34.39,34.76-55.42,34.76Z"/><path class="cls-2" d="M186.71,125.19c4.47,14.99,6.73,31,6.73,47.65,0,30.85-7.9,59.89-22.25,81.76-14.52,22.13-33.9,34.31-54.59,34.31s-40.07-12.19-54.59-34.31c-14.35-21.87-22.25-50.9-22.25-81.76,0-15.54,1.97-30.53,5.86-44.64h.52v3.09h2.8c-3.44,13.22-5.18,27.18-5.18,41.55,0,61.79,32.67,112.07,72.83,112.07s72.83-50.27,72.83-112.07c0-15.52-2.02-30.53-6.01-44.64h3.18v-3.02h.1M187.7,121.61v1.57h-3.09v3.02h-3.85c4.28,14.17,6.68,29.97,6.68,46.64,0,60.69-31.77,110.07-70.83,110.07s-70.83-49.38-70.83-110.07c0-15.46,2.07-30.18,5.78-43.55h-3.41v-3.09h-3.09v-3.09h-.03c-4.75,15.38-7.26,32.27-7.26,49.73,0,31.24,8.02,60.66,22.57,82.85,14.9,22.71,34.88,35.22,56.26,35.22s41.36-12.51,56.26-35.22c14.56-22.19,22.57-51.61,22.57-82.85,0-18.03-2.69-35.45-7.74-51.23h0Z"/><path class="cls-4" d="M170.53,99.49c-13.67-24.02-33.18-37.71-53.92-37.71-13.16,0-26.02,5.56-37.22,16.08h-8.38c13.25-14.45,28.98-22.08,45.6-22.08,21.03,0,40.71,12.35,55.42,34.76,1.79,2.73,3.56,5.74,5.28,8.95h-6.78Z"/><path class="cls-2" d="M116.61,56.77c20.68,0,40.07,12.19,54.59,34.31,1.5,2.29,2.99,4.77,4.44,7.4h-4.52c-13.83-24.02-33.53-37.71-54.5-37.71-13.31,0-26.3,5.56-37.62,16.08h-5.67c12.72-13.15,27.61-20.08,43.29-20.08M116.61,54.77c-17.57,0-34.2,8.46-47.84,24.08h11.01c10.74-10.2,23.35-16.08,36.82-16.08,21.97,0,41.64,15.63,54.64,40.11v-2.4h7.71c-1.89-3.64-3.91-7.16-6.1-10.5-14.9-22.71-34.88-35.22-56.26-35.22h0Z"/><path class="cls-4" d="M88.41,92.2h10.26v-3.09h6.18v-3.09h3.09v-3.07h3.09v-4.08h-4.08v3.07h-3.17v3.09h-14.39v-3.09h-9.27v-3.09h-21.64v-3.09h-10.34v3.09h-6.11v3.02h-3.09v4.15h4.08v-3.09h6.18v-3.09h8.21v2.1h-6.18v3.09h-3.09v3.09h-3.09v3.09h-3.02v3.02h-3.09v10.34h3.09v5.19h-3.09v10.26h3.02v3.09h3.09v3.09h3.09v3.09h13.5v-3.09h6.11v-3.09h3.09v-3.09h3.09v-3.09h3.09v-6.18h3.09v-12.36h3.09v-6.18h3.09v-3.09h2.1v3.09ZM82.16,89.11v2.1h-3.09v3.09h-3.02v3.09h-3.09v6.18h-2.1v-3.09h-3.09v-3.09h-3.02v-2.1h3.02v-10.26h-3.02v-2.1h5.12v3.09h9.27v3.09h3.02ZM69.87,107.66v5.19h-2.1v-5.19h2.1ZM49.29,104.57v-3.09h6.18v-3.09h5.12v5.19h-6.18v3.09h-8.28v-2.1h3.17ZM63.68,106.59v6.26h-3.09v3.09h-3.09v3.09h-5.19v-3.09h-3.09v-5.19h6.26v-3.09h6.11v-3.09h3.09v-3.02h2.1v5.05h-3.09ZM52.31,89.11v-3.09h6.18v-3.09h2.1v3.09h3.09v8.28h-9.27v3.09h-6.18v3.09h-3.09v3.02h-2.1v-8.21h3.09v-3.09h3.09v-3.09h3.09ZM60.59,122.12v3.09h-11.38v-3.09h-3.09v-3.09h-3.09v-8.21h2.1v6.11h3.02v3.09h3.09v3.09h7.32v-3.09h3.09v-3.09h3.02v-3.02h2.1v5.12h-3.09v3.09h-3.09Z"/><rect class="cls-4" x="131.07" y="91.21" width="7.17" height="7.17"/><polygon class="cls-4" points="189.8 109.76 189.8 112.85 186.71 112.85 186.71 119.03 183.62 119.03 183.62 122.12 178.42 122.12 178.42 116.93 181.51 116.93 181.51 110.75 184.61 110.75 184.61 103.58 181.51 103.58 181.51 100.49 171.25 100.49 171.25 103.5 169.15 103.5 169.15 100.49 158.89 100.49 158.89 103.5 156.79 103.5 156.79 100.49 146.45 100.49 146.45 103.58 143.43 103.58 143.43 109.76 140.27 109.76 140.27 112.85 137.25 112.85 137.25 119.03 134.16 119.03 134.16 122.12 128.97 122.12 128.97 116.93 132.06 116.93 132.06 107.66 135.15 107.66 135.15 100.49 127.98 100.49 127.98 106.67 124.89 106.67 124.89 112.85 122.78 112.85 122.78 109.76 118.63 109.76 118.63 112.85 115.61 112.85 115.61 119.03 112.52 119.03 112.52 122.12 107.33 122.12 107.33 116.93 110.42 116.93 110.42 110.75 113.51 110.75 113.51 104.57 116.6 104.57 116.6 100.49 109.43 100.49 109.43 103.58 106.34 103.58 106.34 109.76 103.25 109.76 103.25 115.94 100.16 115.94 100.16 119.03 97.07 119.03 97.07 122.12 94.96 122.12 94.96 113.84 98.06 113.84 98.06 104.57 100.16 104.57 100.16 107.66 104.24 107.66 104.24 100.49 96.99 100.49 96.99 103.58 93.98 103.58 93.98 106.67 90.89 106.67 90.89 109.76 87.79 109.76 87.79 123.11 90.89 123.11 90.89 126.2 101.15 126.2 101.15 123.11 106.27 123.11 106.27 126.2 113.51 126.2 113.51 123.19 116.6 123.19 116.6 120.09 119.69 120.09 119.69 113.84 121.8 113.84 121.8 123.11 124.89 123.11 124.89 126.2 135.15 126.2 135.15 123.19 138.24 123.19 138.24 120.09 141.33 120.09 141.33 113.84 144.42 113.84 144.42 110.75 147.51 110.75 147.51 104.57 152.71 104.57 152.71 106.67 149.62 106.67 149.62 115.94 146.52 115.94 146.52 122.12 143.46 122.12 143.46 126.2 153.69 126.2 153.69 116.93 156.79 116.93 156.79 110.75 159.88 110.75 159.88 104.57 165.07 104.57 165.07 106.67 161.98 106.67 161.98 115.94 158.89 115.94 158.89 126.2 166.06 126.2 166.06 116.93 169.15 116.93 169.15 110.75 172.24 110.75 172.24 104.57 177.43 104.57 177.43 106.67 174.34 106.67 174.34 115.94 171.25 115.94 171.25 123.11 174.34 123.11 174.34 126.2 184.61 126.2 184.61 123.19 187.7 123.19 187.7 120.09 190.79 120.09 190.79 113.91 193.88 113.91 193.88 109.76 189.8 109.76"/><path class="cls-4" d="M65.44,146v-8.14h-2.96v-1.83h8.18v1.83h-2.97v8.14h-2.26Z"/><path class="cls-4" d="M75.98,146v-4.36c0-.84-.31-1.29-1.04-1.29-.81,0-1.34.57-1.34,1.61v4.03h-2.14v-9.97h2.14v3.67c.38-.63.98-1.06,2.03-1.06,1.65,0,2.49.84,2.49,2.59v4.78h-2.14Z"/><path class="cls-4" d="M79.07,142.39c0-2.23,1.32-3.75,3.7-3.75s3.7,1.54,3.7,3.7c0,.2-.01.35-.04.53h-5.21c.04,1.22.64,1.85,1.64,1.85.76,0,1.29-.39,1.48-1.04h1.98c-.31,1.5-1.44,2.47-3.46,2.47-2.42,0-3.78-1.5-3.78-3.75ZM81.22,141.49h3.11c-.15-.92-.69-1.43-1.55-1.43s-1.4.5-1.55,1.43Z"/><path class="cls-4" d="M95.12,146h-4.08v-9.97h4.08c3.32,0,5.06,1.83,5.06,4.99s-1.74,4.99-5.06,4.99ZM95.23,137.79h-1.93v6.44h1.93c1.79,0,2.69-1.08,2.69-3.22s-.9-3.22-2.69-3.22Z"/><path class="cls-4" d="M100.84,142.39c0-2.23,1.32-3.75,3.7-3.75s3.7,1.54,3.7,3.7c0,.2-.01.35-.04.53h-5.21c.04,1.22.64,1.85,1.64,1.85.76,0,1.29-.39,1.49-1.04h1.97c-.31,1.5-1.44,2.47-3.46,2.47-2.42,0-3.78-1.5-3.78-3.75ZM102.99,141.49h3.11c-.15-.92-.69-1.43-1.55-1.43s-1.4.5-1.55,1.43Z"/><path class="cls-4" d="M108.91,143.67h2.09c.08.7.42,1.08,1.37,1.08.9,0,1.26-.35,1.26-.8,0-.41-.34-.63-.91-.71l-1.15-.15c-1.82-.27-2.47-.87-2.47-2.13,0-1.33.98-2.33,3.24-2.33s3.24.99,3.24,2.35h-2.09c-.07-.53-.28-.97-1.18-.97-.77,0-1.06.31-1.06.76,0,.39.21.57.69.64l1.13.15c1.72.25,2.7.78,2.7,2.24,0,1.33-1.05,2.33-3.43,2.33s-3.43-.99-3.43-2.47Z"/><path class="cls-4" d="M116.58,136.78c0-.62.43-1.08,1.2-1.08s1.22.46,1.22,1.08-.43,1.08-1.22,1.08-1.2-.46-1.2-1.08ZM116.72,146v-7.23h2.14v7.23h-2.14Z"/><path class="cls-4" d="M119.81,142.18c0-2.13,1.25-3.54,3.19-3.54,1.18,0,1.82.52,2.2,1.26v-1.12h2.03v6.6c0,2.24-1.2,3.52-3.7,3.52-2.24,0-3.33-1.04-3.33-2.63h2.02c.11.83.56,1.25,1.43,1.25.92,0,1.44-.49,1.44-1.53v-1.34c-.39.69-1.05,1.09-2.09,1.09-1.95,0-3.19-1.41-3.19-3.54ZM125.09,142.18c0-1.36-.63-2.04-1.57-2.04s-1.57.69-1.57,2.04.63,2.05,1.57,2.05,1.57-.69,1.57-2.05Z"/><path class="cls-4" d="M132.99,146v-4.36c0-.84-.31-1.29-1.04-1.29-.81,0-1.34.57-1.34,1.61v4.03h-2.14v-7.23h2.03v1.09c.38-.7.99-1.23,2.14-1.23,1.65,0,2.49.84,2.49,2.59v4.78h-2.14Z"/><path class="cls-4" d="M136.08,142.39c0-2.23,1.32-3.75,3.7-3.75s3.7,1.54,3.7,3.7c0,.2-.01.35-.04.53h-5.21c.04,1.22.64,1.85,1.64,1.85.76,0,1.29-.39,1.48-1.04h1.98c-.31,1.5-1.44,2.47-3.46,2.47-2.42,0-3.78-1.5-3.78-3.75ZM138.22,141.49h3.11c-.15-.92-.69-1.43-1.55-1.43s-1.4.5-1.55,1.43Z"/><path class="cls-4" d="M148.95,146v-4.36c0-.84-.31-1.29-1.04-1.29-.81,0-1.34.57-1.34,1.61v4.03h-2.14v-7.23h2.03v1.09c.38-.7.99-1.23,2.14-1.23,1.65,0,2.49.84,2.49,2.59v4.78h-2.14Z"/><path class="cls-4" d="M152.18,136.78c0-.62.43-1.08,1.2-1.08s1.22.46,1.22,1.08-.43,1.08-1.22,1.08-1.2-.46-1.2-1.08ZM152.32,146v-7.23h2.14v7.23h-2.14Z"/><path class="cls-4" d="M160.22,146v-4.36c0-.84-.31-1.29-1.04-1.29-.81,0-1.34.57-1.34,1.61v4.03h-2.14v-7.23h2.03v1.09c.38-.7.99-1.23,2.14-1.23,1.65,0,2.49.84,2.49,2.59v4.78h-2.14Z"/><path class="cls-4" d="M163.31,142.18c0-2.13,1.25-3.54,3.19-3.54,1.18,0,1.82.52,2.2,1.26v-1.12h2.03v6.6c0,2.24-1.2,3.52-3.7,3.52-2.24,0-3.33-1.04-3.33-2.63h2.02c.11.83.56,1.25,1.43,1.25.92,0,1.44-.49,1.44-1.53v-1.34c-.39.69-1.05,1.09-2.09,1.09-1.95,0-3.19-1.41-3.19-3.54ZM168.59,142.18c0-1.36-.63-2.04-1.57-2.04s-1.57.69-1.57,2.04.63,2.05,1.57,2.05,1.57-.69,1.57-2.05Z"/><path class="cls-7" d="M88.72,261.37c-1.99,0-3.99-1.03-5.2-2.68-1.19-1.62-1.5-3.6-.87-5.58l9.16-29.18-24.92-17.73c-2.76-1.97-3.04-4.93-2.37-7.05.67-2.12,2.59-4.4,5.98-4.43l30.58-.31,9.16-29.18c1.03-3.27,3.79-4.43,6.04-4.43s4.93,1.13,6,4.31l9.74,28.99,30.58-.31c3.44,0,5.38,2.24,6.08,4.35.69,2.1.47,5.06-2.24,7.07l-24.56,18.22,9.74,28.99c.67,1.99.39,4-.8,5.65-1.21,1.69-3.21,2.73-5.23,2.73-1.29,0-2.52-.41-3.64-1.21l-24.92-17.73-24.56,18.22c-1.15.85-2.41,1.28-3.74,1.28Z"/><path class="cls-7" d="M116.28,162.8c.73,0,3.18.21,4.1,2.95l9.28,27.61.93,2.75,2.91-.03,29.13-.29h.05c2.89,0,3.87,2.28,4.1,2.97.23.7.8,3.1-1.53,4.83l-23.39,17.36-2.33,1.73.93,2.75,9.28,27.61c.59,1.75.04,3.06-.53,3.85-.84,1.17-2.22,1.9-3.6,1.9-.87,0-1.7-.28-2.49-.84l-23.73-16.88-2.37-1.68-2.33,1.73-23.39,17.36c-.8.59-1.65.89-2.55.89-1.37,0-2.74-.71-3.59-1.86-.57-.77-1.13-2.06-.58-3.8l8.72-27.79.87-2.77-2.37-1.68-23.73-16.88c-2.38-1.69-1.84-4.12-1.62-4.83.22-.7,1.17-3,4.09-3.03l29.13-.29,2.91-.03.87-2.77,8.72-27.79c.88-2.81,3.39-3.03,4.14-3.03M116.28,158.8c-3.37,0-6.73,1.95-7.95,5.84l-8.72,27.79-29.13.29c-8.07.08-11.32,10.44-4.75,15.12l23.73,16.88-8.72,27.79c-1.83,5.84,2.81,10.86,7.98,10.86,1.65,0,3.36-.51,4.93-1.68l23.39-17.36,23.73,16.88c1.54,1.1,3.2,1.58,4.8,1.58,5.24,0,9.89-5.17,7.92-11.02l-9.28-27.61,23.39-17.36c6.46-4.79,3.05-15.02-4.95-15.02-.03,0-.06,0-.09,0l-29.13.29-9.28-27.61c-1.27-3.79-4.58-5.68-7.89-5.68h0Z"/><path class="cls-2" d="M103.36,212.02h-2.45v3.61h-1.91v-9.97h4.36c2.21,0,3.59,1.13,3.59,3.18s-1.37,3.18-3.59,3.18ZM103.09,207.09h-2.18v3.5h2.18c1.26,0,1.95-.55,1.95-1.75s-.69-1.75-1.95-1.75Z"/><path class="cls-2" d="M107.98,215.64v-7.23h1.72v1.61c.38-1.27,1.01-1.71,2.02-1.71.2,0,.49.06.66.1v1.58h-.74c-1.11-.01-1.85.81-1.85,2.28v3.36h-1.81Z"/><path class="cls-2" d="M112.78,212.02c0-2.23,1.26-3.75,3.59-3.75s3.6,1.54,3.6,3.67c0,.15-.01.29-.03.46h-5.35c.06,1.47.76,2.14,1.86,2.14.9,0,1.49-.45,1.7-1.19h1.67c-.31,1.48-1.42,2.42-3.36,2.42-2.35,0-3.67-1.47-3.67-3.75ZM114.59,211.23h3.57c-.15-1.15-.8-1.72-1.79-1.72s-1.62.57-1.78,1.72Z"/><path class="cls-2" d="M120.72,213.36h1.75c.08.77.43,1.23,1.55,1.23s1.46-.45,1.46-.98c0-.49-.39-.74-1.01-.84l-1.25-.18c-1.67-.24-2.31-.8-2.31-2.03s.88-2.28,3.08-2.28,3.1.99,3.1,2.31h-1.75c-.07-.6-.29-1.12-1.36-1.12-.91,0-1.26.38-1.26.95,0,.48.28.69.8.76l1.23.18c1.6.22,2.54.76,2.54,2.14,0,1.29-.95,2.28-3.29,2.28s-3.28-.99-3.28-2.42Z"/><path class="cls-2" d="M128.04,213.36h1.75c.08.77.43,1.23,1.55,1.23s1.46-.45,1.46-.98c0-.49-.39-.74-1.01-.84l-1.25-.18c-1.67-.24-2.31-.8-2.31-2.03s.88-2.28,3.08-2.28,3.1.99,3.1,2.31h-1.75c-.07-.6-.29-1.12-1.36-1.12-.91,0-1.26.38-1.26.95,0,.48.28.69.8.76l1.23.18c1.6.22,2.54.76,2.54,2.14,0,1.29-.95,2.28-3.29,2.28s-3.28-.99-3.28-2.42Z"/><path d="M116.17,172.36c-2.58,0-4.67-2.1-4.67-4.67s2.1-4.67,4.67-4.67,4.67,2.1,4.67,4.67-2.1,4.67-4.67,4.67Z"/><path class="cls-4" d="M116.17,165.01c1.47,0,2.67,1.2,2.67,2.67s-1.2,2.67-2.67,2.67-2.67-1.2-2.67-2.67,1.2-2.67,2.67-2.67M116.17,161.01c-3.69,0-6.67,2.99-6.67,6.67s2.99,6.67,6.67,6.67,6.67-2.99,6.67-6.67-2.99-6.67-6.67-6.67h0Z"/><path class="cls-7" d="M119.63,167.56c0-1.73-1.29-3.16-2.95-3.4v-.47h1.39v-1h-3.9v1h1.51v.47c-1.67.24-2.95,1.67-2.95,3.4s1.29,3.16,2.95,3.4v.5h-1.51v1h3.9v-1h-1.39v-.5c1.67-.24,2.95-1.67,2.95-3.4ZM118.63,167.56c0,1.18-.84,2.17-1.95,2.4v-4.8c1.11.23,1.95,1.22,1.95,2.4ZM113.72,167.56c0-1.18.84-2.17,1.95-2.4v4.8c-1.11-.23-1.95-1.22-1.95-2.4Z"/><path d="M145.21,258.78c-2.58,0-4.67-2.1-4.67-4.67s2.1-4.67,4.67-4.67,4.67,2.1,4.67,4.67-2.1,4.67-4.67,4.67Z"/><path class="cls-4" d="M145.21,251.43c1.47,0,2.67,1.2,2.67,2.67s-1.2,2.67-2.67,2.67-2.67-1.2-2.67-2.67,1.2-2.67,2.67-2.67M145.21,247.43c-3.69,0-6.67,2.99-6.67,6.67s2.99,6.67,6.67,6.67,6.67-2.99,6.67-6.67-2.99-6.67-6.67-6.67h0Z"/><path class="cls-5" d="M146.15,249.69c-.16-.4-.54-.69-1-.69s-.85.3-1.01.71c-2.08.48-3.64,2.33-3.64,4.56,0,2.58,2.1,4.68,4.68,4.68s4.69-2.1,4.69-4.68c0-2.25-1.6-4.14-3.72-4.58ZM145.19,258.07c-2.09,0-3.8-1.7-3.8-3.8,0-1.76,1.21-3.23,2.84-3.66.19.32.52.55.92.55s.75-.24.94-.57c1.66.41,2.9,1.9,2.9,3.68,0,2.09-1.7,3.8-3.8,3.8Z"/><circle class="cls-5" cx="145.21" cy="254.11" r="1.99"/><path d="M161.71,204.8c-2.58,0-4.67-2.1-4.67-4.67s2.1-4.67,4.67-4.67,4.67,2.1,4.67,4.67-2.1,4.67-4.67,4.67Z"/><path class="cls-4" d="M161.71,197.45c1.47,0,2.67,1.2,2.67,2.67s-1.2,2.67-2.67,2.67-2.67-1.2-2.67-2.67,1.2-2.67,2.67-2.67M161.71,193.45c-3.69,0-6.67,2.99-6.67,6.67s2.99,6.67,6.67,6.67,6.67-2.99,6.67-6.67-2.99-6.67-6.67-6.67h0Z"/><path class="cls-8" d="M165.95,196.59c-7.28-.32-6.8,4.79-6.59,5.99l-1.46.95,1.15.48.58-1.03c3.36,2.31,5.56-1.91,4.65-3.13s1.68-3.26,1.68-3.26Z"/><path d="M89.16,258.95c-2.58,0-4.67-2.1-4.67-4.67s2.1-4.67,4.67-4.67,4.67,2.1,4.67,4.67-2.1,4.67-4.67,4.67Z"/><path class="cls-4" d="M89.16,251.6c1.47,0,2.67,1.2,2.67,2.67s-1.2,2.67-2.67,2.67-2.67-1.2-2.67-2.67,1.2-2.67,2.67-2.67M89.16,247.6c-3.69,0-6.67,2.99-6.67,6.67s2.99,6.67,6.67,6.67,6.67-2.99,6.67-6.67-2.99-6.67-6.67-6.67h0Z"/><path class="cls-6" d="M89.16,251.41c-.41-.63-4.64-2.48-4.66.36v5.91s1.2-2.48,4.65-.2h0s0,0,0,0c0,0,0,0,0,0h0c3.45-2.29,4.65.19,4.65.19v-5.91c-.02-2.84-4.26-.98-4.66-.35Z"/><polygon class="cls-3" points="203.36 18.18 188.8 6.33 163.45 20.27 144.04 6.33 134.33 17.48 116.67 2.61 99 17.48 89.29 6.33 69.88 20.27 44.53 6.33 29.97 18.18 4.08 7.02 19.05 38.57 116.53 38.75 116.53 38.75 116.67 38.75 116.8 38.75 116.8 38.75 214.28 38.57 214.28 38.57 229.25 7.02 203.36 18.18"/><line class="cls-1" x1="45.34" y1="14.86" x2="48.98" y2="33.33"/><line class="cls-1" x1="89.02" y1="13.94" x2="90.64" y2="33.36"/><line class="cls-1" x1="116.93" y1="10.5" x2="116.93" y2="32.95"/><line class="cls-1" x1="144.44" y1="14.55" x2="141.61" y2="33.56"/><line class="cls-1" x1="187.72" y1="13.33" x2="181.25" y2="32.75"/><line class="cls-1" x1="163.05" y1="26.88" x2="161.63" y2="30.93"/><line class="cls-1" x1="32.6" y1="25.27" x2="34.22" y2="31.13"/><line class="cls-1" x1="70.82" y1="26.68" x2="71.63" y2="31.54"/><line class="cls-1" x1="202.49" y1="25.67" x2="199.45" y2="32.95"/><polygon class="cls-3" points="29.97 328.17 44.53 340.03 69.88 326.08 89.29 340.03 99 328.87 116.67 343.74 134.33 328.87 144.04 340.03 163.45 326.08 188.8 340.03 203.36 328.17 229.25 339.33 214.28 307.78 116.8 307.6 116.8 307.6 116.67 307.6 116.53 307.6 116.53 307.6 19.05 307.78 19.05 307.78 4.08 339.33 29.97 328.17"/><line class="cls-1" x1="187.99" y1="331.49" x2="184.35" y2="313.02"/><line class="cls-1" x1="144.31" y1="332.41" x2="142.69" y2="313"/><line class="cls-1" x1="116.4" y1="335.85" x2="116.4" y2="313.4"/><line class="cls-1" x1="88.89" y1="331.81" x2="91.72" y2="312.79"/><line class="cls-1" x1="45.61" y1="333.02" x2="52.08" y2="313.6"/><line class="cls-1" x1="70.28" y1="319.47" x2="71.7" y2="315.42"/><line class="cls-1" x1="200.73" y1="321.09" x2="199.11" y2="315.22"/><line class="cls-1" x1="162.51" y1="319.67" x2="161.7" y2="314.82"/><line class="cls-1" x1="30.85" y1="320.68" x2="33.88" y2="313.4"/></g></svg>